<svg viewBox="0 0 24 24" xmlns="http://www.w3.org/2000/svg"><path d="m15.820437 14.001015-1.162534-1.907266-2.273715-2.1275752-2.6581766-1.9990035c-1.2664306-.6176996-1.4651812.132617-1.7920502.3137598-.027658.015503-1.5478406 1.4641524-3.043057 2.2132029-.9085283.454489-2.3098746.999549-2.3232846 1.004445-.029334.01142-.057831.02448-.087165.03917-.4643216.24234-.9599185.937266-1.0437311 1.479063-.099118.644499.864179 2.446081 1.2144989 3.345354.1295674.332596 6.0802553-5.254488 6.7090231-3.940006 1.8663065.705211-5.3781308 4.621542-5.4793743 5.412874.6267511.534338.025856.0249.6086093.515425.6922919.851045.4545778.501109 1.1963191 1.231392 1.0710488-.424437 6.9180914-6.022931 7.2032854-4.199431 1.035963.839779-5.666985 5.126473-5.7499595 5.517317 1.0426284.669903 2.434387.989268 3.4988065.989268 1.376202 0 2.735642-.59157 3.82772-1.667004 1.937747-1.908527 2.491633-3.969834 2.505043-4.097123.02514-.243972-.527491-1.112593-.706011-1.286392z" stroke-width=".826968"/><path d="m22.420664 2.165035c-.392-.389-1.026-.384-1.414.008l-3.843 3.885c-1.424-1.238-4.153-2.885-7.5769988-.007-.215.181-.344.442-.355.723-.012.28 3.5141598 2.154078 3.7231228 2.3404693l2.316091 2.0659047c.19841.176978 2.264785 4.206627 2.529785 4.206627h.043c.28-.012.542-.141.723-.355 2.864-3.405 1.246-6.126001.01-7.557001l3.852-3.894c.389-.393.385-1.026-.008-1.414z"/></svg>