<svg clip-rule="evenodd" fill-rule="evenodd" height="2048" image-rendering="optimizeQuality" shape-rendering="geometricPrecision" text-rendering="geometricPrecision" viewBox="0 0 2048 2048" width="2048" xmlns="http://www.w3.org/2000/svg"><path d="m0 0h2048v2048h-2048z" fill="none"/><path d="m87.25 611.2605h82.087448v892.82898h-82.087448z" stroke-width=".568446"/><path d="m236.19318 758.95111h866.16052v600.99158h-866.16052z" stroke-width="1.51496"/><path d="m1362.5925 758.12317h203.16624v600.84137h-203.16624z" stroke-width=".733624"/><path d="m87.248306 611.43683h1024.4435v85.122589h-1024.4435z" stroke-width=".62006"/><path d="m917.55438 359.38852h610.18457v85.122589h-610.18457z" stroke-width=".478542"/><path d="m916.36346 1618.0974h610.18457v85.122589h-610.18457z" stroke-width=".478542"/><path d="m87.277161 1418.9902h1024.4435v85.122589h-1024.4435z" stroke-width=".62006"/><path d="m1816.3279 613.24561h82.087448v892.82898h-82.087448z" stroke-width=".568446"/><path d="m1194.8612 430.29568h82.087448v1206.1714h-82.087448z" stroke-width=".660708"/><g stroke-width=".441443"><path d="m1361.6683 613.46094h536.68848v82.355583h-536.68848z"/><path d="m1361.4937 1423.62h536.68848v82.355583h-536.68848z"/></g></svg>