<svg clip-rule="evenodd" fill-rule="evenodd" height="2048" image-rendering="optimizeQuality" shape-rendering="geometricPrecision" text-rendering="geometricPrecision" viewBox="0 0 2048 2048" width="2048" xmlns="http://www.w3.org/2000/svg"><g fill-rule="nonzero"><path d="m405 407c100-100 231-150 362-150s262 50 362 150 150 231 150 362-50 262-150 362-231 150-362 150-262-50-362-150-150-231-150-362 50-262 150-362zm362-86c-115 0-229 44-317 131-87 87-131 202-131 317s44 229 131 317c87 87 202 131 317 131s229-44 317-131c87-87 131-202 131-317s-44-229-131-317c-87-87-202-131-317-131z"/><path d="m1161 1066 444 444-92 90-444-444z" stroke-width="2"/></g><path d="m0 0h2048v2048h-2048z" fill="none"/></svg>