<?xml version="1.0" encoding="UTF-8" standalone="no"?>
<svg
   width="1024"
   height="1224"
   viewBox="0 0 1024 1224"
   version="1.1"
   id="svg1"
   sodipodi:docname="krokiet_logo_flag_name_vertical.svg"
   inkscape:version="1.4.3 (0d15f75042, 2025-12-25)"
   inkscape:export-filename="krokiet_logo_flag_name_vertical.png"
   inkscape:export-xdpi="96"
   inkscape:export-ydpi="96"
   xmlns:inkscape="http://www.inkscape.org/namespaces/inkscape"
   xmlns:sodipodi="http://sodipodi.sourceforge.net/DTD/sodipodi-0.dtd"
   xmlns:xlink="http://www.w3.org/1999/xlink"
   xmlns="http://www.w3.org/2000/svg"
   xmlns:svg="http://www.w3.org/2000/svg">
  <defs
     id="defs1">
    <clipPath
       clipPathUnits="userSpaceOnUse"
       id="clipPath24">
      <rect
         style="fill:none;stroke:#000000;stroke-width:0.999999;stroke-linecap:butt;stroke-linejoin:bevel;paint-order:stroke markers fill;stop-color:#000000"
         id="rect24"
         width="44.999748"
         height="77.937294"
         x="251.53429"
         y="222.73541" />
    </clipPath>
    <linearGradient
       id="swatch21"
       inkscape:swatch="solid">
      <stop
         style="stop-color:#ffffff;stop-opacity:1;"
         offset="0"
         id="stop21" />
    </linearGradient>
    <clipPath
       clipPathUnits="userSpaceOnUse"
       id="clipPath16">
      <rect
         style="fill:none;stroke:#000000;stroke-linecap:butt;stroke-linejoin:bevel;paint-order:stroke markers fill;stop-color:#000000"
         id="rect15"
         width="45.034248"
         height="38.955639"
         x="262.48285"
         y="121.00073" />
    </clipPath>
    <clipPath
       clipPathUnits="userSpaceOnUse"
       id="clipPath15">
      <rect
         style="fill:none;stroke:#000000;stroke-linecap:butt;stroke-linejoin:bevel;paint-order:stroke markers fill;stop-color:#000000"
         id="rect15-7"
         width="45.034248"
         height="38.955639"
         x="262.48285"
         y="121.00073" />
    </clipPath>
    <linearGradient
       inkscape:collect="always"
       xlink:href="#linearGradient6"
       id="linearGradient7"
       x1="6096.8652"
       y1="640.51953"
       x2="-1111.5651"
       y2="617.91211"
       gradientUnits="userSpaceOnUse"
       gradientTransform="matrix(0.29297642,0,0,0.29297642,-186.67566,931.09725)" />
    <linearGradient
       id="linearGradient6"
       inkscape:collect="always">
      <stop
         style="stop-color:#0900ff;stop-opacity:1;"
         offset="0"
         id="stop6" />
      <stop
         style="stop-color:#00ea1b;stop-opacity:1;"
         offset="1"
         id="stop7" />
    </linearGradient>
  </defs>
  <sodipodi:namedview
     id="namedview1"
     pagecolor="#505050"
     bordercolor="#eeeeee"
     borderopacity="1"
     inkscape:showpageshadow="0"
     inkscape:pageopacity="0"
     inkscape:pagecheckerboard="0"
     inkscape:deskcolor="#505050"
     inkscape:zoom="0.70710678"
     inkscape:cx="630.03214"
     inkscape:cy="656.9022"
     inkscape:window-width="2560"
     inkscape:window-height="1371"
     inkscape:window-x="0"
     inkscape:window-y="0"
     inkscape:window-maximized="1"
     inkscape:current-layer="svg1"
     showguides="false" />
  <text
     xml:space="preserve"
     style="font-size:400px;font-family:Carlito;-inkscape-font-specification:Carlito;writing-mode:lr-tb;direction:ltr;fill:#ffffff;fill-opacity:1;stroke:#000000;stroke-width:7.067;stroke-opacity:1"
     x="709.33563"
     y="995.06439"
     id="text2"><tspan
       sodipodi:role="line"
       id="tspan2"
       x="709.33563"
       y="995.06439" /></text>
  <text
     xml:space="preserve"
     style="font-style:normal;font-variant:normal;font-weight:normal;font-stretch:normal;font-size:195.318px;line-height:12.8;font-family:'Arial Black';-inkscape-font-specification:'Arial Black, ';letter-spacing:0px;writing-mode:lr-tb;direction:ltr;fill:#000000;stroke:url(#linearGradient7);stroke-width:8.78929;stroke-dasharray:none;stroke-opacity:1"
     x="112.34189"
     y="1181.7904"
     id="text3"><tspan
       sodipodi:role="line"
       id="tspan3"
       x="112.34189"
       y="1181.7904"
       style="font-style:normal;font-variant:normal;font-weight:bold;font-stretch:normal;font-size:195.318px;line-height:12.8;font-family:Sans;-inkscape-font-specification:'Sans Bold';letter-spacing:0px;fill:#ffffff;fill-opacity:1;stroke:url(#linearGradient7);stroke-width:8.78929;stroke-dasharray:none;stroke-opacity:1">Krokiet</tspan></text>
  <rect
     style="fill:#000000;stroke:none;stroke-width:28.8553"
     id="rect1-22"
     width="110.22682"
     height="65.909706"
     x="445.125"
     y="935" />
  <rect
     style="fill:#ffffff;stroke:none;stroke-width:18.6643"
     id="rect1"
     width="103.35182"
     height="29.409706"
     x="448.53772"
     y="938.94122" />
  <rect
     style="fill:#ff0000;stroke:none;stroke-width:18.6643"
     id="rect1-2"
     width="103.35182"
     height="29.409706"
     x="448.53528"
     y="968.34515" />
  <rect
     style="fill:#000000;stroke:none;stroke-width:28.8553"
     id="rect1-22-5"
     width="110.22682"
     height="65.909706"
     x="561.375"
     y="935.125" />
  <rect
     style="fill:#003ba8;fill-opacity:1;stroke:none;stroke-width:18.6643"
     id="rect1-4"
     width="103.35182"
     height="29.409706"
     x="564.78772"
     y="939.06622" />
  <rect
     style="fill:#feda0c;fill-opacity:1;stroke:none;stroke-width:18.6643"
     id="rect1-2-8"
     width="103.35182"
     height="29.409706"
     x="564.78528"
     y="968.47015" />
  <path
     d="m 344.40295,28.081739 c 0.22689,5.96103 0.78092,23.61137 1.22943,39.22197 0.51974,18.10275 1.36529,29.13045 2.33354,30.44321 0.83632,1.13101 4.92299,2.938011 9.08219,4.015421 10.7443,2.78112 19.69987,0.16606 27.2545,-7.957621 2.96409,-3.18645 5.38865,-6.78739 5.38865,-8.00208 0,-1.21339 -2.64749,-6.37552 -5.882,-11.46965 -3.23582,-5.09414 -12.60558,-19.84961 -20.82375,-32.78893 -8.21686,-12.93931 -15.85328,-23.70028 -16.96796,-23.91341 -1.71881,-0.32819 -1.9655,1.26438 -1.6146,10.45109 m 25.06844,76.277881 c -1.93253,0.70084 -3.64843,1.63912 -4.07716,2.7466 -1.16874,3.01908 4.09591,13.97096 6.31071,13.1289 0.9999,-0.38048 4.30272,-1.68912 7.60319,-2.17944 l 6.216,-1.32521 -0.71364,-3.74167 c -1.47875,-9.88885 -2.43123,-13.022841 -11.70602,-9.65464 m 77.92623,5.59868 c -21.5809,2.17311 -70.76198,10.37525 -82.59851,13.77613 -2.79524,0.80152 -2.89681,0.30335 13.05672,63.96959 7.20773,28.76172 14.96024,59.9424 17.22782,69.29123 2.26889,9.34883 11.21918,45.53473 19.89117,80.41307 17.6697,71.06817 25.5344,92.25488 31.6604,117.69941 6.6445,27.60194 10.4317,41.75334 11.4408,42.7536 0.93,0.92181 17.1249,-0.84335 18.2845,-1.99267 0.55,-0.54394 -4.6104,-21.83052 -41.2901,-170.34498 l -0.5592,-7.51565 -14.3982,3.13473 c -8.9859,1.9116 -9.3336,-8.92101 -8.3614,-9.88597 1.0461,-1.03557 35.1237,-8.99355 56.7521,-12.58402 34.7062,-5.76098 48.1231,-7.11428 78.4881,-7.91188 46.6259,-1.22383 67.7465,1.23038 133.8915,15.56091 35.8433,7.76542 37.5015,8.00078 56.0629,7.97594 16.687,-0.0222 21.3145,-0.53608 36.2761,-4.03765 43.4877,-10.1752 64.1637,-14.64826 74.4027,-16.09831 15.7689,-2.23195 41.1146,-0.85643 57.1803,3.10277 7.0732,1.74293 12.8615,2.73012 12.8615,2.19272 0,-2.49083 -11.7587,-18.01514 -19.3318,-25.52167 -10.5267,-10.43408 -20.6312,-17.56797 -40.2242,-28.39694 -22.8473,-12.62811 -30.0629,-17.75363 -34.3897,-24.42595 -3.3453,-5.1569 -3.7977,-6.94167 -3.3677,-13.27535 0.7347,-10.82766 6.3701,-20.8041 18.8253,-33.32632 5.8041,-5.8355 12.5278,-12.07235 14.9404,-13.85982 l 4.3874,-3.25051 -3.7278,-2.4647 c -5.4941,-3.63246 -19.0588,-3.85982 -41.0566,-0.68645 -20.453,2.94979 -42.2292,3.48326 -55.4416,1.35722 -4.5906,-0.73745 -19.7276,-4.88756 -33.6378,-9.2207 -57.6551,-17.95892 -112.8791,-29.13307 -171.0553,-34.61424 -25.752,-2.42547 -89.3261,-3.51203 -106.1898,-1.81354 M 135.5481,247.49257 c 1.09618,4.72802 -0.26119,2.02536 23.63877,47.07106 22.32097,42.07108 24.55356,46.66132 25.46642,46.60381 0.36276,-0.0222 2.83914,-5.11736 7.90195,-10.09513 l 11.27961,-7.50369 -1.09565,-1.37689 c -1.43521,-1.77169 -7.35941,-8.91735 -13.16358,-15.87994 -5.80416,-6.96391 -13.69123,-16.51149 -17.52592,-21.21598 -10.86962,-13.33549 -27.24132,-31.90896 -32.57192,-36.94949 l -4.83855,-4.57635 0.90887,3.9226 m 154.45275,61.12701 c -0.43662,1.61871 -0.80335,4.96208 -0.81258,7.432 -0.0277,6.71285 -4.67102,15.01959 -10.55566,18.87941 -6.06535,3.97883 -7.84882,9.87447 -5.42031,17.90925 3.468,11.47487 19.49277,16.56508 31.71712,10.07582 16.85582,-8.94743 15.69895,-34.40503 -2.31904,-51.02766 -7.40028,-6.82661 -11.36955,-7.85563 -12.60953,-3.26882 m -68.10658,10.82503 c -9.3922,3.02172 -10.70472,3.96314 -25.89185,18.57086 -8.79989,8.46233 -17.85176,17.82423 -20.11671,20.8041 -5.11558,6.73116 -5.61552,6.4945 18.91894,8.93957 17.38347,1.73118 20.4755,2.48693 44.97304,10.9911 36.9224,12.81641 91.84429,30.42099 92.59224,29.67832 2.31507,-2.29342 -6.92015,-35.41184 -11.516,-41.29702 -2.16995,-2.7785 -2.90736,-3.02563 -4.91637,-1.64748 -8.88698,6.09307 -13.07916,7.47122 -22.81037,7.50128 -16.68565,0.051 -24.40914,-6.40689 -29.67642,-24.81298 -1.23471,-4.31485 -4.73173,-11.37552 -7.77099,-15.69037 -8.15748,-11.57818 -7.98073,-11.11399 -4.22517,-11.11399 2.49843,0 4.71193,1.81092 8.84739,7.24109 l 5.51659,7.2411 2.92056,-4.95292 c 1.60669,-2.72358 3.29913,-6.52196 3.75951,-8.4401 0.79412,-3.30937 0.49599,-3.56041 -5.82131,-4.90325 -3.6619,-0.77928 -13.01055,-1.38858 -20.77363,-1.35458 -11.24952,0.0484 -16.12502,0.70737 -24.00945,3.24527 m -39.26253,60.24575 c -0.71892,1.36244 -2.25044,5.71391 -3.40599,9.66918 -4.39402,15.04575 -19.41229,34.23113 -28.12118,35.92438 -12.12938,2.3601 -16.66058,4.03765 -26.16622,9.69141 -5.80416,3.45319 -15.81635,9.16055 -22.24974,12.68566 -6.433381,3.52378 -13.162251,8.13283 -14.953631,10.24319 -3.08412,3.63361 -3.23318,4.56065 -2.8137,17.48428 l 0.44323,13.64668 5.13932,4.40116 c 2.82689,2.42023 7.27895,4.76986 9.893471,5.21966 2.61451,0.45109 6.83175,2.19011 9.37108,3.86374 6.45714,4.25732 11.05033,5.08498 17.81349,3.20868 5.53244,-1.53503 6.0469,-1.44221 9.94096,1.8057 4.91508,4.10041 8.96744,4.34362 13.49864,0.81066 4.35839,-3.39826 4.68687,-3.34858 9.70351,1.47098 l 4.25287,4.08602 12.98627,-0.47022 c 9.07522,-4.35215 13.38713,-8.74935 16.96981,-11.90816 5.12348,-4.51881 14.72278,-12.74972 21.33161,-18.29102 12.7164,-10.66292 23.5082,-22.94715 31.41505,-35.76224 l 4.79502,-7.77067 -0.8693,-22.88176 c -0.56459,-14.88492 -1.41279,-23.39041 -2.42852,-24.33707 -0.85875,-0.79888 -9.70482,-4.18669 -19.65897,-7.52744 -15.17787,-5.09413 -20.3172,-6.20815 -31.83979,-6.90767 -12.6267,-0.7649 -13.84821,-0.63154 -15.04729,1.64487 m 20.66942,11.44741 c -1.70036,0.84075 -3.96531,3.07009 -5.03248,4.95424 -1.73466,3.06355 -1.70431,3.78399 0.28889,6.80046 3.28331,4.966 6.11548,6.03163 11.43683,4.30309 8.47673,-2.75628 8.66932,-13.34596 0.29549,-16.23952 -2.78731,-0.96364 -4.77655,-0.91135 -6.98873,0.18173 m 55.15802,1.64097 c -0.24799,0.2445 -0.004,4.58811 0.54216,9.65217 0.74267,6.88938 0.51446,10.33995 -0.90888,13.716 -1.04607,2.48038 -1.90086,5.6603 -1.90086,7.06588 0,3.59048 6.31334,10.61976 11.44739,12.74581 3.88615,1.60957 4.18823,2.11426 3.04982,5.08236 -1.9312,5.03399 -10.00821,17.10511 -18.03908,26.95603 -7.12593,8.74346 -16.10391,16.722 -41.96937,37.29861 -7.2552,5.77272 -13.85349,11.32058 -14.66079,12.32868 -0.80862,1.00943 -1.81117,6.24738 -2.22933,11.64094 l -0.76113,9.80648 3.34794,-3.92259 3.34795,-3.9226 -0.80995,5.8839 c -1.53942,11.17806 -2.45489,29.84566 -1.57504,32.11685 0.8271,2.13781 0.98408,2.14172 2.51822,0.0628 1.331,-1.80309 1.63176,1.15061 1.61329,15.81719 -0.0132,9.9176 0.43927,19.6757 1.00386,21.68276 1.1582,4.11088 3.56692,3.59048 3.63157,-0.78452 0.0409,-2.80073 0.0857,-2.80726 1.97869,-0.32688 2.53271,3.31982 2.45621,11.14408 -0.20183,20.53605 -1.64232,5.80153 -1.92197,10.14645 -1.20173,18.71861 0.5171,6.13885 1.48798,11.16238 2.16073,11.16238 0.67144,0 2.21218,-2.05936 3.42313,-4.57636 3.43765,-7.14434 4.21066,-5.42886 2.20955,4.90324 -1.59087,8.21259 -1.56977,11.51934 0.15302,24.73847 1.09355,8.39302 1.98925,17.68041 1.98925,20.63936 0,5.07714 0.1583,5.2968 2.79655,3.89774 1.53678,-0.8159 3.09071,-2.60198 3.45083,-3.96836 0.36144,-1.36766 1.2611,-2.48562 2.00244,-2.48562 0.85611,0 1.06981,3.20477 0.5857,8.82583 -0.45907,5.34127 0.0185,13.47148 1.20964,20.59361 1.08431,6.47226 2.28208,13.78659 2.66332,16.25388 0.51182,3.32114 1.00122,3.99976 1.88635,2.61507 0.75586,-1.18331 1.20173,3.44796 1.21491,12.60067 0.0132,9.32922 0.7651,16.99789 2.11853,21.57424 2.41268,8.16814 4.4969,11.14799 4.4969,6.43043 0,-6.35852 3.74633,0.35826 5.84507,10.47853 1.11861,5.39357 4.08005,13.93044 6.58244,18.97096 4.55231,9.16579 13.02639,20.24187 14.44446,18.87681 0.4142,-0.39881 0.23743,-3.92913 -0.3918,-7.84518 -0.6279,-3.91605 -0.85478,-7.59021 -0.50257,-8.16553 1.09751,-1.7887 4.36235,1.87108 4.36235,4.89017 0,9.36061 3.9455,15.89695 26.01321,43.08703 27.67531,34.10298 27.87318,34.37625 28.92847,39.95157 1.6344,8.63362 -4.42567,56.98083 -8.21552,65.54254 -2.69498,6.09047 -3.56723,22.25214 3.14188,22.01027 9.29443,0.77689 17.92223,2.03932 24.78357,-0.38702 1.92798,-0.74866 1.30907,-7.66405 2.5042,-18.97157 0.69386,-6.56774 1.94438,-10.20004 5.22242,-15.17258 6.00863,-9.1161 6.48352,-10.13075 11.67693,-24.92675 2.54065,-7.23718 7.08239,-16.93513 10.09263,-21.5507 4.01412,-6.15717 5.26201,-9.22331 4.68292,-11.51019 -0.43399,-1.71417 -1.09752,-4.96076 -1.47345,-7.21495 -0.61606,-3.69115 -0.52108,-3.8376 0.96295,-1.48142 0.90624,1.43827 4.50745,6.029 8.00315,10.20134 l 6.35556,7.58629 v 16.2709 c 0,13.1095 -1.09261,35.06141 -2.50333,51.21455 -2.28971,12.8183 -4.57015,16.3179 1.79816,16.13983 11.09538,-0.31025 10.41148,0.50439 21.40611,0.39718 10.32466,0.0118 7.05616,-44.11535 10.22736,-48.34914 6.1379,-8.19298 10.4897,-19.82607 11.9236,-31.87233 0.4696,-3.94743 1.9523,-8.94874 3.2938,-11.114 3.3823,-5.45764 4.46,-12.46862 2.8203,-18.3538 -0.8442,-3.03086 -0.8838,-4.47699 -0.1015,-3.70163 0.7057,0.69955 2.042,3.8716 2.9706,7.05022 1.5698,5.37393 2.137,5.90349 8.1021,7.57451 8.0045,2.23979 74.735,16.56314 73.7869,-22.28236 -9.6811,-44.96072 -41.8218,-172.6141 -43.5208,-180.81362 -1.0448,-5.03399 -2.2016,-9.99869 -2.5723,-11.03163 -0.3799,-1.05779 -3.9679,4.69403 -8.2063,13.15506 -4.1434,8.26881 -10.6757,19.22461 -14.517,24.3462 l -6.9848,9.31222 -6.866,-2.00837 c -3.7767,-1.10355 -11.615,-4.26384 -17.4191,-7.02141 -42.62634,-20.25102 -71.35168,-55.10586 -89.59917,-108.71588 -6.53365,-19.19584 -11.14137,-40.98451 -9.09408,-43.01382 0.69518,-0.68905 6.86211,-2.7445 13.70311,-4.56589 6.841,-1.82138 15.9997,-4.40767 20.35282,-5.7479 4.35313,-1.34021 18.00611,-5.18696 30.33994,-8.54732 12.33386,-3.36165 28.06448,-7.78112 34.95688,-9.82216 6.8925,-2.04236 14.9062,-4.32531 17.8083,-5.07451 l 5.2765,-1.36115 v -9.88101 -9.87969 l -5.2765,-1.29314 c -13.3588,-3.27537 -13.1913,-3.193 -13.1913,-6.53503 0,-4.17103 -9.379,-9.0978 -17.3202,-9.0978 -6.7737,0 -9.72195,-1.01987 -9.72195,-3.36166 0,-4.7071 -12.84304,-9.70709 -33.30271,-12.96546 -2.71741,-0.4328 -6.57585,-2.21365 -8.57433,-3.95659 l -3.63288,-3.16945 3.6276,-0.0405 c 1.99453,-0.0236 3.62759,-0.28767 3.62759,-0.58709 0,-0.29942 -3.74631,-4.11087 -8.32632,-8.46886 -9.05714,-8.62055 -14.09884,-17.0332 -14.09884,-23.52378 0,-5.88518 -4.76074,-18.5473 -8.25247,-21.95212 -1.88768,-1.841 -10.71,-5.24971 -24.35637,-9.41291 -27.43128,-8.36687 -27.53286,-8.37995 -26.97618,-3.67414 l 0.43663,3.6833 -3.97981,-2.03843 c -2.92582,-1.50105 -4.08798,-3.12109 -4.3927,-6.12578 -0.37727,-3.71731 -1.15555,-4.35146 -8.61917,-7.02275 -4.51274,-1.61478 -8.40813,-2.73535 -8.65481,-2.48952 m 8.33702,24.28604 c -1.47875,1.57296 -2.6897,3.55387 -2.6897,4.39985 0,3.09099 5.49021,8.42833 8.67063,8.42833 3.87823,0 8.47803,-4.25601 8.47803,-7.84517 0,-3.60487 -4.60639,-7.84518 -8.52288,-7.84518 -1.78611,0 -4.45734,1.28792 -5.93608,2.86217 m 197.4761,83.05429 c -6.1023,1.58735 -7.7525,2.59284 -8.3909,5.11768 -1.0488,4.14094 1.5381,7.03059 6.2948,7.03059 h 3.8361 l -2.8058,3.76176 c -3.6487,4.89016 -2.9457,8.53686 1.7491,9.07295 3.9178,0.44848 4.8188,2.48038 1.6371,3.68985 -5.142,1.95606 1.4207,10.93357 7.9912,10.93357 1.6608,0 4.7542,1.44743 6.8753,3.21652 3.6791,3.06877 3.8941,3.8389 4.6566,16.671 1.0342,17.42937 4.7449,31.38725 12.4327,46.77557 10.4197,20.85686 26.6979,34.60615 46.1169,40.1108 2.8001,0.79372 6.0563,1.25957 8.9788,1.70706 11.7858,1.80463 24.1104,0.92247 37.2209,-3.18297 25.5185,-7.99032 44.3451,-28.42701 52.0713,-56.52713 3.7397,-13.60092 3.9864,-44.21019 0.4828,-59.88485 -2.8388,-12.69743 -4.1368,-15.36348 -7.0693,-14.52404 -1.2254,0.35172 -4.6617,1.26175 -7.6364,2.02274 l -5.4071,1.38205 2.4272,14.05857 c 4.6288,26.79258 2.381,49.90971 -6.4228,66.07863 -5.1486,9.45474 -16.7925,20.80019 -26.1557,25.48506 -21.8843,10.94925 -45.3028,8.29105 -62.4488,-7.08812 -19.6339,-17.61112 -29.129,-45.64325 -31.3821,-92.64502 -0.649,-13.53163 -1.1384,-16.11269 -3.5511,-18.75651 -6.3978,-7.01097 -16.3743,-8.43881 -31.5008,-4.50576 m 6.9373,3.29237 c 0,2.38363 2.3388,4.35931 3.6369,3.07139 0.4524,-0.44849 -0.1808,-1.80963 -1.4076,-3.02563 -2.0552,-2.03843 -2.2293,-2.04236 -2.2293,-0.0458 m 34.8422,24.07162 c 2.7081,41.59776 10.4844,65.11106 27.0025,81.64347 11.5872,11.59778 19.6616,14.75939 35.7708,14.01017 13.9577,-0.64984 23.3816,-4.61296 33.4768,-14.07685 13.5053,-12.66082 19.659,-29.54757 19.5456,-53.64404 -0.059,-12.75887 -2.757,-29.59462 -5.4177,-33.82448 -0.9471,-1.50628 -3.6843,-1.52588 -17.1764,-0.12682 -22.226,2.30517 -50.5252,1.01072 -72.1919,-3.30152 -9.3157,-1.85408 -18.0615,-3.71208 -19.436,-4.12787 -2.3837,-0.72176 -2.4562,-0.102 -1.5737,13.44794 m 151.9741,1.35198 -7.7539,0.57008 0.8007,5.79368 c 1.984,14.3462 2.3745,30.92308 0.9907,42.075 -4.27,34.40502 -22.0282,60.75433 -49.7365,74.11467 0,0 -20.8722,7.68624 -32.6271,7.93724 -28.7693,0.61425 -59.4347,-12.74743 -65.8292,-26.79746 l 39.5129,172.35238 4.3646,18.29114 c 14.3231,66.35058 12.223,59.5632 19.961,64.48605 10.4409,6.64094 20.6866,10.26541 29.1184,10.2994 l 7.556,0.0314 -3.9138,-6.11663 c -2.1515,-3.36427 -3.6435,-6.38467 -3.3124,-6.71155 0.3298,-0.32689 2.7201,1.24999 5.3095,3.50418 9.9436,8.65323 25.7731,14.51097 39.2876,14.53842 l 7.6325,0.0157 -3.3453,-4.8797 c -4.9533,-7.22541 -4.1605,-8.79705 2.1488,-4.26777 6.1314,4.40375 20.1167,9.14747 26.963,9.14747 4.2516,0 5.8873,-1.59781 3.2741,-3.19822 -1.4022,-0.85904 -3.3506,-11.02771 -2.3111,-12.05804 0.3865,-0.3844 1.36,1.71679 2.162,4.6692 0.8021,2.95108 5.7277,11.61478 10.9462,19.25206 9.1983,13.46102 9.4898,14.13048 9.5122,21.89589 0.019,6.53373 -0.8838,9.93985 -4.8927,18.47148 -2.7028,5.75313 -2.2175,42.39908 -2.4167,43.3248 -0.4327,2.01752 24.5781,2.28966 26.2059,0.67617 0.5857,-0.58053 0.7084,-25.60926 1.149,-28.42306 1.1331,-7.24764 4.4085,-13.10015 12.3576,-22.08027 8.8355,-9.97906 10.5675,-14.20499 10.1586,-24.77899 -0.2507,-6.50103 0.1899,-9.00757 1.8731,-10.6812 2.0565,-2.04237 2.4879,-2.00838 6.5957,0.52562 6.192,3.8193 16.5141,14.59334 18.171,18.96703 2.5037,6.60825 1.6053,19.14224 -2.079,29.00755 -5.1947,13.91211 -6.3898,20.39093 -4.9718,26.95734 1.3561,6.27745 -1.323,11.0587 9.7319,11.05458 4.2633,-0.002 8.0341,-0.72157 14.4939,-0.5846 9.7105,0.99161 7.1431,-1.11331 9.3948,-11.93049 2.6014,-12.49737 5.233,-21.07346 12.0344,-39.22589 8.6443,-23.06745 8.9398,-25.45237 4.1645,-33.50677 -3.5392,-5.96887 -3.7832,-7.30254 -3.836,-21.04076 -0.055,-14.02326 0.046,-14.57504 2.3085,-12.54574 2.2544,2.02273 2.3652,1.66186 2.3652,-7.6922 0,-10.14774 1.6621,-17.29993 4.7897,-20.61715 1.5698,-1.66447 1.8059,-1.56379 1.8059,0.76231 0,5.63675 1.9457,4.17232 4.9402,-3.71731 1.7122,-4.5136 4.3346,-11.4422 5.8279,-15.39747 1.5315,-4.05857 3.088,-12.31693 3.5748,-18.95918 l 0.8614,-11.76778 2.5103,4.57636 2.5116,4.57636 1.9668,-4.57636 c 1.083,-2.51699 2.2439,-9.70971 2.5789,-15.98193 0.5356,-10.00915 0.1662,-12.67259 -3.0195,-21.74553 -2.9297,-8.33943 -3.4508,-11.52981 -2.6989,-16.50102 l 0.9326,-6.16371 2.3296,4.30702 c 2.6277,4.85484 9.259,8.76436 16.7978,9.90321 l 5.0773,0.76622 -4.2159,-4.42337 c -5.8504,-6.13885 -10.4884,-17.02012 -12.198,-28.61268 -1.1476,-7.78634 -1.0329,-12.88701 0.5593,-24.75938 2.6805,-20.00259 2.5618,-23.98139 -1.3442,-45.26144 -1.8428,-10.03006 -3.8822,-26.68276 -4.5338,-37.00442 -0.6517,-10.32293 -1.492,-19.07162 -1.8653,-19.44164 -0.3746,-0.37134 -1.641,0.2772 -2.8163,1.4422 -3.1884,3.16161 -4.9863,2.6582 -12.285,-3.44011 -5.6472,-4.71888 -6.2857,-5.69037 -4.2331,-6.4435 3.4957,-1.28269 6.9373,-6.54942 5.3253,-8.14722 -0.7189,-0.71261 -1.3073,-3.45973 -1.3073,-6.10486 0,-5.58054 -2.3889,-8.06485 -7.9477,-8.25967 -4.5497,-0.15952 -4.7542,-0.52694 -1.6159,-2.91056 3.5524,-2.69874 -0.1043,-4.3737 -9.5993,-4.39853 -7.4624,-0.0183 -8.5177,-0.42887 -17.1487,-6.67363 -11.6875,-8.45449 -17.15,-10.80804 -32.9545,-14.20239 -14.455,-3.10407 -20.6773,-5.76098 -19.6576,-8.39434 0.4775,-1.233 -0.8443,-2.00837 -4.332,-2.54706 -6.6669,-1.02772 -62.2866,-2.04628 -72.1352,-1.32062 M 446.1462,545.1648 c -58.57195,16.24343 -107.7464,30.33861 -108.58932,31.12706 -2.88758,2.69873 8.80385,38.96306 19.15109,59.40107 7.74329,15.29548 11.09255,20.58313 20.79606,32.82422 14.18326,17.89354 26.27967,27.46467 48.80377,38.61527 l 13.7994,6.83055 3.7213,-4.41684 c 5.0747,-6.02248 17.117,-30.85771 21.1918,-43.70157 5.0588,-15.94664 6.5494,-25.81324 6.6101,-43.74471 0.074,-21.76515 -3.3374,-41.04467 -11.975,-67.66467 -3.8136,-11.75338 -4.0273,-11.89983 -13.5092,-9.27038 m -51.44734,27.90398 c -4.29507,4.5319 -3.92045,9.67705 1.66607,22.88047 3.79382,8.96704 4.35048,11.31144 2.88228,12.13518 -1.00121,0.56224 -6.72886,1.99661 -12.72827,3.19039 -7.52034,1.49451 -11.83389,3.08706 -13.89437,5.12943 -3.49568,3.46495 -3.94814,9.78686 -0.91679,12.79157 3.98245,3.94742 8.38305,3.8742 21.42132,-0.35697 6.92939,-2.24894 12.70453,-3.95004 12.83248,-3.78006 0.12796,0.17128 2.41401,7.95893 5.07996,17.30777 2.66596,9.34883 6.53626,22.58757 8.59936,29.4194 l 3.7529,12.42155 5.2146,0.39095 c 3.5722,0.26804 6.1656,-0.37395 8.2406,-2.03844 l 3.0274,-2.42939 -8.606,-29.34228 c -4.7331,-16.13883 -8.1668,-29.80644 -7.6312,-30.37391 0.5369,-0.56616 6.2646,-1.96915 12.7309,-3.11714 13.6095,-2.41633 17.6908,-5.10853 17.6908,-11.67495 0,-5.17389 -5.0469,-9.6731 -10.8524,-9.6731 -2.1462,0 -8.3303,1.55858 -13.7427,3.46234 -5.882,2.06982 -10.3195,2.9864 -11.0345,2.27773 -0.6583,-0.65248 -2.1396,-6.7704 -3.2939,-13.5957 -1.7016,-10.06668 -2.72265,-12.96679 -5.40575,-15.35302 -4.53648,-4.03635 -11.03055,-3.89513 -15.03279,0.32818 m 231.17854,24.51488 c 0.831,2.47385 4.9467,2.82557 4.9467,0.42233 0,-1.21207 -1.1278,-2.05674 -2.7477,-2.05674 -1.612,0 -2.5222,0.67599 -2.199,1.63441 m -139.1997,39.13698 c -0.8587,28.18119 -2.8717,15.72435 16.8677,104.36441 5.3649,24.09125 12.1835,54.98163 15.1502,68.64532 11.6927,53.82968 16.5973,75.0692 17.5536,76.01846 0.4156,0.41057 4.3531,0.33343 8.7511,-0.17258 9.6785,-1.11403 9.4753,0.15821 3.9772,-24.86922 -2.2095,-10.05883 -6.6352,-30.35039 -9.8367,-45.09278 -3.2003,-14.74239 -7.9056,-36.21857 -10.4554,-47.72483 -12.7283,-57.42279 -15.8388,-71.65525 -21.8963,-100.21432 -3.6078,-17.00443 -6.5587,-32.70917 -6.5587,-34.89927 0,-2.19142 -0.6529,-4.38415 -1.451,-4.87317 -0.7981,-0.48901 -3.6764,-4.30176 -6.3965,-8.47409 l -4.9467,-7.58499 -0.7585,24.87706"
     stroke="none"
     fill="#000000"
     fill-rule="evenodd"
     id="path1"
     sodipodi:nodetypes="cccccscccccscccccccccccscccccccssccssscccsscsccccccccccccccccccccccccccccccccscsccccccccccccccccccccscccccccccccccccccccccsccccccccccccccccccscccsccsccccccsscsccscscccccccsccccscsccccssccccccccccsssscccccccsssscccscscccccccccsssscccsccccscccsscsccccccccccccccccccscccscccccccscccccccccscscssccccccsccccccccscsccccscsccccccccccccccccccssccssssccccscccccccccccscccccssccscccccccssscsccccssccscccscccssccc"
     style="fill:#ffffff;stroke:#000000;stroke-width:25.4;stroke-linecap:round;stroke-linejoin:round;stroke-dasharray:none;stroke-opacity:1;paint-order:stroke markers fill" />
  <rect
     style="fill:#000000;fill-opacity:1;stroke:none;stroke-width:25.4;stroke-linecap:round;stroke-linejoin:round;stroke-dasharray:none;stroke-opacity:1;paint-order:stroke markers fill"
     id="rect36"
     width="4.6331611"
     height="3.5632064"
     x="408.20532"
     y="610.82684" />
  <path
     d="m 632.1293,135.921 c -9.1641,3.37118 -105.3518,47.29351 -122.1385,55.77345 -7.9482,4.01503 -13.1657,8.99382 -16.4629,15.71219 -2.5048,5.10276 -2.7776,6.69737 -2.7776,16.20906 0,10.14854 0.1399,10.83137 3.6879,17.99563 5.9079,11.9291 14.6954,18.89841 28.2448,22.40256 7.7294,1.99852 28.6915,6.5822 37.1872,4.56969 4.0336,-0.95476 22.8994,-7.11707 33.2515,-12.68272 27.2757,-14.66543 86.8876,-49.34801 89.7932,-52.24331 5.4203,-5.39968 7.5795,-11.26327 7.5815,-20.584 0.01,-18.37654 -12.1696,-37.52588 -29.3309,-46.1388 -7.9482,-3.98803 -19.8211,-4.40292 -29.0362,-1.01375 m -0.4995,10.06855 c -4.3963,1.85355 -15.8615,6.96232 -25.4782,11.35225 -67.4773,30.80352 -63.7115,29.04395 -64.344,30.0667 -0.2997,0.48488 2.346,1.6646 5.878,2.62136 16.333,4.42392 31.7948,14.74542 41.9971,28.03519 6.5763,8.56692 8.4757,12.92887 8.4757,19.46328 0,2.76732 0.1679,5.03077 0.3737,5.03077 0.2058,0 7.5125,-4.13099 16.2361,-9.17977 8.7245,-5.04977 26.2016,-15.12432 38.8387,-22.39056 21.143,-12.15505 23.1632,-13.5567 25.3144,-17.56274 5.4124,-10.08255 0.2817,-28.63904 -11.0546,-39.98228 -11.1174,-11.12431 -22.149,-13.39375 -36.2369,-7.4542 m -112.9034,51.63947 c -8.3089,2.69634 -14.6475,7.62714 -17.4611,13.5807 -4.63,9.80062 -2.1032,25.22287 5.6102,34.23968 4.0206,4.70085 13.5015,9.65765 21.2288,11.10131 6.6504,1.24169 19.5162,2.8327 20.799,2.26555 10.1143,-4.47154 -3.1794,-6.50622 -8.269,-7.75592 -18.0845,-6.59372 -23.5351,-5.90327 -33.0464,-16.43232 -2.1681,-4.15698 -1.6985,-13.08382 0.9542,-18.15558 6.4784,-12.38399 21.9172,-14.93538 39.1675,-6.47143 20.4784,10.04756 32.634,32.98699 21.9392,41.40394 -3.6809,2.8973 -3.0424,3.49116 3.0784,2.85831 6.3295,-0.65384 13.5584,-4.42793 16.1961,-8.45794 5.1776,-7.90709 -2.1641,-21.88369 -18.2194,-34.68558 -16.8746,-13.45473 -36.4418,-18.5335 -51.9775,-13.49072 m 4.9957,16.73193 c -7.8753,2.77732 -11.2834,11.86612 -6.1607,16.43101 3.3781,3.01127 37.1122,13.83663 42.1299,13.51972 3.7238,-0.23594 4.0176,-0.47588 4.3113,-3.52815 0.9082,-9.4437 -18.7939,-25.46282 -32.7869,-26.65752 -3.0224,-0.25794 -6.3945,-0.15296 -7.4936,0.23494"
     style="fill:#000000;fill-rule:evenodd;stroke:none;stroke-width:0.999451"
     id="path1-5" />
  <path
     style="fill:#fed580;fill-opacity:1;fill-rule:nonzero;stroke:none;stroke-width:5.50646;stroke-linecap:round;stroke-linejoin:round;stroke-dasharray:none;stroke-opacity:1;paint-order:stroke markers fill"
     d="m 644.3411,142.84523 c -6.8016,0.0111 -12.9967,3.29126 -19.1327,5.83261 -24.3175,10.86211 -48.5084,22.008 -72.7167,33.11127 -3.53,1.74766 -7.2676,3.15651 -10.5904,5.28232 -0.6977,0.74361 0.7203,1.22765 1.2201,1.45239 4.9641,1.93157 10.2188,3.09375 15.0535,5.35954 15.3573,6.7109 28.7762,18.18591 37.1405,32.76725 2.4557,4.32556 2.9147,9.39913 2.8658,14.28841 0.012,0.68049 0.076,2.2309 1.0902,1.32784 19.2119,-10.82501 38.2697,-21.92765 57.3816,-32.93033 6.4227,-3.85871 13.1799,-7.26189 19.0826,-11.91676 4.3135,-3.39607 5.5186,-9.26584 5.3819,-14.48828 -0.4054,-10.15088 -4.7579,-19.97927 -11.3833,-27.59933 -5.1826,-5.65795 -11.5782,-10.76167 -19.3034,-12.20044 -2.0068,-0.3634 -4.0602,-0.28457 -6.0897,-0.28649 z"
     id="path37" />
  <path
     style="fill:#ffe680;fill-opacity:1;fill-rule:nonzero;stroke:none;stroke-width:2.75324;stroke-linecap:round;stroke-linejoin:round;stroke-dasharray:none;stroke-opacity:1;paint-order:stroke markers fill"
     d="m 530.8382,195.60672 c -7.275,0.006 -14.6011,1.98595 -20.7532,5.90526 -4.5105,2.88088 -8.3886,7.07239 -9.9852,12.26861 -1.3883,4.45044 -1.4985,9.21622 -0.9618,13.818 0.9264,6.50624 3.384,12.92447 7.6648,17.96915 3.0433,3.41703 7.0881,5.74857 11.1658,7.71747 4.0053,1.90227 8.2797,3.23316 12.6742,3.84666 5.1693,0.80534 10.359,1.55935 15.5823,1.8956 1.22,0.004 2.547,0.23764 3.6247,-0.49535 1.1014,-0.61517 2.5278,-1.24574 2.8519,-2.59125 0.093,-1.1937 -1.1826,-1.85669 -2.0951,-2.30279 -3.7943,-1.65393 -7.9937,-1.99555 -11.8668,-3.41845 -5.9735,-2.13776 -12.1007,-3.83015 -18.0121,-6.14135 -4.3238,-1.74525 -8.2425,-4.46199 -11.4108,-7.88314 -0.8762,-0.93642 -1.9507,-1.81225 -2.1848,-3.15092 -0.9098,-2.82774 -0.7512,-5.85614 -0.5898,-8.77172 0.4131,-4.01862 1.7787,-8.02549 4.3706,-11.1865 3.1393,-4.07501 7.9908,-6.59617 12.9925,-7.46938 2.744,-0.52673 5.5683,-0.36352 8.3494,-0.2087 7.4828,0.90467 14.6307,3.84762 20.9482,7.8999 6.4022,4.20439 12.0197,9.73813 16.0185,16.28448 2.012,3.39381 3.6381,7.12432 4.1202,11.05668 0.027,2.0225 0.2542,4.13041 -0.5479,6.05454 -0.5972,1.78384 -1.7185,3.30176 -3.1604,4.50448 -0.7908,0.8185 -1.9556,1.41763 -2.3461,2.54073 -0.054,0.75754 0.9473,0.85659 1.5037,0.84217 5.9645,0.17945 11.9557,-1.73918 16.7851,-5.2265 2.4881,-1.79795 4.6365,-4.4033 4.9774,-7.55335 0.6045,-4.47846 -1.0961,-8.87945 -3.2728,-12.70625 -4.0468,-6.91909 -9.8205,-12.65517 -15.9936,-17.68814 -9.9343,-8.02986 -21.8497,-14.03747 -34.6412,-15.53564 -1.9267,-0.2434 -3.868,-0.28562 -5.8077,-0.2743 z"
     id="path38" />
  <path
     style="fill:#ffd980;fill-opacity:1;fill-rule:nonzero;stroke:none;stroke-width:2.75324;stroke-linecap:round;stroke-linejoin:round;stroke-dasharray:none;stroke-opacity:1;paint-order:stroke markers fill"
     d="m 527.2386,213.84691 c -1.8348,0.0193 -3.735,0.19986 -5.343,1.16771 -3.4364,1.74212 -6.174,5.05892 -6.7959,8.90908 -0.1866,1.67132 -0.1137,3.44801 0.7901,4.92038 0.6693,1.30811 1.7263,2.41877 3.101,2.98221 4.5843,2.27369 9.4636,3.87098 14.2824,5.56155 7.581,2.52299 15.2194,4.93617 23.0314,6.64139 2.0288,0.51953 4.1753,0.52843 6.2128,0.0559 1.292,-0.38728 1.5027,-1.91833 1.6131,-3.06332 0.3093,-3.30148 -1.4248,-6.34697 -3.2522,-8.95377 -3.8788,-5.25086 -9.1003,-9.37398 -14.6676,-12.70722 -4.5051,-2.60464 -9.4164,-4.75019 -14.6284,-5.34122 -1.443,-0.13674 -2.8944,-0.19223 -4.3437,-0.17266 z"
     id="path39" />
  <path
     style="fill:#fedf94;fill-opacity:1;fill-rule:nonzero;stroke:none;stroke-width:7.78733;stroke-linecap:round;stroke-linejoin:round;stroke-dasharray:none;stroke-opacity:1;paint-order:stroke markers fill"
     d="m 530.2237,195.66303 c -9.61,-0.0973 -19.4553,3.67454 -25.9898,10.8309 -5.9272,6.56689 -6.3045,16.26436 -4.4812,24.51022 1.727,8.02578 6.2263,15.77556 13.5597,19.84308 6.7302,4.17466 14.4962,6.23016 22.3068,7.09937 4.5397,0.474 9.1707,1.54587 13.7306,0.81249 1.4243,-0.60222 4.0451,-1.81779 3.1171,-3.75897 -2.1452,-2.40605 -5.7528,-2.46011 -8.6257,-3.4709 -8.4359,-2.51606 -16.9175,-5.07558 -25.0557,-8.46709 -4.4214,-2.26146 -8.5844,-5.45214 -11.3591,-9.57835 -1.2638,-3.3045 -0.6728,-7.01013 -0.5857,-10.44595 0.8964,-8.1075 7.3506,-15.08456 15.3001,-16.90369 5.1184,-1.33909 10.5666,-0.65627 15.6817,0.43283 10.2297,2.78113 19.5393,8.62652 26.4954,16.63321 5.007,5.68799 9.3851,12.91028 8.8385,20.75532 0.1353,3.68074 -2.6992,6.26753 -5.0717,8.66555 -0.7795,0.54959 -1.1544,2.09651 0.2046,2.07255 6.6881,0.1772 13.5603,-2.1023 18.687,-6.43377 3.6058,-3.02588 4.5774,-8.21825 3.1219,-12.57179 -3.2607,-10.3892 -11.3884,-18.32174 -19.6395,-24.99333 -9.8054,-7.71273 -21.5046,-13.52787 -34.0128,-14.86825 -2.07,-0.15183 -4.1472,-0.18912 -6.2222,-0.16343 z"
     id="path40" />
  <rect
     style="fill:#000000;stroke-width:29.9836"
     id="rect2"
     width="17.328342"
     height="15.063221"
     x="404.36987"
     y="606.40833" />
</svg>
