<?xml version="1.0" encoding="UTF-8" standalone="no"?>
<svg
   clip-rule="evenodd"
   fill-rule="evenodd"
   height="2048"
   image-rendering="optimizeQuality"
   shape-rendering="geometricPrecision"
   text-rendering="geometricPrecision"
   viewBox="0 0 2048 2048"
   width="2048"
   version="1.1"
   id="svg7"
   sodipodi:docname="czk_search.svg"
   inkscape:version="1.3.1 (9b9bdc1480, 2023-11-25, custom)"
   xmlns:inkscape="http://www.inkscape.org/namespaces/inkscape"
   xmlns:sodipodi="http://sodipodi.sourceforge.net/DTD/sodipodi-0.dtd"
   xmlns="http://www.w3.org/2000/svg"
   xmlns:svg="http://www.w3.org/2000/svg">
  <defs
     id="defs7" />
  <sodipodi:namedview
     id="namedview7"
     pagecolor="#ffffff"
     bordercolor="#666666"
     borderopacity="1.0"
     inkscape:showpageshadow="2"
     inkscape:pageopacity="0.0"
     inkscape:pagecheckerboard="0"
     inkscape:deskcolor="#d1d1d1"
     inkscape:zoom="0.53171115"
     inkscape:cx="684.58222"
     inkscape:cy="1544.0714"
     inkscape:window-width="1920"
     inkscape:window-height="1011"
     inkscape:window-x="0"
     inkscape:window-y="32"
     inkscape:window-maximized="1"
     inkscape:current-layer="g6" />
  <g
     fill-rule="nonzero"
     id="g6">
    <path
       d="m405 407c100-100 231-150 362-150s262 50 362 150 150 231 150 362-50 262-150 362c-100 100-231 150-362 150s-262-50-362-150c-100-100-150-231-150-362s50-262 150-362zm362-86c-115 0-229 44-317 131-87 87-131 202-131 317s44 229 131 317c87 87 202 131 317 131s229-44 317-131c87-87 131-202 131-317s-44-229-131-317c-87-87-202-131-317-131z"
       fill="#01579b"
       id="path1"
       style="fill:#000000" />
    <path
       d="m 1161,1066 444,444 -92,90 -444,-444 z"
       fill="#01579b"
       id="path3"
       style="stroke-width:2;fill:#000000" />
  </g>
  <path
     d="m0 0h2048v2048h-2048z"
     fill="none"
     id="path7" />
</svg>
