<?xml version="1.0" encoding="UTF-8" standalone="no"?>
<svg
   width="1024"
   height="920"
   viewBox="0 0 1024 920"
   version="1.1"
   id="svg1"
   sodipodi:docname="2f4acbd8-7319-4049-b611-bdb1553b1e69.svg"
   inkscape:version="1.4.3 (0d15f75042, 2025-12-25)"
   xmlns:inkscape="http://www.inkscape.org/namespaces/inkscape"
   xmlns:sodipodi="http://sodipodi.sourceforge.net/DTD/sodipodi-0.dtd"
   xmlns="http://www.w3.org/2000/svg"
   xmlns:svg="http://www.w3.org/2000/svg">
  <defs
     id="defs1" />
  <sodipodi:namedview
     id="namedview1"
     pagecolor="#505050"
     bordercolor="#eeeeee"
     borderopacity="1"
     inkscape:showpageshadow="0"
     inkscape:pageopacity="0"
     inkscape:pagecheckerboard="0"
     inkscape:deskcolor="#505050"
     inkscape:zoom="0.61825808"
     inkscape:cx="-105.94281"
     inkscape:cy="867.76059"
     inkscape:window-width="2880"
     inkscape:window-height="1551"
     inkscape:window-x="0"
     inkscape:window-y="0"
     inkscape:window-maximized="1"
     inkscape:current-layer="svg1" />
  <path
     d="M 52.069591,36.903692 C 40.832002,44.029038 33.654641,52.201519 27.118739,65.321866 l -9.177995,18.418411 0.02075,334.780333 c 0.01043,219.92875 1.248242,339.21499 3.606019,347.69956 5.360474,19.30259 23.74768,41.07041 43.119612,51.03902 l 17.208317,8.85897 228.538128,0.93969 228.54159,0.93959 -9.67037,-13.07524 c -5.31882,-7.19123 -14.41707,-18.14801 -20.21789,-24.34408 L 498.5393,779.30928 H 297.7675 96.995685 L 85.206789,767.5204 c -14.302707,-14.3027 -14.077328,-7.86037 -4.958271,-142.5069 3.744706,-55.30379 7.645447,-113.81484 8.671772,-130.02458 7.517155,-118.90487 12.55517,-190.5224 14.03919,-199.59291 0.97778,-5.99154 7.09415,-15.81793 14.02879,-22.5376 l 12.29166,-11.91372 365.60828,-0.91537 365.61177,-0.91191 13.00245,11.90678 13.00246,11.90679 1.73366,55.95564 1.73366,55.95564 24.27125,13.45322 24.27125,13.4532 -1.01939,-71.73196 c -0.55824,-39.45465 -2.53807,-76.34349 -4.40003,-81.97442 -1.85848,-5.63093 -4.31681,-30.59565 -5.46449,-55.47715 -1.15116,-24.8815 -4.00476,-49.91903 -6.3452,-55.64011 -6.75088,-16.49406 -21.31363,-31.54917 -38.18909,-39.4824 -15.33943,-7.21203 -18.98012,-7.32645 -230.5561,-7.32645 H 437.57337 L 421.05853,92.138135 C 411.97761,82.249328 396.74567,65.647793 387.21053,55.245827 377.6754,44.843861 364.85324,34.213055 358.71608,31.616033 349.92988,27.902532 317.86063,26.900469 207.70034,26.900469 H 67.842436 L 52.069591,36.903692 M 84.887795,72.135151 C 67.069223,79.014318 65.737771,86.139665 64.534611,181.22056 c -0.617177,48.61532 -0.03117,88.39243 1.300247,88.39243 1.331452,0 4.393098,-4.44857 6.799419,-9.88532 6.931182,-15.65843 27.880733,-34.31956 45.123733,-40.19668 13.41854,-4.56992 39.8638,-5.39515 172.98469,-5.39515 154.28542,0 157.14596,-0.12482 157.14596,-6.86183 0,-5.91178 -97.45254,-127.361649 -106.85939,-133.176353 C 335.60638,70.744761 93.29605,68.893208 84.887795,72.135151 M 505.7236,158.78698 c -15.96702,12.55865 -11.92413,32.7558 7.53448,37.65166 9.39991,2.36817 345.4805,3.04084 361.97801,0.72467 3.83832,-0.53744 3.15874,-16.15079 -1.113,-25.52643 -8.36319,-18.356 -5.88405,-18.10289 -188.96558,-19.16735 -168.53959,-0.98125 -170.23165,-0.92231 -179.43391,6.31745 m 214.34983,254.70947 c -124.30002,23.38709 -204.83205,123.88742 -198.38976,247.58759 3.3425,64.22174 22.50639,107.14376 68.30278,152.99563 33.44232,33.48393 61.66979,50.23455 105.97177,62.89025 39.47545,11.27571 103.30538,11.20294 140.2705,-0.15608 44.03499,-13.53294 71.42683,-30.0374 104.09941,-62.73417 48.83723,-48.86852 66.92617,-94.1205 67.25557,-168.26224 0.2254,-50.35245 -7.75979,-80.62911 -31.08794,-117.88895 -40.14119,-64.11771 -101.22153,-103.83589 -178.40758,-116.01313 -28.65742,-4.52138 -47.6098,-4.13651 -78.01475,1.5811 m 20.80394,50.78933 c -46.50719,4.35149 -85.11929,23.64715 -117.66011,58.79538 -33.84453,36.55598 -48.55291,75.22702 -48.00507,126.20359 0.40568,37.89089 9.11212,68.0982 28.04717,97.33465 26.73652,41.28883 68.7986,70.9241 115.29539,81.23594 28.86199,6.40062 90.05328,3.05471 115.80508,-6.3314 42.78329,-15.58905 83.4307,-50.97656 102.08836,-88.8709 35.25227,-71.6106 24.44809,-152.13222 -27.92234,-208.07399 C 865.49639,478.6197 808.14688,457.9926 740.87737,464.28578 m 6.93464,61.48256 -10.40197,2.21908 -0.96737,45.91082 -0.96739,45.91427 H 690.622 c -51.85033,0 -52.03063,0.11095 -52.03063,32.58936 0,15.41224 1.31758,19.88162 6.7058,22.76643 3.68924,1.97291 25.53336,3.58868 48.5425,3.58868 h 41.83672 v 40.9144 c 0,27.19773 1.39386,42.30823 4.16078,45.07518 5.42396,5.42392 45.19883,5.42392 50.6229,0 2.76693,-2.76695 4.16079,-17.87745 4.16079,-45.07518 v -40.9144 h 40.9456 c 51.30596,0 54.12836,-1.58109 53.38636,-29.86404 -0.73161,-27.78365 -3.11019,-29.08043 -53.38636,-29.08043 h -40.9456 v -44.91222 -44.91222 l -13.00246,-3.60949 c -14.08773,-3.9146 -17.9954,-3.98395 -33.80639,-0.61024"
     stroke="none"
     fill="#000000"
     fill-rule="evenodd"
     id="path1"
     sodipodi:nodetypes="cccccccccsccccsccccccccccccccccccsccscsccccsscsscccccsccccscccccsccsccsccccccccsscscsssscscsccccc"
     style="stroke-width:3.46732" />
</svg>
