<svg enable-background="new 0 0 256 256" viewBox="0 0 256 256" xmlns="http://www.w3.org/2000/svg"><text/><g stroke-width=".982537"><path d="m85.125244 170.311h70.233894v69.675865h-70.233894z"/><path d="m92.030647 178.2961h56.127159v54.372738h-56.127159z" fill="#fff"/><path d="m85.253555 86.387032h70.233894v69.675865h-70.233894z"/><path d="m92.158958 94.372124h56.127159v54.372738h-56.127159z" fill="#fff"/><path d="m85.123772 7.644278h70.233894v69.675865h-70.233894z"/><path d="m92.029175 15.62937h56.127159v54.372738h-56.127159z" fill="#fff"/></g><path d="m98.874735 121.61476s-.269061 2.23246.997252 8.42139c.447833 2.18874 1.118453 4.76034 2.106203 7.20311.47577 1.17662 1.03458 2.34693 1.69231 3.44119.64975 1.08099 1.41107 2.11299 2.30843 3.01103.89998.90064 1.9515 1.681 3.17782 2.23185 1.24908.56107 2.63222.86201 4.13134.83978 1.52758-.0227 3.09841-.37944 4.68969-1.04347 1.64654-.68709 3.3048-1.69836 4.96918-2.99727 3.67487-2.86794 7.38349-7.14241 11.05749-12.40605 4.83474-6.9266 9.35936-15.21698 13.05639-22.79186 0 0-3.59471-1.75445-3.59471-1.75445s-3.59471-1.75445-3.59471-1.75445c-3.64434 7.46695-7.77011 15.42553-12.05588 22.17108-3.25936 5.13005-6.27905 9.03089-9.03391 11.64969-1.22991 1.16916-2.34669 2.02491-3.3548 2.6267-.96357.5752-1.81685.912-2.57238 1.07729-.73399.16058-1.43593.17307-2.13328.0318-.69999-.14177-1.41803-.44352-2.15378-.93026-.7364-.48716-1.45747-1.13809-2.15459-1.93073-.70308-.79942-1.35929-1.71721-1.96657-2.70568-1.26523-2.05943-2.2792-4.36171-3.05689-6.40788-2.190364-5.763-2.514605-7.98285-2.514605-7.98285z"/></svg>