<?xml version="1.0" encoding="UTF-8" standalone="no"?>
<svg
   width="1024"
   height="1136"
   viewBox="0 0 1024 1136"
   version="1.1"
   id="svg1"
   sodipodi:docname="2f4acbd8-7319-4049-b611-bdb1553b1e69 (copy).svg"
   inkscape:version="1.4.3 (0d15f75042, 2025-12-25)"
   xmlns:inkscape="http://www.inkscape.org/namespaces/inkscape"
   xmlns:sodipodi="http://sodipodi.sourceforge.net/DTD/sodipodi-0.dtd"
   xmlns="http://www.w3.org/2000/svg"
   xmlns:svg="http://www.w3.org/2000/svg">
  <defs
     id="defs1" />
  <sodipodi:namedview
     id="namedview1"
     pagecolor="#505050"
     bordercolor="#eeeeee"
     borderopacity="1"
     inkscape:showpageshadow="0"
     inkscape:pageopacity="0"
     inkscape:pagecheckerboard="0"
     inkscape:deskcolor="#505050"
     inkscape:zoom="4.9460646"
     inkscape:cx="743.72259"
     inkscape:cy="794.67219"
     inkscape:window-width="2880"
     inkscape:window-height="1551"
     inkscape:window-x="0"
     inkscape:window-y="0"
     inkscape:window-maximized="1"
     inkscape:current-layer="svg1" />
  <path
     d="m 65.86096,91.03411 c -10.99541,6.97178 -18.01809,14.96814 -24.41314,27.80572 l -8.98021,18.02149 0.0204,431.03976 c 0.0107,297.57154 1.15009,435.12092 3.67418,444.20972 4.86159,17.5092 30.99817,43.4117 49.28428,48.8433 10.41527,3.0906 73.6533,4.1457 248.84027,4.1457 h 234.87635 l -6.58164,-10.395 c -3.61991,-5.7198 -12.24048,-17.1698 -19.1614,-25.4443 l -12.57974,-15.0497 H 315.71222 100.5842 l -6.91752,-7.4263 c -6.88696,-7.38918 -6.91751,-9.38738 -6.91751,-435.35513 V 143.49725 l 7.85048,-7.37891 7.85387,-7.37551 H 355.8297 609.20928 v 88.04132 c 0,49.82708 1.57754,95.39984 3.63685,104.99751 4.87856,22.74398 19.2089,41.67806 38.35672,50.67524 14.64245,6.88358 20.64057,7.33818 97.06562,7.33818 h 81.45969 v 100.03755 100.04092 l 23.6634,11.91481 c 13.01395,6.5545 24.46405,11.91819 25.44445,11.91819 0.9805,0 1.7811,-64.92414 1.7811,-144.27701 V 315.14914 L 830.57627,263.60879 C 803.05213,235.26023 751.68143,182.63086 716.41537,146.65574 L 652.29527,81.24646 H 366.79457 81.29389 l -15.43293,9.78765 m 590.84469,141.02351 c 0,84.44177 1.40114,93.30662 15.79932,99.8679 9.65874,4.40021 152.46336,5.32978 155.1333,1.01101 0.9364,-1.5165 -0.88204,-6.6529 -4.04053,-11.4161 -6.72413,-10.14047 -161.59624,-169.02941 -164.75136,-169.02941 -1.17723,0 -2.14073,35.80547 -2.14073,79.5666 m 69.47024,388.36087 c -56.52409,9.00735 -94.63314,28.57925 -135.70394,69.69078 -52.68703,52.7413 -71.98075,102.77539 -68.57796,177.84675 2.98548,65.891 21.21051,106.938 68.88329,155.14338 22.7847,23.0357 32.73519,30.2654 59.37048,43.1268 122.65261,59.2144 269.59955,12.634 327.06005,-103.67448 43.64229,-88.3398 30.24839,-191.86836 -34.0787,-263.41482 -29.3901,-32.68764 -77.9144,-61.93522 -121.38034,-73.15116 -24.65737,-6.3645 -72.93069,-9.17697 -95.57288,-5.56725 m -20.27757,57.47401 c -30.2518,8.69184 -55.11954,23.44623 -78.16545,46.37006 -37.8173,37.6205 -53.72858,76.2045 -53.81001,130.49616 -0.112,73.2632 36.45687,132.6337 101.44208,164.70388 27.74126,13.6892 50.22402,18.4964 86.51125,18.4964 36.2872,0 58.76997,-4.8072 86.51121,-18.4964 44.32771,-21.87548 77.86701,-59.80808 93.83591,-106.12718 11.4296,-33.1491 10.9954,-88.1024 -0.9432,-119.69426 -22.9271,-60.66982 -74.3555,-105.88637 -134.61825,-118.36096 -26.63184,-5.51298 -77.0391,-4.20683 -100.76354,2.6123 m 29.64792,58.67161 c -2.8871,2.88704 -4.20344,17.2717 -4.20344,45.93235 v 41.72896 h -42.16659 c -50.04762,0 -52.8533,1.4995 -52.77527,28.2298 0.0814,27.5105 0.22053,27.5886 50.70918,28.8642 l 44.23268,1.1195 v 40.026 c 0,46.7431 1.50292,49.3452 28.51139,49.3283 29.84127,-0.017 29.16276,1.106 29.15597,-48.2291 l -0.009,-43.3608 39.29652,1.0584 c 50.35633,1.3571 55.70983,-1.3367 55.70983,-28.0364 0,-27.5954 -2.5512,-28.9999 -52.72772,-28.9999 h -42.06824 l -0.94657,-44.95186 -0.74431,-41.5149 -23.9877,-4.41758 c -15.5856,-0.6412 -25.23415,0.4682 -27.98894,3.22303"
     stroke="none"
     fill="#000000"
     fill-rule="evenodd"
     id="path1"
     sodipodi:nodetypes="ccccccscccccccscccccsccsccccssccscccccccssccccccccccccccsccssccscscccsccccssccccc"
     style="stroke-width:3.3926" />
</svg>
