<?xml version="1.0" encoding="UTF-8" standalone="no"?>
<svg
   width="1024"
   height="1024"
   viewBox="0 0 1024 1024"
   version="1.1"
   id="svg1"
   sodipodi:docname="krokiet_logo_flag.svg"
   inkscape:version="1.4.3 (0d15f75042, 2025-12-25)"
   inkscape:export-filename="krokiet_logo_flag.png"
   inkscape:export-xdpi="96"
   inkscape:export-ydpi="96"
   xmlns:inkscape="http://www.inkscape.org/namespaces/inkscape"
   xmlns:sodipodi="http://sodipodi.sourceforge.net/DTD/sodipodi-0.dtd"
   xmlns="http://www.w3.org/2000/svg"
   xmlns:svg="http://www.w3.org/2000/svg">
  <defs
     id="defs1">
    <clipPath
       clipPathUnits="userSpaceOnUse"
       id="clipPath24">
      <rect
         style="fill:none;stroke:#000000;stroke-width:0.999999;stroke-linecap:butt;stroke-linejoin:bevel;paint-order:stroke markers fill;stop-color:#000000"
         id="rect24"
         width="44.999748"
         height="77.937294"
         x="251.53429"
         y="222.73541" />
    </clipPath>
    <linearGradient
       id="swatch21"
       inkscape:swatch="solid">
      <stop
         style="stop-color:#ffffff;stop-opacity:1;"
         offset="0"
         id="stop21" />
    </linearGradient>
    <clipPath
       clipPathUnits="userSpaceOnUse"
       id="clipPath16">
      <rect
         style="fill:none;stroke:#000000;stroke-linecap:butt;stroke-linejoin:bevel;paint-order:stroke markers fill;stop-color:#000000"
         id="rect15"
         width="45.034248"
         height="38.955639"
         x="262.48285"
         y="121.00073" />
    </clipPath>
    <clipPath
       clipPathUnits="userSpaceOnUse"
       id="clipPath15">
      <rect
         style="fill:none;stroke:#000000;stroke-linecap:butt;stroke-linejoin:bevel;paint-order:stroke markers fill;stop-color:#000000"
         id="rect15-7"
         width="45.034248"
         height="38.955639"
         x="262.48285"
         y="121.00073" />
    </clipPath>
  </defs>
  <sodipodi:namedview
     id="namedview1"
     pagecolor="#505050"
     bordercolor="#eeeeee"
     borderopacity="1"
     inkscape:showpageshadow="0"
     inkscape:pageopacity="0"
     inkscape:pagecheckerboard="0"
     inkscape:deskcolor="#505050"
     inkscape:zoom="22.627417"
     inkscape:cx="421.36935"
     inkscape:cy="617.4589"
     inkscape:window-width="2880"
     inkscape:window-height="1551"
     inkscape:window-x="0"
     inkscape:window-y="0"
     inkscape:window-maximized="1"
     inkscape:current-layer="svg1"
     showguides="false" />
  <rect
     style="fill:#000000;stroke:none;stroke-width:28.8553"
     id="rect1-22"
     width="110.22682"
     height="65.909706"
     x="445.125"
     y="935" />
  <path
     d="m 345.05321,28.869015 c 0.22708,5.962477 0.78158,23.617108 1.23048,39.231497 0.52018,18.107146 1.36646,29.137532 2.33553,30.450606 0.83704,1.131287 4.9272,2.938732 9.08997,4.016402 10.75349,2.7818 19.71672,0.1661 27.27782,-7.959559 2.96662,-3.187223 5.39326,-6.789035 5.39326,-8.004025 0,-1.213682 -2.64976,-6.377064 -5.88703,-11.472436 -3.23859,-5.095374 -12.61637,-19.854431 -20.84157,-32.796888 -8.22389,-12.942457 -15.86685,-23.706042 -16.98248,-23.91922 -1.72028,-0.328269 -1.96718,1.264688 -1.61598,10.453623 m 25.30668,75.754445 c -1.93418,0.70101 -3.86835,2.18149 -4.29744,3.28924 -1.16974,3.01981 4.09941,13.97435 6.31611,13.13209 1.00076,-0.38058 4.5232,-1.09336 7.82648,-1.5838 l 6.00454,-0.89195 -0.71426,-4.77233 c -1.48001,-9.89125 -2.7043,-13.67638 -11.98702,-10.30736 m 78.26392,6.25041 c -21.59941,2.17364 -70.82255,10.37777 -82.66921,13.77948 -2.79763,0.80171 -2.89929,0.30342 13.0679,63.98513 7.21389,28.76871 14.97304,59.95695 17.24256,69.30805 2.27083,9.35111 11.22878,45.54579 19.90815,80.43261 17.68484,71.08543 25.55628,92.27728 31.68755,117.72799 6.65014,27.60865 10.44059,41.76348 11.45059,42.76399 0.93078,0.92203 17.13958,-0.84356 18.30009,-1.99316 0.55054,-0.54407 -4.6143,-21.83582 -41.32537,-170.38635 l -0.55975,-7.51748 -14.41044,3.1355 c -8.99359,1.91206 -9.34159,-8.92318 -8.36855,-9.88837 1.04696,-1.03582 35.15366,-8.99574 56.80059,-12.58709 34.73596,-5.76237 48.1643,-7.116 78.55529,-7.91379 46.66581,-1.22414 67.80444,1.23068 134.00609,15.56469 35.87402,7.76731 37.53358,8.00272 56.11092,7.97787 16.70125,-0.0222 21.33271,-0.53621 36.30706,-4.03863 43.52492,-10.17767 64.21862,-14.65181 74.46646,-16.10222 15.78236,-2.23249 41.14977,-0.85664 57.22919,3.10353 7.07921,1.74335 12.8725,2.73078 12.8725,2.19325 0,-2.49144 -11.76878,-18.01952 -19.34837,-25.52787 -10.53565,-10.43661 -20.64882,-17.57224 -40.2586,-28.40383 -22.86685,-12.63118 -30.08865,-17.75795 -34.4191,-24.43189 -3.34816,-5.15815 -3.80102,-6.94336 -3.37061,-13.27857 0.73538,-10.83029 6.37552,-20.80916 18.84139,-33.33442 5.80913,-5.83692 12.53853,-12.07528 14.95322,-13.86318 l 4.39118,-3.25131 -3.73104,-2.46529 c -5.49879,-3.63334 -19.07508,-3.86076 -41.09168,-0.68662 -20.47058,2.9505 -42.26539,3.48411 -55.48908,1.35755 -4.5945,-0.73763 -19.74445,-4.88874 -33.66655,-9.22294 -57.70448,-17.96328 -112.97572,-29.14015 -171.20169,-34.62265 -25.77406,-2.42606 -89.40253,-3.51288 -106.28069,-1.81398 m -315.7526,138.59338 c 1.09713,4.72917 -0.26141,2.02586 23.659,47.0825 22.34008,42.0813 24.57458,46.67266 25.48821,46.61513 0.36307,-0.0222 2.84157,-5.11861 7.90872,-10.09758 l 11.28926,-7.50552 -1.09658,-1.37722 c -1.43644,-1.77212 -7.36572,-8.91952 -13.17485,-15.8838 -5.80912,-6.96559 -13.70294,-16.5155 -17.54092,-21.22113 -10.87892,-13.33873 -27.26463,-31.91671 -32.59979,-36.95846 l -4.8427,-4.57746 0.90965,3.92354 M 290.60455,309.475 c -0.437,1.61911 -0.80403,4.96329 -0.81327,7.43381 -0.0277,6.71448 -4.67503,15.02324 -10.5647,18.884 -6.07054,3.97979 -7.85553,9.87686 -5.42494,17.91359 3.47096,11.47766 19.50944,16.56911 31.74426,10.07827 16.87024,-8.9496 15.71238,-34.41338 -2.32102,-51.04005 -7.40663,-6.82827 -11.37929,-7.85755 -12.62033,-3.26962 m -68.16487,10.82767 c -9.40023,3.02244 -10.71388,3.96409 -25.914,18.57536 -8.80743,8.46439 -17.86704,17.82857 -20.13392,20.80915 -5.11996,6.7328 -5.62033,6.49608 18.93513,8.94175 17.39834,1.7316 20.49302,2.48753 45.01152,10.99377 36.95399,12.81952 91.92289,30.42837 92.67148,29.68552 2.31705,-2.29397 -6.92607,-35.42043 -11.52585,-41.30705 -2.17182,-2.77917 -2.90985,-3.02636 -4.92059,-1.64788 -8.89458,6.09456 -13.09035,7.47304 -22.82989,7.50311 -16.69993,0.051 -24.43003,-6.40845 -29.70182,-24.81901 -1.23576,-4.3159 -4.73577,-11.37828 -7.77763,-15.69418 -8.16447,-11.58099 -7.98756,-11.1167 -4.22879,-11.1167 2.50057,0 4.71596,1.81137 8.85497,7.24286 l 5.52131,7.24286 2.92305,-4.95413 c 1.60807,-2.72424 3.30196,-6.52354 3.76273,-8.44215 0.7948,-3.31017 0.49642,-3.56127 -5.82629,-4.90443 -3.66503,-0.77947 -13.02169,-1.38893 -20.79141,-1.35492 -11.25915,0.0484 -16.13882,0.70754 -24.03,3.24607 m 109.58134,31.22223 c 0,4.42184 4.34364,23.87999 6.06922,27.18362 2.55866,4.90312 6.47981,7.14084 14.39476,8.21589 3.6307,0.49306 8.58959,2.04156 11.02018,3.44225 l 4.4189,2.54508 -0.93474,-6.89628 c -2.18503,-16.12053 -9.81875,-25.27284 -27.56565,-33.048 -5.58072,-2.44567 -7.40267,-2.80009 -7.40267,-1.44256 m -148.87746,29.03815 c -0.71954,1.36277 -2.25237,5.71529 -3.40891,9.67152 -4.39778,15.04941 -19.4289,34.23945 -28.14524,35.93311 -12.13976,2.36067 -16.67485,4.03863 -26.18862,9.69376 -5.80913,3.45403 -15.82988,9.16278 -22.26877,12.68874 -6.438889,3.52464 -13.173525,8.13481 -14.966432,10.24568 -3.086761,3.6345 -3.23595,4.56176 -2.816108,17.48853 l 0.443606,13.65 5.143717,4.40222 c 2.829315,2.42082 7.285179,4.77102 9.901937,5.22093 2.61675,0.4512 6.8376,2.19064 9.3791,3.86468 6.46266,4.25835 11.05979,5.08622 17.82874,3.20946 5.53717,-1.53541 6.05207,-1.44256 9.94946,1.80614 4.91929,4.1014 8.97512,4.34467 13.51019,0.81086 4.36213,-3.3991 4.69088,-3.3494 9.71182,1.47133 l 4.25651,4.08702 12.99738,-0.47034 c 9.08298,-4.35321 13.39859,-8.75147 16.98433,-11.91105 5.12787,-4.51991 14.73539,-12.75282 21.34987,-18.29547 12.72729,-10.6655 23.52831,-22.95272 31.44193,-35.77093 l 4.79913,-7.77255 -0.87005,-22.88732 c -0.56507,-14.88853 -1.414,-23.39608 -2.43059,-24.34297 -0.85949,-0.79909 -9.71313,-4.18772 -19.6758,-7.52927 -15.19086,-5.09538 -20.33459,-6.20966 -31.86704,-6.90936 -12.6375,-0.76508 -13.86005,-0.63169 -15.06016,1.64528 m 20.6871,11.45019 c -1.70181,0.84095 -3.9687,3.07083 -5.03678,4.95544 -1.73614,3.06429 -1.70577,3.78491 0.28913,6.80211 3.28613,4.96721 6.12072,6.0331 11.44663,4.30413 8.48398,-2.75694 8.67673,-13.3492 0.29574,-16.24346 -2.7897,-0.96388 -4.78065,-0.91157 -6.99472,0.18178 m 55.20522,1.64136 c -0.2482,0.24456 -0.004,4.58923 0.54263,9.65452 0.74331,6.89105 0.5149,10.34246 -0.90966,13.71933 -1.04696,2.48098 -1.90248,5.66167 -1.90248,7.0676 0,3.59135 6.31874,10.62233 11.45719,12.7489 3.88947,1.60996 4.19181,2.11478 3.05243,5.08359 -1.93286,5.03522 -10.01679,17.10927 -18.05452,26.96259 -7.13203,8.74557 -16.11769,16.72606 -42.00529,37.30766 -7.26141,5.77413 -13.86534,11.32334 -14.67334,12.33168 -0.80931,1.00967 -1.81271,6.2489 -2.23123,11.64377 l -0.76179,9.80886 3.35081,-3.92355 3.35082,-3.92354 -0.81065,5.88532 c -1.54073,11.18078 -2.45699,29.85291 -1.57638,32.12465 0.8278,2.13833 0.98491,2.14225 2.52037,0.0628 1.33214,-1.80353 1.63316,1.15089 1.61467,15.82103 -0.0132,9.92001 0.43965,19.68048 1.00472,21.68803 1.15919,4.11187 3.56997,3.59135 3.63467,-0.78471 0.0409,-2.80141 0.0858,-2.80795 1.98038,-0.32697 2.53489,3.32063 2.45833,11.14679 -0.20199,20.54105 -1.64373,5.80293 -1.92362,10.1489 -1.20276,18.72315 0.51754,6.14034 1.48925,11.16509 2.16258,11.16509 0.67201,0 2.21407,-2.05986 3.42606,-4.57747 3.44059,-7.14607 4.21426,-5.43018 2.21144,4.90443 -1.59223,8.21459 -1.57111,11.52214 0.15315,24.74447 1.09449,8.39507 1.99095,17.68471 1.99095,20.64438 0,5.07837 0.15843,5.29809 2.79894,3.89869 1.5381,-0.8161 3.09336,-2.60262 3.45379,-3.96932 0.36175,-1.368 1.26217,-2.48622 2.00415,-2.48622 0.85685,0 1.07073,3.20554 0.5862,8.82797 -0.45946,5.34256 0.0185,13.47475 1.21067,20.5986 1.08525,6.47384 2.28404,13.78994 2.6656,16.25784 0.51226,3.32194 1.00208,4.00072 1.88797,2.6157 0.7565,-1.1836 1.20276,3.4488 1.21595,12.60373 0.0132,9.33149 0.76576,17.00202 2.12034,21.57948 2.41475,8.17012 4.50075,11.1507 4.50075,6.43199 0,-6.36006 3.74953,0.35835 5.85007,10.48108 1.11957,5.39488 4.08355,13.93382 6.58808,18.97557 4.5562,9.16801 13.03753,20.24678 14.45681,18.88139 0.41456,-0.3989 0.23764,-3.93008 -0.39212,-7.84708 -0.62844,-3.91701 -0.85552,-7.59206 -0.50301,-8.16752 1.09845,-1.78913 4.36608,1.87154 4.36608,4.89135 0,9.36289 3.94889,15.90082 26.03547,43.0975 27.699,34.11127 27.89704,34.38461 28.95323,39.96128 1.63581,8.63571 -4.42945,56.99467 -8.22255,65.55846 -2.69729,6.09195 -0.73435,22.64077 3.14457,22.01562 9.45568,-1.52233 20.54355,3.72603 24.80478,-0.38712 5.37873,1.85715 1.31019,-7.66592 2.50634,-18.97618 0.69446,-6.56933 1.94605,-10.20252 5.22689,-15.17627 6.01378,-9.11831 6.48907,-10.1332 11.68692,-24.9328 2.54282,-7.23893 7.08846,-16.93924 10.10128,-21.55594 4.01755,-6.15866 5.26651,-9.22555 4.68692,-11.51298 -0.43436,-1.71458 -1.09846,-4.96197 -1.47472,-7.2167 -0.61657,-3.69205 -0.52151,-3.83853 0.96378,-1.48179 0.90702,1.43863 4.51131,6.03048 8.01,10.20382 l 6.361,7.58814 v 16.27485 c 0,13.12163 -5.79677,43.16761 -8.02404,49.54076 -4.11392,11.77847 4.64641,21.36344 21.38462,17.46079 7.8661,-1.8336 14.42026,-43.3596 17.59416,-47.59441 6.14316,-8.19497 10.49868,-19.83089 11.93381,-31.88008 0.47001,-3.94839 1.95397,-8.95091 3.29667,-11.1167 3.38514,-5.45896 4.4638,-12.47164 2.82271,-18.35826 -0.84496,-3.03159 -0.88457,-4.47807 -0.10165,-3.70252 0.70633,0.69971 2.04376,3.87254 2.97322,7.05192 1.5711,5.37525 2.13881,5.90493 8.10901,7.57636 8.01132,2.24034 22.96191,1.02012 24.11978,-1.96832 0.41984,-1.08289 -0.20332,-3.97455 -1.38363,-6.42676 -1.89985,-3.94708 -0.99151,-6.52223 1.11165,-3.1506 0.4489,0.71931 1.31102,1.30785 1.91701,1.30785 1.87345,0 13.01246,-31.9154 18.41759,-52.76641 8.99491,-34.69327 8.91042,-33.81047 4.95361,-52.17788 -9.68937,-44.97164 -17.14354,-79.76168 -18.84403,-87.96319 -1.04565,-5.03521 -2.20351,-10.00111 -2.5745,-11.03431 -0.38024,-1.05805 -3.97134,4.69517 -8.21332,13.15825 -4.14692,8.27082 -10.68484,19.22928 -14.52943,24.35212 l -6.99076,9.31448 -6.87194,-2.00885 c -3.77989,-1.10382 -11.62486,-4.26489 -17.43399,-7.02313 -42.66278,-20.25594 -71.4127,-55.11923 -89.67581,-108.74228 -6.53924,-19.2005 -11.1509,-40.99447 -9.10186,-43.02426 0.69577,-0.68923 6.86798,-2.74517 13.71483,-4.567 6.84685,-1.82183 16.0134,-4.40875 20.37024,-5.7493 4.35686,-1.34054 18.02152,-5.18823 30.36591,-8.5494 12.34441,-3.36246 28.08847,-7.783 34.98681,-9.82454 6.89835,-2.04286 14.91892,-4.32636 17.82348,-5.07575 l 5.28102,-1.36148 v -9.8834 -9.88209 l -5.28102,-1.29346 c -13.37024,-3.27616 -13.20257,-3.19377 -13.20257,-6.53662 0,-4.17204 -9.38703,-9.10001 -17.33498,-9.10001 -6.77952,0 -9.73029,-1.02012 -9.73029,-3.36247 0,-4.70825 -12.85403,-9.70946 -33.33121,-12.96861 -2.71973,-0.4329 -6.58148,-2.21419 -8.58167,-3.95756 l -3.63599,-3.17021 3.63071,-0.0405 c 1.99623,-0.0236 3.6307,-0.28774 3.6307,-0.58723 0,-0.2995 -3.74952,-4.11187 -8.33345,-8.47092 -9.06489,-8.62265 -14.11091,-17.03734 -14.11091,-23.52949 0,-5.88662 -4.76481,-18.55181 -8.25953,-21.95745 -1.88929,-1.84145 -10.71917,-5.251 -24.37722,-9.4152 -27.45475,-8.36891 -27.55641,-8.38199 -26.99926,-3.67504 l 0.43701,3.6842 -3.98322,-2.03893 c -2.92833,-1.50141 -4.09148,-3.12184 -4.39646,-6.12726 -0.37759,-3.71822 -1.15654,-4.35252 -8.62655,-7.02446 -4.5166,-1.61518 -8.41532,-2.73601 -8.66222,-2.49013 m 83.54851,0.6513 c 0.0145,3.89085 4.31461,22.89517 5.84346,25.82476 4.28027,8.19889 18.74105,14.57073 33.06979,14.57073 h 8.61468 l -0.008,-4.25051 c -0.0145,-8.88682 -2.659,-14.51449 -10.05112,-21.39116 -10.14882,-9.44265 -18.76745,-13.77293 -29.03906,-14.58903 -4.63673,-0.36881 -8.42984,-0.44336 -8.42984,-0.16479 m -75.20426,23.64065 c -1.48001,1.57334 -2.692,3.55473 -2.692,4.40091 0,3.09174 5.49491,8.43038 8.67805,8.43038 3.88155,0 8.48529,-4.25705 8.48529,-7.84708 0,-3.60574 -4.61034,-7.84708 -8.53018,-7.84708 -1.78763,0 -4.46115,1.28823 -5.94116,2.86287 m 89.27182,21.84236 c 2.2748,9.41781 6.3742,13.53753 15.63712,15.71117 5.33252,1.25031 7.89514,2.92042 13.33724,8.68541 5.9306,6.2829 7.35119,7.13562 11.88231,7.13301 6.9023,-0.003 13.20521,-3.41087 18.73709,-10.13321 l 4.57469,-5.55835 h -6.32272 c -5.86193,0 -6.87853,-0.52444 -13.9485,-7.20493 l -7.62449,-7.20493 -10.97794,0.1321 c -7.71426,0.0929 -13.22897,-0.62777 -18.54829,-2.42214 l -7.57035,-2.55292 0.82384,3.41479 m 108.3733,61.2321 c -6.10752,1.58773 -7.75916,2.59347 -8.39816,5.11892 -1.04961,4.14195 1.53942,7.03229 6.30027,7.03229 h 3.8393 l -2.80819,3.76268 c -3.65183,4.89135 -2.94813,8.53893 1.75067,9.07515 3.92116,0.44859 4.8229,2.48099 1.63844,3.69075 -5.14637,1.95653 1.42192,10.93622 7.99811,10.93622 1.6622,0 4.75821,1.44779 6.88118,3.21731 3.6822,3.06951 3.8974,3.83983 4.66051,16.67505 1.03508,17.4336 4.74897,31.39487 12.44342,46.78692 17.99643,36.00112 53.45457,50.83081 92.39555,38.64428 25.54037,-7.99226 44.38307,-28.43391 52.11583,-56.54086 3.74292,-13.60422 3.98981,-44.22093 0.4832,-59.8994 -2.84119,-12.70051 -4.14032,-15.36721 -7.07526,-14.52757 -1.22651,0.35181 -4.66578,1.26207 -7.64296,2.02324 l -5.41173,1.38239 2.42927,14.06198 c 4.63279,26.79909 2.38306,49.92184 -6.42833,66.09468 -5.15296,9.45704 -16.80687,20.80524 -26.17806,25.49125 -21.90306,10.95191 -45.34158,8.29306 -62.50228,-7.08984 -19.65071,-17.6154 -29.15391,-45.65433 -31.40892,-92.66753 -0.64957,-13.53491 -1.13938,-16.1166 -3.55413,-18.76106 -6.40325,-7.01268 -16.38834,-8.44086 -31.52773,-4.50685 m 6.94322,3.29316 c 0,2.38421 2.34082,4.36037 3.63995,3.07214 0.45285,-0.4486 -0.18087,-1.81006 -1.40871,-3.02636 -2.05696,-2.03893 -2.23124,-2.04286 -2.23124,-0.0458 m 34.87196,24.07748 c 2.71048,41.60785 10.4934,65.12686 27.02566,81.66329 11.59714,11.6006 19.67842,14.76298 35.8014,14.01358 13.96965,-0.65 23.40156,-4.61408 33.50549,-14.08028 13.51679,-12.66389 19.67578,-29.55474 19.56225,-53.65706 -0.0594,-12.76197 -2.75934,-29.60181 -5.4223,-33.8327 -0.94795,-1.50664 -3.68748,-1.52625 -17.19106,-0.12685 -22.24502,2.30573 -50.56849,1.01096 -72.25371,-3.30232 -9.32366,-1.85453 -18.07696,-3.71298 -19.45267,-4.12888 -2.3857,-0.72193 -2.45832,-0.10201 -1.57506,13.45122 m 152.10416,1.3523 -7.76047,0.57022 0.8014,5.79508 c 1.98567,14.3497 2.37646,30.93059 0.99151,42.08522 -4.27367,34.41339 -22.82856,62.11359 -50.56057,75.47717 l -12.36156,5.95856 1.16183,14.06983 c 1.20012,14.50794 -0.43569,43.56439 -3.20691,56.96198 -6.32931,30.60885 -20.2699,57.84216 -36.583,71.46862 l -6.44813,5.38572 3.59374,16.63582 c 14.33535,66.3667 12.2335,59.57767 19.97813,64.50171 10.44983,6.64256 20.70426,10.26791 29.14335,10.30191 l 7.56243,0.0314 -3.9172,-6.11811 c -2.15334,-3.36509 -3.64655,-6.38622 -3.31517,-6.71318 0.33007,-0.32697 2.72237,1.2503 5.31404,3.50503 9.95209,8.65533 25.79518,14.51449 39.32121,14.54195 l 7.63901,0.0157 -3.34817,-4.88088 c -4.95757,-7.22717 -4.16409,-8.79919 2.1507,-4.26881 6.13656,4.40482 20.13391,9.14969 26.98605,9.14969 4.25519,0 5.8923,-1.59819 3.27688,-3.19899 -1.40343,-0.85925 -3.35346,-11.03039 -2.31309,-12.06097 0.38684,-0.3845 1.36118,1.71721 2.16389,4.67033 0.80272,2.9518 5.73256,11.6176 10.9555,19.25674 9.20616,13.46429 9.49793,14.13391 9.52038,21.90121 0.0185,6.53532 -0.88457,9.94226 -4.89684,18.47596 -2.7052,5.75453 -2.21949,42.40938 -2.41885,43.33533 -0.43303,2.01801 24.59913,2.29022 26.22833,0.67633 0.58619,-0.58067 0.70901,-25.61548 1.14998,-28.42997 1.1341,-7.2494 4.4123,-13.10332 12.36817,-22.08562 8.84308,-9.98149 10.57657,-14.20845 10.16729,-24.78501 -0.25084,-6.50261 0.19013,-9.00976 1.87477,-10.6838 2.05828,-2.04286 2.49,-2.00886 6.60128,0.52575 6.19729,3.82023 16.5283,14.59688 18.18655,18.97163 2.50584,6.60986 1.60675,19.14689 -2.08073,29.0146 -5.19917,13.91549 -6.39532,20.39588 -4.97605,26.96389 1.35722,6.27897 -1.86615,13.0125 9.74023,11.05727 4.20766,-0.70886 7.76992,0.1454 14.50629,-0.58475 9.1226,2.67197 7.14919,-1.11357 9.40287,-11.93339 2.60355,-12.5004 5.23746,-21.07858 12.0447,-39.23542 8.65165,-23.07304 8.94738,-25.45855 4.16805,-33.5149 -3.54225,-5.97032 -3.78649,-7.30432 -3.8393,-21.04587 -0.0555,-14.02667 0.0462,-14.57858 2.31045,-12.54879 2.25632,2.02323 2.36722,1.66226 2.36722,-7.69407 0,-10.15021 1.66352,-17.30413 4.79385,-20.62215 1.57111,-1.66488 1.80743,-1.56417 1.80743,0.76249 0,5.63812 1.94739,4.17333 4.94437,-3.71821 1.71369,-4.5147 4.33837,-11.44498 5.83289,-15.40121 1.53282,-4.05956 3.09073,-12.31993 3.5779,-18.96379 l 0.86213,-11.77063 2.51244,4.57747 2.51378,4.57747 1.9685,-4.57747 c 1.08393,-2.51761 2.24576,-9.71208 2.5811,-15.98582 0.53603,-10.01158 0.16635,-12.67566 -3.02206,-21.75081 -2.9323,-8.34145 -3.4538,-11.5326 -2.70126,-16.50503 l 0.93343,-6.1652 2.33158,4.30806 c 2.62994,4.85603 9.26687,8.76649 16.81214,9.90562 l 5.08168,0.7664 -4.21954,-4.42444 c -5.85535,-6.14034 -10.49737,-17.02425 -12.20842,-28.61962 -1.14862,-7.78824 -1.03377,-12.89015 0.55979,-24.7654 2.68276,-20.00745 2.56394,-23.98722 -1.34534,-45.27244 -1.84441,-10.0325 -3.88553,-26.68924 -4.53773,-37.0134 -0.6522,-10.32544 -1.49321,-19.07625 -1.86684,-19.44637 -0.37496,-0.37143 -1.64241,0.27727 -2.81875,1.44255 -3.19107,3.16238 -4.99057,2.65885 -12.29555,-3.44094 -5.65203,-4.72003 -6.29102,-5.69176 -4.23671,-6.44507 3.49869,-1.283 6.94323,-6.55101 5.32988,-8.1492 -0.71954,-0.71278 -1.30837,-3.46057 -1.30837,-6.10634 0,-5.58189 -2.39099,-8.06681 -7.95455,-8.26167 -4.55357,-0.15956 -4.75821,-0.52707 -1.61732,-2.91127 3.55545,-2.6994 -0.1043,-4.37476 -9.6075,-4.3996 -7.4687,-0.0183 -8.52491,-0.42898 -17.16335,-6.67525 -11.69747,-8.45654 -17.16466,-10.81067 -32.98266,-14.20584 -14.46738,-3.10483 -20.69503,-5.76238 -19.67447,-8.39638 0.47793,-1.2333 -0.84496,-2.00886 -4.33572,-2.54768 -6.67258,-1.02797 -62.3399,-2.04678 -72.19694,-1.32094 m -212.06099,16.33368 c -58.62206,16.24739 -107.83859,30.34598 -108.68224,31.13462 -2.89005,2.69939 8.81139,38.97254 19.16749,59.4155 7.74991,15.2992 11.10204,20.58814 20.81385,32.8322 14.1954,17.89789 26.30216,27.47134 48.84554,38.62465 l 13.81122,6.8322 3.72444,-4.41791 c 5.07903,-6.02394 17.13166,-30.8652 21.20993,-43.71218 5.06319,-15.95051 6.55507,-25.81952 6.61581,-43.75534 0.074,-21.77043 -3.34026,-41.05464 -11.98529,-67.6811 -3.81687,-11.75624 -4.03075,-11.90272 -13.52075,-9.27264 m -51.49135,27.91077 c -4.29875,4.533 -3.92381,9.67939 1.66749,22.88602 3.79706,8.96922 4.3542,11.31419 2.88475,12.13813 -1.00207,0.56238 -6.73462,1.99709 -12.73916,3.19116 -7.52678,1.49487 -11.84402,3.08782 -13.90626,5.13068 -3.49868,3.4658 -3.95153,9.78924 -0.91758,12.79467 3.98586,3.94839 8.39023,3.87515 21.43965,-0.35705 6.93532,-2.24949 12.7154,-3.951 12.84346,-3.78098 0.12807,0.17133 2.41608,7.96086 5.08431,17.31198 2.66824,9.3511 6.54187,22.59305 8.60676,29.42655 l 3.75613,12.42456 5.21897,0.39105 c 3.57526,0.2681 6.17088,-0.37405 8.24766,-2.03894 l 3.02998,-2.42998 -8.61335,-29.3494 c -4.73709,-16.14276 -8.17372,-29.81369 -7.63769,-30.3813 0.53734,-0.56629 6.2699,-1.96962 12.7418,-3.1179 13.62109,-2.41691 17.70596,-5.10976 17.70596,-11.67778 0,-5.17514 -5.0513,-9.67545 -10.86175,-9.67545 -2.14806,0 -8.33743,1.55896 -13.75443,3.46318 -5.88703,2.07033 -10.32838,2.98713 -11.04396,2.27828 -0.6588,-0.65263 -2.14146,-6.77204 -3.29668,-13.599 -1.70313,-10.06912 -2.72501,-12.96993 -5.41041,-15.35675 -4.54036,-4.03732 -11.03999,-3.89608 -15.04565,0.32827 m 231.37636,24.52083 c 0.83176,2.47445 4.95096,2.82626 4.95096,0.42243 0,-1.21236 -1.12881,-2.05724 -2.75009,-2.05724 -1.61335,0 -2.52434,0.67616 -2.20087,1.63481 m -139.31881,39.14648 c -0.85948,28.18804 -2.87419,15.72818 16.88214,104.38977 5.36948,24.09709 12.19389,54.99498 15.16315,68.66199 11.70275,53.84276 16.61147,75.08743 17.56865,76.03692 0.41589,0.41067 4.35685,0.33351 8.75859,-0.17263 9.68673,-1.11429 9.4834,0.15825 3.98057,-24.87525 -2.21142,-10.06127 -6.64089,-30.35776 -9.84515,-45.10374 -3.20295,-14.74597 -7.9123,-36.22736 -10.46435,-47.73642 -12.73916,-57.43674 -15.85233,-71.67265 -21.91496,-100.23866 -3.61089,-17.00855 -6.56431,-32.71711 -6.56431,-34.90775 0,-2.19194 -0.65353,-4.38521 -1.45229,-4.87434 -0.79875,-0.48914 -3.67955,-4.30282 -6.40192,-8.47616 l -4.95096,-7.58683 -0.75916,24.8831 m 23.6841,13.37667 c 3.19766,17.76188 29.47077,138.28132 30.37251,139.32498 0.62977,0.72847 3.75218,-3.44879 9.87288,-13.20272 5.8461,-9.31972 13.2237,-31.23793 16.94946,-50.36389 2.87685,-14.77083 5.04206,-51.31732 3.51584,-59.35797 l -0.85684,-4.51207 -10.23199,-0.26418 c -13.30292,-0.34265 -28.46342,-4.30412 -40.61771,-10.61318 l -9.73161,-5.05222 0.72746,4.04125 m -4.7965,174.38836 c -2.59166,11.47898 -12.63221,43.70304 -18.75028,60.17537 -3.00755,8.09949 -5.10544,15.08602 -4.66184,15.52545 0.44362,0.44075 4.69484,1.86761 9.44645,3.17284 8.07468,2.21811 8.71369,2.22988 9.78179,0.1674 0.62844,-1.21237 4.51791,-13.01831 8.64503,-26.23541 l 7.5017,-24.02908 -4.02282,-16.19246 c -2.21143,-8.90513 -4.0215,-17.07264 -4.0215,-18.14769 0,-4.68209 -2.36194,-1.32877 -3.91853,5.56358 m 11.4572,52.96782 c -1.20144,3.77706 -2.35006,7.45212 -2.55074,8.16882 -0.36043,1.27645 9.41607,5.13722 10.44059,4.12233 0.85157,-0.84487 -3.67031,-19.15735 -4.7318,-19.15735 -0.53471,0 -1.9553,3.08914 -3.15805,6.8662"
     stroke="none"
     fill="#000000"
     fill-rule="evenodd"
     id="path1"
     sodipodi:nodetypes="cccccscccccscccccccccccscccccccssccssscccsscsccccccccccccccccccccccccccccccccscscccccccccsccscccccccccccccccscccccccccccccccccccccsccccccccccccccccccscccsccsccccccsscsccscscccccccsccccscccccsscccssscccccccccsssscccccccsssscccscsccccccccccsccccccsssscccccccsccscccccsccccsccccsccccccccccccccccccscccscccccccccccccccccccscscssccccccsccccccccscsccccscsccccccccccccccccccssccssssccccscccccccccccscccccssccscccccccssscsccccssccscccscccssccccccccccccccccsccccsccccsc"
     style="fill:#ffffff;stroke:#000000;stroke-width:25.414;stroke-linecap:round;stroke-linejoin:round;stroke-dasharray:none;stroke-opacity:1;paint-order:stroke markers fill" />
  <text
     xml:space="preserve"
     style="font-size:400px;font-family:Carlito;-inkscape-font-specification:Carlito;writing-mode:lr-tb;direction:ltr;fill:#ffffff;fill-opacity:1;stroke-width:7.067;stroke:#000000;stroke-opacity:1"
     x="709.33563"
     y="995.06439"
     id="text2"><tspan
       sodipodi:role="line"
       id="tspan2"
       x="709.33563"
       y="995.06439" /></text>
  <rect
     style="fill:#000000;fill-opacity:1;stroke:none;stroke-width:25.414;stroke-linecap:round;stroke-linejoin:round;stroke-dasharray:none;stroke-opacity:1;paint-order:stroke markers fill"
     id="rect36"
     width="4.637126"
     height="3.5640719"
     x="408.91019"
     y="611.75568" />
  <path
     d="m 633.0258,136.73448 c -9.172,3.372 -105.442,47.305 -122.243,55.787 -7.955,4.016 -13.177,8.996 -16.477,15.716 -2.507,5.104 -2.78,6.699 -2.78,16.213 0,10.151 0.14,10.834 3.691,18 5.913,11.932 14.708,18.903 28.269,22.408 7.736,1.999 28.71604,6.5838 37.21904,4.5708 4.037,-0.955 22.91896,-7.1188 33.27996,-12.6858 27.299,-14.669 86.962,-49.36 89.87,-52.256 5.425,-5.401 7.586,-11.266 7.588,-20.589 0.005,-18.381 -12.18,-37.535 -29.356,-46.15 -7.955,-3.989 -19.838,-4.404 -29.061,-1.014 m -0.5,10.071 c -4.4,1.854 -15.875,6.964 -25.5,11.355 -67.535,30.811 -63.766,29.051 -64.399,30.074 -0.3,0.485 2.348,1.665 5.883,2.622 16.347,4.425 31.822,14.749 42.033,28.042 6.582,8.569 8.483,12.932 8.483,19.468 0,2.768 0.168,5.032 0.374,5.032 0.206,0 7.519,-4.132 16.25,-9.182 8.732,-5.051 26.224,-15.128 38.872,-22.396 21.161,-12.158 23.183,-13.56 25.336,-17.567 5.417,-10.085 0.282,-28.646 -11.064,-39.992 -11.127,-11.127 -22.168,-13.397 -36.268,-7.456 m -113,51.652 c -8.316,2.697 -14.66,7.629 -17.476,13.584 -4.634,9.803 -2.105,25.229 5.615,34.248 4.024,4.702 13.513,9.66 21.247,11.104 6.656,1.242 19.53281,2.83339 20.81674,2.26611 10.12295,-4.47263 -3.18207,-6.5078 -8.27607,-7.7578 -18.09993,-6.59533 -23.55525,-5.90471 -33.07467,-16.43631 -2.17,-4.158 -1.7,-13.087 0.955,-18.16 6.484,-12.387 21.936,-14.939 39.201,-6.473 20.496,10.05 32.662,32.995 21.958,41.414 -3.684,2.898 -3.045,3.492 3.081,2.859 6.335,-0.654 13.57,-4.429 16.21,-8.46 5.182,-7.909 -2.166,-21.889 -18.235,-34.694 -16.889,-13.458 -36.473,-18.538 -52.022,-13.494 m 5,16.736 c -7.882,2.778 -11.293,11.869 -6.166,16.435 3.381,3.012 37.144,13.84 42.166,13.523 3.727,-0.236 4.021,-0.476 4.315,-3.529 0.909,-9.446 -18.81,-25.469 -32.815,-26.664 -3.025,-0.258 -6.4,-0.153 -7.5,0.235"
     style="fill:#000000;fill-rule:evenodd;stroke:none"
     id="path1-5" />
  <path
     style="fill:#fed580;fill-opacity:1;stroke:none;stroke-width:5.50949;stroke-linecap:round;stroke-linejoin:round;stroke-dasharray:none;stroke-opacity:1;paint-order:stroke markers fill;fill-rule:nonzero"
     d="m 645.24807,143.66039 c -6.80747,0.0111 -13.0079,3.29205 -19.14914,5.83403 -24.33824,10.86475 -48.54992,22.01335 -72.77892,33.1193 -3.53296,1.74809 -7.2738,3.15729 -10.59946,5.28361 -0.69824,0.74379 0.72088,1.22795 1.22113,1.45274 4.96833,1.93204 10.22755,3.09451 15.06636,5.36084 15.3705,6.71254 28.80085,18.19033 37.17234,32.77521 2.45778,4.32662 2.91715,9.40142 2.86821,14.29189 0.0118,0.68065 0.0765,2.23144 1.09121,1.32816 19.22829,-10.82764 38.30242,-21.93298 57.43067,-32.93833 6.42814,-3.85965 13.19121,-7.26366 19.09896,-11.91966 4.31712,-3.39689 5.52331,-9.26809 5.38649,-14.4918 -0.40572,-10.15334 -4.76197,-19.98412 -11.39308,-27.60603 -5.18698,-5.65932 -11.58806,-10.76428 -19.31995,-12.2034 -2.00843,-0.36349 -4.06364,-0.28464 -6.09482,-0.28656 z"
     id="path37" />
  <path
     style="fill:#ffe680;fill-opacity:1;fill-rule:nonzero;stroke:none;stroke-width:2.75475;stroke-linecap:round;stroke-linejoin:round;stroke-dasharray:none;stroke-opacity:1;paint-order:stroke markers fill"
     d="m 531.64797,196.43469 c -7.28122,0.006 -14.61361,1.98644 -20.77096,5.9067 -4.51437,2.88158 -8.39579,7.07411 -9.99371,12.27158 -1.38954,4.45152 -1.49975,9.21846 -0.96261,13.82136 0.92721,6.50782 3.38691,12.92761 7.67136,17.97352 3.04593,3.41786 7.09413,5.74996 11.17536,7.71934 4.00872,1.90274 8.28679,3.23395 12.68503,3.8476 5.17369,0.80553 10.36787,1.55972 15.59564,1.89606 1.22105,0.004 2.54919,0.2377 3.62779,-0.49548 1.10237,-0.61531 2.52993,-1.24603 2.85431,-2.59187 0.0927,-1.194 -1.18361,-1.85714 -2.09684,-2.30335 -3.79755,-1.65434 -8.00058,-1.99603 -11.87695,-3.41929 -5.97863,-2.13827 -12.11107,-3.83107 -18.02752,-6.14283 -4.32748,-1.74568 -8.24952,-4.46308 -11.42055,-7.88506 -0.87697,-0.93664 -1.95244,-1.81269 -2.18674,-3.15169 -0.91051,-2.82842 -0.75178,-5.85755 -0.59025,-8.77384 0.4134,-4.0196 1.78018,-8.02744 4.37433,-11.18922 3.14193,-4.076 7.99766,-6.59778 13.00356,-7.4712 2.74639,-0.52685 5.57315,-0.3636 8.35657,-0.20874 7.48919,0.90489 14.64325,3.84855 20.96613,7.90181 6.40767,4.20541 12.03,9.7405 16.03227,16.28844 2.01368,3.39463 3.64117,7.12605 4.12371,11.05937 0.0271,2.02299 0.25442,4.1314 -0.54837,6.056 -0.59773,1.78427 -1.71997,3.30257 -3.16317,4.50558 -0.79147,0.81869 -1.95722,1.41798 -2.34803,2.54135 -0.054,0.75772 0.94806,0.8568 1.50498,0.84237 5.96952,0.17949 11.96594,-1.7396 16.7994,-5.22777 2.4903,-1.79839 4.64048,-4.40437 4.98166,-7.55518 0.60508,-4.47955 -1.09703,-8.88161 -3.27559,-12.70934 -4.05029,-6.92077 -9.82892,-12.65825 -16.00725,-17.69244 -9.94287,-8.0318 -21.86843,-14.04088 -34.67088,-15.53941 -1.92829,-0.24346 -3.87132,-0.28569 -5.81268,-0.27437 z"
     id="path38" />
  <path
     style="fill:#ffd980;fill-opacity:1;fill-rule:nonzero;stroke:none;stroke-width:2.75475;stroke-linecap:round;stroke-linejoin:round;stroke-dasharray:none;stroke-opacity:1;paint-order:stroke markers fill"
     d="m 528.04533,214.67931 c -1.8364,0.0193 -3.7382,0.19991 -5.34755,1.168 -3.43943,1.74254 -6.17934,5.06014 -6.80177,8.91124 -0.18671,1.67172 -0.11373,3.44884 0.79081,4.92158 0.66982,1.30842 1.72778,2.41935 3.1036,2.98294 4.58824,2.27423 9.47171,3.87191 14.29462,5.56289 7.58753,2.52361 15.23251,4.93737 23.05117,6.643 2.03054,0.51967 4.17887,0.52857 6.21809,0.0559 1.29311,-0.38737 1.50397,-1.9188 1.61449,-3.06406 0.30959,-3.30229 -1.42603,-6.34852 -3.25495,-8.95595 -3.88214,-5.25214 -9.10815,-9.37625 -14.68016,-12.71031 -4.50895,-2.60527 -9.42447,-4.75134 -14.64095,-5.34251 -1.44426,-0.13678 -2.89689,-0.19228 -4.3474,-0.17271 z"
     id="path39" />
  <path
     style="fill:#fedf94;fill-opacity:1;fill-rule:nonzero;stroke:none;stroke-width:7.7916;stroke-linecap:round;stroke-linejoin:round;stroke-dasharray:none;stroke-opacity:1;paint-order:stroke markers fill"
     d="m 531.03294,196.49102 c -9.61815,-0.0973 -19.47192,3.67543 -26.01198,10.83353 -5.93228,6.56848 -6.30988,16.26831 -4.48503,24.51617 1.72846,8.02773 6.23158,15.77939 13.57126,19.8479 6.73593,4.17567 14.50865,6.23168 22.32587,7.1011 4.5436,0.47411 9.1786,1.54624 13.74239,0.81268 1.42552,-0.60236 4.04854,-1.81823 3.11976,-3.75988 -2.14703,-2.40663 -5.75774,-2.46071 -8.63306,-3.47174 -8.44312,-2.51667 -16.932,-5.07681 -25.07719,-8.46915 -4.42512,-2.26201 -8.59169,-5.45347 -11.36879,-9.58067 -1.26491,-3.30531 -0.67337,-7.01184 -0.58623,-10.4485 0.89715,-8.10946 7.35692,-15.08821 15.31317,-16.90779 5.12283,-1.33942 10.57572,-0.65643 15.69521,0.43293 10.23843,2.78181 19.55599,8.62862 26.51799,16.63726 5.01136,5.68937 9.39317,12.91341 8.84609,20.76035 0.13545,3.68164 -2.70147,6.26906 -5.07605,8.66766 -0.78017,0.54972 -1.15539,2.09703 0.20479,2.07306 6.69384,0.17724 13.5719,-2.10281 18.70299,-6.43533 3.60891,-3.02662 4.5813,-8.22025 3.12455,-12.57485 -3.26351,-10.39172 -11.39813,-18.3262 -19.65629,-24.9994 -9.81376,-7.71461 -21.52302,-13.53115 -34.04191,-14.87186 -2.0718,-0.15187 -4.15073,-0.18917 -6.22754,-0.16347 z"
     id="path40" />
  <rect
     style="fill:#ffffff;stroke:none;stroke-width:18.6643"
     id="rect1"
     width="103.35182"
     height="29.409706"
     x="448.53772"
     y="938.94122" />
  <rect
     style="fill:#ff0000;stroke:none;stroke-width:18.6643"
     id="rect1-2"
     width="103.35182"
     height="29.409706"
     x="448.53528"
     y="968.34515" />
  <rect
     style="fill:#000000;stroke:none;stroke-width:28.8553"
     id="rect1-22-5"
     width="110.22682"
     height="65.909706"
     x="561.375"
     y="935.125" />
  <rect
     style="fill:#003ba8;fill-opacity:1;stroke:none;stroke-width:18.6643"
     id="rect1-4"
     width="103.35182"
     height="29.409706"
     x="564.78772"
     y="939.06622" />
  <rect
     style="fill:#feda0c;fill-opacity:1;stroke:none;stroke-width:18.6643"
     id="rect1-2-8"
     width="103.35182"
     height="29.409706"
     x="564.78528"
     y="968.47015" />
  <rect
     style="fill:#000000;stroke-width:30"
     id="rect2"
     width="12.330174"
     height="11.22532"
     x="408.9729"
     y="610.0564" />
</svg>
