<svg enable-background="new 0 0 256 256" viewBox="0 0 256 256" xmlns="http://www.w3.org/2000/svg"><text/><path d="m88.762429 63.360798s-.422221 3.866804 1.564925 14.586544c.702752 3.791076 1.755116 8.245298 3.305133 12.476376.746597 2.038002 1.623507 4.065074 2.655645 5.960422 1.019612 1.872363 2.214311 3.65987 3.622478 5.21535 1.41229 1.55999 3.06238 2.91163 4.98677 3.86575 1.9601.97182 4.13058 1.49307 6.48306 1.45457 2.39714-.0393 4.86216-.65723 7.35925-1.80738 2.58382-1.1901 5.18603-2.9417 7.79784-5.191517 5.76675-4.967507 11.58647-12.371239 17.35185-21.488295 7.58688-11.997444 14.68709-26.35706 20.48863-39.477373 0 0-5.64097-3.03885-5.64097-3.03885s-5.64096-3.038852-5.64096-3.038852c-5.71885 12.933369-12.19317 26.718281-18.91857 38.402125-5.11472 8.885674-9.85335 15.642247-14.17638 20.178223-1.93003 2.025082-3.68252 3.507311-5.26449 4.54966-1.51207.996293-2.85107 1.579658-4.03668 1.865955-1.15181.278137-2.25333.299771-3.34763.05507-1.09846-.245557-2.22523-.768213-3.3798-1.611286-1.15559-.843802-2.28711-1.971265-3.38107-3.344183-1.103294-1.384656-2.133049-2.974344-3.086024-4.686454-1.985446-3.567097-3.576614-7.554834-4.796996-11.098968-3.437201-9.981995-3.946011-13.826957-3.946011-13.826957z" stroke-width="1.64865"/><g stroke-width="1.52107"><path d="m166.32011 17.387035h12.277943v104.96534h-12.277943z"/><path d="m73.619453 17.351675h12.277943v104.96534h-12.277943z"/><path d="m17.369175-178.59412h12.277943v104.96534h-12.277943z" transform="rotate(90)"/><path d="m110.02438-178.60258h12.277943v104.96534h-12.277943z" transform="rotate(90)"/><path d="m167.52612 131.14308h12.277943v104.96534h-12.277943z"/><path d="m74.82547 131.10773h12.277943v104.96534h-12.277943z"/><path d="m131.12523-179.80013h12.277943v104.96534h-12.277943z" transform="rotate(90)"/><path d="m223.78044-179.80859h12.277943v104.96534h-12.277943z" transform="rotate(90)"/></g></svg>