<svg enable-background="new 0 0 512 512" viewBox="0 0 512 512" xmlns="http://www.w3.org/2000/svg"><path d="m512 164.379v258.695c0 28.231-22.969 51.2-51.2 51.2h-409.6c-28.231 0-51.2-22.969-51.2-51.2v-183.242c0-1.299.049-2.586.144-3.862-.094-.495 3.4314235 78.12995-.144-1.528-12.945347-288.413346 89.381493-161.580916 460.8-121.263 28.06613 3.04661 51.2 22.969 51.2 51.2zm-463.495 24.323c.894-.047 1.79-.07 2.695-.07zm447.327-24.323c0-19.317-15.715-35.032-35.032-35.032l-444.374512 1.52394-.257488 278.72906v13.474c0 19.317 15.715 35.032 35.032 35.032h409.6c19.317 0 35.032-15.715 35.032-35.032z"/></svg>