<?xml version="1.0" encoding="UTF-8" standalone="no"?>
<svg
   enable-background="new 0 0 512 512"
   viewBox="0 0 512 512"
   version="1.1"
   id="svg12"
   sodipodi:docname="krokiet_manual_add.svg"
   inkscape:version="1.4.3 (0d15f75042, 2025-12-25)"
   xmlns:inkscape="http://www.inkscape.org/namespaces/inkscape"
   xmlns:sodipodi="http://sodipodi.sourceforge.net/DTD/sodipodi-0.dtd"
   xmlns="http://www.w3.org/2000/svg"
   xmlns:svg="http://www.w3.org/2000/svg">
  <defs
     id="defs12" />
  <sodipodi:namedview
     id="namedview12"
     pagecolor="#505050"
     bordercolor="#eeeeee"
     borderopacity="1"
     inkscape:showpageshadow="0"
     inkscape:pageopacity="0"
     inkscape:pagecheckerboard="0"
     inkscape:deskcolor="#505050"
     inkscape:zoom="1.1531917"
     inkscape:cx="316.94643"
     inkscape:cy="196.4114"
     inkscape:window-width="1920"
     inkscape:window-height="1043"
     inkscape:window-x="0"
     inkscape:window-y="0"
     inkscape:window-maximized="1"
     inkscape:current-layer="g12" />
  <g
     stroke-width="5.8631"
     id="g12">
    <path
       d="M 14.017879,21.070109 H 498.71298 v 30 H 14.017879 Z"
       id="path1"
       style="stroke-width:6.00752" />
    <path
       d="M 14.017879,21.070109 H 498.71298 v 30 H 14.017879 Z"
       id="path1-5"
       style="stroke-width:6.00752" />
    <path
       d="M 14.017879,61.070109 H 498.71298 v 30 H 14.017879 Z"
       id="path1-56"
       style="stroke-width:6.00752" />
    <path
       d="M 14.017879,101.07011 H 231.67585 v 30 H 14.017879 Z"
       id="path1-56-2"
       style="stroke-width:4.02576" />
    <path
       d="M 14.017879,141.07011 H 189.06029 v 30 H 14.017879 Z"
       id="path1-56-2-3"
       style="stroke-width:3.61021" />
    <path
       d="M 14.017879,181.07011 H 144.91179 v 30 H 14.017879 Z"
       id="path1-56-2-0"
       style="stroke-width:3.12191" />
    <path
       d="m 14.017879,221.07011 h 87.971751 v 30 H 14.017879 Z"
       id="path1-56-2-2"
       style="stroke-width:2.55937" />
    <path
       d="M 14.017879,261.07011 H 102.6028 v 30 H 14.017879 Z"
       id="path1-56-2-1"
       style="stroke-width:2.56827" />
    <path
       d="M 14.017879,301.07011 H 150.43035 v 30 H 14.017879 Z"
       id="path1-56-2-7"
       style="stroke-width:3.18704" />
    <path
       d="M 14.017879,341.07011 H 193.3525 v 30 H 14.017879 Z"
       id="path1-56-2-20"
       style="stroke-width:3.65421" />
    <path
       d="M 14.017879,381.07011 H 231.80813 v 30 H 14.017879 Z"
       id="path1-56-2-37"
       style="stroke-width:4.02699" />
    <path
       d="M 14.017879,421.07011 H 498.71298 v 30 H 14.017879 Z"
       id="path1-56-2-9"
       style="stroke-width:6.00752" />
    <path
       d="M 14.017879,461.07011 H 498.71298 v 30 H 14.017879 Z"
       id="path1-56-2-28"
       style="stroke-width:6.00752" />
    <rect
       style="fill:#003ba8;stroke-width:26.8114"
       id="rect12"
       width="52.119762"
       height="226.26108"
       x="231.27168"
       y="145.68135" />
    <rect
       style="fill:#003ba8;stroke-width:30"
       id="rect13"
       width="220.12932"
       height="47.214363"
       x="146.6537"
       y="231.73607" />
    <path
       d="M 500.66671,21.094435 H 15.971713 v 30 H 500.66671 Z"
       id="path1-7"
       style="stroke-width:6.00752" />
    <path
       d="M 500.66671,21.094435 H 15.971713 v 30 H 500.66671 Z"
       id="path1-5-3"
       style="stroke-width:6.00752" />
    <path
       d="M 500.66671,61.094435 H 15.971713 v 30 H 500.66671 Z"
       id="path1-56-6"
       style="stroke-width:6.00752" />
    <path
       d="M 500.66671,101.09444 H 281.47588 v 30 h 219.19083 z"
       id="path1-56-2-12"
       style="stroke-width:4.03991" />
    <path
       d="m 500.66671,141.09444 h -175.0424 v 30 h 175.0424 z"
       id="path1-56-2-3-9"
       style="stroke-width:3.61021" />
    <path
       d="m 500.66671,181.09444 h -130.8938 v 30 h 130.8938 z"
       id="path1-56-2-0-3"
       style="stroke-width:3.12191" />
    <path
       d="m 500.66671,221.09444 h -87.9717 v 30 h 87.9717 z"
       id="path1-56-2-2-1"
       style="stroke-width:2.55938" />
    <path
       d="m 500.66671,261.09444 h -88.5849 v 30 h 88.5849 z"
       id="path1-56-2-1-9"
       style="stroke-width:2.56826" />
    <path
       d="m 500.66671,301.09444 h -136.4124 v 30 h 136.4124 z"
       id="path1-56-2-7-4"
       style="stroke-width:3.18705" />
    <path
       d="m 500.66671,341.09444 h -179.3345 v 30 h 179.3345 z"
       id="path1-56-2-20-7"
       style="stroke-width:3.65421" />
    <path
       d="M 500.66671,381.09444 H 282.87648 v 30 h 217.79023 z"
       id="path1-56-2-37-8"
       style="stroke-width:4.02699" />
    <path
       d="M 500.66671,421.09444 H 15.971713 v 30 H 500.66671 Z"
       id="path1-56-2-9-4"
       style="stroke-width:6.00752" />
    <path
       d="M 500.66671,461.09444 H 15.971713 v 30 H 500.66671 Z"
       id="path1-56-2-28-5"
       style="stroke-width:6.00752" />
    <rect
       style="fill:#000000;stroke-width:26.8114"
       id="rect12-0"
       width="52.119759"
       height="226.26108"
       x="-283.41296"
       y="145.70567"
       transform="scale(-1,1)" />
    <rect
       style="fill:#000000;stroke-width:30"
       id="rect13-3"
       width="220.1293"
       height="47.214363"
       x="-368.03101"
       y="231.76039"
       transform="scale(-1,1)" />
  </g>
</svg>
