<svg enable-background="new 0 0 64 64" height="64" viewBox="0 0 64 64" width="64" xmlns="http://www.w3.org/2000/svg"><g fill="none" stroke="#000" stroke-width="4.267" transform="matrix(.01236471 .99992355 -.99992355 .01236471 0 0)"><path d="m48.607231-48.107938c6.371714 0 11.501289 5.129575 11.501289 11.501289v11.77644c0 6.371714-5.129575 11.501289-11.501289 11.501289-6.371715 0-11.50129-5.129575-11.50129-11.501289v-11.77644c0-6.371714 5.129575-11.501289 11.50129-11.501289z"/><path d="m15.801779-49.13515c6.371714 0 11.501289 5.129575 11.501289 11.501289v11.77644c0 6.371714-5.129575 11.501289-11.501289 11.501289-6.371715 0-11.501289-5.129575-11.501289-11.501289v-11.77644c0-6.371714 5.129574-11.501289 11.501289-11.501289z"/></g><g transform="translate(-.943511 1.415267)"><path d="m28.191856 21.090387c1.929381 0 3.482638 1.891676 3.482638 4.241425v9.922597c0 2.34975-1.553257 4.241425-3.482638 4.241425-1.929382 0-3.482639-1.891675-3.482639-4.241425v-9.922597c0-2.349749 1.553257-4.241425 3.482639-4.241425z"/><path d="m36.564651 21.303345c1.929382 0 3.482638 1.891675 3.482638 4.241425v9.922597c0 2.349749-1.553256 4.241425-3.482638 4.241425s-3.482639-1.891676-3.482639-4.241425v-9.922597c0-2.34975 1.553257-4.241425 3.482639-4.241425z"/></g></svg>