<?xml version="1.0" encoding="UTF-8" standalone="no"?>
<svg
   enable-background="new 0 0 512 512"
   viewBox="0 0 512 512"
   version="1.1"
   id="svg2"
   sodipodi:docname="krokiet_manual_add.svg"
   inkscape:version="1.4 (e7c3feb100, 2024-10-09)"
   xmlns:inkscape="http://www.inkscape.org/namespaces/inkscape"
   xmlns:sodipodi="http://sodipodi.sourceforge.net/DTD/sodipodi-0.dtd"
   xmlns="http://www.w3.org/2000/svg"
   xmlns:svg="http://www.w3.org/2000/svg">
  <defs
     id="defs2" />
  <sodipodi:namedview
     id="namedview2"
     pagecolor="#ffffff"
     bordercolor="#000000"
     borderopacity="0.25"
     inkscape:showpageshadow="2"
     inkscape:pageopacity="0.0"
     inkscape:pagecheckerboard="0"
     inkscape:deskcolor="#d1d1d1"
     inkscape:zoom="0.803091"
     inkscape:cx="-31.129722"
     inkscape:cy="234.71811"
     inkscape:window-width="2110"
     inkscape:window-height="1371"
     inkscape:window-x="20"
     inkscape:window-y="20"
     inkscape:window-maximized="0"
     inkscape:current-layer="svg2" />
  <path
     d="m 71.791417,475.05523 -5.480294,21.88756 19.104071,-11.93623 -9.223431,-3.41049 z"
     style="fill:#161616;stroke:#356200;stroke-width:0"
     id="path6"
     sodipodi:nodetypes="ccccc" />
  <path
     style="fill:#161616;stroke:#356200;stroke-width:0;stroke-dasharray:none"
     d="m 101.90753,415.91461 12.45293,17.04858 19.74694,8.22373 69.9595,-87.38209 -17.25603,-17.42666 -23.93169,-13.50038 z"
     id="path7"
     sodipodi:nodetypes="ccccccc" />
  <path
     style="fill:#161616;stroke:#356200;stroke-width:0;stroke-dasharray:none"
     d="m 99.577071,426.08702 -22.290335,41.36898 5.218726,7.48286 8.678331,3.52102 34.536237,-31.61873 -16.51135,-7.24305 z"
     id="path8"
     sodipodi:nodetypes="ccccccc" />
  <path
     style="fill:#161616;stroke:#356200;stroke-width:0;stroke-dasharray:none"
     d="m 171.19801,315.74161 22.00422,10.85205 14.95158,15.13577 L 392.93278,96.130388 350.05277,68.143527 Z"
     id="path9"
     sodipodi:nodetypes="cccccc" />
  <path
     style="fill:#161616;stroke:#356200;stroke-width:0;stroke-dasharray:none"
     d="m 356.08538,58.706307 14.62872,-19.446043 56.27452,38.035783 10.44854,-13.856213 3.34354,2.644318 -100.933,133.061878 -3.13457,-2.53856 73.76678,-101.753189 z"
     id="path10"
     sodipodi:nodetypes="ccccccccc" />
  <path
     style="fill:#161616;stroke:#356200;stroke-width:0;stroke-dasharray:none"
     d="M 381.98339,33.528506 418.75428,58.344397 431.89942,41.800469 414.47756,26.57852 393.35217,16.26528 Z"
     id="path11"
     sodipodi:nodetypes="cccccc" />
</svg>
