<svg enable-background="new 0 0 512 512" viewBox="0 0 512 512" xmlns="http://www.w3.org/2000/svg"><g fill="#161616" stroke="#000"><path d="m223.55315 283.2298h64.70731c2.21339 0 3.9953 1.7819 3.9953 3.9953v152.82313c0 2.2134-1.78191 3.9953-3.9953 3.9953h-64.70731c-2.2134 0-3.9953-1.7819-3.9953-3.9953v-152.82313c0-2.2134 1.7819-3.9953 3.9953-3.9953z" stroke-width="4.42523" transform="matrix(.9999993 -.00118262 .00118635 .9999993 0 0)"/><path d="m-293.16464-389.15598h75.59023c2.2134 0 3.9953 1.78191 3.9953 3.99531v176.29325c0 2.2134-1.7819 3.9953-3.9953 3.9953h-75.59023c-2.2134 0-3.9953-1.7819-3.9953-3.9953v-176.29325c0-2.2134 1.7819-3.99531 3.9953-3.99531z" stroke-width="4.42523" transform="matrix(-.99999137 .00415535 -.00416846 -.99999131 0 0)"/><g stroke-width="4.67245" transform="matrix(.94709143 0 0 .94709143 11.140956 29.170868)"><path d="m-534.8596-155.16403h68.25024c2.33903 0 4.22207 1.88304 4.22207 4.22206v161.496927c0 2.339025-1.88304 4.222066-4.22207 4.222066h-68.25024c-2.33902 0-4.22207-1.883041-4.22207-4.222066v-161.496927c0-2.33902 1.88305-4.22206 4.22207-4.22206z" transform="matrix(-.68155158 -.73177007 .73283989 -.68040113 0 0)"/><path d="m-159.42492 366.69989h68.258253c2.338803 0 4.221667 1.88286 4.221667 4.22167v161.48173c0 2.3388-1.882864 4.22166-4.221667 4.22166h-68.258253c-2.33881 0-4.22167-1.88286-4.22167-4.22166v-161.48173c0-2.33881 1.88286-4.22167 4.22167-4.22167z" transform="matrix(.72408167 -.68971424 .69085266 .72299557 0 0)"/></g><path d="m-169.02104-236.76418h64.70731c2.2134 0 3.9953 1.78191 3.9953 3.99531v152.823127c0 2.213398-1.7819 3.995304-3.9953 3.995304h-64.70731c-2.2134 0-3.9953-1.781906-3.9953-3.995304v-152.823127c0-2.2134 1.7819-3.99531 3.9953-3.99531z" stroke-width="4.42523" transform="matrix(-.9999993 .00118262 -.00118635 -.9999993 0 0)"/><path d="m97.857158 132.00273h75.590222c2.2134 0 3.99531 1.78191 3.99531 3.9953v176.29326c0 2.2134-1.78191 3.9953-3.99531 3.9953h-75.590222c-2.213398 0-3.995303-1.7819-3.995303-3.9953v-176.29326c0-2.21339 1.781905-3.9953 3.995303-3.9953z" stroke-width="4.42523" transform="matrix(.99999137 -.00415535 .00416846 .99999131 0 0)"/><g stroke-width="4.672" transform="matrix(-.94709143 0 0 -.94709143 382.04986 490.3585)"><path d="m-534.8596-155.16403h68.25024c2.33903 0 4.22207 1.88304 4.22207 4.22206v161.496927c0 2.339025-1.88304 4.222066-4.22207 4.222066h-68.25024c-2.33902 0-4.22207-1.883041-4.22207-4.222066v-161.496927c0-2.33902 1.88305-4.22206 4.22207-4.22206z" transform="matrix(-.68155158 -.73177007 .73283989 -.68040113 0 0)"/><path d="m-159.42492 366.69989h68.258253c2.338803 0 4.221667 1.88286 4.221667 4.22167v161.48173c0 2.3388-1.882864 4.22166-4.221667 4.22166h-68.258253c-2.33881 0-4.22167-1.88286-4.22167-4.22166v-161.48173c0-2.33881 1.88286-4.22167 4.22167-4.22167z" transform="matrix(.72408167 -.68971424 .69085266 .72299557 0 0)"/></g><path d="m-408.39715-243.26366h64.7073c2.2134 0 3.99531 1.78191 3.99531 3.99531v152.823126c0 2.213398-1.78191 3.995303-3.99531 3.995303h-64.7073c-2.2134 0-3.99531-1.781905-3.99531-3.995303v-152.823126c0-2.2134 1.78191-3.99531 3.99531-3.99531z" stroke-width="4.42523" transform="matrix(-.9999993 .00118262 -.00118635 -.9999993 0 0)"/><path d="m337.2128 139.21378h75.59023c2.2134 0 3.9953 1.7819 3.9953 3.9953v176.29325c0 2.2134-1.7819 3.9953-3.9953 3.9953h-75.59023c-2.2134 0-3.9953-1.7819-3.9953-3.9953v-176.29325c0-2.2134 1.7819-3.9953 3.9953-3.9953z" stroke-width="4.42523" transform="matrix(.99999137 -.00415535 .00416846 .99999131 0 0)"/><g stroke-width="4.67245" transform="matrix(-.94709143 0 0 -.94709143 621.43349 496.57486)"><path d="m-534.8596-155.16403h68.25024c2.33903 0 4.22207 1.88304 4.22207 4.22206v161.496927c0 2.339025-1.88304 4.222066-4.22207 4.222066h-68.25024c-2.33902 0-4.22207-1.883041-4.22207-4.222066v-161.496927c0-2.33902 1.88305-4.22206 4.22207-4.22206z" transform="matrix(-.68155158 -.73177007 .73283989 -.68040113 0 0)"/><path d="m-159.42492 366.69989h68.258253c2.338803 0 4.221667 1.88286 4.221667 4.22167v161.48173c0 2.3388-1.882864 4.22166-4.221667 4.22166h-68.258253c-2.33881 0-4.22167-1.88286-4.22167-4.22166v-161.48173c0-2.33881 1.88286-4.22167 4.22167-4.22167z" transform="matrix(.72408167 -.68971424 .69085266 .72299557 0 0)"/></g></g></svg>