<?xml version="1.0" encoding="UTF-8" standalone="no"?>
<!-- Svg Vector Icons : http://www.onlinewebfonts.com/icon -->

<svg
   version="1.1"
   x="0px"
   y="0px"
   viewBox="0 0 256 256"
   enable-background="new 0 0 256 256"
   xml:space="preserve"
   id="svg3"
   sodipodi:docname="krokiet_select.svg"
   inkscape:version="1.3.1 (9b9bdc1480, 2023-11-25, custom)"
   xmlns:inkscape="http://www.inkscape.org/namespaces/inkscape"
   xmlns:sodipodi="http://sodipodi.sourceforge.net/DTD/sodipodi-0.dtd"
   xmlns="http://www.w3.org/2000/svg"
   xmlns:svg="http://www.w3.org/2000/svg"><defs
   id="defs3"><inkscape:path-effect
     effect="powerstroke"
     id="path-effect11"
     is_visible="true"
     lpeversion="1.3"
     scale_width="1"
     interpolator_type="CubicBezierJohan"
     interpolator_beta="0.2"
     start_linecap_type="zerowidth"
     end_linecap_type="zerowidth"
     offset_points="1,4"
     linejoin_type="extrp_arc"
     miter_limit="4"
     not_jump="false"
     sort_points="true"
     message="&lt;b&gt;Ctrl + click&lt;/b&gt; on existing node and move it" /><rect
     x="33.509233"
     y="37.680296"
     width="89.364874"
     height="132.93176"
     id="rect3" /></defs><sodipodi:namedview
   id="namedview3"
   pagecolor="#ffffff"
   bordercolor="#666666"
   borderopacity="1.0"
   inkscape:showpageshadow="2"
   inkscape:pageopacity="0.0"
   inkscape:pagecheckerboard="0"
   inkscape:deskcolor="#d1d1d1"
   inkscape:zoom="3.0078125"
   inkscape:cx="78.794805"
   inkscape:cy="136.97662"
   inkscape:window-width="1920"
   inkscape:window-height="1011"
   inkscape:window-x="0"
   inkscape:window-y="32"
   inkscape:window-maximized="1"
   inkscape:current-layer="g3" />
<metadata
   id="metadata1"> Svg Vector Icons : http://www.onlinewebfonts.com/icon </metadata>
<g
   id="g3"><text
     xml:space="preserve"
     id="text3"
     style="fill:black;fill-opacity:1;line-height:1.25;stroke:none;font-family:sans-serif;font-style:normal;font-weight:normal;font-size:40px;white-space:pre;shape-inside:url(#rect3)" /><rect
     style="fill:#000000;stroke-width:0.982537"
     id="rect10-7"
     width="70.233894"
     height="69.675865"
     x="85.125244"
     y="170.311" /><rect
     style="fill:#ffffff;stroke-width:0.982537"
     id="rect11-5"
     width="56.127159"
     height="54.372738"
     x="92.030647"
     y="178.2961" /><rect
     style="fill:#000000;stroke-width:0.982537"
     id="rect10-7-5"
     width="70.233894"
     height="69.675865"
     x="85.253555"
     y="86.387032" /><rect
     style="fill:#ffffff;stroke-width:0.982537"
     id="rect11-5-6"
     width="56.127159"
     height="54.372738"
     x="92.158958"
     y="94.372124" /><rect
     style="fill:#000000;stroke-width:0.982537"
     id="rect10-7-2"
     width="70.233894"
     height="69.675865"
     x="85.123772"
     y="7.644278" /><rect
     style="fill:#ffffff;stroke-width:0.982537"
     id="rect11-5-9"
     width="56.127159"
     height="54.372738"
     x="92.029175"
     y="15.62937" /><path
     style="fill:#000000;fill-rule:nonzero;stroke:none;stroke-width:1px;stroke-linecap:butt;stroke-linejoin:miter;stroke-opacity:1"
     d="m 98.874735,121.61476 c 0,0 -0.269061,2.23246 0.997252,8.42139 0.447833,2.18874 1.118453,4.76034 2.106203,7.20311 0.47577,1.17662 1.03458,2.34693 1.69231,3.44119 0.64975,1.08099 1.41107,2.11299 2.30843,3.01103 0.89998,0.90064 1.9515,1.681 3.17782,2.23185 1.24908,0.56107 2.63222,0.86201 4.13134,0.83978 1.52758,-0.0227 3.09841,-0.37944 4.68969,-1.04347 1.64654,-0.68709 3.3048,-1.69836 4.96918,-2.99727 3.67487,-2.86794 7.38349,-7.14241 11.05749,-12.40605 4.83474,-6.9266 9.35936,-15.21698 13.05639,-22.79186 0,0 -3.59471,-1.75445 -3.59471,-1.75445 0,0 -3.59471,-1.75445 -3.59471,-1.75445 -3.64434,7.46695 -7.77011,15.42553 -12.05588,22.17108 -3.25936,5.13005 -6.27905,9.03089 -9.03391,11.64969 -1.22991,1.16916 -2.34669,2.02491 -3.3548,2.6267 -0.96357,0.5752 -1.81685,0.912 -2.57238,1.07729 -0.73399,0.16058 -1.43593,0.17307 -2.13328,0.0318 -0.69999,-0.14177 -1.41803,-0.44352 -2.15378,-0.93026 -0.7364,-0.48716 -1.45747,-1.13809 -2.15459,-1.93073 -0.70308,-0.79942 -1.35929,-1.71721 -1.96657,-2.70568 -1.26523,-2.05943 -2.2792,-4.36171 -3.05689,-6.40788 -2.190364,-5.763 -2.514605,-7.98285 -2.514605,-7.98285 z"
     id="path11"
     inkscape:path-effect="#path-effect11"
     inkscape:original-d="m 98.874735,121.61476 c 0,0 7.532005,60.08673 44.591395,-15.84475" /></g>
</svg>
