<svg enable-background="new 0 0 512 512" viewBox="0 0 512 512" xmlns="http://www.w3.org/2000/svg"><g stroke-width="5.8631"><g stroke-width="6.00752"><path d="m14.017879 21.070109h484.695101v30h-484.695101z"/><path d="m14.017879 21.070109h484.695101v30h-484.695101z"/><path d="m14.017879 61.070109h484.695101v30h-484.695101z"/></g><path d="m14.017879 101.07011h217.657971v30h-217.657971z" stroke-width="4.02576"/><path d="m14.017879 141.07011h175.042411v30h-175.042411z" stroke-width="3.61021"/><path d="m14.017879 181.07011h130.893911v30h-130.893911z" stroke-width="3.12191"/><path d="m14.017879 221.07011h87.971751v30h-87.971751z" stroke-width="2.55937"/><path d="m14.017879 261.07011h88.584921v30h-88.584921z" stroke-width="2.56827"/><path d="m14.017879 301.07011h136.412471v30h-136.412471z" stroke-width="3.18704"/><path d="m14.017879 341.07011h179.334621v30h-179.334621z" stroke-width="3.65421"/><path d="m14.017879 381.07011h217.790251v30h-217.790251z" stroke-width="4.02699"/><path d="m14.017879 421.07011h484.695101v30h-484.695101z" stroke-width="6.00752"/><path d="m14.017879 461.07011h484.695101v30h-484.695101z" stroke-width="6.00752"/><path d="m231.27168 145.68135h52.119762v226.26108h-52.119762z" fill="#003ba8" stroke-width="26.8114"/><path d="m146.6537 231.73607h220.12932v47.214363h-220.12932z" fill="#003ba8" stroke-width="30"/><path d="m500.66671 21.094435h-484.694997v30h484.694997z" stroke-width="6.00752"/><path d="m500.66671 21.094435h-484.694997v30h484.694997z" stroke-width="6.00752"/><path d="m500.66671 61.094435h-484.694997v30h484.694997z" stroke-width="6.00752"/><path d="m500.66671 101.09444h-219.19083v30h219.19083z" stroke-width="4.03991"/><path d="m500.66671 141.09444h-175.0424v30h175.0424z" stroke-width="3.61021"/><path d="m500.66671 181.09444h-130.8938v30h130.8938z" stroke-width="3.12191"/><path d="m500.66671 221.09444h-87.9717v30h87.9717z" stroke-width="2.55938"/><path d="m500.66671 261.09444h-88.5849v30h88.5849z" stroke-width="2.56826"/><path d="m500.66671 301.09444h-136.4124v30h136.4124z" stroke-width="3.18705"/><path d="m500.66671 341.09444h-179.3345v30h179.3345z" stroke-width="3.65421"/><path d="m500.66671 381.09444h-217.79023v30h217.79023z" stroke-width="4.02699"/><path d="m500.66671 421.09444h-484.694997v30h484.694997z" stroke-width="6.00752"/><path d="m500.66671 461.09444h-484.694997v30h484.694997z" stroke-width="6.00752"/><path d="m-283.41296 145.70567h52.119759v226.26108h-52.119759z" stroke-width="26.8114" transform="scale(-1 1)"/><path d="m-368.03101 231.76039h220.1293v47.214363h-220.1293z" stroke-width="30" transform="scale(-1 1)"/></g></svg>