<svg enable-background="new 0 0 512 512" viewBox="0 0 512 512" xmlns="http://www.w3.org/2000/svg"><g fill="#161616"><path d="m71.791417 475.05523-5.480294 21.88756 19.104071-11.93623-9.223431-3.41049z"/><path d="m101.90753 415.91461 12.45293 17.04858 19.74694 8.22373 69.9595-87.38209-17.25603-17.42666-23.93169-13.50038z"/><path d="m99.577071 426.08702-22.290335 41.36898 5.218726 7.48286 8.678331 3.52102 34.536237-31.61873-16.51135-7.24305z"/><path d="m171.19801 315.74161 22.00422 10.85205 14.95158 15.13577 184.77897-245.599042-42.88001-27.986861z"/><path d="m356.08538 58.706307 14.62872-19.446043 56.27452 38.035783 10.44854-13.856213 3.34354 2.644318-100.933 133.061878-3.13457-2.53856 73.76678-101.753189z"/><path d="m381.98339 33.528506 36.77089 24.815891 13.14514-16.543928-17.42186-15.221949-21.12539-10.31324z"/></g></svg>