<svg height="512" viewBox="0 0 24 24" width="512" xmlns="http://www.w3.org/2000/svg"><path d="m12 1c-11.627-.019-16.414 15.17-6.888 21.818l.259.182h13.258l.259-.182c9.53-6.651 4.733-21.838-6.888-21.818zm5.988 20h-11.976c-7.645-5.68-3.542-18.024 5.988-18 9.53-.024 13.633 12.322 5.988 18z"/><path d="m9.5608521 3.5307312v2.4903259c-.7403366.2615617-1.425473.6569207-2.0201111 1.1660157l-2.1565247-1.2401734-2.1156006 3.6782227 2.1579895 1.2415469c-.072405.384649-.1085815.769315-.1085815 1.148987s.0361766.764336.1085815 1.148986l-2.1579895 1.241547 2.1148682 3.67749 2.1565246-1.240173c.594623.509848 1.2798359.904302 2.0202027 1.166015v2.490326h4.2423708v-2.490326c.740338-.261562 1.425525-.65692 2.01947-1.166015l2.157257 1.240173 2.114868-3.67749-2.157989-1.240997c.0724-.384649.108581-.769294.108581-1.14972l.000733.000367c0-.380426-.036175-.765071-.108582-1.14972l2.15799-1.2409969-2.114868-3.6775818-2.157349 1.2402649c-.594623-.5098492-1.27972-.9043031-2.019379-1.1660156v-2.4910584zm1.4706119 4.1268311h1.314239v3.4841307h3.770416v1.314148h-3.770416v4.110352h-1.314239v-4.110352h-3.8238834v-1.314148h3.8238834z" stroke-width=".707076"/></svg>