<svg viewBox="0 0 512 512" xmlns="http://www.w3.org/2000/svg"><path d="m296 186.72a80 80 0 1 0 29.282 109.28 80.24 80.24 0 0 0 -29.282-109.28zm109.58 155.64a165.53 165.53 0 0 1 -12.59 18.527l23.107 57.358a11.59 11.59 0 0 1 -5.1124 14.115l-79.649 45.836a11.64 11.64 0 0 1 -14.711-2.8005l-38.08-48.544a176.56 176.56 0 0 1 -44.954.2228l-37.803 48.357a11.93 11.93 0 0 1 -14.898 2.784l-79.778-46.06a12 12 0 0 1 -5.203-14.008l22.977-56.917a169.3 169.3 0 0 1 -22.274-39.06l-61.08-8.7064a11.64 11.64 0 0 1 -9.7856-11.331l-.13413-91.888a11.59 11.59 0 0 1 9.6676-11.485l61.227-8.6679a174.58 174.58 0 0 1 9.9147-20.453 165.53 165.53 0 0 1 12.59-18.527l-23.107-57.358a11.59 11.59 0 0 1 5.1124-14.115l79.649-45.836a11.64 11.64 0 0 1 14.711 2.8005l38.08 48.544a176.56 176.56 0 0 1 44.954-.2228l37.803-48.357a11.93 11.93 0 0 1 14.898-2.784l79.778 46.06a12 12 0 0 1 5.203 14.008l-22.977 56.917a169.3 169.3 0 0 1 22.317 39.085l61.037 8.6814a11.64 11.64 0 0 1 9.7856 11.331l.12913 91.896a11.59 11.59 0 0 1 -9.6676 11.485l-61.227 8.6679a174.58 174.58 0 0 1 -9.9097 20.444z"/></svg>