<svg viewBox="0 0 512 512" xmlns="http://www.w3.org/2000/svg"><path d="m259.96 178.63c-116.38.46054-109.81 154.42-4.8963 157.07 110.82 2.7975 108.63-157.48 4.8963-157.07zm-4.5114 238.17-59.661 58.623c-3.663 4.3684-9.9047 5.5348-14.898 2.784l-79.778-46.06c-4.7847-2.888-6.9422-8.6968-5.203-14.008l22.977-56.917c-9.1283-11.972-16.619-25.108-22.274-39.06l-61.08-8.7064c-5.5804-.89998-9.7077-5.679-9.7856-11.331l-.13413-91.888c-.02721-5.6801 4.0661-10.543 9.6676-11.485l61.227-8.6679c2.8571-7.0258 6.169-13.858 9.9147-20.453 3.7735-6.4529 7.9798-12.643 12.59-18.527l-23.107-57.358c-1.985-5.3221.17966-11.298 5.1124-14.115l79.649-45.836c4.933-2.7634 11.138-1.5821 14.711 2.8005l66.966 73.793c-6.8372 161.75-1.2386 214.48-6.8946 306.41z"/><g stroke-width=".8921"><path d="m275 50h200v20h-200z"/><path d="m275 85h200v20h-200z"/><path d="m275 120h200v20h-200z"/><path d="m275 155h200v20h-200z"/></g><path d="m335 190h140v20h-140z" stroke-width=".74638"/><path d="m345 225h130v20h-130z" stroke-width=".71923"/><g transform="scale(1 -1)"><g stroke-width=".89168"><path d="m273.16-466.69h199.81v20h-199.81z"/><path d="m273.16-431.69h199.81v20h-199.81z"/><path d="m273.16-396.69h199.81v20h-199.81z"/><path d="m273.16-361.69h199.81v20h-199.81z"/></g><path d="m333.1-326.69h139.87v20h-139.87z" stroke-width=".74603"/><path d="m343.09-291.69h129.88v20h-129.88z" stroke-width=".71889"/></g></svg>