<?xml version="1.0" encoding="UTF-8"?>
<svg version="1.1" viewBox="0 0 512 512" xmlns="http://www.w3.org/2000/svg">
<path d="m259.96 178.63c-116.38 0.46054-109.81 154.42-4.8963 157.07 110.82 2.7975 108.63-157.48 4.8963-157.07zm-4.5114 238.17-59.661 58.623c-3.663 4.3684-9.9047 5.5348-14.898 2.784l-79.778-46.06c-4.7847-2.888-6.9422-8.6968-5.203-14.008l22.977-56.917c-9.1283-11.972-16.619-25.108-22.274-39.06l-61.08-8.7064c-5.5804-0.89998-9.7077-5.679-9.7856-11.331l-0.13413-91.888c-0.02721-5.6801 4.0661-10.543 9.6676-11.485l61.227-8.6679c2.8571-7.0258 6.169-13.858 9.9147-20.453 3.7735-6.4529 7.9798-12.643 12.59-18.527l-23.107-57.358c-1.985-5.3221 0.17966-11.298 5.1124-14.115l79.649-45.836c4.933-2.7634 11.138-1.5821 14.711 2.8005l66.966 73.793c-6.8372 161.75-1.2386 214.48-6.8946 306.41z"/>
<rect x="275" y="50" width="200" height="20" stroke-width=".8921"/>
<rect x="275" y="85" width="200" height="20" stroke-width=".8921"/>
<rect x="275" y="120" width="200" height="20" stroke-width=".8921"/>
<rect x="275" y="155" width="200" height="20" stroke-width=".8921"/>
<rect x="335" y="190" width="140" height="20" stroke-width=".74638"/>
<rect x="345" y="225" width="130" height="20" stroke-width=".71923"/>
<rect transform="scale(1,-1)" x="273.16" y="-466.69" width="199.81" height="20" stroke-width=".89168"/>
<rect transform="scale(1,-1)" x="273.16" y="-431.69" width="199.81" height="20" stroke-width=".89168"/>
<rect transform="scale(1,-1)" x="273.16" y="-396.69" width="199.81" height="20" stroke-width=".89168"/>
<rect transform="scale(1,-1)" x="273.16" y="-361.69" width="199.81" height="20" stroke-width=".89168"/>
<rect transform="scale(1,-1)" x="333.1" y="-326.69" width="139.87" height="20" stroke-width=".74603"/>
<rect transform="scale(1,-1)" x="343.09" y="-291.69" width="129.88" height="20" stroke-width=".71889"/>
</svg>

