<?xml version="1.0" encoding="UTF-8" standalone="no"?>
<svg
   width="4096"
   height="1024"
   viewBox="0 0 4096 1024"
   version="1.1"
   id="svg1"
   sodipodi:docname="krokiet_logo_name_horizontal.svg"
   inkscape:version="1.4.3 (0d15f75042, 2025-12-25)"
   inkscape:export-filename="krokiet_logo_name_horizontal.png"
   inkscape:export-xdpi="48"
   inkscape:export-ydpi="48"
   xml:space="preserve"
   xmlns:inkscape="http://www.inkscape.org/namespaces/inkscape"
   xmlns:sodipodi="http://sodipodi.sourceforge.net/DTD/sodipodi-0.dtd"
   xmlns:xlink="http://www.w3.org/1999/xlink"
   xmlns="http://www.w3.org/2000/svg"
   xmlns:svg="http://www.w3.org/2000/svg"><defs
     id="defs1"><linearGradient
       id="linearGradient6"
       inkscape:collect="always"><stop
         style="stop-color:#97b8ff;stop-opacity:1;"
         offset="0"
         id="stop6" /><stop
         style="stop-color:#da0000;stop-opacity:1;"
         offset="1"
         id="stop7" /></linearGradient><rect
       x="1203.616"
       y="124.87082"
       width="2816.5308"
       height="835.94079"
       id="rect1" /><clipPath
       clipPathUnits="userSpaceOnUse"
       id="clipPath24"><rect
         style="fill:none;stroke:#000000;stroke-width:0.999999;stroke-linecap:butt;stroke-linejoin:bevel;paint-order:stroke markers fill;stop-color:#000000"
         id="rect24"
         width="44.999748"
         height="77.937294"
         x="251.53429"
         y="222.73541" /></clipPath><linearGradient
       id="swatch21"
       inkscape:swatch="solid"><stop
         style="stop-color:#ffffff;stop-opacity:1;"
         offset="0"
         id="stop21" /></linearGradient><clipPath
       clipPathUnits="userSpaceOnUse"
       id="clipPath16"><rect
         style="fill:none;stroke:#000000;stroke-linecap:butt;stroke-linejoin:bevel;paint-order:stroke markers fill;stop-color:#000000"
         id="rect15"
         width="45.034248"
         height="38.955639"
         x="262.48285"
         y="121.00073" /></clipPath><clipPath
       clipPathUnits="userSpaceOnUse"
       id="clipPath15"><rect
         style="fill:none;stroke:#000000;stroke-linecap:butt;stroke-linejoin:bevel;paint-order:stroke markers fill;stop-color:#000000"
         id="rect15-7"
         width="45.034248"
         height="38.955639"
         x="262.48285"
         y="121.00073" /></clipPath><linearGradient
       inkscape:collect="always"
       xlink:href="#linearGradient6"
       id="linearGradient7"
       x1="6096.8652"
       y1="640.51953"
       x2="-1111.5651"
       y2="617.91211"
       gradientUnits="userSpaceOnUse"
       gradientTransform="translate(71.128143,-68.675448)" /></defs><sodipodi:namedview
     id="namedview1"
     pagecolor="#505050"
     bordercolor="#eeeeee"
     borderopacity="1"
     inkscape:showpageshadow="0"
     inkscape:pageopacity="0"
     inkscape:pagecheckerboard="0"
     inkscape:deskcolor="#505050"
     inkscape:zoom="0.28829794"
     inkscape:cx="1729.114"
     inkscape:cy="1052.7304"
     inkscape:window-width="2560"
     inkscape:window-height="1371"
     inkscape:window-x="0"
     inkscape:window-y="0"
     inkscape:window-maximized="1"
     inkscape:current-layer="svg1"
     showguides="false" /><text
     xml:space="preserve"
     style="font-size:400px;font-family:Carlito;-inkscape-font-specification:Carlito;writing-mode:lr-tb;direction:ltr;fill:#ffffff;fill-opacity:1;stroke:#000000;stroke-width:7.067;stroke-opacity:1"
     x="709.33563"
     y="995.06439"
     id="text2"><tspan
       sodipodi:role="line"
       id="tspan2"
       x="709.33563"
       y="995.06439" /></text><text
     xml:space="preserve"
     id="text1"
     style="font-size:400px;font-family:Carlito;-inkscape-font-specification:Carlito;writing-mode:lr-tb;direction:ltr;white-space:pre;shape-inside:url(#rect1);display:inline;fill:#000000;stroke-width:7.067" /><text
     xml:space="preserve"
     style="font-style:normal;font-variant:normal;font-weight:normal;font-stretch:normal;font-size:666.667px;line-height:12.8;font-family:'Arial Black';-inkscape-font-specification:'Arial Black, ';letter-spacing:0px;writing-mode:lr-tb;direction:ltr;fill:#000000;stroke:url(#linearGradient7);stroke-width:30;stroke-dasharray:none;stroke-opacity:1"
     x="1091.748"
     y="787.0014"
     id="text3"><tspan
       sodipodi:role="line"
       id="tspan3"
       x="1091.748"
       y="787.0014"
       style="font-style:normal;font-variant:normal;font-weight:bold;font-stretch:normal;font-size:666.667px;line-height:12.8;font-family:Sans;-inkscape-font-specification:'Sans Bold';letter-spacing:0px;fill:#ffffff;fill-opacity:1;stroke:url(#linearGradient7);stroke-width:30;stroke-dasharray:none;stroke-opacity:1">Cedinia</tspan></text><text
     xml:space="preserve"
     style="font-size:400px;font-family:Carlito;-inkscape-font-specification:Carlito;writing-mode:lr-tb;direction:ltr;fill:#ffffff;fill-opacity:1;stroke:#000000;stroke-width:7.067;stroke-opacity:1"
     x="807.33557"
     y="262.06412"
     id="text2-6"><tspan
       sodipodi:role="line"
       id="tspan2-0"
       x="807.33557"
       y="262.06412" /></text><g
     id="g1"
     transform="matrix(0.21450577,0,0,0.21450577,25.499059,34.20738)"><path
       d="m 3329.6,42.7 h 7 l 12,3 13,8 3,3 -2,5 -8,10 -9,11 -14,15 -2,3 19,-3 h 34 l 24,4 15,6 9,6 9,7 10,9 v 3 l -14,4 -8,3 -15,5 -24,7 -10,4 -5,2 -1,2 h 25 l 34,3 29,5 9,3 14,7 v 2 l 5,2 5,5 6,8 -6,4 -17,8 -15,7 h -2 v 2 l 12,2 15,5 13,6 18,10 12,9 5,5 6,5 1,3 -8,5 -23,12 -17,8 -23,10 -15,6 -12,5 -13,5 -10,4 -20,8 -12,5 -4,1 v 3 l 16,-2 25,-2 18,-2 41,-2 h 50 l -4,13 -7,14 -7,10 -5,4 -1,3 10,3 10,6 15,11 10,9 9,9 2,5 3,1 2,6 -12,3 -13,4 -19,5 -19,5 -15,4 -20,5 -27,6 -3,2 12,3 31,7 13,3 23,5 27,6 22,6 7,3 6,2 -2,5 -7,11 -7,9 h -2 l -2,4 -9,9 h -2 v 2 l -11,9 -6,4 h -2 v 2 l -21,12 -13,6 -13,5 -9,2 v 3 l 18,2 4,1 h 28 l 7,-1 -3,5 -7,7 -6,9 -6,9 -9,4 -16,4 -18,3 -38,3 -6,1 -40,2 h -30 v 2 l 6,1 9,3 26,7 18,5 9,3 23,7 8,3 19,7 9,6 2,3 1,5 v 7 l -14,4 -26,4 -11,2 -30,2 -22,1 -10,1 h -67 l -26,-2 -40,-2 -40,-4 -50,-6 -38,-6 -15,-3 -27,-5 -35,-7 -12,-3 -22,-5 -21,-5 -10,-2 -6,-2 -15,-3 -16,-4 -19,-5 -9,-3 -32,-8 -20,-6 -15,-4 -9,-3 -25,-8 -12,-4 -5,-1 -12,12 -10,7 -8,5 h -3 v 2 l -16,5 h -11 l -15,-4 -12,-7 -13,-10 -5,-4 -6,2 -18,10 -13,6 -11,4 -4,1 h -17 l -11,-3 -10,-5 v -2 l -6,-2 -8,-7 -4,-1 v 2 l -15,7 -13,5 -17,4 h -12 l -9,-2 -14,-4 -20,-11 h -7 l -16,5 -8,3 -36,12 -8,3 -13,5 -21,7 -8,3 -15,5 -15,5 -9,3 -16,5 -16,4 -9,3 -24,6 -16,4 -24,5 -23,3 -19,1 1,-9 4,-18 4,-38 -22,3 -17,3 -39,6 -24,4 -47,7 -10,2 -23,3 -16,3 -41,7 -25,4 -21,4 -15,2 -17,3 -46,7 -17,3 -15,2 -17,3 -17,3 -27,4 -16,3 -41,7 -19,4 -3,12 -5,19 -7,19 -8,16 -8,13 -10,14 -10,13 -12,14 -9,11 -14,15 -7,7 -7,8 -19,19 -8,7 -7,7 -8,7 -16,16 -7,8 -3,6 -5,23 -4,19 -3,21 -2,10 -3,22 -4,26 -3,18 -3,23 -3,20 -6,39 -4,24 -5,32 -7,50 -2,10 -3,23 -2,13 -3,25 -3,20 -4,25 -3,25 -3,21 -2,15 -2,11 -3,23 -2,12 -3,28 -2,16 -3,25 -5,16 -4,10 -8,19 v 6 l 15,15 v 2 h 2 l 7,8 15,15 7,8 4,4 v 2 l 3,1 7,8 26,26 8,7 11,11 8,7 9,7 v 2 l 4,2 11,9 14,10 13,9 21,12 14,8 17,8 13,6 12,4 8,3 14,4 6,1 h 15 l 9,-2 16,-8 3,-1 v -2 l 8,-7 9,-10 7,-11 1,-3 h 2 l 1,-5 5,-11 5,-13 5,-14 5,-14 6,-20 3,-9 4,-16 6,-28 3,-20 2,-10 5,-33 v -12 l -8,-11 -2,-6 2,-40 3,-31 3,-33 2,-15 3,-33 4,-25 6,-16 5,-10 h 2 l 2,-6 8,-15 8,-20 4,-10 6,-18 3,-8 7,-23 3,-9 7,-21 5,-14 3,-8 5,-14 7,-20 5,-13 6,-13 8,-16 6,-12 h 2 l 2,-7 12,-21 4,-7 h 2 l 2,-6 7,-10 9,-14 h 2 l 2,-5 9,-13 12,-17 h 2 l 2,-5 10,-13 9,-11 9,-10 8,-10 5,-5 5,-6 5,-5 7,-7 7,-8 8,-8 3,-4 h 2 l 2,-4 10,-9 13,-12 h 2 l 1,-3 11,-9 17,-16 10,-9 12,-11 10,-9 12,-11 8,-7 7,-6 5,-5 15,-16 10,-11 3,-5 h 2 l 2,-5 10,-14 1,-2 h 2 l 2,-5 6,-9 h 2 l 2,-5 6,-10 h 2 l 2,-5 5,-9 4,-4 6,12 6,10 7,11 8,11 7,9 11,13 5,6 5,5 8,8 7,8 7,6 5,5 5,5 14,14 7,6 6,7 8,7 13,12 11,11 4,3 v 2 l 4,2 1,3 4,2 1,3 4,2 7,8 13,13 7,8 4,5 5,5 8,8 7,8 14,15 9,11 6,7 9,11 9,11 3,4 v 2 h 2 l 8,11 v 2 h 2 l 10,14 8,11 3,3 10,13 2,5 h 2 l 6,10 11,18 10,17 12,23 4,8 5,11 v 3 h 2 l 5,12 4,10 6,13 4,12 4,10 4,11 6,18 7,23 4,16 3,9 7,24 6,8 9,10 7,7 6,8 4,8 2,16 2,17 4,39 2,16 3,46 2,28 v 16 l -5,17 -4,8 -5,11 -3,6 -1,7 6,21 4,13 6,21 3,8 6,18 6,18 3,8 5,13 7,20 4,9 6,15 7,15 8,18 9,17 8,16 9,16 6,9 6,11 11,17 10,15 v 2 h 2 l 8,12 v 2 h 2 l 4,6 11,14 5,5 9,10 7,7 7,8 7,6 5,5 8,8 10,8 15,12 13,9 11,7 10,7 14,9 v 2 l 6,2 10,7 17,10 22,12 21,10 23,10 12,5 16,6 18,6 8,3 14,5 15,5 23,7 8,3 15,5 25,8 14,4 8,3 15,5 20,7 4,2 21,2 20,1 24,2 40,3 15,2 379,108.2 419.4,152 c -32,704.3 -82.3,914.3 -231.8,1245.8 l -368,492.3 -282.6,211.7 -12,6 h -3 v 2 l -7,3 h -3 v 2 l -7,3 h -3 v 2 l -6,-1 -23,-11 -17,-8 -12,-7 -16,-8 -16,-8 -27,-14 -25,-13 v -2 l -6,-2 -21,-12 -17,-10 -16,-9 v -2 l -6,-2 -11,-7 -11,-7 -16,-10 -10,-6 -11,-7 -14,-9 -5,-2 -14,4 -26,7 -15,4 -15,4 -25,6 -25,6 -16,4 -15,4 -30,7 -15,4 -15,4 -26,6 -33,8 -15,3 -16,4 -15,4 -30,7 -16,4 -16,4 -27,6 -16,4 -31,7 -22,5 -12,3 -31,7 -6,2 -26,6 -34,7 -11,3 -13,3 -20,4 -12,3 -32,7 -12,3 -34,7 -12,3 -6,1 h -19 l -20,-3 -16,-3 -20,-4 -19,-3 -8,-2 -19,-3 -8,-2 -19,-3 -16,-3 -28,-5 -12,-2 -8,-2 -18,-3 -8,-2 -17,-3 -8,-2 -32,-6 -26,-5 -12,-2 -8,-2 -18,-3 -8,-2 -18,-3 -24,-5 -21,-4 -13,-3 -42,-8 -12,-3 -23,-5 -23,-5 -34,-7 -13,-3 -33,-7 -13,-3 -23,-5 -34,-7 -12,-3 -27,-6 -29,-6 -13,-3 -33,-7 -12,-3 -27,-6 -22,-5 -26,-6 -12,-3 -21,-5 -27,-6 -17,-4 -21,-5 -29,-7 -15,-4 -15,-4 -21,-5 -21,-5 -26,-6 -17,-4 -25,-6 -19,-5 -25,-6 -16,-4 -15,-4 -10,-2 -6,-2 -14,-3 -6,-2 -13,-3 v -4 l 12,-16 9,-12 13,-16 14,-19 8,-11 8,-11 1,-2 h 2 l 2,-5 10,-12 13,-17 6,-8 10,-13 8,-11 11,-14 10,-13 11,-14 11,-14 10,-13 10,-14 1,-2 h 2 l 2,-5 9,-12 11,-14 11,-14 13,-17 9,-12 13,-18 11,-14 11,-14 13,-16 8,-11 8,-11 13,-18 6,-8 h 2 l 2,-5 12,-14 8,-11 10,-13 12,-16 10,-13 9,-11 11,-14 11,-14 3,-5 h 2 l 2,-5 9,-11 2,-4 h 2 l 2,-5 9,-11 11,-14 10,-13 1,-2 h 2 l 2,-5 8,-13 v -11 l -6,-27 -4,-16 -4,-16 -2,-9 -2,-6 -6,-24 -6,-27 -4,-18 -2,-12 -2,-8 -4,-21 -4,-23 -4,-21 -4,-20 -5,-27 -3,-17 -4,-27 -3,-17 -5,-36 -5,-43 -2,-22 -2,-16 -3,-42 -3,-39 -1,-21 -1,-81 -1,-40 -2,-29 -2,-16 -6,-28 -4,-19 -4,-16 -6,-25 -2,-5 -3,-13 -3,-9 -7,-24 -5,-15 -4,-10 -6,-16 -4,-10 -6,-15 -7,-15 -8,-17 -13,-23 -8,-13 -7,-11 -5,-9 -8,-12 -11,-13 -7,-9 -5,-5 -12,-13 -8,-8 -8,-6 -5,-5 -13,-11 -14,-12 -10,-8 -12,-11 -12,-11 -11,-10 -8,-7 -12,-11 -5,-6 v -2 h -2 l -8,-13 -10,-18 -10,-21 v -3 h -2 l -8,-16 -10,-16 -7,-11 -10,-15 -7,-10 -8,-12 -13,-19 -10,-15 -7,-11 -14,-23 -11,-17 -8,-13 v -2 h -2 l -10,-18 -12,-20 -6,-10 -13,-23 -8,-16 -10,-21 -4,-9 -4,-8 -7,-16 -4,-9 -5,-12 -6,-18 -3,-8 -5,-17 -5,-25 -3,-24 -1,-25 1,-18 4,-35 3,-27 3,-36 2,-16 2,-29 v -14 l -8,-11 -11,-12 -27,-27 1,-8 4,-11 5,-15 7,-21 8,-22 7,-21 3,-8 5,-13 7,-20 5,-14 3,-8 5,-14 5,-14 8,-21 4,-12 3,-8 5,-14 5,-14 7,-20 4,-10 4,-11 7,-19 3,-8 5,-14 8,-22 4,-12 5,-12 5,-14 4,-10 11,-29 5,-13 4,-10 4,-11 7,-19 4,-10 6,-16 6,-13 8,-20 6,-16 4,-10 6,-16 6,-13 9,-22 5,-12 5,-12 5,-12 6,-12 -1,-4 -5,-13 -7,-18 -7,-21 -1,-1 -9,1 -24,4 -13,3 -22,5 -27,6 -17,4 -28,6 -23,5 -22,5 -17,4 -36,8 -21,4 -13,3 -33,7 -18,4 -22,5 -31,7 -21,4 -12,3 -35,7 -12,3 -22,5 -23,5 -21,3 h -20 l -25,-5 -16,-8 -9,-7 -5,-5 -6,-7 v -2 h -2 l -6,-12 -6,-18 -5,-21 -5,-25 -3,-29 3,-23 4,-11 7,-12 6,-7 8,-7 11,-8 8,-5 11,-5 17,-5 34,-7 13,-3 12,-2 8,-2 18,-3 8,-2 18,-3 13,-3 41,-7 14,-3 27,-5 41,-7 8,-2 19,-3 21,-4 26,-5 20,-4 40,-7 21,-4 20,-4 13,-2 8,-2 19,-3 16,-3 17,-3 30,-5 3,-10 6,-17 7,-15 8,-16 7,-11 4,-7 h 2 l 2,-5 11,-14 5,-6 8,-7 13,-10 6,-4 13,-6 12,-4 26,-6 9,-5 h 2 v -2 l 16,-9 14,-7 14,-5 20,-4 32,-2 13,-4 30,-11 13,-4 23,-4 h 43 l 17,-4 8,-3 25,-8 24,-5 h 26 l 25,5 12,5 12,7 10,8 7,8 10,13 9,15 8,16 9,20 11,19 7,-1 31,-4 26,-4 24,-4 16,-2 16,-3 15,-2 9,-2 21,-3 16,-3 15,-2 16,-3 49,-7 16,-3 15,-2 10,-2 24,-3 10,-2 22,-3 17,-3 51,-7 17,-3 17,-3 28,-4 10,-2 24,-3 11,-2 22,-3 17,-3 10,-1 -2,-5 -6,-13 -3,-12 7,-3 26,-6 25,-4 39,-3 22,-2 41,-2 102,-4 24,-1 10,-1 9,-6 13,-11 6,-4 9,-6 9,-4 16,-4 16,1 19,3 7,1 4,-6 h 2 l 2,-5 11,-11 10,-7 8,-4 12,-4 h 19 l 18,5 13,7 4,1 1,-5 5,-8 h 2 l 2,-5 11,-12 6,-5 h 2 v -2 l 14,-5 h 13 l 15,4 11,6 4,-1 7,-9 8,-8 7,-4 3,-1 34,-1 13,-9 h 2 v -2 l 13,-8 h 2 v -2 l 10,-6 18,-11 20,-12 15,-9 h 2 v -2 l 9,-5 16,-9 23,-13 16,-8 19,-9 16,-8 13,-6 11,-5 14,-6 15,-7 22,-10 15,-6 19,-7 10,-4 23,-9 18,-6 16,-5 13,-4 9,-2 9,-3 26,-7 15,-4 16,-4 34,-7 12,-3 28,-5 z"
       fill="#070908"
       id="path1" /><path
       d="m 3109.6,2225.7 h 58 l 77,3 32,2 53,5 14,2 30,3 13,2 25,3 26,4 22,4 37,7 12,3 31,7 16,4 15,4 28,7 18,5 9,3 25,7 8,3 24,7 25,8 15,5 22,7 7,3 20,7 10,4 16,6 12,5 13,5 13,6 12,4 9,4 14,6 15,7 12,5 9,4 12,5 21,9 21,10 14,7 9,4 20,9 16,8 19,10 8,4 2,2 2,24 2,63 v 105 l -2,68 -2,26 -3,49 -2,19 -3,44 -3,30 -2,24 -2,14 -3,29 -3,20 -2,16 -2,11 -3,24 -3,20 -2,15 -3,16 -4,22 -5,25 -7,38 -5,25 -4,17 -7,33 -4,16 -6,24 -3,9 -2,9 -3,9 -5,17 -7,25 -4,13 -4,13 -10,32 -3,9 -4,13 -4,10 -5,14 -4,10 -7,20 -8,20 -7,17 -6,13 -9,21 -4,8 -11,23 -9,17 -1,3 h -2 l -1,5 -12,23 -13,23 -2,4 h -2 l -2,6 -11,19 h -2 l -2,6 -8,11 -6,9 -4,7 -8,12 -9,13 -1,2 h -2 l -2,5 -10,13 -1,2 h -2 l -2,5 -9,11 -8,11 -10,13 -12,14 -12,13 -12,14 -11,12 -7,8 -9,10 -7,8 -20,20 -8,7 -15,14 -3,1 -2,4 -8,7 -4,4 h -2 l -2,4 -7,6 -7,8 -8,7 h -2 v 2 l -11,9 -11,9 h -2 v 2 l -11,8 -13,10 -13,10 h -2 v 2 l -14,10 -13,10 -14,10 -17,12 -15,10 -11,7 -13,8 -11,7 -22,13 -10,6 -11,7 -21,12 -19,11 -22,12 -16,8 -6,-1 -17,-7 -13,-6 -19,-9 -15,-8 -16,-8 -20,-11 -16,-8 -11,-6 -9,-5 -15,-9 -10,-6 -13,-8 -13,-8 -15,-9 -7,-4 v -2 l -5,-2 -10,-7 -14,-10 -19,-13 -5,-4 -16,-11 -2,-1 v -2 l -5,-2 -8,-6 v -2 l -5,-2 -1,-3 -5,-2 -10,-9 -11,-9 -10,-9 -14,-12 -11,-10 -8,-7 -12,-11 -10,-9 -40,-40 v -2 l -4,-2 -9,-10 -7,-8 -5,-5 -14,-15 -9,-11 -11,-13 -8,-10 -8,-10 v -2 l -3,-1 -11,-14 -11,-14 -10,-14 v -2 h -2 l -6,-9 -7,-10 -9,-13 -10,-15 -10,-15 -8,-12 -10,-16 -11,-19 -10,-17 -6,-10 -7,-14 -4,-7 v -3 h -2 l -5,-11 -9,-19 -7,-15 -13,-28 -7,-15 -11,-26 -9,-24 -6,-17 -5,-14 -5,-14 -5,-14 -6,-18 -6,-19 -3,-8 -7,-21 -3,-8 -6,-21 -8,-27 -6,-25 -6,-25 -6,-25 -3,-12 -5,-21 -5,-23 -5,-24 -2,-12 -2,-8 -3,-19 -3,-16 -2,-13 -2,-9 -3,-19 -2,-9 -3,-21 -2,-11 -3,-24 -2,-10 -5,-34 -3,-29 -2,-16 -3,-33 -2,-17 -4,-46 -4,-70 -1,-10 -4,-105 v -118 l 2,-76 1,-5 17,-6 10,-4 13,-5 18,-6 8,-3 16,-5 15,-5 22,-7 8,-3 20,-6 22,-6 5,-2 31,-8 9,-3 23,-6 19,-5 33,-8 16,-3 13,-3 33,-7 25,-5 8,-2 20,-3 9,-2 34,-6 26,-4 26,-3 13,-2 31,-4 50,-4 7,-1 z"
       fill="#cd1705"
       id="path2" /><path
       d="m 1616.6,1924.7 2,1 4,15 7,31 10,35 13,38 9,22 4,9 5,11 9,19 11,19 10,16 10,15 10,13 13,16 9,11 12,14 29,29 8,7 13,11 13,10 13,10 15,12 8,5 -6,-11 -11,-15 -10,-14 -13,-20 -7,-11 -8,-13 -14,-22 -11,-19 -13,-24 -11,-22 -7,-16 -7,-15 -16,-44 -3,-6 v -4 l 6,2 9,6 40,20 23,13 18,11 16,12 14,11 16,13 18,13 12,8 12,8 22,14 17,10 22,12 17,8 30,12 29,11 22,7 35,9 31,6 30,4 14,1 h 47 l 23,-2 31,-5 26,-6 29,-8 33,-11 25,-10 22,-10 19,-10 24,-14 26,-16 15,-10 13,-9 16,-11 18,-13 13,-9 11,-6 11,-4 30,-5 33,-2 h 90 l 45,2 45,5 37,6 47,9 40,9 28,7 17,5 12,4 1,2 -2,1 -28,2 -88,10 -69,9 -59,10 -31,6 -47,9 -49,11 -26,6 -34,8 -15,4 -45,12 -33,9 -25,8 -26,8 -31,10 -15,5 -29,10 -25,10 -14,6 -1,2 v 202 l 1,19 2,99 2,48 2,28 3,54 2,20 3,44 2,19 4,49 v 13 l 4,28 4,34 2,23 6,49 4,41 3,27 v 6 l 2,2 4,28 2,12 v 11 l -16,3 -3,1 2,4 4,4 v 2 h 2 l 3,4 v 2 h 2 l 10,14 5,12 5,34 1,14 6,27 7,36 7,31 6,27 8,30 14,53 6,21 5,13 -1,4 -40,-3 -10,-1 -6,-4 -13,-13 -9,-11 -13,-15 -13,-17 -10,-13 -10,-14 -10,-13 -11,-13 -9,-11 -7,-7 -7,-8 -9,-10 -3,-3 -3,-1 10,23 6,19 14,47 7,24 4,13 v 5 l -10,-2 -30,-8 -19,-6 -21,-8 -23,-10 -15,-7 -24,-10 -17,-5 -23,-4 -12,-1 -38,-1 -59,1 h -111 l -39,-2 -47,-6 -29,-5 -43,-9 -24,-6 -24,-7 -26,-8 -28,-10 -13,-5 -12,-5 -20,-9 -14,-6 -16,-8 -12,-7 -4,-4 -5,-12 -6,-23 -7,-29 -7,-33 -4,-20 -8,-52 -4,-25 -4,-26 -5,-38 -5,-49 -7,-83 -2,-28 -4,-97 -1,-48 v -59 l 1,-65 3,-65 6,-86 4,-45 5,-51 6,-50 7,-49 4,-25 4,-21 9,-46 7,-29 6,-21 4,-15 8,-26 8,-25 9,-25 11,-26 12,-25 12,-23 13,-21 11,-14 z"
       fill="#cc1605"
       id="path3" /><path
       d="m 3340.6,2380.7 4,1 -4,22 -5,15 -8,16 -8,11 -9,10 -10,7 -6,3 -4,2 9,11 11,13 9,9 10,8 12,8 10,6 15,6 -1,3 -16,10 -16,8 -17,5 -9,1 h -12 l -8,-2 6,11 5,12 6,18 3,8 5,18 5,19 5,23 5,28 4,21 3,20 4,21 6,26 3,8 6,16 11,19 9,12 8,8 10,6 12,5 14,3 h 11 l 14,-3 18,-8 9,-6 10,-9 9,-11 6,-12 5,-13 3,-15 -2,-16 -3,-13 -6,-15 -7,-14 -1,-4 h -2 l -9,-16 -8,-14 -4,-10 -1,-5 v -10 l 2,-11 5,-12 h 2 l 2,-6 8,-10 9,-10 10,-9 12,-9 17,-10 15,-7 15,-6 10,-4 11,-4 17,-5 21,-5 22,-5 25,-5 37,-7 13,-3 28,-7 30,-10 14,-5 12,-6 h 4 v 8 l -5,30 -6,18 -4,10 -8,15 -2,5 h -2 l -2,6 -7,10 -8,10 -12,13 -14,13 -19,14 -14,9 -10,6 -9,5 -10,5 -7,3 h 30 l 49,-1 102,-1 54,-1 -2,5 -9,15 -11,16 -11,13 -9,10 -11,11 h -2 v 2 l -11,9 -11,8 -12,8 -19,10 -16,7 -17,6 -9,3 -22,5 -21,4 -15,2 15,6 21,11 16,7 16,8 16,8 17,8 22,10 23,10 19,8 10,3 10,4 14,4 v 4 l -12,10 -15,11 -7,4 h -2 v 2 l -16,8 -10,5 -18,7 -26,6 -30,3 -24,-2 -15,-2 -21,-5 -16,-5 -12,-5 2,4 12,15 7,10 10,13 7,9 14,17 3,4 v 2 h 2 l 8,11 9,11 9,12 9,12 12,16 8,11 7,10 10,14 11,14 1,5 -17,3 -13,2 h -37 l -27,-5 -28,-10 -16,-8 -11,-6 -11,-7 -14,-10 -8,-6 -14,-12 -24,-24 -7,-8 -9,-11 v -2 h -2 l -6,-7 4,11 6,13 4,12 5,12 6,15 7,18 10,30 6,20 4,15 5,22 4,23 2,21 v 10 l -6,-2 -19,-8 -19,-8 -16,-8 -10,-7 -14,-10 -15,-12 -11,-9 -9,-7 v -2 l -4,-2 -7,-6 v -2 l -4,-2 -11,-11 v -2 l -4,-2 -6,-7 v -2 l -3,-1 -9,-11 -9,-10 -8,-11 -9,-13 -10,-17 -7,-16 -6,-16 -3,-8 -4,-14 -1,-6 v -12 h -2 l -2,9 -9,16 -8,11 -8,13 h -2 l -2,6 -7,10 -10,17 -4,7 h -2 l -2,6 -8,13 -6,11 -9,17 -11,27 -10,26 -6,18 -4,15 -5,25 -1,7 v 24 l 3,15 5,15 6,15 4,10 8,16 7,14 10,17 13,23 7,11 7,11 8,12 9,13 12,17 10,14 13,19 4,5 10,13 9,13 1,2 v 6 l -7,8 -8,7 -13,10 -16,8 -13,4 -5,1 h -10 l -14,-4 -10,-6 -10,-9 -8,-11 v -2 h -2 l -8,-16 -6,-16 -5,-10 1,12 1,35 -1,29 -3,25 -5,23 -6,19 -5,13 -5,11 -8,16 -11,19 -9,14 -6,10 h -2 l -1,3 h -3 l -7,-13 -4,-7 v -2 h -2 l -11,-20 -8,-17 -7,-14 -6,-16 -5,-16 -4,-15 -5,-23 -2,-19 -1,-16 v -38 l 2,-13 h -2 l -2,6 -10,19 -6,10 -11,13 -10,8 -11,5 -10,2 h -11 l -14,-3 -16,-8 -9,-6 -8,-6 -5,-5 -10,-10 1,-6 10,-12 12,-16 11,-13 8,-11 12,-16 7,-10 1,-2 h 2 l 2,-5 11,-16 9,-13 9,-14 15,-25 10,-18 5,-11 5,-11 6,-15 4,-10 5,-19 2,-17 v -18 l -3,-27 -6,-25 -5,-17 -3,-8 -8,-20 -4,-10 -4,-9 -8,-16 -8,-16 -6,-11 -9,-16 -8,-13 -8,-13 -7,-11 -8,-12 -7,-11 -8,-12 -8,-13 -3,-5 v 16 l -5,21 -5,15 -4,9 -8,15 -7,14 -7,10 -8,11 -13,15 -7,8 -8,7 -15,15 h -2 l -1,3 -8,7 -11,10 -14,11 -11,8 -4,1 v 2 l -15,9 -23,13 -16,8 -15,6 -15,6 h -3 l 1,-14 3,-20 3,-17 5,-22 9,-34 5,-16 3,-7 4,-11 8,-21 4,-10 6,-16 4,-10 10,-23 -1,-1 -8,11 -12,14 -18,18 -8,7 -13,11 -14,11 -13,9 -16,9 -15,7 -13,5 -13,4 -25,5 -21,2 h -25 l -22,-3 -5,-2 2,-5 6,-9 h 2 l 2,-5 12,-17 7,-10 12,-17 12,-16 4,-6 12,-15 8,-10 9,-11 13,-15 8,-11 7,-10 8,-11 8,-11 10,-12 h -2 l -12,5 -15,5 -13,4 -25,5 -10,1 h -32 l -15,-2 -19,-5 -14,-5 -9,-4 -21,-11 -10,-7 -11,-7 -16,-12 -5,-3 v -3 l 16,-6 12,-5 12,-5 16,-8 24,-11 21,-9 11,-5 16,-7 8,-4 15,-7 10,-4 15,-7 13,-6 8,-3 1,-1 -32,-5 -22,-5 -18,-6 -13,-5 -10,-4 -15,-8 -11,-6 -17,-12 -13,-11 -8,-7 -6,-5 -7,-8 -12,-14 -8,-12 -7,-11 -4,-8 -4,-7 v -3 l 85,2 55,1 61,3 h 33 l -10,-4 -16,-8 -9,-5 -13,-8 -14,-10 -8,-6 -13,-11 -17,-17 -13,-17 -9,-14 -5,-8 -9,-19 -5,-14 -5,-21 -3,-18 v -4 l 6,1 14,7 17,6 15,5 23,6 15,4 34,7 11,3 27,6 22,5 23,6 30,10 12,5 14,7 16,8 10,7 6,4 8,6 10,9 5,4 7,8 6,8 v 2 h 2 l 6,10 5,12 1,6 v 14 l -2,9 -6,13 -10,18 -12,21 -5,12 -4,14 -1,8 v 11 l 2,12 5,14 6,11 6,9 9,10 11,10 6,3 v 2 l 9,3 7,3 11,3 h 13 l 16,-5 15,-8 13,-11 8,-10 9,-17 6,-16 5,-17 6,-23 4,-15 3,-12 4,-17 4,-15 4,-15 5,-25 3,-23 v -17 l -4,-15 -6,-10 -7,-7 -9,-3 -25,-4 -12,-2 -16,-5 -11,-6 v -4 l 16,-4 22,-4 19,-6 10,-5 3,-3 -1,-4 -17,-1 h -44 l -18,2 -13,3 -11,7 -6,8 -4,9 -2,6 -3,-1 -4,-6 -4,-8 -3,-15 v -14 l 3,-16 7,-13 9,-10 4,-2 v -2 l 10,-6 14,-5 36,-5 4,-1 2,-5 h 2 l 2,-5 9,-11 8,-8 9,-6 10,-5 14,-5 10,-3 23,-2 h 13 l 27,2 27,3 h 40 l 17,-2 21,-5 15,-5 z"
       fill="#fcfbfb"
       id="path4" /><path
       d="m 3109.6,2225.7 h 58 l 77,3 32,2 53,5 14,2 30,3 13,2 25,3 26,4 22,4 37,7 12,3 31,7 16,4 15,4 28,7 18,5 9,3 25,7 8,3 24,7 25,8 15,5 c 29.5,9.3 58.5,20.3 87,32 29.8,11.4 58.8,24.6 88,37 q 71.8,30.4 141,66 l 8,4 2,2 2,24 2,63 v 105 l -2,68 -2,26 -3,49 -2,19 -3,44 -3,30 -2,24 -2,14 -3,29 -3,20 -2,16 -2,11 -3,24 -3,20 -2,15 -3,16 -4,22 -5,25 -7,38 -5,25 -4,17 -7,33 -4,16 -6,24 -3,9 -2,9 -3,9 -5,17 -7,25 -4,13 -4,13 -10,32 -3,9 -4,13 -4,10 -5,14 -4,10 -7,20 -8,20 -7,17 -6,13 -9,21 -4,8 -11,23 -9,17 -1,3 h -2 l -1,5 -12,23 -13,23 -2,4 h -2 l -2,6 -11,19 h -2 l -2,6 -8,11 -6,9 -4,7 -8,12 -9,13 -1,2 h -2 l -2,5 -10,13 -1,2 h -2 l -2,5 -9,11 -8,11 -10,13 -12,14 -12,13 -12,14 -11,12 -7,8 -9,10 -7,8 -20,20 -8,7 -15,14 -3,1 -2,4 -8,7 -4,4 h -2 l -2,4 -7,6 -7,8 -8,7 h -2 v 2 l -11,9 -11,9 h -2 v 2 l -11,8 -13,10 -13,10 h -2 v 2 l -14,10 -13,10 -14,10 -17,12 -15,10 -11,7 -13,8 -11,7 -22,13 -10,6 -11,7 -21,12 -19,11 -22,12 -16,8 -6,-1 -17,-7 -13,-6 -19,-9 -15,-8 -16,-8 -20,-11 -16,-8 -11,-6 -9,-5 -15,-9 -10,-6 -13,-8 -13,-8 -15,-9 -7,-4 v -2 l -5,-2 -10,-7 -14,-10 -19,-13 -5,-4 c -6.1,-3.7 -11.5,-8.7 -18,-12 0,0 -23.5,-18.5 -34,-28 l -11,-9 -10,-9 -14,-12 -11,-10 -8,-7 -12,-11 -10,-9 -40,-40 v -2 l -4,-2 -9,-10 -7,-8 -5,-5 -14,-15 -9,-11 -11,-13 -8,-10 -8,-10 v -2 l -3,-1 -11,-14 -11,-14 -10,-14 v -2 h -2 l -6,-9 -7,-10 -9,-13 -10,-15 -10,-15 -8,-12 -10,-16 -11,-19 -10,-17 -6,-10 -7,-14 -4,-7 v -3 h -2 l -5,-11 -9,-19 -7,-15 -13,-28 -7,-15 -11,-26 -9,-24 -6,-17 -5,-14 -5,-14 -5,-14 -6,-18 -6,-19 -3,-8 -7,-21 -3,-8 -6,-21 -8,-27 -6,-25 -6,-25 -6,-25 -3,-12 -5,-21 -5,-23 -5,-24 -2,-12 -2,-8 -3,-19 -3,-16 -2,-13 -2,-9 -3,-19 -2,-9 -3,-21 -2,-11 -3,-24 -2,-10 -5,-34 -3,-29 -2,-16 -3,-33 -2,-17 -4,-46 -4,-70 -1,-10 -4,-105 v -118 l 2,-76 1,-5 17,-6 10,-4 13,-5 18,-6 8,-3 16,-5 15,-5 22,-7 8,-3 20,-6 22,-6 5,-2 31,-8 9,-3 23,-6 19,-5 33,-8 16,-3 13,-3 33,-7 25,-5 8,-2 20,-3 9,-2 34,-6 26,-4 26,-3 13,-2 31,-4 50,-4 7,-1 z m -11,66 -38,2 -58,4 -31,3 -48,6 -29,4 -37,6 -14,3 -46,8 -13,3 -33,7 -12,3 -21,5 -28,7 -24,7 -14,4 -15,4 -17,5 -9,3 -16,5 -16,5 -21,7 -14,5 -10,4 -17,6 -8,3 -19,7 -4,2 -1,4 -2,39 -1,32 v 101 l 1,42 4,83 5,75 4,37 4,32 3,27 3,24 5,37 4,27 6,32 5,28 6,32 4,16 5,23 7,31 4,16 5,19 4,15 2,9 2,5 3,12 6,19 5,16 9,30 5,15 3,8 5,14 8,22 8,21 6,15 5,12 6,13 5,12 9,22 4,8 7,15 7,15 8,16 8,16 11,21 7,12 4,8 7,12 4,8 3,6 h 2 l 2,6 6,10 5,9 h 2 l 2,6 8,11 8,13 9,14 10,15 12,16 10,14 10,14 8,10 13,17 10,13 11,12 9,11 10,11 7,8 11,12 16,17 4,5 8,7 5,5 5,5 24,24 8,7 8,8 8,7 10,9 8,7 14,12 9,7 h 2 v 2 l 8,6 13,11 12,9 12,9 14,10 14,10 10,7 16,11 15,10 11,7 13,8 11,7 16,9 10,6 21,12 11,6 16,9 19,9 9,4 2,1 h 6 l 13,-8 24,-13 10,-6 23,-14 15,-10 15,-10 11,-7 12,-8 16,-12 12,-9 6,-4 v -2 l 5,-2 12,-10 13,-10 11,-9 11,-9 4,-3 v -2 l 4,-2 13,-12 11,-9 7,-6 v -2 l 4,-2 7,-6 v -2 l 4,-2 45,-45 7,-8 5,-6 5,-5 8,-8 7,-8 13,-14 9,-11 12,-14 10,-13 13,-17 10,-13 13,-18 10,-15 14,-21 8,-12 10,-16 16,-26 6,-10 6,-11 15,-27 11,-21 7,-12 12,-27 7,-15 4,-10 7,-15 11,-26 7,-18 5,-12 5,-13 3,-7 7,-21 13,-38 12,-37 4,-13 4,-13 3,-11 4,-17 4,-16 4,-15 6,-25 5,-21 5,-23 5,-25 4,-20 5,-29 7,-46 4,-25 4,-26 5,-42 2,-22 2,-15 3,-44 2,-23 3,-67 1,-13 1,-29 v -85 l -3,-76 -2,-41 -1,-10 -4,-5 -5,-1 v -2 l -19,-9 -16,-8 -16,-7 -16,-8 -16,-8 -11,-5 -11,-5 -19,-8 -23,-10 -23,-10 -16,-6 -12,-5 -15,-6 -12,-4 -10,-4 -18,-6 -7,-3 -21,-7 -7,-3 -31,-10 -19,-6 -16,-5 -27,-8 -35,-9 -31,-7 -24,-5 -34,-7 -14,-3 -21,-4 -23,-3 -18,-3 -27,-4 -48,-5 -50,-4 -20,-1 z"
       fill="#fbfbfb"
       id="path5"
       sodipodi:nodetypes="ccccccccccccccccccccccccccccccccccccccccccccccccccccccccccccccccccccccccccccccccccccccccccccccccccccccccccccccccccccccccccccccccccccccccccccccccccccccccccccccccccccccccccccccccccccccccccccccccccccccccccccccccccccccccccccccccccccccccccccccccccccccccccccccccccccccccccccccccccccccccccccccccccccccccccccccccccccccccccccccccccccccccccccccccccccccccccccccccccccccccccccccccccccccccccccccccccccccccccccccccccccccccccccccccccccccccccccccccccccccccccccccccccccccccccccccccccccccccccccccccccccccccccccccccccccccccccccccccccccccccccccccccccccccccccccccccccccccccccc" /><path
       d="m 3114.5,2137.5 h 66 l 87.5,3.4 36.5,2.3 60.3,5.6 15.9,2.3 34.1,3.4 14.8,2.3 28.4,3.4 29.6,4.6 25,4.5 42.1,8 13.7,3.4 35.3,8 18.2,4.5 17,4.6 31.9,8 20.5,5.6 10.2,3.4 28.5,8 9,3.4 27.4,8 28.4,9 17,5.8 25.1,8 8,3.3 22.7,8 11.4,4.6 18.2,6.8 13.6,5.7 14.8,5.7 14.8,6.8 13.7,4.5 10.2,4.6 16,6.8 17,8 13.7,5.7 10.2,4.5 13.7,5.7 23.9,10.2 23.8,11.4 16,8 10.2,4.5 22.8,10.3 18.2,9 21.6,11.5 9,4.5 2.4,2.3 2.2,27.3 2.3,71.7 v 119.4 l -2.3,77.4 -2.2,29.6 -3.5,55.7 -2.2,21.6 -3.4,50 -3.5,34.2 -2.2,27.3 -2.3,16 -3.4,33 -3.4,22.7 -2.3,18.2 -2.3,12.5 -3.4,27.3 -3.4,22.8 -2.3,17 -3.4,18.2 -4.5,25 -5.7,28.5 -8,43.2 -5.7,28.5 -4.5,19.3 -8,37.6 -4.6,18.2 -6.8,27.3 -3.4,10.2 -2.3,10.3 -3.4,10.2 -5.7,19.3 -8,28.5 -4.5,14.8 -4.5,14.8 -11.4,36.4 -3.4,10.2 -4.6,14.8 -4.5,11.4 -5.7,15.9 -4.6,11.4 -8,22.7 -9,22.8 -8,19.3 -6.8,14.8 -10.3,24 -4.5,9 -12.5,26.2 -10.3,19.3 -1.1,3.4 h -2.3 l -1.1,5.7 -13.7,26.2 -14.8,26.2 -2.2,4.5 h -2.3 l -2.3,6.8 -12.5,21.7 h -2.3 l -2.3,6.8 -9,12.5 -6.9,10.2 -4.5,8 -9.1,13.6 -10.3,14.8 -1.1,2.3 h -2.3 l -2.3,5.7 -11.3,14.8 -1.2,2.3 h -2.2 l -2.3,5.7 -10.3,12.5 -9,12.5 -11.4,14.8 -13.7,15.9 -13.6,14.8 -13.7,16 -12.5,13.6 -8,9 -10.2,11.5 -8,9 -22.7,22.8 -9.1,8 -17.1,15.9 -3.4,1.1 -2.3,4.6 -9,8 -4.6,4.5 h -2.3 l -2.3,4.6 -8,6.8 -8,9 -9,8 h -2.3 v 2.3 l -12.5,10.3 -12.5,10.2 h -2.3 v 2.3 l -12.5,9 -14.8,11.5 -14.8,11.3 h -2.3 v 2.3 l -15.9,11.4 -14.8,11.4 -16,11.3 -19.3,13.7 -17,11.4 -12.5,8 -14.8,9 -12.5,8 -25,14.8 -11.5,6.8 -12.5,8 -23.9,13.6 -21.6,12.5 -25,13.7 -18.2,9.1 -6.8,-1.1 -19.4,-8 -14.8,-6.8 -21.6,-10.3 -17,-9 -18.3,-9.2 -22.7,-12.5 -18.2,-9 -12.5,-7 -10.3,-5.6 -17,-10.2 -11.4,-6.9 -14.8,-9 -14.8,-9.2 -17,-10.2 -8,-4.6 v -2.2 l -5.7,-2.3 -11.4,-8 -16,-11.4 -21.5,-14.7 -5.7,-4.6 -18.2,-12.5 -2.3,-1.1 v -2.3 l -5.7,-2.3 -9,-6.8 v -2.3 l -5.8,-2.3 -1.1,-3.4 -5.7,-2.3 -11.4,-10.2 -12.5,-10.2 -11.4,-10.3 -15.9,-13.6 -12.5,-11.4 -9.1,-8 -13.7,-12.5 -11.3,-10.2 -45.5,-45.5 v -2.3 l -4.6,-2.3 -10.2,-11.4 -8,-9 -5.7,-5.8 -16,-17 -10.2,-12.5 -12.5,-14.8 -9,-11.4 -9.2,-11.4 v -2.3 l -3.4,-1 -12.5,-16 -12.5,-16 -11.4,-15.9 v -2.3 h -2.3 l -6.8,-10.2 -8,-11.4 -10.2,-14.8 -11.4,-17 -11.4,-17 -9,-13.7 -11.4,-18.2 -12.5,-21.7 -11.4,-19.3 -6.9,-11.4 -8,-16 -4.5,-7.9 v -3.4 h -2.2 l -5.7,-12.5 -10.3,-21.6 -8,-17 -14.7,-32 -8,-17 -12.5,-29.6 -10.2,-27.3 -6.9,-19.3 -5.7,-16 -5.6,-15.9 -5.7,-16 -6.9,-20.4 -6.8,-21.6 -3.4,-9.1 -8,-23.9 -3.4,-9.1 -6.8,-23.9 -9.1,-30.7 -6.8,-28.5 -6.9,-28.4 -6.8,-28.4 -3.4,-13.7 -5.7,-23.9 -5.7,-26.2 -5.7,-27.3 -2.2,-13.6 -2.3,-9.1 -3.4,-21.6 -3.4,-18.2 -2.3,-14.8 -2.3,-10.3 -3.4,-21.6 -2.3,-10.2 -3.4,-24 -2.3,-12.4 -3.4,-27.3 -2.3,-11.4 -5.6,-38.7 -3.5,-33 -2.2,-18.2 -3.4,-37.5 -2.3,-19.4 -4.6,-52.3 -4.5,-79.6 -1.2,-11.4 -4.5,-119.5 v -134.2 l 2.3,-86.5 1.1,-5.7 19.3,-6.8 11.4,-4.6 14.8,-5.6 20.5,-6.9 9,-3.4 18.3,-5.7 17,-5.7 25,-8 9.2,-3.3 22.7,-6.9 25,-6.8 5.8,-2.3 35.2,-9 10.3,-3.5 26.1,-6.8 21.7,-5.7 37.5,-9.1 18.2,-3.4 14.8,-3.4 37.5,-8 28.5,-5.7 9,-2.3 22.8,-3.4 10.3,-2.2 38.7,-6.9 29.5,-4.5 29.6,-3.4 14.8,-2.3 35.3,-4.6 56.9,-4.5 8,-1.1 z m -12.6,75 -43.2,2.3 -66,4.6 -35.2,3.4 -54.7,6.8 -33,4.6 -42,6.8 -16,3.4 -52.3,9.1 -14.8,3.4 -37.5,8 -13.7,3.4 -23.9,5.7 -31.8,8 -27.3,8 -16,4.5 -17,4.5 -19.4,5.7 -10.2,3.4 -18.2,5.7 -18.2,5.7 -24,8 -15.8,5.7 -11.4,4.5 -19.4,6.8 -9,3.4 -21.7,8 -4.5,2.3 -1.2,4.5 -2.2,44.4 -1.2,36.4 v 115 l 1.2,47.7 4.5,94.4 5.7,85.4 4.5,42 4.6,36.5 3.4,30.7 3.4,27.3 5.7,42 4.6,30.8 6.8,36.4 5.7,31.9 6.8,36.4 4.6,18.2 5.6,26.1 8,35.3 4.6,18.2 5.6,21.6 4.6,17 2.3,10.3 2.2,5.7 3.5,13.7 6.8,21.6 5.7,18.2 10.2,34.1 5.7,17 3.4,9.2 5.7,16 9.1,25 9.1,23.8 6.8,17.1 5.7,13.7 6.8,14.7 5.7,13.7 10.3,25 4.5,9.1 8,17 8,17.2 9,18.2 9.2,18.2 12.5,23.9 8,13.6 4.5,9.1 8,13.7 4.5,9 3.4,6.9 h 2.3 l 2.3,6.8 6.8,11.4 5.7,10.2 h 2.3 l 2.2,6.9 9.1,12.5 9.1,14.8 10.3,15.9 11.4,17 13.6,18.3 11.4,15.9 11.4,16 9,11.3 14.9,19.3 11.3,14.8 12.5,13.7 10.3,12.5 11.4,12.5 8,9.1 12.4,13.7 18.2,19.3 4.6,5.7 9,8 5.8,5.6 5.7,5.7 27.3,27.3 9,8 9.2,9.1 9,8 11.5,10.2 9,8 16,13.6 10.2,8 h 2.3 v 2.3 l 9.1,6.8 14.8,12.5 13.6,10.2 13.7,10.3 16,11.4 15.9,11.3 11.3,8 18.2,12.5 17.1,11.4 12.5,8 14.8,9 12.5,8 18.2,10.3 11.4,6.8 23.9,13.6 12.5,6.9 18.2,10.2 21.6,10.2 10.3,4.6 2.2,1.1 h 6.9 l 14.8,-9 27.3,-14.9 11.3,-6.8 26.2,-16 17,-11.3 17.1,-11.4 12.6,-8 13.6,-9 18.2,-13.7 13.7,-10.2 6.8,-4.6 v -2.3 l 5.7,-2.2 13.6,-11.4 14.8,-11.4 12.5,-10.2 12.5,-10.3 4.6,-3.4 v -2.2 l 4.5,-2.3 14.8,-13.7 12.6,-10.2 8,-6.8 v -2.3 l 4.5,-2.3 8,-6.8 v -2.3 l 4.5,-2.3 51.2,-51.2 8,-9 5.6,-6.9 5.7,-5.7 9.1,-9 8,-9.2 14.8,-16 10.2,-12.4 13.7,-16 11.3,-14.7 14.8,-19.4 11.4,-14.8 14.8,-20.5 11.4,-17 16,-24 9,-13.6 11.4,-18.2 18.2,-29.6 6.8,-11.3 6.8,-12.5 17.1,-30.8 12.5,-23.9 8,-13.6 13.6,-30.7 8,-17 4.6,-11.5 8,-17 12.4,-29.6 8,-20.5 5.7,-13.6 5.7,-14.8 3.4,-8 8,-23.9 14.7,-43.2 13.7,-42.1 4.5,-14.8 4.6,-14.8 3.4,-12.5 4.6,-19.4 4.5,-18.2 4.6,-17 6.8,-28.5 5.7,-23.9 5.7,-26.1 5.6,-28.5 4.6,-22.7 5.7,-33 8,-52.3 4.5,-28.5 4.6,-29.6 5.6,-47.8 2.3,-25 2.3,-17 3.4,-50.1 2.3,-26.2 3.4,-76.2 1.1,-14.8 1.2,-33 v -96.7 l -3.4,-86.5 -2.3,-46.6 -1.2,-11.4 -4.5,-5.7 -5.7,-1.1 v -2.3 l -21.6,-10.2 -18.2,-9.1 -18.2,-8 -18.2,-9 -18.2,-9.2 -12.5,-5.7 -12.6,-5.7 -21.6,-9 -26.1,-11.4 -26.2,-11.4 -18.2,-6.8 -13.7,-5.7 -17,-6.9 -13.7,-4.5 -11.4,-4.6 -20.4,-6.8 -8,-3.4 -23.9,-8 -8,-3.4 -35.2,-11.4 -21.6,-6.8 -18.2,-5.7 -30.8,-9 -39.8,-10.3 -35.2,-8 -27.4,-5.7 -38.6,-8 -16,-3.3 -23.9,-4.6 -26.1,-3.4 -20.5,-3.4 -30.7,-4.6 -54.6,-5.7 -57,-4.5 -22.7,-1.1 z"
       stroke-width="1.1"
       id="path6"
       style="fill:#070908;fill-opacity:1" /><path
       d="m 2166.6,2297.7 h 4 l -3,10 -7,18 -9,17 -6,9 h -2 l -2,5 -3,1 -2,4 -10,6 -4,2 h -3 l 4,7 v 2 h 2 l 5,8 10,13 5,5 5,5 8,7 11,6 6,2 v 2 l -10,5 -17,8 -17,4 -10,1 -10,-2 5,16 5,25 4,25 2,29 2,66 3,32 3,12 4,12 5,9 6,8 9,10 10,7 10,5 16,4 h 7 l 14,-4 13,-7 9,-7 7,-7 7,-10 7,-14 3,-11 v -15 l -5,-21 -4,-10 -6,-14 -4,-10 -3,-7 -2,-14 2,-12 8,-16 9,-11 5,-5 h 2 l 1,-3 11,-8 16,-10 9,-5 h 2 l 1,13 1,19 2,99 2,48 2,28 3,54 2,20 3,44 2,19 4,49 v 12 l -4,-2 -13,-16 v -2 h -2 l -8,-11 -5,-5 5,11 4,10 5,15 7,24 3,9 4,15 3,15 2,8 4,29 1,12 v 32 l -4,1 -16,-8 -17,-9 -15,-10 -13,-10 -13,-12 -9,-8 -6,-7 -8,-7 -7,-8 -10,-12 -7,-10 -10,-15 -12,-21 -8,-16 -6,-15 -5,-18 -2,-11 -1,-11 -9,15 -13,18 -11,14 -7,9 -10,13 -8,12 -10,17 -12,22 -7,14 -7,14 -6,15 -5,15 -5,18 -2,15 v 9 l 2,14 7,21 5,12 7,14 8,17 10,19 8,13 7,11 10,16 8,11 10,13 10,14 8,12 11,16 v 4 l -12,9 -12,7 -10,4 -12,2 h -15 l -12,-3 -10,-6 -9,-8 -6,-9 -5,-10 -6,-15 v 29 l -2,22 -5,18 -10,23 -10,15 -12,14 -3,4 h -2 l -2,4 -10,12 -5,-1 -10,-14 -11,-17 -8,-17 -5,-12 -5,-16 -2,-5 -4,-21 v -38 l 2,-11 -9,12 -5,5 -9,8 -10,5 -14,3 h -12 l -16,-4 -15,-9 -13,-10 -5,-5 -2,-2 1,-5 9,-7 5,-4 7,-8 3,-1 2,-4 5,-5 10,-9 12,-12 7,-6 7,-8 5,-6 4,-4 1,-2 h 2 l 2,-5 7,-8 10,-14 7,-10 7,-12 h 2 l 2,-6 8,-14 5,-13 4,-19 v -25 l -4,-29 -6,-25 -6,-19 -4,-13 -4,-10 -6,-16 -7,-15 -8,-17 -8,-16 -8,-16 -8,-16 -7,-12 -4,-11 -5,16 -7,18 -8,16 -8,13 -9,13 h -2 l -2,4 -9,11 -18,18 -8,7 -12,10 h -2 l -1,3 -6,4 -11,8 h -2 v 2 l -13,8 -13,8 -17,8 -9,4 -16,6 -8,3 -16,6 -3,-1 4,-21 3,-12 3,-11 5,-16 4,-13 4,-10 6,-15 4,-9 10,-21 8,-16 8,-16 10,-19 h -1 l -15,15 -6,5 h -2 l -1,3 -11,9 -10,8 -15,11 -18,11 -16,7 -16,5 -20,4 -14,1 h -26 l -16,-2 -16,-4 -1,-2 6,-8 9,-10 9,-12 h 2 l 2,-5 9,-10 9,-11 9,-10 9,-11 16,-17 11,-12 9,-10 4,-5 h 2 l 2,-4 13,-14 7,-8 2,-3 -16,5 -15,3 -20,3 h -27 l -22,-5 -8,-3 -8,-3 -10,-4 -13,-7 -12,-8 -7,-5 v -2 l -5,-2 -8,-8 -11,-9 -1,-5 24,-7 15,-5 8,-3 19,-7 13,-6 25,-9 7,-3 20,-7 14,-5 8,-3 18,-6 -14,-2 -20,-7 -15,-6 -14,-7 -9,-6 -15,-10 v -2 l -5,-2 -16,-15 -7,-7 -9,-11 -7,-9 -9,-14 -7,-14 -6,-14 -3,-6 v -3 l 39,3 40,5 18,3 25,4 20,3 14,3 31,5 -10,-7 -11,-7 -16,-12 -12,-11 -12,-13 -10,-13 -10,-17 -10,-22 -6,-20 -3,-16 -1,-13 v -22 l 4,1 10,7 10,6 15,8 9,4 20,8 18,7 28,9 10,4 28,11 23,11 17,9 v 2 l 6,2 10,7 13,10 15,14 9,11 7,11 4,8 4,11 1,5 v 10 l -6,18 -10,16 -8,11 -6,10 -7,14 -3,12 v 20 l 3,13 5,11 6,10 10,12 3,2 v 2 l 4,2 10,7 14,5 h 10 l 13,-4 11,-7 10,-9 8,-9 7,-12 9,-20 8,-20 6,-15 9,-24 8,-24 4,-12 5,-20 3,-21 -3,-16 -6,-10 -8,-6 -15,-5 -16,-4 -12,-5 -8,-5 v -4 l 26,-2 20,-4 10,-5 h 2 l 1,-5 -13,-2 -17,-1 h -43 l -9,3 -8,7 -4,8 -2,7 -3,-1 -5,-12 -3,-9 v -17 l 5,-16 6,-10 9,-10 7,-5 15,-5 20,-2 h 14 l 5,-3 16,-16 11,-7 9,-4 14,-4 9,-1 h 24 l 18,2 14,3 22,4 10,1 h 25 l 16,-2 17,-5 z"
       fill="#fbfbfb"
       id="path7" /><path
       d="m 1100.6,974.7 6,1 8,3 21,7 8,3 16,5 9,2 9,3 22,5 14,2 2,2 -3,23 -2,21 -1,6 16,4 13,2 15,1 h 18 l 19,-2 25,-5 17,-4 h 4 l -2,9 -4,23 -4,16 -12,3 -24,2 h -17 l -29,-2 -13,-2 -27,-3 -4,-1 -2,7 -3,15 -2,8 -2,14 v 9 l 23,6 22,2 h 31 l 26,-2 17,-3 5,1 -3,16 -2,13 -4,16 -3,5 -6,2 -15,3 -14,1 h -20 l -22,-2 -17,-3 -21,-3 -11,-2 -2,15 -6,28 -3,11 28,5 9,2 10,1 h 46 l 18,-2 16,-3 1,3 -4,19 -3,13 -4,18 -5,3 -32,5 h -13 l -30,-5 -13,-3 -13,-2 -8,-2 -11,-2 h -4 l -4,25 -3,15 -1,13 13,4 16,3 8,2 17,2 h 47 l 24,-2 -1,9 -3,16 -2,15 -3,11 -9,3 -14,3 -12,1 h -15 l -15,-1 -36,-5 -24,-4 -2,-1 -4,20 -4,16 -2,17 13,3 11,3 22,4 8,1 h 36 l 20,-2 15,-2 1,3 -4,24 -2,14 -5,4 -13,4 -8,3 -14,5 -15,5 -21,6 -15,4 -17,4 -34,5 -24,2 -26,1 -26,-1 -26,-3 -23,-5 -15,-4 -33,-11 -13,-6 -21,-10 -1,-1 1,-8 5,-17 3,-8 12,-37 9,-27 5,-16 11,-33 3,-7 7,-21 4,-10 8,-20 3,-10 4,-10 4,-10 7,-21 4,-10 6,-16 6,-13 8,-21 6,-16 4,-10 5,-14 6,-16 4,-9 6,-15 6,-13 5,-12 9,-22 5,-12 5,-12 5,-12 5,-12 8,-19 7,-16 7,-15 z"
       fill="#fbfbfb"
       id="path8" /><path
       d="m 1740.6,3652.7 9,2 11,4 15,5 32,10 31,10 25,8 39,12 27,9 3,3 11,35 14,45 8,25 12,40 11,39 13,44 9,28 6,19 4,15 10,35 10,34 8,25 8,24 v 5 l -10,-2 -33,-9 -31,-8 -24,-7 -28,-8 -23,-7 -28,-8 -28,-9 -26,-8 -43,-13 -33,-11 -14,-4 -8,-3 -15,-5 -15,-5 -37,-12 -29,-10 -37,-13 1,-7 9,-17 15,-34 12,-30 5,-12 7,-15 7,-17 4,-8 13,-30 8,-19 9,-21 7,-17 6,-13 9,-21 11,-25 13,-29 7,-14 z"
       fill="#cd1705"
       id="path9" /><path
       d="m 2057.6,3737.7 7,1 75,15 42,8 43,8 11,2 11,1 h 20 l 14,-2 23,-5 42,-11 27,-7 12,-3 20,-2 h 12 l 30,2 35,5 24,6 13,4 4,6 11,30 11,27 12,29 12,26 8,16 8,16 12,22 11,19 7,14 10,17 9,15 16,26 9,15 10,16 7,11 26,39 14,21 2,5 -6,-1 -21,-12 -16,-9 -14,-7 -19,-11 -23,-14 -22,-14 -11,-7 -15,-10 -19,-14 -16,-12 -16,-12 -16,-13 -11,-9 -14,-12 -15,-15 -4,-3 v -2 l -4,-2 -29,-29 -8,-7 -5,-5 v -2 l -4,-2 -7,-8 -12,-13 -7,-8 -11,-12 -7,-8 -16,-17 -7,-8 -7,-6 -2,-1 2,39 4,42 6,40 7,36 11,48 6,24 8,26 11,38 7,25 9,29 6,18 8,25 5,19 6,22 1,4 h -4 l -11,-9 -5,-5 -15,-13 -17,-16 -13,-12 -10,-10 -9,-11 -10,-11 -9,-11 -9,-10 -9,-11 -14,-17 -12,-16 -12,-15 -8,-11 -9,-12 -10,-14 -7,-10 -7,-10 -13,-19 -8,-11 -12,-18 -10,-15 -14,-22 -6,-10 -9,-15 -10,-16 -14,-24 -9,-16 -6,-10 -6,-11 -15,-27 -13,-23 -8,-16 -13,-27 -7,-15 z"
       fill="#cc1705"
       id="path10" /><path
       d="m 953.6,1635.7 11,2 28,5 24,3 20,3 26,2 5,1 14,1 h 71 l 29,-1 11,-1 31,-1 h 30 l -2,4 -12,5 -13,5 -13,6 -10,4 -8,4 h -3 v 2 l -7,3 h -3 v 2 l -16,8 -12,7 -5,3 h -2 v 2 l -10,6 -16,12 -13,10 -5,5 -16,16 -2,3 h -2 l -2,5 -7,8 -4,7 h -2 l -2,6 -4,7 -6,12 -5,12 -6,16 -3,7 -4,10 -1,4 10,-8 h 2 v -2 l 16,-9 23,-13 14,-8 19,-11 18,-8 12,-5 13,-6 11,-4 12,-5 19,-7 11,-3 9,-3 13,-4 12,-3 15,-4 9,-3 24,-6 17,-4 13,-1 5,3 10,9 10,10 7,8 6,6 v 2 l -13,8 -10,7 -16,11 -14,10 h -2 v 2 l -11,8 -12,10 h -2 l -1,3 -10,8 -10,9 -8,7 -3,3 h -2 l -1,3 -8,7 -14,15 -9,11 -6,8 -4,4 -12,16 -11,17 -6,11 -10,18 -8,16 -8,17 -9,20 -7,18 -4,10 -8,20 -1,4 h -3 l -8,-13 -7,-10 -7,-10 -4,-6 v -2 h -2 l -7,-11 -10,-14 -8,-11 -13,-18 -10,-15 -9,-14 -9,-13 -11,-18 -5,-7 -5,-9 -7,-11 -4,-7 v -2 h -2 l -8,-14 v -2 h -2 l -11,-20 -8,-16 -7,-15 -6,-15 -5,-14 -4,-13 -4,-22 -1,-23 1,-24 5,-40 5,-24 z"
       fill="#f2f2f2"
       id="path11" /><path
       d="m 1428.6,574.7 h 50 l 11,1 23,5 14,5 11,6 8,6 7,6 6,9 4,9 3,9 v 47 l -4,42 -5,22 -7,15 -8,14 -8,11 -3,5 h -2 l -2,5 -11,12 -7,8 -8,9 -5,5 -10,9 -11,10 -9,7 -11,9 -18,13 -10,7 -11,6 -19,10 -20,9 -19,6 -14,4 -22,4 -39,3 -14,-1 -3,-1 h -14 l -19,-2 -10,-2 -9,-1 -5,-2 -12,-3 -15,-5 -21,-10 -7,-4 -1,-2 -6,-3 v -2 l -4,-2 -12,-11 -8,-11 v -2 l -2,-1 -4,-9 -4,-11 -1,-9 v -9 l 3,-10 6,-9 6,-5 h 2 v -2 l 9,-5 5,-2 10,-4 7,-2 10,-2 4,-1 12,-1 h 19 l 13,3 9,5 6,7 c 0.8,4.6 2.7,8.2 5,12 l 1,6 2,8 2,10 2,7 3,6 2,-1 3,-12 4,-11 q 2.6,-4.4 5,-9 l 4,-6 8,-11 9,-10 11,-11 10,-7 15,-9 10,-5 12,-5 15,-4 16,-3 12,-3 9,-2 5,-2 12,-3 8,-3 18,-7 17,-9 10,-8 6,-5 7,-9 5,-8 4,-8 2,-12 -9,-1 -46,-2 -24,-5 -16,-6 -7,-4 -4,-4 -5,-6 -5,-10 -1,-5 v -12 l 3,-8 4,-6 6,-5 10,-4 22,-4 z"
       fill="#fbfbfb"
       id="path12" /><path
       d="m 2215.6,816.7 h 3 l 1,38 1,13 3,110 3,60 2,73 1,55 v 18 l -1,1 -58,4 -35,5 -17,3 -12,2 -8,2 -18,3 -12,3 -9,2 -6,2 -25,7 h -4 l 2,-33 5,-31 4,-16 9,-32 2,-9 3,-9 6,-20 11,-32 5,-12 3,-7 -10,13 -10,13 -12,16 -10,14 -11,19 -5,9 -13,23 -3,8 h -2 l -1,5 -4,9 -6,15 -5,12 -6,16 -6,18 -3,7 -5,15 -4,11 -12,5 -10,4 -14,7 -17,8 -7,4 h -3 l 3,-9 3,-12 2,-6 3,-12 3,-8 7,-20 4,-10 6,-15 4,-9 4,-8 7,-17 8,-16 8,-15 5,-9 10,-17 9,-16 h 2 l 2,-6 7,-11 10,-15 7,-10 9,-12 6,-8 2,-3 h 2 l 2,-5 9,-10 11,-14 10,-11 7,-8 14,-15 37,-37 8,-7 10,-10 8,-7 9,-7 5,-5 13,-12 10,-9 15,-13 10,-8 z"
       fill="#fbfbfb"
       id="path13" /><path
       d="m 2241.6,1387.7 h 26 l 25,1 v 77 l 2,21 2,13 3,30 2,16 1,17 v 26 l -2,9 -8,10 -10,8 -11,5 -9,2 h -24 l -18,-1 -12,2 -7,3 -17,5 -21,6 -16,6 -16,8 -4,1 v 2 l -12,7 -10,8 -10,9 -8,10 -9,17 -3,10 -3,9 -5,25 -4,27 -1,11 -3,-1 -8,-13 -3,-5 v -2 h -2 l -8,-13 v -2 h -2 l -8,-14 -7,-10 -14,-26 -8,-15 -7,-16 -4,-10 -3,-8 -6,-21 -5,-23 -4,-24 -4,-38 v -94 l 1,-3 20,-7 9,-4 h 4 l 2,9 4,13 4,6 7,6 9,4 13,4 9,3 21,5 10,1 h 28 l 26,-2 12,-2 16,-1 5,3 5,11 4,14 4,33 2,17 3,28 2,6 7,-1 5,-5 5,-12 6,-31 2,-16 2,-11 3,-34 1,-7 1,-18 v -51 l -1,-22 z"
       fill="#fbfbfb"
       id="path14" /><path
       d="m 1537.6,3563.7 7,1 12,7 20,9 15,7 26,12 15,6 -1,5 -7,10 -14,23 -13,20 -7,11 -14,22 -9,15 -17,29 -14,22 -16,26 -8,13 -7,11 -8,13 -12,20 -12,19 -15,25 -8,14 -16,25 -12,20 -13,22 -9,15 -10,16 -10,15 -11,19 -12,20 -7,11 -7,10 -2,2 -37,-4 -46,-5 -32,-4 1,-5 14,-23 8,-13 11,-19 11,-19 15,-25 17,-28 11,-18 11,-17 14,-23 8,-14 14,-23 14,-22 15,-24 14,-22 8,-12 9,-14 16,-25 12,-19 7,-11 8,-13 7,-11 8,-13 14,-22 13,-20 10,-15 14,-21 z"
       fill="#cc1705"
       id="path15" /><path
       d="m 3086.6,3111.7 h 6 l 9,5 10,11 2,6 h 2 l 7,15 4,11 4,20 v 29 l -5,29 -5,14 -8,15 -12,18 -11,16 -13,19 -1,2 h -2 l -2,5 -10,13 -1,2 h -2 l -2,5 -9,10 -5,7 -4,-1 -6,-15 -5,-12 -5,-13 -4,-10 -4,-9 v -3 l -5,3 -5,5 -40,40 -10,13 -4,10 1,7 4,5 18,10 5,3 8,7 5,8 4,12 v 18 l -3,14 -3,1 -14,-5 -7,-3 h -9 l -9,6 -7,7 -4,8 -1,10 3,10 2,5 v 5 l -8,-1 -12,-4 -9,-5 v -2 l -4,-2 -5,-6 -6,-9 -8,-16 -4,-7 -11,-5 h -21 l -16,5 h -2 v 2 l -6,4 -7,7 -8,13 -5,12 -4,13 -1,11 -5,-1 -11,-13 -9,-14 -5,-13 -2,-14 v -11 l 2,-13 5,-13 9,-13 6,-7 h 2 l 1,-3 11,-9 11,-9 4,-2 -3,-5 -9,-7 -11,-5 -11,-2 -13,1 -8,3 -9,5 -8,6 -2,-1 1,-8 4,-21 8,-16 8,-10 12,-9 15,-6 6,-1 h 20 l 14,2 21,6 25,7 20,4 h 12 l 10,-4 11,-8 4,-3 h 2 l 1,-3 8,-7 16,-16 5,-5 v -3 l -8,-4 -13,-10 -7,-6 -6,-8 -3,-5 v -5 l 9,-8 10,-7 13,-10 17,-14 5,-4 h 2 v -2 l 4,-3 h 2 v -2 l 11,-9 7,-7 8,-7 7,-7 8,-7 11,-10 14,-11 13,-8 z"
       fill="#fbfbfb"
       id="path16" /><path
       d="m 3375.6,3121.7 h 6 l 8,4 14,13 8,7 18,18 8,7 6,7 8,7 12,11 11,9 9,8 11,9 15,13 10,9 8,6 1,5 -13,14 -10,8 -10,6 -7,3 v 3 l 4,2 6,7 4,3 v 2 l 4,2 7,6 v 2 l 4,2 13,10 13,8 15,4 15,-2 16,-4 18,-5 17,-4 8,-2 18,-1 15,2 12,5 11,8 7,7 7,11 4,8 4,13 2,12 v 8 l -5,-2 -10,-8 -14,-5 h -14 l -17,5 -9,5 h -2 l 1,6 24,24 11,14 8,15 3,13 v 19 l -3,16 -8,16 -8,10 -8,9 -3,1 -1,-5 -1,-9 -4,-15 -5,-10 -7,-10 -8,-9 -11,-7 -9,-4 -5,-1 h -12 l -11,3 -8,5 -1,2 h -2 l -2,5 -9,15 -7,10 -9,7 -16,8 -7,1 1,-15 v -14 l -2,-10 -4,-6 -9,-6 -6,-2 -7,1 -10,3 v 2 l -8,6 -5,-1 -4,-9 -3,-15 v -8 l 4,-15 7,-10 8,-7 16,-8 11,-7 2,-3 -1,-8 -6,-11 -12,-14 -2,-4 -3,-1 -7,-8 -30,-30 -3,-1 -1,5 -4,11 -7,15 -8,17 -8,13 h -3 l -8,-11 -11,-14 -6,-8 -11,-16 -9,-14 -10,-16 -12,-20 -8,-16 -5,-13 -4,-17 -1,-9 v -28 l 2,-15 5,-18 5,-12 7,-11 9,-10 5,-4 z"
       fill="#fbfbfb"
       id="path17" /><path
       d="m 2224.6,1243.7 h 63 l 33,2 41,5 21,4 29,6 15,4 13,4 21,7 15,6 5,5 2,23 1,26 v 30 l -4,1 -26,-7 -9,-3 -9,-2 -5,-2 -25,-6 -25,-5 -31,-5 -33,-4 -18,-1 h -88 l -23,2 -31,4 -35,6 -24,5 -16,4 -19,5 -9,3 -12,3 -25,8 -14,5 -19,7 -10,4 -14,6 -13,6 -11,5 -19,9 -16,9 h -3 v 2 l -8,4 -11,6 -20,11 -13,8 -6,4 h -2 l -1,3 -7,4 -1,-3 1,-15 2,-48 2,-23 2,-6 12,-7 h 2 v -2 l 22,-12 14,-7 8,-4 h 2 v -2 l 16,-8 15,-8 20,-8 12,-5 10,-4 12,-5 19,-8 10,-3 8,-3 15,-5 24,-7 24,-7 20,-5 31,-6 23,-4 34,-4 z"
       fill="#fbfafa"
       id="path18" /><path
       d="m 1891.6,1484.7 h 3 l 2,54 4,101 1,70 v 82 l -1,23 -5,55 -5,35 -6,28 -6,27 -8,31 -5,18 -4,1 -23,-4 -23,-8 -16,-8 -10,-6 -14,-10 -13,-11 -13,-13 -9,-11 -12,-13 -3,-3 1,-4 5,-5 h 2 l 2,-4 10,-12 9,-13 10,-16 10,-17 14,-29 10,-25 10,-30 7,-27 4,-17 5,-26 8,-47 6,-57 5,-73 7,-8 17,-12 14,-9 z"
       fill="#cd1705"
       id="path19" /><path
       d="m 1984.6,1909.7 3,1 9,13 2,5 h 2 l 8,11 10,13 11,14 13,15 17,17 8,7 13,11 10,7 12,8 20,12 9,5 8,5 16,8 21,8 27,9 13,4 15,3 12,3 15,2 3,1 14,1 14,-3 12,-3 14,-5 12,-5 21,-10 21,-12 11,-7 10,-7 12,-9 5,-4 h 2 l 1,-3 10,-8 12,-11 8,-7 6,-6 h 2 l 2,-4 5,-5 3,-1 2,-4 8,-8 10,-13 h 3 v 58 l -5,5 -12,9 -13,10 -10,7 -14,10 -11,7 -10,7 -14,9 -13,8 h -2 v 2 l -9,5 -16,9 -21,12 -16,8 -15,7 -15,6 -14,5 -13,4 -15,3 -7,2 -24,4 -10,1 h -52 l -21,-3 -18,-3 -16,-4 -20,-6 -7,-3 -16,-6 -14,-6 -9,-4 -16,-8 -20,-11 -9,-6 -8,-5 -1,-5 3,-19 2,-30 1,-26 1,-11 1,-28 z"
       fill="#fafafa"
       id="path20" /><path
       d="m 1901.6,2894.7 9,1 8,8 8,16 4,13 2,17 v 26 l -2,16 -5,16 -8,15 -10,14 -13,16 -8,10 -12,14 -12,14 -8,8 -2,3 -5,-1 -8,-20 -10,-26 -2,-6 -5,2 -13,10 -10,9 -10,10 h -2 l -2,4 -7,7 -6,10 v 7 l 7,6 11,7 8,7 4,6 3,7 1,5 v 10 l -3,13 -4,2 -5,-2 -6,-1 h -13 l -8,3 -6,7 -2,5 -1,7 1,11 -4,1 -9,-3 -10,-5 -5,-4 -7,-11 -7,-11 -4,-5 -7,-4 -4,-1 h -22 l -12,5 -10,9 -6,10 -4,11 -2,9 -4,1 -5,-5 -4,-5 -3,-3 -6,-9 -4,-10 v -20 l 5,-13 7,-10 8,-9 13,-10 11,-9 1,-3 -2,-5 -4,-2 -9,-6 -4,-1 h -15 l -13,4 -9,6 h -3 l 1,-8 4,-15 5,-12 11,-12 9,-6 11,-4 6,-1 h 16 l 16,4 9,3 15,5 20,7 11,3 h 10 l 9,-5 12,-9 10,-9 7,-6 5,-5 h 2 v -2 h 2 l -5,-5 -11,-11 -7,-9 -3,-5 1,-5 8,-6 14,-9 19,-14 13,-10 14,-11 11,-9 14,-11 10,-7 16,-10 z"
       fill="#fbfafa"
       id="path21" /><path
       d="m 2135.6,2915.7 h 5 l 10,9 11,11 7,8 11,12 9,10 v 2 l 3,1 7,8 5,5 v 2 l 4,2 6,7 8,7 8,8 8,7 18,18 -1,4 -11,9 -7,5 -12,6 -5,2 6,8 12,13 14,14 9,6 8,4 13,1 18,-2 17,-4 19,-3 h 13 l 2,2 4,28 2,12 v 11 l -16,3 -3,1 2,4 4,4 v 2 h 2 l 3,4 v 2 h 2 l 10,14 5,12 5,34 v 12 l -11,13 -7,8 -5,2 -1,-1 -3,-16 -6,-15 -9,-13 -8,-6 -11,-4 -6,-1 h -11 l -10,4 -10,11 -8,10 -5,4 -9,4 -8,1 -1,-4 1,-3 v -8 l -5,-13 -4,-5 v -2 l -4,-2 -6,-4 h -9 l -9,4 -4,3 -5,-1 -3,-9 -1,-5 v -8 l 3,-12 7,-9 9,-6 9,-4 14,-5 1,-4 -4,-9 -6,-9 -9,-11 -11,-13 -9,-11 -8,-9 -2,-1 -2,6 -8,14 -9,14 -5,9 -1,2 -4,-1 -8,-10 -9,-13 -10,-16 -8,-16 -8,-16 -8,-16 -7,-17 -3,-13 v -22 l 5,-24 3,-8 7,-14 7,-10 9,-10 z"
       fill="#fbfafa"
       id="path22" /><path
       d="m 2524.6,1455.7 h 2 l 4,40 1,16 v 30 l -2,20 -4,29 -4,16 -7,24 -5,17 -4,13 -4,10 -6,16 -4,9 -5,12 -6,15 -4,8 -10,21 -5,10 -2,1 -4,-16 -3,-11 -3,-9 -7,-20 -8,-16 -7,-11 -12,-13 -10,-9 -11,-7 -17,-9 -14,-5 -21,-5 -11,-1 v -3 l 8,-8 10,-14 7,-12 h 2 l 2,-6 4,-7 v -22 l -2,-20 -3,-23 -2,-18 -1,-9 44,-1 26,-1 28,-4 24,-6 8,-3 16,-6 16,-8 z"
       fill="#fbfbfb"
       id="path23" /><path
       d="m 1039.6,674.7 h 7 l 2,7 7,33 2,5 -1,4 -31,6 -13,3 -31,6 -25,5 -26,5 -8,1 -6,2 -34,6 -35,7 -24,5 -23,5 -27,5 -20,4 -20,4 -24,5 -26,5 -26,5 -12,2 -8,2 -17,3 -13,3 -14,3 -22,4 -13,3 -25,5 -13,2 -6,2 -23,5 h -8 l -6,-6 v -2 l -3,-1 -5,-9 -3,-8 -1,-6 v -8 l 4,-10 6,-8 7,-4 36,-6 33,-6 41,-7 15,-3 27,-5 40,-7 43,-8 26,-5 28,-5 40,-7 21,-4 21,-4 39,-7 29,-5 9,-2 33,-6 36,-6 z"
       fill="#c73325"
       id="path24" /><path
       d="m 1466.6,1854.7 5,2 11,7 27,15 16,9 13,6 -3,5 -8,7 -5,6 -5,5 -5,5 -10,10 -11,14 -10,15 -10,18 -8,16 -8,20 -5,12 -7,21 -7,25 -5,19 -7,29 -9,45 -7,32 -14,70 -5,30 -4,23 -3,15 -5,30 -4,28 -3,31 -2,9 h -3 l -8,-70 -4,-27 -4,-32 -3,-46 v -39 l 2,-43 3,-32 5,-37 5,-28 10,-40 5,-18 11,-31 10,-24 9,-20 10,-19 14,-25 11,-17 10,-14 8,-10 5,-6 z"
       fill="#cd1705"
       id="path25" /><path
       d="m 1402.6,1855.7 1,3 -8,12 -13,23 -11,19 -11,21 -8,16 -11,24 -10,25 -6,18 -3,9 -5,17 -6,28 -4,21 -3,22 -2,26 -1,46 v 42 l 1,48 2,48 2,32 1,8 h -3 l -9,-13 -7,-9 v -3 l -3,-1 -9,-12 -10,-14 -9,-12 -8,-11 -8,-11 -10,-14 -7,-9 -11,-15 v -2 h -2 l -7,-11 -6,-8 -6,-9 1,-8 4,-16 4,-17 3,-9 7,-24 3,-8 7,-21 5,-15 4,-10 11,-25 8,-16 8,-16 12,-22 13,-20 13,-19 12,-16 9,-11 13,-15 10,-10 5,-5 13,-13 8,-7 14,-12 10,-9 11,-9 z"
       fill="#cb200f"
       id="path26" /><path
       d="m 1906.6,3468.7 h 15 l 42,2 29,3 34,2 29,2 46,3 1,3 -6,43 -32,-1 -52,-4 -30,-2 -14,-2 -3,35 -2,18 -2,26 14,1 28,3 12,2 31,3 30,4 9,1 2,1 -1,25 -1,15 -2,5 -18,-2 -13,-2 -27,-3 -11,-2 -26,-3 -13,-2 -30,-3 -20,-3 -32,-5 -1,-3 4,-51 3,-25 2,-24 2,-19 z"
       fill="#faf9f9"
       id="path27" /><path
       d="m 2138.6,489.7 h 9 l 4,24 1,6 -6,2 -34,7 -31,6 -15,3 -15,3 -19,3 h -6 l -4,2 -25,4 -21,4 -22,4 -44,7 h -9 v 2 l -47,8 -15,3 -40,7 -16,3 -13,2 -8,2 -18,3 -9,2 -34,6 -28,5 -26,5 -15,3 h -6 l -6,-9 -10,-18 -9,-12 1,-2 26,-4 17,-3 31,-5 51,-8 32,-5 43,-7 32,-5 14,-2 34,-6 29,-4 11,-2 20,-3 17,-3 46,-7 36,-6 23,-3 14,-3 22,-3 17,-3 z"
       fill="#c82d1e"
       id="path28" /><path
       d="m 2589.6,1689.7 3,3 3,17 8,29 13,38 9,27 10,25 16,33 10,19 9,16 10,16 10,15 12,16 14,17 5,5 v 2 l 4,2 1,3 -24,-1 h -44 l -28,2 -34,5 -6,1 -3,-3 -4,-18 -5,-27 -4,-27 -3,-33 v -56 l 4,-44 6,-41 6,-36 z"
       fill="#cd1705"
       id="path29" /><path
       d="m 3255.6,129.7 h 13 l 1,3 -4,5 -13,8 -16,8 -14,7 -18,8 -15,7 -15,7 -22,10 -12,5 -14,6 -15,7 -19,8 -13,6 -15,6 -20,8 -9,4 -15,6 -10,4 -19,8 -10,3 -10,4 -16,6 -9,4 -12,5 -16,6 -10,4 -16,6 -10,4 -16,6 -10,4 -11,4 -15,5 -24,7 -10,3 -20,5 h -4 l 1,-4 5,-4 17,-11 16,-10 15,-9 29,-16 15,-8 17,-8 16,-8 17,-9 18,-8 8,-4 15,-7 20,-9 14,-7 19,-8 12,-5 13,-5 12,-5 13,-5 12,-5 13,-5 12,-5 14,-5 8,-3 34,-11 13,-4 26,-7 16,-4 18,-4 16,-3 z"
       fill="#f9f8f8"
       id="path30" /><path
       d="m 3387.6,216.7 h 7 v 3 l -7,5 -12,5 -20,8 -19,8 -10,3 -10,4 -11,4 -21,7 -8,3 -14,5 -19,7 -8,3 -21,7 -16,5 -8,3 -18,6 -16,5 -13,4 -25,8 -16,5 -17,5 -16,4 -5,2 -32,8 -9,3 -21,6 -15,4 -21,5 -27,6 -18,4 -23,5 -19,4 -18,3 -8,2 -24,3 -16,2 -13,1 h -11 l -1,-4 3,-3 15,-6 16,-6 16,-5 16,-5 13,-4 9,-2 5,-2 32,-8 6,-2 12,-3 9,-3 20,-6 20,-6 9,-3 16,-5 21,-6 13,-4 20,-6 16,-5 16,-5 16,-5 13,-4 16,-5 21,-6 21,-6 9,-3 13,-4 13,-3 5,-2 13,-3 5,-2 28,-7 17,-4 25,-6 16,-4 29,-6 22,-4 z"
       fill="#f8f7f7"
       id="path31" /><path
       d="m 3066.6,488.7 h 103 l 62,1 28,1 69,5 27,3 25,3 16,3 2,4 -3,2 -38,3 -20,2 -52,3 -9,1 -96,3 -48,1 h -102 l -40,-2 -45,-2 -28,-2 -49,-3 -31,-3 -20,-2 -9,-2 -1,-4 5,-3 19,-2 41,-3 97,-4 13,-1 31,-1 z"
       fill="#f7f6f6"
       id="path32" /><path
       d="m 2246.6,1724.7 h 60 l 12,1 22,5 10,5 5,4 7,11 4,9 4,14 4,23 2,8 5,35 1,17 -12,-1 -7,-3 -7,-10 -7,-15 -4,-9 -3,-10 -3,-8 -5,-16 -4,-14 v -6 l -13,2 -45,3 h -32 l -36,-3 -4,-1 -4,20 -5,19 -6,21 -3,8 -7,20 -2,3 h -23 v -11 l 5,-52 3,-19 3,-15 6,-12 5,-5 5,-4 9,-4 21,-5 28,-4 z"
       fill="#f9f8f8"
       id="path33" /><path
       d="m 2214.6,3510.7 6,1 16,4 8,3 20,7 9,4 10,5 16,8 7,3 v 2 l 6,2 10,6 v 2 l 5,2 9,9 5,8 2,7 1,18 -3,23 -6,18 -11,12 -11,7 -11,5 -16,5 -21,5 -25,5 -16,3 -25,2 1,-22 2,-17 3,-3 16,-3 16,-4 11,-3 17,-3 14,-5 5,-6 3,-5 1,-4 v -16 l -7,-8 -17,-10 -16,-8 -11,-6 -8,-4 v -2 l -6,-2 -10,-5 -2,-5 1,-10 1,-23 z"
       fill="#faf9f9"
       id="path34" /><path
       d="m 1197.6,517.7 h 11 l 11,3 9,7 7,8 8,16 6,16 3,9 4,13 3,16 2,8 2,18 v 43 l -3,16 -4,6 -4,4 -10,6 -12,3 -7,-1 -10,-3 -8,-7 -4,-9 -4,-28 -3,-17 -3,-13 -4,-17 -3,-9 -7,-20 -4,-9 -8,-16 -5,-11 -1,-8 8,-10 5,-4 h 2 v -2 l 12,-6 z"
       fill="#fafafa"
       id="path35" /><path
       d="m 3404.6,384.7 2,1 v 2 l -14,4 -26,5 -28,5 -28,5 -25,4 -24,3 -12,2 -28,3 -24,3 -19,2 -14,2 -33,3 -18,2 -39,3 -22,2 -44,3 -7,1 -68,4 -22,2 -47,3 -6,1 -20,1 h -34 l -5,-2 1,-4 5,-2 15,-3 26,-3 11,-2 28,-3 14,-2 27,-3 20,-3 29,-4 27,-3 11,-2 25,-3 13,-2 39,-5 33,-3 16,-2 35,-3 18,-2 49,-4 53,-2 59,-2 18,-1 z"
       fill="#f6f5f5"
       id="path36" /><path
       d="m 1097.6,561.7 h 9 l 13,4 9,7 8,9 8,14 7,16 6,19 4,16 2,20 v 26 l -2,14 -3,7 -4,6 -7,6 -12,3 -10,-2 -6,-3 -5,-3 -6,-9 -3,-7 -3,-18 -2,-9 -3,-17 -5,-15 -7,-13 -9,-10 -13,-10 -6,-4 -1,-1 v -8 l 5,-14 5,-7 8,-7 9,-6 z"
       fill="#fafafa"
       id="path37" /><path
       d="m 1308.6,488.7 h 8 l 9,2 11,6 7,7 8,16 5,17 1,7 v 9 l -11,9 -5,5 -7,10 -3,9 -2,7 -1,14 1,9 5,17 8,16 7,12 4,6 c 2.8,2 3.3,4 4,7 l -14,7 -5,1 h -16 l -9,-3 -8,-5 -3,-7 -2,-13 -3,-29 -2,-10 -3,-21 -3,-13 -5,-16 -7,-19 -5,-13 -4,-10 -2,-4 v -7 l 7,-8 13,-9 15,-5 z"
       fill="#faf9f9"
       id="path38" /><path
       d="m 2694.6,334.7 h 16 l 7,5 6,9 4,9 5,14 5,19 4,17 4,23 2,23 v 53 l -2,28 -5,18 -3,5 -5,2 -6,-4 -6,-11 -4,-16 -4,-26 -5,-25 -2,-8 -3,-16 -3,-12 -6,-25 -5,-19 -3,-11 -5,-24 v -18 l 5,-6 5,-3 z"
       fill="#f9f8f8"
       id="path39" /><path
       d="m 2597.6,364.7 h 18 l 10,4 3,3 v 2 h 2 l 5,10 6,22 3,18 2,8 4,30 v 52 l -4,27 -5,12 -4,5 -3,2 h -6 l -4,-5 -4,-10 -5,-20 -3,-16 -3,-13 -7,-34 -4,-15 -5,-19 -3,-10 -5,-25 -1,-17 3,-5 7,-5 z"
       fill="#f9f8f8"
       id="path40" /><path
       d="m 2506.6,385.7 10,1 15,4 5,4 5,10 5,18 3,18 2,8 2,18 v 56 l -2,20 -2,8 -4,10 -6,4 -5,-1 -5,-5 -4,-7 -5,-14 -3,-12 -2,-5 -8,-32 -4,-15 -4,-15 -5,-23 -3,-14 -1,-9 v -15 l 3,-7 6,-3 z"
       fill="#faf9f9"
       id="path41" /><path
       d="m 2431.6,433.7 5,1 3,11 2,5 v 3 l -37,5 -20,3 -16,2 -12,2 -23,3 -21,3 -27,4 -27,3 -25,3 h -17 l -7,-2 v -2 l -3,-1 -1,-5 1,-3 9,-6 8,-3 21,-5 20,-3 11,-2 24,-3 13,-2 40,-5 30,-3 5,-1 15,-1 z"
       fill="#f7f6f5"
       id="path42" /><path
       d="m 2430.6,504.7 h 16 l 5,2 5,4 -1,3 -25,8 -13,4 -26,6 -23,5 -23,5 -33,7 -13,3 -25,5 -18,3 -11,1 h -10 l -7,-3 -5,-5 -1,-5 6,-7 10,-5 21,-4 8,-2 34,-6 23,-4 22,-3 17,-3 22,-4 31,-4 z"
       fill="#f7f5f5"
       id="path43" /><path
       d="m 2323.6,1030.7 5,5 9,15 6,11 v 2 h 2 l 8,16 9,17 8,16 4,10 4,10 4,11 4,13 3,14 2,6 3,17 1,4 -13,-1 -17,-3 -18,-3 -2,-1 -5,-42 -3,-29 -3,-21 -7,-44 -4,-19 z"
       fill="#f8f7f7"
       id="path44" /><path
       d="m 1423.6,466.7 14,2 8,3 10,9 6,9 4,10 3,20 v 8 l -16,3 -21,3 -17,3 -13,3 -4,-1 -3,-7 -5,-15 -4,-13 -2,-12 v -8 l 8,-7 12,-6 11,-3 z"
       fill="#f9f9f9"
       id="path45" /><path
       d="m 3157.6,2448.7 h 11 l 16,4 12,6 -1,5 -4,2 -2,4 -9,9 -8,6 -10,4 -7,-1 -11,-6 -10,-9 -4,-5 v -5 l 7,-7 9,-5 z"
       fill="#cd1705"
       id="path46" /><path
       d="m 2008.6,2344.7 h 15 l 10,3 12,6 -1,4 -3,3 h -2 v 2 l -16,12 -3,1 h -10 l -8,-4 -10,-9 -5,-6 1,-4 10,-6 z"
       fill="#cd1705"
       id="path47" /><path
       d="m 2349.6,3148.7 h 6 l 3,12 2,11 v 9 l -2,1 -8,-11 v -2 h -2 l -3,-4 v -2 h -2 l -7,-8 1,-3 z"
       fill="#cd1705"
       id="path48" /><path
       d="m 3404.6,384.7 2,1 v 2 h -53 v -1 l 18,-1 z"
       fill="#b2a2a1"
       id="path49" /><path
       d="m 3375.6,155.7 3,1 -2,1 36,2 v 1 h -15 l -25,-1 1,-3 z"
       fill="#b6a7a6"
       id="path50" /><path
       d="m 2496.6,388.7 2,1 -5,5 -1,4 v 12 l 1,14 -2,-3 -1,-9 v -15 l 3,-7 z"
       fill="#bbadac"
       id="path51" /><path
       d="m 2778.6,3309.7 2,1 -13,13 v -3 l 5,-6 z"
       fill="#d1c7c7"
       id="path52" /><path
       d="m 3685.6,2813.7 h 18 v 1 l -19,2 z"
       fill="#b2a2a1"
       id="path53" /><path
       d="m 1255.6,2291.7 h 4 v 5 l 3,1 -1,3 h -2 v -3 h -2 z"
       fill="#b2a2a1"
       id="path54" /><path
       d="m 2175.6,1739.7 2,1 -10,10 v -3 l 5,-5 z"
       fill="#ccc1c1"
       id="path55" /><g
       fill="#b2a2a1"
       id="g63"><path
         d="m 1948.6,545.7 1,3 4,3 -1,3 -5,-4 z"
         id="path56" /><path
         d="m 2019.6,510.7 3,2 -1,5 v 2 l -3,-1 v -5 l -1,-2 z"
         id="path57" /><path
         d="m 1259.6,2283.7 h 7 l 1,3 -4,1 v -2 h -4 z"
         id="path58" /><path
         d="m 1886.6,530.7 2,1 -1,3 2,5 h -2 v -2 l -2,-1 v -5 z"
         id="path59" /><path
         d="m 1267.6,2294.7 2,1 v 5 l -5,-1 1,-3 h 2 z"
         id="path60" /><path
         d="m 1246.6,2272.7 8,1 -1,2 h -8 l -1,-2 z"
         id="path61" /><path
         d="m 1928.6,527.7 h 5 l 1,2 h -2 l -1,3 -2,-1 z"
         id="path62" /><path
         d="m 1923.6,526.7 h 2 l 1,5 -3,1 -2,-2 z"
         id="path63" /></g></g></svg>
