<svg enable-background="new 0 0 512 512" viewBox="0 0 512 512" xmlns="http://www.w3.org/2000/svg"><circle cx="256" cy="256" fill="#f00" r="245.42"/><path d="m256 512c-141.16 0-256-114.84-256-256s114.84-256 256-256 256 114.84 256 256-114.84 256-256 256zm0-490.84c-129.49 0-234.84 105.35-234.84 234.84s105.35 234.84 234.84 234.84 234.84-105.35 234.84-234.84-105.35-234.84-234.84-234.84z"/><g fill="#f2f2f2" transform="matrix(.7071438 .70706976 -.70706976 .7071438 261.591021 -107.343357)"><path d="m96.446 234.14h327.87v55.947h-327.87z"/><path d="m98.184-288.35h327.87v55.947h-327.87z" transform="rotate(90)"/></g></svg>