<?xml version="1.0" encoding="UTF-8"?>
<!-- Generator: Adobe Illustrator 24.0.0, SVG Export Plug-In . SVG Version: 6.00 Build 0)  -->
<svg enable-background="new 0 0 256 256" version="1.1" viewBox="0 0 256 256" xml:space="preserve" xmlns="http://www.w3.org/2000/svg">
<style type="text/css">
	.st0{fill:#FFB69F;}
	.st1{fill:#72C2E9;}
	.st2{fill:#C2E5FF;}
	.st3{fill:#FC5D3D;}
	.st4{fill:#AFAFAF;}
	.st5{fill:#FFCBC3;}
	.st6{fill:#F0C020;}
	.st7{fill:#F8E5B0;}
	.st8{fill:#EFEFEF;}
	.st9{fill:#EEC21E;}
	.st10{fill:#FFFFFF;}
	.st11{fill:#F1BF21;}
	.st12{fill:#E8A61E;}
	.st13{fill:#7D7B79;}
	.st14{fill:#B34F33;}
	.st15{fill:#F8E5B2;}
	.st16{fill:#C5E5FE;}
	.st17{fill:#4C4944;}
	.st18{fill:#4BA5C8;}
	.st19{fill:#AFAEAF;}
	.st20{fill:#CF941C;}
	.st21{fill:#7C7B7A;}
	.st22{fill:#FAE0E1;}
	.st23{fill:#13BF6D;}
	.st24{fill:#76FFBB;}
	.st25{fill:#F2E1D7;}
	.st26{fill:#878787;}
	.st27{fill:#F9E5AF;}
	.st28{fill:#E8A61F;}
	.st29{fill:none;stroke:#000000;stroke-width:5;stroke-linecap:round;stroke-linejoin:round;stroke-miterlimit:10;}
	.st30{fill:#EFEFF0;}
	.st31{fill:#E8A61B;}
	.st32{fill:#EFEFEE;}
	.st33{fill:#4C4945;}
	.st34{fill:#EA8F7D;}
	.st35{fill:#D6C0B3;}
	.st36{fill:#EEC120;}
</style>


	
		
			<path class="st6" d="m145.7 107.8-37.89 37.89c-5.07 5.07-13.62 3.76-16.96-2.56-2.12-4.02-1.48-9.13 1.9-12.5l11.85-11.86 14.18-14.18 11.86-11.85c3.37-3.38 8.48-4.01 12.5-1.9 6.35 3.35 7.62 11.9 2.56 16.96z"/>
		
		
			
				<path class="st6" d="m225.46 119.67c-3.871-1.279-7.869-2.397-10.114-12.066-2.067 8.906-5.38 10.502-10.114 12.066 7.722 2.551 8.887 6.776 10.114 12.066 2.115-9.118 5.615-10.579 10.114-12.066z"/>
			
			
				<path class="st6" d="m50.79 119.67c-3.871-1.279-7.869-2.397-10.114-12.066-2.067 8.906-5.38 10.502-10.114 12.066 7.722 2.551 8.887 6.776 10.114 12.066 2.116-9.118 5.616-10.579 10.114-12.066z"/>
			
			
				<path class="st6" d="m138.12 204.76c-3.871-1.279-7.869-2.397-10.114-12.066-2.067 8.906-5.38 10.502-10.114 12.066 7.722 2.551 8.887 6.776 10.114 12.066 2.116-9.119 5.616-10.579 10.114-12.066z"/>
			
			
				<path class="st6" d="m138.12 51.218c-3.871-1.279-7.869-2.397-10.114-12.066-2.067 8.906-5.38 10.502-10.114 12.066 7.722 2.551 8.887 6.776 10.114 12.066 2.116-9.118 5.616-10.579 10.114-12.066z"/>
			
			
				<path class="st19" d="m80.62 197.41c10.4 27.7-12.96 55.81-41.74 51.06-2.77-0.45-3.82-3.88-1.84-5.85l22.59-22.59-23.65-23.66-22.59 22.59c-1.99 1.99-5.42 0.9-5.87-1.86-4.74-28.99 23.7-52.17 51.11-41.76l32.22-32.21c3.34 6.32 11.89 7.63 16.96 2.56l1.3-1.3 3.62 3.62c2.95 2.95 5.38 6.38 7.17 10.12l-39.28 39.28z"/>
			
			
				<path class="st8" d="m71.256 219.76c-1.343-0.321-2.171-1.671-1.85-3.013 2.045-8.537-0.886-14.44-3.394-21.116-0.345-0.918-0.12-1.953 0.573-2.646l35.737-35.738c0.977-0.977 2.559-0.977 3.535 0 0.977 0.976 0.977 2.559 0 3.535l-34.591 34.592c2.43 6.348 5.283 13.011 3.002 22.537-0.322 1.349-1.676 2.17-3.012 1.849z"/>
			
			
				<path class="st19" d="m237.86 71.98c-10.95 10.94-26.89 13.82-40.47 8.66l-39.25 39.25c-3.74-1.79-7.17-4.22-10.12-7.17l-3.62-3.62 1.3-1.3c5.06-5.06 3.79-13.61-2.56-16.96l32.26-32.27c-4.94-13.17-2.43-28.65 7.72-39.5 9.09-9.69 21.94-13.55 34.02-11.56 2.77 0.45 3.82 3.88 1.84 5.85l-22.59 22.59 23.65 23.66 22.59-22.59c1.99-1.99 5.42-0.9 5.87 1.86 1.91 11.68-1.63 24.08-10.64 33.1z"/>
			
			
				<path class="st8" d="m157.28 105.83c-0.977-0.976-0.977-2.559 0-3.535l6.944-6.944c0.977-0.977 2.559-0.977 3.535 0 0.977 0.976 0.977 2.559 0 3.535l-6.944 6.944c-0.976 0.976-2.558 0.976-3.535 0zm14.015-14.016c-0.977-0.976-0.977-2.559 0-3.535l21.692-21.692c0.696-0.695 1.736-0.919 2.654-0.57 6.776 2.571 12.403 5.446 21.134 3.377 1.342-0.319 2.69 0.513 3.009 1.856s-0.513 2.69-1.856 3.009c-9.607 2.275-16.205-0.505-22.556-2.986l-20.542 20.542c-0.976 0.975-2.558 0.975-3.535-1e-3z"/>
			
			
				<path class="st1" d="m247.94 208.98c-18.997 4.958-33.986 19.925-38.965 38.954-7.563-0.897-14.894-4.23-20.685-10.031l-56.707-56.707c-4.472-4.462-7.647-10.052-9.198-16.181v-0.011c-0.601-2.384-1.435-4.683-2.489-6.877-1.793-3.734-4.219-7.162-7.173-10.116l-3.618-3.618 35.294-35.294 3.618 3.618c2.954 2.954 6.382 5.38 10.116 7.173 2.194 1.044 4.494 1.877 6.877 2.489h0.011c6.128 1.551 11.719 4.726 16.181 9.198l56.707 56.718c5.801 5.781 9.145 13.122 10.031 20.685z"/>
			
			
				<path class="st1" d="m247.94 208.97c-19.03 4.98-33.99 19.96-38.96 38.96-7.57-0.89-14.9-4.23-20.69-10.03l-56.7-56.7c-4.48-4.47-7.65-10.06-9.2-16.19v-0.01c-0.6-2.38-1.44-4.68-2.49-6.87-1.79-3.74-4.22-7.17-7.17-10.12l-3.62-3.62 35.29-35.29 3.62 3.62c2.95 2.95 6.38 5.38 10.12 7.17 2.19 1.04 4.49 1.88 6.87 2.49h0.01c6.13 1.55 11.72 4.72 16.18 9.2l56.71 56.71c5.8 5.78 9.15 13.12 10.03 20.68z"/>
			
			
				<path class="st6" d="m237.91 237.9c-7.9 7.91-18.63 11.25-28.93 10.03 4.97-19 19.93-33.98 38.96-38.96v0.01c1.25 10.12-2.09 20.99-10.03 28.92z"/>
			
			
				<path class="st16" d="m231.42 203c-1.055-1.908-2.273-3.42-3.709-4.848-0.978-0.975-0.979-2.558-5e-3 -3.535 0.976-0.978 2.559-0.979 3.536-5e-3 1.775 1.77 3.265 3.639 4.553 5.967 0.668 1.208 0.23 2.729-0.978 3.398-1.201 0.666-2.726 0.235-3.397-0.977zm-10.781-11.922-49.478-49.477c-2.649-2.656-5.981-4.548-9.637-5.472-6.672-1.694-12.835-4.664-18.318-8.827-1.1-0.835-1.314-2.403-0.479-3.503 0.836-1.1 2.401-1.315 3.503-0.479 4.947 3.756 10.506 6.436 16.523 7.962 4.529 1.146 8.661 3.493 11.946 6.786l49.475 49.475c0.977 0.976 0.977 2.559 0 3.535-0.977 0.977-2.559 0.977-3.535 0z"/>
			
			
				<polygon class="st19" points="118.78 104.59 104.6 118.77 42.201 56.367 31.959 53.213 7.814 29.069 29.079 7.804 53.224 31.948 56.642 42.454"/>
			
			
				<polygon class="st19" points="118.78 104.59 104.6 118.77 42.2 56.37 31.96 53.21 7.81 29.07 29.08 7.8 53.22 31.95 56.64 42.45"/>
			
		
	
	
		<path d="m217.88 107.01c-0.62-2.675-4.445-2.668-5.064 0-1.864 8.027-4.463 8.886-8.397 10.187-2.369 0.782-2.375 4.152 0 4.937 6.535 2.159 7.276 5.352 8.397 10.185 0.623 2.681 4.442 2.68 5.065 0 1.862-8.027 4.603-8.932 8.397-10.185 2.369-0.783 2.375-4.153 0-4.937-3.646-1.201-6.492-1.978-8.398-10.187zm-2.48 17.017c-0.92-1.552-2.199-3.02-4.07-4.303 1.513-1.038 2.868-2.447 4.028-4.533 1.173 2.112 2.508 3.51 3.887 4.497-1.439 1.012-2.73 2.368-3.845 4.339z"/>
		<path d="m38.144 132.32c0.623 2.681 4.442 2.68 5.065 0 1.862-8.027 4.603-8.932 8.397-10.185 2.369-0.783 2.375-4.153 0-4.937-3.645-1.2-6.491-1.977-8.397-10.186-0.62-2.675-4.445-2.668-5.064 0-1.864 8.027-4.463 8.886-8.397 10.187-2.369 0.782-2.375 4.152 0 4.937 6.534 2.158 7.274 5.351 8.396 10.184zm2.542-17.127c1.173 2.112 2.508 3.51 3.888 4.497-1.439 1.011-2.731 2.368-3.846 4.339-0.92-1.552-2.199-3.02-4.07-4.303 1.513-1.038 2.868-2.447 4.028-4.533z"/>
		<path d="m138.94 202.29c-3.645-1.2-6.491-1.977-8.397-10.186-0.62-2.675-4.445-2.668-5.064 0-1.864 8.027-4.463 8.886-8.397 10.187-2.369 0.782-2.375 4.152 0 4.937 6.535 2.159 7.276 5.352 8.397 10.185 0.623 2.681 4.442 2.68 5.065 0 1.862-8.027 4.603-8.932 8.397-10.185 2.369-0.784 2.374-4.154-1e-3 -4.938zm-10.877 6.831c-0.92-1.552-2.199-3.02-4.07-4.303 1.513-1.038 2.868-2.447 4.028-4.533 1.173 2.112 2.508 3.51 3.888 4.497-1.439 1.011-2.731 2.368-3.846 4.339z"/>
		<path d="m117.08 53.687c6.535 2.159 7.276 5.352 8.397 10.185 0.623 2.681 4.442 2.68 5.065 0 1.862-8.027 4.603-8.932 8.397-10.185 2.369-0.783 2.375-4.153 0-4.937-3.645-1.2-6.491-1.977-8.397-10.186-0.62-2.675-4.445-2.668-5.064 0-1.864 8.027-4.463 8.886-8.397 10.187-2.37 0.782-2.376 4.152-1e-3 4.936zm10.939-6.942c1.173 2.112 2.508 3.51 3.888 4.497-1.439 1.011-2.731 2.368-3.846 4.339-0.92-1.552-2.199-3.02-4.07-4.303 1.514-1.038 2.868-2.447 4.028-4.533z"/>
		<path d="m152.9 170.61c-0.977 0.976-0.977 2.559 0 3.535l42.71 42.71c0.977 0.977 2.559 0.977 3.535 0 0.977-0.976 0.977-2.559 0-3.535l-42.71-42.71c-0.976-0.976-2.558-0.976-3.535 0z"/>
		<path d="m216.87 199.14c0.977-0.976 0.977-2.559 0-3.535l-42.71-42.71c-0.977-0.977-2.559-0.977-3.535 0-0.977 0.976-0.977 2.559 0 3.535l42.71 42.71c0.977 0.976 2.559 0.976 3.535 0z"/>
		<path d="m80.76 66.58c0.97-0.98 0.97-2.56 0-3.54-0.95-0.94-2.59-0.94-3.53 0-0.941 0.922-1.032 2.507 0 3.54 0.978 0.976 2.557 0.973 3.53 0z"/>
		<path d="m180.29 130.67c-0.98 0.97-0.98 2.56 0 3.53 0.964 0.985 2.558 0.993 3.529 0 0.98-0.97 0.98-2.56 0-3.53-0.939-0.95-2.59-0.95-3.529 0z"/>
		<path d="m239.67 186.52-48.78-48.78c-0.939-0.94-2.59-0.94-3.53 0-0.964 0.965-0.982 2.548-0.01 3.52 0 0.01 0.01 0.01 0.01 0.01l48.78 48.79c4.7 4.68 7.811 10.6 9 17.1-17.922 5.478-32.353 19.591-37.97 37.97-6.51-1.2-12.43-4.31-17.11-9l-56.7-56.7c-4.149-4.14-7.1-9.33-8.55-15.02v-0.02c-2.601-10.366-8.244-16.081-12.164-20 23.651-23.651 16.879-16.88 31.754-31.75l1.851 1.85c2.37 2.37 5.01 4.414 7.873 6.093 8.017 4.718 11.775 3.547 18.886 7.767 1.14 0.68 2.75 0.26 3.42-0.88 0.7-1.173 0.325-2.708-0.87-3.42-5.815-3.444-9.454-3.769-13.005-5.035l35.485-35.495c8.993 3.026 19.059 2.822 28.17-0.87 5.03-2.04 9.55-5.03 13.42-8.9 0.17-0.17 0.34-0.34 0.5-0.52 0.96-0.99 0.93-2.58-0.061-3.53-0.96-0.93-2.609-0.9-3.539 0.06-0.06 0.069-0.366 0.401-0.44 0.45-10.349 10.334-25.252 12.865-37.81 8.09-0.9-0.34-1.98-0.1-2.66 0.57l-37.937 37.948c-3.064-1.662-5.779-3.754-7.893-5.868l-1.866-1.865c4.927-5.422 4.342-13.805-0.924-18.575l30.17-30.17c0.689-0.69 0.91-1.73 0.57-2.65-4.625-12.32-2.269-26.792 7.199-36.91 8.545-9.095 20.529-12.688 31.79-10.8 0.746 0.111 1.039 1.027 0.48 1.61l-22.59 22.59c-0.971 0.98-0.971 2.56 0 3.54l23.649 23.66c0.94 0.94 2.58 0.95 3.54 0l22.59-22.59c0.577-0.575 1.519-0.233 1.631 0.5 0.758 4.627 0.617 9.478-0.561 14.31-0.333 1.351 0.479 2.688 1.83 3.02 1.32 0.34 2.7-0.51 3.02-1.83 1.313-5.352 1.532-10.863 0.65-16.31-0.818-4.865-6.764-6.606-10.11-3.23l-20.818 20.82-20.12-20.12 20.83-20.82c3.423-3.392 1.543-9.317-3.21-10.09-12.978-2.145-26.671 2.09-36.24 12.32-10.221 10.921-13.402 26.526-8.78 40.56l-29.958 29.958c-4.711-1.648-10.116-0.491-13.689 3.094l-10.091 10.091-30.952-30.953c-0.94-0.94-2.59-0.94-3.53 0-0.98 0.98-0.98 2.56 0 3.54l30.947 30.947-10.64 10.64-60.637-60.637c-0.29-0.29-0.64-0.5-1.03-0.62l-9.659-2.97-21.931-21.94 17.73-17.73 21.95 21.95 3.229 9.93c0.12 0.38 0.33 0.72 0.61 1l15.291 15.28c0.939 0.95 2.58 0.95 3.529 0 1.002-1.001 0.948-2.584 0-3.53l-14.859-14.86-3.23-9.93c-0.12-0.38-0.33-0.72-0.609-1l-24.151-24.14c-0.94-0.95-2.59-0.95-3.53 0l-21.27 21.26c-0.932 0.931-1.017 2.503 0 3.54l24.149 24.14c0.29 0.29 0.641 0.5 1.03 0.63l9.65 2.97 60.197 60.197-10.083 10.082c-3.593 3.583-4.749 8.99-3.097 13.697l-29.906 29.897c-28.849-9.703-57.875 14.787-52.93 45.049 0.778 4.766 6.678 6.655 10.105 3.225l20.823-20.821 20.114 20.124-20.818 20.818c-3.432 3.415-1.564 9.315 3.196 10.088 30.2 4.981 54.677-23.882 45.03-52.874l35.524-35.525c0.359 1.008 0.674 2.03 0.933 3.062l0.01 0.02c1.65 6.57 5.061 12.57 9.85 17.35l56.7 56.7c14.51 14.507 38.327 14.848 53.157-1e-3 14.508-14.488 14.834-38.36-4e-3 -53.148zm-145.15-54.123 37.892-37.892c2.936-2.945 7.914-3.297 11.264-0.253 3.337 3.039 3.609 8.428 0.255 11.777 0 0-37.789 37.795-37.887 37.892-3.893 3.891-10.431 2.87-12.981-1.958-1.652-3.13-1.053-7.063 1.457-9.566zm-16.24 65.892c9.694 25.817-12.009 52.167-38.999 47.713-0.759-0.123-1.011-1.078-0.473-1.614l22.59-22.59c0.977-0.976 0.977-2.559 1e-3 -3.535l-23.649-23.66c-0.976-0.977-2.56-0.977-3.536 0l-22.592 22.59c-0.555 0.554-1.512 0.253-1.635-0.496-4.424-27.062 22.101-48.762 47.756-39.02 0.917 0.348 1.958 0.127 2.655-0.569l30.123-30.114c4.689 5.202 13.08 5.897 18.576 0.922 2.348 2.348 5.061 4.84 7.727 9.756l-37.97 37.971c-0.694 0.693-0.918 1.728-0.574 2.646zm157.86 37.844c-6.382 6.39-14.953 9.767-23.877 9.52 5.138-15.823 17.581-28.264 33.404-33.4 0.245 8.807-3.197 17.556-9.527 23.88z"/>
		<path d="m245.47 61.29c-1.17-0.65-2.75-0.18-3.4 0.98-0.659 1.21-0.22 2.73 0.98 3.4 1.246 0.672 2.747 0.207 3.4-0.98 0.655-1.189 0.251-2.7-0.98-3.4z"/>
	

</svg>
