<svg enable-background="new 0 0 512 512" viewBox="0 0 512 512" xmlns="http://www.w3.org/2000/svg"><path d="m46 74h420v52h-420z" fill="#edeff1"/><path d="m72 126 20 376h328l20-376z" fill="#edeff1"/><g fill="#d3d3d3"><path d="m438.723 150 1.277-24h-368l1.277 24z"/><path d="m256 457c-13.255 0-24-10.745-24-24v-212c0-13.255 10.745-24 24-24 13.255 0 24 10.745 24 24v212c0 13.255-10.745 24-24 24z"/><path d="m350 457c-13.255 0-24-10.745-24-24v-212c0-13.255 10.745-24 24-24 13.255 0 24 10.745 24 24v212c0 13.255-10.745 24-24 24z"/><path d="m162 457c13.255 0 24-10.745 24-24v-212c0-13.255-10.745-24-24-24-13.255 0-24 10.745-24 24v212c0 13.255 10.745 24 24 24z"/><path d="m168 10v64h32v-32h112v32h32v-64z"/></g></svg>