<svg enable-background="new 0 0 512 512" height="512" viewBox="0 0 512 512" width="512" xmlns="http://www.w3.org/2000/svg" xmlns:xlink="http://www.w3.org/1999/xlink"><clipPath id="a"><path d="m74.828125 161.39844v345.21289h337.605465v-345.21289zm107.923825 93.03515c1.47171-.02 3.23559.86598 4.77149 3.02344.22486.31586.44012.63906.65625.96094.1577.21633.32984.42074.49804.62891.26964.31304.52188.64023.76954.9707.22335.28699.44615.57312.66015.86719.16797.23123.34305.45896.5293.67578.29958.33758.58939.68416.88476 1.02539.40669.47592.81515.94853 1.21094 1.43359.19616.23278.39476.46373.61328.67578-.0818-.0955.0167.008.0918.084.001-.00063-.004-.004-.002-.004.002-.00029.33143.2381.39453.2832.34111.24681.69668.47255 1.04883.70313.35009.23972.71304.45696 1.07031.68555.33125.21561.65807.43824.99023.65234.26572.16494.53524.32765.8125.47266.42951.24757.86318.48648 1.28907.74023.31017.17904.6178.3606.93164.5332.42417.2383.83945.49421 1.25195.75196.42688.27243.83574.56998 1.26172.84375.38698.23605.79023.44397 1.18945.6582.4761.24184.95008.48856 1.4375.70703.40397.17635.81196.34097 1.2207.50586.54474.213 1.09071.42485 1.63282.64453.69938.2887 1.41102.54463 2.13086.77735 1.22997.37864 2.46176.74911 3.69726 1.10937 1.13123.3227 2.26391.64249 3.40625.92383.7135.17427 1.44101.28394 2.16992.36914.86814.085 1.72969.20799 2.58985.35156.71072.13913 1.42941.22547 2.14648.32227.32041.0447.64077.0923.96094.13867 7.62454 1.1051 6.50733 8.80642-1.11719 7.70117-.29802-.0432-.59633-.087-.89453-.12891-.56251-.0774-1.12308-.1651-1.68359-.2539 3.05881 2.93082.59181 7.33064-5.10938 5.78711-.19432.32214-.39307.64703-.60351.9414-.20469.67817-.53152 1.32462-.76954 1.99414-.56111.7605-1.02779 1.60069-1.68359 2.28125-.86119.89369-1.87133 1.65462-2.95117 2.32422-.21432.33387-.46881.70985-.57617.86719-1.16699 1.67214-2.31102 3.36148-3.39649 5.08789-2.06317 3.26353-4.05102 6.57568-6.22265 9.76953-1.22276 1.74307-1.97243 2.86604-3.3125 4.54688-2.41288 3.02645-5.13225 5.81682-8.20313 8.17969-.72944.51506-1.44037 1.05585-2.1875 1.54492-2.62459 1.71804-5.65928 3.24137-8.74414 3.90625 7.6791 6.66203 1.44285 16.73866-10.7832 11.48633-.60725-.2609-.27472-.11488-.99414-.44727-.14484-.0727-.28668-.15437-.42969-.23242-.32697.14368-.75731.19542-1.27539.10937-.38659.0481-.84523-.0735-1.34375-.39648-.16097-.0609-.32059-.12454-.47852-.19336-.32773-.14531-.65588-.28715-.98047-.43945-.33269-.15432-.66622-.31028-.99218-.47852-.3414-.17363-.68729-.33765-1.02344-.52148-.30732-.1653-.61309-.33417-.91797-.50391-.27059-.15346-.53812-.30974-.80664-.4668-.25521-.14898-.51027-.30107-.76367-.45312-.22895-.13573-.45869-.26779-.68945-.40039-.20856-.11093-.41891-.2203-.63672-.3125-.26131-.11192-.5221-.22551-.78321-.33789-.25253-.11073-.50426-.22078-.7539-.33789-.15657-.0758-.31074-.15963-.4668-.23633-.13932-.0658-.27879-.12726-.41797-.19336-.18246-.0892-.36808-.17513-.54492-.27539-.2352-.12668-.46809-.25519-.69727-.39258-.25144-.14347-.51208-.27273-.76367-.41602-.15994-.0869-.31843-.17724-.48633-.24804-.009-.004-.0126-.01-.0215-.0137h-.002c-.30795-.058-.64722-.19154-1.00782-.41602-.0414-.0258-.0836-.0504-.125-.0762-.2846-.18756-.55629-.39383-.82031-.60938-.19775-.17013-.38964-.3472-.56054-.54297-.20913-.0948-.41952-.18667-.62696-.28515-.22478-.11498-.45385-.22336-.67578-.34375-.59047-.32027-1.1473-.7035-1.69141-1.09571-.42448-.32334-.84117-.65598-1.24414-1.00585-.21274-.1855-.4267-.37058-.64062-.55469-.22534-.18779-.45448-.37184-.67578-.56446-.22214-.18963-.44128-.3818-.66602-.56835-.14782-.12658-.29669-.2528-.45117-.3711-.24359-.17935-.48442-.36163-.71094-.5625-.21571-.17753-.43727-.34819-.64844-.53125-.2341-.19945-.45978-.408-.67187-.63086-.13743-.13919-.27439-.27907-.41211-.41797-.005-.005-.0107-.009-.0156-.0137-.64742-.14812-1.33433-.48236-2.02149-1.05469-.27752-.23114-.53986-.48016-.74805-.77734-.19314-.27992-.36666-.57309-.5039-.88477-.029-.0672-.0537-.11347-.082-.16601-1.0147-.59392-1.99386-1.247-2.84961-2.06055-.7904-.75035-1.58558-1.4967-2.31641-2.30664-.63583-.68855-1.25606-1.39347-1.90625-2.06836-.59201-.59896-1.25831-1.10341-1.95508-1.57617-.0562-.0463-.15081-.0745-.16211-.14648-.007-.0424.0854.0127.12696.0234.25287.0651.27821.067.35547.082-.22858-.20413-.45538-.40959-.69141-.60546-8.52237-7.07252-5.68597-14.9389 1.06445-15.2461 2.64147-.12021 5.88333.91672 9.27735 3.61133.62594.49696 1.18145 1.07743 1.79297 1.5918.49592.43136 1.01943.82817 1.5371 1.23242.0364-.56074.0642-1.12209.11914-1.68164.0735-.74867.18357-1.74707.33985-2.47852.0979-.45806.23856-.9063.35742-1.35937.52618-1.21554.49288-1.33954 1.29102-2.39844.2117-.28086.45953-.5334.70312-.78711.20736-.21598.42961-.41674.64844-.62109.61614-.57536 1.06888-.97129 1.70898-1.54102 1.24108-1.09119 2.48316-2.18091 3.71094-3.28711 1.71391-1.54421 3.40811-3.10834 5.13281-4.64062.49613-.44652.99301-.89655 1.49024-1.34375.0965-.11888.18561-.24331.2832-.36133.59903-.70253 1.18446-1.41653 1.79688-2.10742 2.20024-2.48217 4.60129-4.85464 7.15429-6.99414.0966-.12582.1998-.24591.29492-.37305 1.30105-1.65207 1.64989-2.36014 3.38672-2.42774.0247-.0169.0495-.0338.0742-.0508.79149-1.1271 1.57229-2.26195 2.34766-3.40039.47536-.66837.92993-1.35255 1.43164-2.00195.0855-.11062.17598-.21726.26367-.32617-2.54119-2.44909-2.38729-4.96512-.78516-6.14258-.017-.85485.20192-1.67478 1.19336-2.43359 1.07085-.81958 2.56685-.93981 3.91211-1.03321.54621-.0379 1.01914.40547 1.50586.65625.48757.25123 2.10488 1.35555 2.47266 1.60157.0695.0483.13943.0963.20898.14453-2.50161-3.89256-.82854-6.99635 1.875-7.03321zm-3.61523 7.30664c.011.0278.034.0593.0586.0977-.005-.0129-.008-.0263-.0137-.0391-.004-.0108-.0131-.0546-.0371-.0586-.003-.0004-.009-.003-.008 0z"/></clipPath><clipPath id="b"><path d="m96.994141 155.39844v325.71679h318.439449v-325.71679zm101.919919 113.55078c.88969-.0125 1.9101.16231 3.03906.58008 1.97005.72899 3.95797 1.40637 5.95704 2.05078.68431.0659 1.37128.10444 2.05273.19922 1.328.19806 2.00207.27294 3.31445.5664 1.80452.40351 3.54997 1.01601 5.22852 1.78907.91215.41601 1.83869.82264 2.71484 1.3125.20456.11436.63538.11864.60938.35156-.00081.007-.003.0142-.004.0215 1.13224.61125 1.85945 1.3895 2.26758 2.20313 3.54235 2.98208.93282 7.82142-5.19531 5.93164-1.74847-.5392-3.48391-1.12446-5.19141-1.7832-1.62576-.61929-3.24472-1.25493-4.86719-1.88282-.80294.40718-1.61679.79232-2.46875 1.08985-.2525.0919-.95025.34746-1.21093.44336-.21875.0805-.57646.20771-.79493.31054-.17978.0846-.35543.17693-.53125.26953-.22431.11807-.44697.24268-.66992.36328-2.64383 1.47844-5.25715 3.00885-7.91797 4.45704-1.22724.67266-2.45598 1.34295-3.68554 2.01172-.0405.0465-.0879.10913-.12696.15234-.29357.3251-.61733.62257-.92578.93359-.87756.69679-1.14763.98903-2.1914 1.48242-.0525.0248-.10723.0411-.16016.0645 2.11569 1.13961 2.48846 4.44193-1.02539 7.40039-1.25561 1.05714-2.51425 2.11327-3.74805 3.19726-.24681.38599-.48544.77701-.74023 1.15821.31481 1.59149.59419 3.19072.86133 4.79101.13071.90783.3623 1.80052.47656 2.71094.0275.21924.0443.4403.0664.66016-.0292 1.03883.0427 1.41979-.45118 2.49609-.42653.92945-1.07717 1.60672-1.90234 2.18164-.73549.51244-1.25349.64988-2.0625.94727-1.65246.4898-3.40727.68423-5.09961.26172-.38913-.0972-.76168-.25137-1.14258-.37696-.3472-.17162-.70453-.32536-1.04297-.51367l-.002-.002c-3.10353 4.79187-8.55821 1.67301-6.24023-4.90039.52279-1.48255.99867-2.9818 1.47265-4.48047.7727-2.53251 1.55277-5.06424 2.24219-7.6211.46537-1.72591.59443-2.32241 1.00781-4.05468.24139-1.03591.46861-2.07456.69727-3.11328-.1784-.49021-.31744-.99363-.51172-1.47852-.26664-.63919-.52655-1.28201-.80078-1.91797-.86321-2.00187-1.80895-3.96951-2.92188-5.8457-3.71496-6.26277 1.79978-10.25698 5.80664-5.13672.3079-.10327.61791-.19843.93555-.26367.33334-.0684.68005.027 1.01758.0703.7463.0957 1.85836.45061 2.50195.80273.42212.23095.80571.52464 1.20899.78711.36085.39646.78942.74155 1.08398 1.18946.54378.82685.8141 1.65628.92969 2.5.32093.17985.64679.34874.98437.49609.38076.1662.55474.21621.94141.3457.4163.12788.83412.25415 1.25586.36133.82598-.45573 1.65599-.90412 2.48437-1.35547.53222-.71949 1.04788-1.45235 1.56446-2.18164.23451-.33107.4724-.65869.70898-.98828.87276-1.17626 1.71233-2.37925 2.63281-3.51953.59055-.73159.7297-.86329 1.34961-1.54297.74192-.7544 1.51477-1.48452 2.36328-2.11914-.36619-1.98453 1.10057-3.82466 3.85547-3.86328zm-56.91601 44.72656c.24289.0125.54638.36458.95117 1.23242.0533.11431.12109.21897.18359.32813.0759.1323.0421.0848.0801.13476.11637.19471.21979.39642.32031.59961 4.65432 2.42695.50314 7.63132-3.63867 4.18164-.27752-.23114-.53986-.48016-.74805-.77734-.19314-.27992-.36666-.57309-.5039-.88477-.0437-.10108-.0705-.13984-.12891-.2539-.13055-.21785-.25915-.43618-.3789-.66016-.001-.002.003.002.004.004 2.85366 3.38355 2.72569-3.75469 3.8125-3.90235.0157-.002.0307-.003.0469-.002zm1.62695 2.47852c.0131.0265.0174.0347.0195.0391.008-.004-.002-.0184-.0195-.0391z"/></clipPath><clipPath id="c"><path d="m77.828125 174.89648v325.71485h318.439455v-325.71485zm124.744145 95.51172c.73763.0267 1.47445.12379 2.20117.27735 1.08817.22993 1.57993.42019 2.6582.76562 3.04317 1.07474 6.02938 2.30122 9.04492 3.44922 1.54973.59825 3.12542 1.12715 4.71289 1.61523 7.36401 2.26412 5.0711 9.70977-2.29101 7.43946-1.74847-.5392-3.48391-1.12446-5.19141-1.7832-2.89652-1.10335-5.76714-2.27475-8.68555-3.32032-.80804-.26945-.89895-.3189-1.6582-.51172-.35276-.0896-.77302-.18768-1.14258-.17968-.116.002-.2321.0226-.34765.0332-.53367.0976-1.07393.20628-1.5586.46094-.18763.11164-.28099.16254-.46093.28906-.51825.36437-.96944.81364-1.42579 1.25-.38404.41435-.56623.59849-.92773 1.04492-.86334 1.06615-1.64868 2.1966-2.4668 3.29688-.68508.95323-1.3466 1.92267-2.04101 2.86914-.44051.6004-1.06389 1.43458-1.5586 1.98242-.29357.3251-.61733.62257-.92578.93359-.87756.69679-1.14763.98903-2.1914 1.48242-.0664.0314-.13605.051-.20313.0801 2.13592 1.12778 2.54415 4.4156-.98242 7.38477-2.38357 2.00682-4.77886 4.01004-6.99219 6.20703-.36629.36359-.71356.74619-1.07031 1.11914-.23376.26376-.47425.52301-.70313.79102-.76679.89793-1.68022 2.32763-3.07031 2.24023-.10396-.007-.15309-.0274-.25195-.0352-.0159.052-.031.10425-.0469.15625-.55691 1.75978-1.10052 3.52802-1.76171 5.25196-2.75885 7.19331-9.69296 4.14657-7.13086-3.11914.52279-1.48255.99867-2.9818 1.47265-4.48047.7727-2.53251 1.55277-5.06424 2.24219-7.6211.46537-1.72591.59443-2.32241 1.00781-4.05468.67846-2.91154 1.31848-5.83216 1.85352-8.77344-.0901-.083-.15725-.13454-.25781-.23047-.31452-.30002-.63138-.59952-.91407-.92969-.32714-.3821-.71777-.73917-.91211-1.20312-.35667-.85149-.87744-1.76739-.71289-2.67578.21604-1.19259 1.18087-2.11746 1.77149-3.17578.79185-.25584 1.56182-.60016 2.37695-.76758.33334-.0684.68005.027 1.01758.0703.7463.0957 1.85836.45061 2.50195.80273.42212.23095.80571.52464 1.20899.78711.36085.39646.78942.74155 1.08398 1.18946.54378.82685.8141 1.65628.92969 2.5.32093.17985.64679.34874.98437.49609.38076.1662.55474.21621.94141.3457.78658.24162 1.57554.48489 2.39453.58399.57951.007.17833.0824.24023-.0391.0102-.02.0459-.0264.0469-.0488.002-.0369-.0969-.0467-.0586-.10352.0532-.0788.13136-.13658.19726-.20508.095-.11141.19356-.21971.28516-.33398.78001-.97356 1.47876-2.01218 2.19922-3.0293.23451-.33107.4724-.65869.70898-.98828.87276-1.17626 1.71233-2.37925 2.63281-3.51953.59055-.73159.7297-.86329 1.34961-1.54297.75689-.76963 1.54526-1.51476 2.41407-2.1582.46986-.34799.62669-.43257 1.11328-.73828 1.03573-.61212 2.1684-1.03777 3.33789-1.3125.26555-.0624.53552-.10927.80273-.16407.73365-.1321 1.47135-.17705 2.20899-.15039zm-29.51758 13.54492c-.078-.0299-.0475.16575-.0332.24805.0166.0959.0318.15308.0469.22461.005-.067.0155-.13404.0176-.20117.003-.0914.0541-.23879-.0312-.27149zm6.69726 7.41602c-.33417 1.63532-.69576 3.26514-1.06836 4.89258 1.13798-.99065 2.28111-1.97636 3.4336-2.94727.49877-.42019.97498-.65881 1.45508-.92968-.0958-.0139-.19172-.0263-.28711-.043-1.0702-.18666-2.11123-.51227-3.14649-.83399-.16808-.0598-.25856-.0936-.38672-.13867zm-2.72461 11.50977c-.37856 1.35773-.77223 2.71123-1.17968 4.06054 1.46118 1.18926 2.61927 1.57712 2.49023-1.32812-.006-.1254.0161-.25354-.0156-.375-.31634-1.21422-.59824-1.88863-1.29493-2.35742zm-35.02929 10.79687c.24289.0125.54638.36458.95117 1.23242.0533.11431.12109.21897.18359.32813.0759.1323.0421.0848.0801.13476.11637.19471.21979.39642.32031.59961 4.65432 2.42695.50314 7.63132-3.63867 4.18164-.27752-.23114-.53986-.48016-.74805-.77734-.19314-.27992-.36666-.57309-.5039-.88477-.0437-.10108-.0705-.13984-.12891-.2539-.13055-.21785-.25915-.43618-.3789-.66016-.001-.002.003.002.004.004 2.85366 3.38355 2.72569-3.75469 3.8125-3.90235.0157-.002.0307-.003.0469-.002zm1.62695 2.47852c.0131.0265.0174.0347.0195.0391.008-.004-.002-.0184-.0195-.0391z"/></clipPath><g stroke-width="1.517"><g transform="translate(-3 6)"><path d="m399.25217 42.857968c-36.90194-35.0220397-95.09159-33.2053287-130.46978 4.07188l-133.71973 140.897472c-35.378203 37.27721-34.15133 95.4809 2.75061 130.50294 36.90194 35.02205 95.09024 33.20674 130.46844-4.07047l133.71973-140.89747c35.37819-37.2772 34.15267-95.482302-2.74927-130.504352zm-40.63698 42.58846c21.6408 20.538352 19.2652 57.931822-5.32555 83.842532l-92.94607 97.93519c-24.59075 25.91071-61.80906 30.23646-83.44986 9.69811-21.64079-20.53835-19.26661-57.93317 5.32413-83.84388l92.94607-97.935192c24.59075-25.91071 61.81048-30.23511 83.45128-9.69676z" fill="#784421"/><path d="m418.41819 23.360961c-36.90193-35.02204-95.09159-33.2053277-130.46978 4.071873l-133.71972 140.897476c-35.3782 37.27721-34.15133 95.4809 2.75061 130.50294 36.90194 35.02205 95.09024 33.20674 130.46844-4.07047l133.71973-140.89747c35.37819-37.2772 34.15267-95.482302-2.74928-130.504349zm-40.63698 42.588457c21.6408 20.53835 19.2652 57.931822-5.32554 83.842532l-92.94607 97.93519c-24.59075 25.91071-61.80906 30.23646-83.44986 9.69811s-19.26661-57.93317 5.32413-83.84388l92.94607-97.935192c24.59074-25.91071 61.81048-30.23511 83.45127-9.69676z" fill="#c87137"/></g><g clip-path="url(#a)" fill="#87de87"><path clip-path="url(#c)" d="m367.76729 200.01738c-36.90194-35.02204-95.09159-33.20533-130.46978 4.07188l-133.71973 140.89747c-35.378201 37.27721-34.151331 95.4809 2.75061 130.50294 36.90194 35.02205 95.09024 33.20674 130.46844-4.07047l133.71973-140.89747c35.37819-37.2772 34.15267-95.4823-2.74927-130.50435zm-40.63698 42.58846c21.6408 20.53835 19.2652 57.93182-5.32555 83.84253l-92.94607 97.93519c-24.59075 25.91071-61.80906 30.23646-83.44986 9.69811-21.64079-20.53835-19.26661-57.93317 5.32413-83.84388l92.94607-97.93519c24.59075-25.91071 61.81048-30.23511 83.45128-9.69676z" fill="#217821" transform="translate(-3 6)"/><path clip-path="url(#b)" d="m386.93331 180.52037c-36.90193-35.02204-95.09159-33.20533-130.46978 4.07187l-133.71972 140.89748c-35.378201 37.27721-34.151331 95.4809 2.75061 130.50294 36.90194 35.02205 95.09024 33.20674 130.46844-4.07047l133.71973-140.89747c35.37819-37.2772 34.15267-95.4823-2.74928-130.50435zm-40.63698 42.58846c21.6408 20.53835 19.2652 57.93182-5.32554 83.84253l-92.94607 97.93519c-24.59075 25.91071-61.80906 30.23646-83.44986 9.69811s-19.26661-57.93317 5.32413-83.84388l92.94607-97.93519c24.59074-25.91071 61.81048-30.23511 83.45127-9.69676z" fill="#2ca02c" transform="translate(-3 6)"/></g></g></svg>