<?xml version="1.0" encoding="UTF-8" standalone="no"?>
<svg
   enable-background="new 0 0 512 512"
   height="512"
   viewBox="0 0 512 512"
   width="512"
   version="1.1"
   id="svg39"
   sodipodi:docname="czk_hardlink (copy).svg.2025_04_09_10_48_32.0.svg"
   inkscape:version="1.4 (e7c3feb100, 2024-10-09)"
   xmlns:inkscape="http://www.inkscape.org/namespaces/inkscape"
   xmlns:sodipodi="http://sodipodi.sourceforge.net/DTD/sodipodi-0.dtd"
   xmlns="http://www.w3.org/2000/svg"
   xmlns:svg="http://www.w3.org/2000/svg">
  <defs
     id="defs39">
    <clipPath
       clipPathUnits="userSpaceOnUse"
       id="clipPath109">
      <path
         id="path110"
         style="fill:#ff0000;fill-opacity:1;fill-rule:nonzero;stroke:none"
         d="M 109.39768,0.46067 V 339.8884 H 442.15744 V 0.46067 Z m 78.62695,126.86914 c 0.0794,-0.009 0.20309,0.0227 0.38672,0.10742 0.19846,0.0916 0.37652,0.21864 0.55469,0.34375 0.0139,0.0101 0.0271,0.0211 0.041,0.0312 0.0162,-0.0317 0.0295,-0.069 0.0723,-0.0723 0.0408,-0.003 0.0916,0.0113 0.14844,0.0488 0.12713,0.0839 0.23812,0.1899 0.34765,0.29493 0.13919,0.14067 0.27452,0.2855 0.41211,0.42773 0.15464,0.15408 0.30109,0.31474 0.44532,0.47852 0.14587,0.16565 0.29337,0.33001 0.44726,0.48828 0.15511,0.15977 0.31264,0.31595 0.47461,0.46875 0.17397,0.16605 0.35507,0.32462 0.53125,0.48828 0.14321,0.13504 0.2991,0.25718 0.44727,0.38672 0.16722,0.1465 0.33702,0.28898 0.50586,0.43359 0.15617,0.13111 0.30663,0.26645 0.45312,0.4082 0.21633,0.20717 0.44361,0.40297 0.66602,0.60352 0.22155,0.20043 0.43647,0.40935 0.66015,0.60742 0.19005,0.16879 0.39194,0.32486 0.59571,0.47656 0.20364,0.1513 0.40414,0.30408 0.60351,0.46094 0.1705,0.13494 0.3378,0.27461 0.50781,0.41016 0.17289,0.14004 0.34108,0.28497 0.51172,0.42773 0.18823,0.16012 0.37526,0.32311 0.5625,0.48438 0.15934,0.1421 0.32456,0.27645 0.48438,0.41797 0.13814,0.12664 0.26888,0.2613 0.4082,0.38672 0.15083,0.13637 0.30249,0.27245 0.45898,0.40234 0.14435,0.12036 0.28833,0.23862 0.43555,0.35547 0.12064,0.0892 0.23846,0.18214 0.35742,0.27344 0.1051,0.081 0.21223,0.16128 0.32032,0.23828 0.1247,0.0892 0.25216,0.17266 0.38086,0.25586 0.11569,0.0686 0.22277,0.15025 0.33593,0.22265 0.0851,0.0497 0.16344,0.10982 0.24414,0.16602 0.0544,0.0346 0.11518,0.0592 0.17188,0.0898 0.23967,0.12941 0.10579,0.37357 -0.13281,0.24219 -0.0652,-0.0359 -0.13402,-0.0627 -0.19532,-0.10547 -0.0207,-0.0144 -0.0419,-0.0283 -0.0625,-0.043 0.009,0.01 0.018,0.0196 0.0274,0.0293 0.004,0.004 0.038,0.039 0.041,0.043 0.008,0.008 0.0145,0.0164 0.0215,0.0254 0.0169,0.0201 0.0252,0.0325 0.0351,0.0449 10e-4,8.9e-4 0.003,5.5e-4 0.004,0.002 0.17813,0.14292 0.35856,0.28216 0.53125,0.43164 1.22324,1.05889 0.0988,2.33468 -1.08008,1.22657 -0.1423,-0.13375 -0.3093,-0.24154 -0.45703,-0.36914 -0.0222,-0.0173 -0.046,-0.032 -0.0684,-0.0488 0.14925,0.14111 0.29831,0.28246 0.44727,0.42383 0.32471,0.30838 0.6452,0.62239 0.97461,0.92578 0.19948,0.17192 0.39938,0.34225 0.61328,0.49609 0.0456,0.0345 0.0931,0.069 0.13867,0.10352 2.28516,1.7274 1.56421,3.89027 -0.21484,3.92578 0.60803,1.78045 -1.1075,3.12818 -3.21094,1.70703 0.29595,0.36231 0.58548,0.73029 0.90429,1.07226 0.24157,0.25352 0.49852,0.48939 0.75586,0.72657 2.83256,2.61062 0.18684,5.47551 -2.64062,2.85937 -0.31212,-0.2888 -0.62232,-0.58078 -0.91602,-0.88867 -0.43994,0.13919 -1.00258,0.0344 -1.60351,-0.20898 0.12855,1.06355 -0.66206,1.78729 -1.78711,1.74023 -0.15587,0.84249 -0.97292,1.35142 -2.06055,1.18945 0.0392,0.17525 -0.0373,0.31214 -0.0449,0.47461 1.96635,1.93297 0.08,4.41178 -2.875,2.67383 -0.11235,-0.0661 -0.22555,-0.13115 -0.33789,-0.19727 -0.0571,-0.0357 -0.11303,-0.0734 -0.16992,-0.10937 0.0103,0.37097 -0.2115,0.65175 -0.57617,0.69336 -0.0202,0.61121 -0.76207,0.95319 -1.59961,0.25976 -0.35841,-0.29669 -0.71096,-0.60017 -1.05274,-0.91601 0.0536,0.3584 -0.15213,0.66213 -0.51367,0.75 0.2639,0.25036 0.51521,0.51396 0.78711,0.75586 0.17809,0.13686 0.33544,0.31387 0.53516,0.42187 1.42311,0.76961 0.50579,2.25888 -0.85938,1.39063 -0.17034,-0.10833 -0.33037,-0.23021 -0.48633,-0.35742 -0.23621,0.0885 -0.53468,0.0971 -0.91601,-0.12696 -0.0488,-0.0169 -0.0977,-0.0358 -0.14844,-0.0586 -0.0157,-0.0113 -0.0271,-0.006 -0.043,-0.0176 -0.006,-0.004 -0.0117,-0.009 -0.0176,-0.0137 -0.0472,-0.0231 -0.094,-0.042 -0.14258,-0.0703 l -0.0684,-0.041 c -0.15501,-0.0933 -0.31696,-0.17341 -0.46679,-0.27539 -0.17238,-0.11266 -0.34502,-0.22727 -0.50977,-0.35156 -0.0291,0.0616 -0.11702,0.0965 -0.24023,0.041 -0.053,-0.0238 -0.0255,-0.0107 -0.082,-0.0371 -0.0923,-0.0457 -0.18439,-0.0931 -0.27149,-0.14843 -0.0936,-0.0646 -0.18493,-0.13289 -0.26953,-0.20899 -0.10577,-0.10217 -0.20091,-0.21183 -0.29101,-0.32812 -0.0856,-0.10428 -0.18527,-0.19505 -0.28907,-0.28125 -0.13692,-0.12013 -0.27822,-0.23407 -0.41406,-0.35547 -0.15088,-0.13618 -0.30346,-0.27263 -0.45312,-0.41016 -0.13804,-0.12694 -0.271,-0.2588 -0.4043,-0.39062 -0.0228,-0.0156 -0.0456,-0.0312 -0.0684,-0.0469 -0.15388,-0.10901 -0.31399,-0.20756 -0.46094,-0.32617 -0.1796,-0.13422 -0.36184,-0.26557 -0.54101,-0.40039 -0.19976,-0.15056 -0.39792,-0.30238 -0.58985,-0.46289 -0.15032,-0.12464 -0.29845,-0.25247 -0.44726,-0.37891 -0.13418,-0.11842 -0.27133,-0.23218 -0.40625,-0.34961 -0.007,-0.006 -0.0141,-0.0133 -0.0215,-0.0195 -0.015,-0.0125 -0.032,-0.0225 -0.0469,-0.0352 -0.0171,-0.0155 -0.0337,-0.0314 -0.0508,-0.0469 -0.11242,-0.0974 -0.22389,-0.1961 -0.33985,-0.28906 -0.20845,-0.17049 -0.41066,-0.34776 -0.61133,-0.52734 -0.17842,-0.15909 -0.36147,-0.3132 -0.54296,-0.46875 -0.19138,-0.16684 -0.38939,-0.32566 -0.57227,-0.50196 -0.20156,-0.19227 -0.39739,-0.39033 -0.59375,-0.58789 -0.15243,-0.15161 -0.30446,-0.30695 -0.47266,-0.4414 -0.15711,-0.1309 -0.31376,-0.25955 -0.4707,-0.39063 -0.16385,-0.14421 -0.33323,-0.28304 -0.5,-0.42383 -0.14282,-0.12908 -0.28825,-0.25269 -0.43359,-0.3789 -0.11166,-0.1 -0.22006,-0.2056 -0.33594,-0.30079 -0.11638,-0.0914 -0.23794,-0.17658 -0.35156,-0.27148 -0.11239,-0.0971 -0.2223,-0.19576 -0.33789,-0.28906 -0.15335,-0.13362 -0.30455,-0.27117 -0.45118,-0.41211 -0.16913,-0.1627 -0.33794,-0.32427 -0.49804,-0.4961 -0.1687,-0.19047 -0.31945,-0.39531 -0.47852,-0.59375 -0.21017,-0.26819 -0.42294,-0.53632 -0.59375,-0.83203 -0.14158,-0.2689 -0.26515,-0.54735 -0.31445,-0.84961 -0.057,-0.3493 -0.003,-0.48049 0.11523,-0.48828 0.17699,-0.0117 0.49473,0.25038 0.79492,0.46875 0.0552,-0.0144 0.0901,-0.0564 0.15235,-0.0586 0.15534,-0.006 0.35852,0.1167 0.54883,0.20117 0.0217,-0.0782 0.0232,-0.19232 0.006,-0.35351 -0.001,-0.0109 -0.007,-0.0436 -0.004,-0.0332 0.008,0.0256 0.0125,0.0522 0.0195,0.0781 0.0264,0.0942 0.0763,0.17867 0.12305,0.26367 0.0292,0.0456 0.0627,0.0885 0.0937,0.13281 0.0335,0.0217 0.0577,0.008 0.0918,0.0332 0.0433,0.0315 0.0887,0.0596 0.13282,0.0899 -0.0368,-0.0432 -0.0726,-0.0863 -0.10547,-0.13281 -0.0811,-0.1146 -0.1449,-0.24266 -0.2168,-0.36329 -0.82803,-1.3899 1.78203,1.08565 1.55078,-0.51562 -0.004,-0.0268 -0.0334,-0.0982 -0.0117,-0.082 0.004,0.003 0.008,0.008 0.0117,0.0117 -0.0185,-0.0338 -0.0381,-0.0631 -0.0566,-0.0977 -0.0251,-0.0467 -0.0426,-0.0962 -0.0644,-0.14453 -0.12291,-0.2698 -0.17208,-0.50966 -0.16797,-0.71484 -0.0819,-0.0846 -0.13986,-0.14045 -0.56445,-0.5586 -0.29605,-0.29155 -0.3223,-0.31382 -0.53516,-0.50781 -0.89686,-0.81732 -0.7084,-1.75654 -0.0156,-1.75977 0.23082,-10e-4 0.51881,0.10162 0.83984,0.34766 0.10303,0.079 0.21099,0.15268 0.30859,0.23828 0.37654,0.33034 0.92539,0.89636 1.25977,1.22852 0.0724,-0.0322 0.13387,-0.0818 0.2207,-0.0879 0.12452,-0.009 0.26575,0.0253 0.41016,0.0801 -0.0731,-0.0684 -0.13462,-0.12238 -0.22461,-0.20898 -0.15459,-0.14882 -0.13333,-0.12648 -0.20703,-0.20898 -1.76463,-1.97476 -1.06133,-3.85288 0.41601,-3.92774 0.0499,-0.003 0.10275,0.002 0.1543,0.004 -0.19383,-1.16551 0.44336,-2.04412 1.4707,-2.05664 0.24486,-0.003 0.50838,0.0455 0.78125,0.14453 -0.83225,-1.40242 -0.53694,-2.53666 0.32618,-2.91797 -0.76714,-1.25987 -0.32588,-1.84127 0.97851,-1.82617 0.5532,0.006 1.25077,0.11301 2.05469,0.30859 -0.0511,-0.0711 -0.10428,-0.1406 -0.15625,-0.21094 -2.28925,-3.09808 5.30958,1.40171 3.3789,-1.93164 -0.026,-0.045 -0.11386,-0.15284 -0.10156,-0.1582 0.002,-7.6e-4 0.005,-6.5e-4 0.0117,0.004 0.0908,0.0565 0.14455,0.15747 0.21875,0.23437 0.15212,0.15765 0.30502,0.31685 0.46094,0.4707 0.23167,0.22866 0.46459,0.45417 0.70117,0.67774 0.12785,0.12082 0.23837,0.21727 0.35742,0.32812 0.0112,-0.47391 -0.1574,-1.16685 -0.28711,-1.80273 -0.37623,-0.67036 -0.36555,-0.98572 -0.12695,-1.09375 -0.0135,-0.37283 0.0343,-0.65567 0.30273,-0.63086 0.18094,0.0167 0.44899,0.15295 0.83008,0.44727 0.1305,0.10078 0.26589,0.19491 0.39063,0.30273 0.0565,0.0489 0.10758,0.10337 0.16015,0.15625 0.92701,0.2853 1.90069,0.59958 2.16407,0.23438 -0.0241,-0.0254 -0.0482,-0.0509 -0.0723,-0.0762 -0.042,-0.0441 -0.0823,-0.0874 -0.125,-0.13086 -0.0249,-0.0253 -0.0565,-0.0461 -0.0781,-0.0742 -0.006,-0.008 0.0193,0.008 0.0293,0.0117 0.1795,0.0745 0.22066,0.005 0.3125,-0.0117 -0.009,-0.19287 -0.0901,-0.45451 -0.27344,-0.8125 -0.0155,-0.0302 -0.0315,-0.0607 -0.0449,-0.0918 -0.001,-0.002 0.004,-0.002 0.006,0 0.0284,0.0252 0.0544,0.054 0.082,0.0801 0.0754,0.0714 0.14857,0.14439 0.22657,0.21289 0.0748,0.0657 0.16344,0.1375 0.24609,0.20703 -0.0569,-0.48429 -0.32114,-1.14295 -0.10742,-1.18164 0.0691,-0.0125 0.19299,0.0427 0.39453,0.19531 0.0572,0.0433 0.11676,0.0849 0.17187,0.13086 0.0344,0.0287 0.0692,0.0611 0.10352,0.0937 -0.17132,-0.44629 -0.41907,-0.94458 -0.14844,-0.97461 z m 8.1543,7.12891 c 0.001,0.002 0.002,0.004 0.004,0.006 l 0.002,0.002 c 0.003,0.002 0.005,0.002 0.008,0.004 -0.005,-0.004 -0.009,-0.008 -0.0137,-0.0117 z m -19.5957,15.01172 c 0.0473,0.0554 0.0951,0.11074 0.14257,0.16601 0.0596,0.0444 0.11824,0.0902 0.17774,0.13477 -0.10715,-0.0998 -0.21329,-0.2008 -0.32031,-0.30078 z m 4.28125,8.33593 c 0.007,0.007 0.0126,0.0148 0.0195,0.0215 0.0301,0.0263 0.0642,0.0476 0.0957,0.0723 -0.0278,-0.0236 -0.0559,-0.047 -0.084,-0.0703 -0.0101,-0.008 -0.0216,-0.0153 -0.0312,-0.0234 z" />
    </clipPath>
  </defs>
  <sodipodi:namedview
     id="namedview39"
     pagecolor="#ffffff"
     bordercolor="#000000"
     borderopacity="0.25"
     inkscape:showpageshadow="2"
     inkscape:pageopacity="0.0"
     inkscape:pagecheckerboard="0"
     inkscape:deskcolor="#d1d1d1"
     inkscape:zoom="0.803091"
     inkscape:cx="471.9266"
     inkscape:cy="308.18425"
     inkscape:window-width="1920"
     inkscape:window-height="1011"
     inkscape:window-x="0"
     inkscape:window-y="0"
     inkscape:window-maximized="1"
     inkscape:current-layer="layer2-9" />
  <g
     inkscape:groupmode="layer"
     id="layer2"
     inkscape:label="Layer 1"
     transform="translate(-3,6)">
    <path
       d="m 134.9714,184.47651 c -35.177534,36.75374 -33.90862,94.6614 2.84512,129.83894 36.75375,35.17753 94.66141,33.90862 129.83894,-2.84513 L 407.99473,164.84284 C 443.17226,128.0891 441.9047,70.180021 405.15095,35.002483 368.39721,-0.17504944 310.4882,1.0952726 275.31067,37.849013 Z M 146.182,194.77646 285.87573,48.823424 c 29.21876,-30.527964 77.3186,-31.581962 107.84656,-2.36321 30.52796,29.218746 31.58056,77.317256 2.3618,107.845226 L 256.39036,300.25846 c -29.21875,30.52797 -77.3172,31.58331 -107.84516,2.36457 -30.52796,-29.21875 -31.58195,-77.3186 -2.3632,-107.84657 z"
       style="fill:#aa0000;stroke-width:1.517"
       id="path45-2" />
    <path
       d="m 143.55962,175.50774 c -35.17753,36.75374 -33.90862,94.6614 2.84512,129.83894 36.75375,35.17753 94.66141,33.90862 129.83894,-2.84513 L 416.58295,155.87407 C 451.76048,119.12033 450.49292,61.211259 413.73917,26.033721 376.98543,-9.1438117 319.07642,-7.8734897 283.89889,28.880251 Z m 11.2106,10.29995 139.69373,-145.953028 c 29.21876,-30.5279644 77.3186,-31.5819624 107.84656,-2.36321 30.52796,29.218746 31.58056,77.317248 2.3618,107.845218 L 264.97858,291.28969 c -29.21875,30.52797 -77.3172,31.58331 -107.84516,2.36457 -30.52796,-29.21875 -31.58195,-77.3186 -2.3632,-107.84657 z"
       style="fill:#ff0000;stroke-width:1.517"
       id="path45" />
  </g>
  <g
     inkscape:groupmode="layer"
     id="layer2-9"
     inkscape:label="G"
     transform="translate(-37.397679,169.53933)"
     style="fill:#00ff00"
     clip-path="url(#clipPath109)">
    <path
       d="m 134.9714,184.47651 c -35.177534,36.75374 -33.90862,94.6614 2.84512,129.83894 36.75375,35.17753 94.66141,33.90862 129.83894,-2.84513 L 407.99473,164.84284 C 443.17226,128.0891 441.9047,70.180021 405.15095,35.002483 368.39721,-0.17504944 310.4882,1.0952726 275.31067,37.849013 Z M 146.182,194.77646 285.87573,48.823424 c 29.21876,-30.527964 77.3186,-31.581962 107.84656,-2.36321 30.52796,29.218746 31.58056,77.317256 2.3618,107.845226 L 256.39036,300.25846 c -29.21875,30.52797 -77.3172,31.58331 -107.84516,2.36457 -30.52796,-29.21875 -31.58195,-77.3186 -2.3632,-107.84657 z"
       style="fill:#008000;stroke-width:1.517"
       id="path45-2-1" />
    <path
       d="m 143.55962,175.50774 c -35.17753,36.75374 -33.90862,94.6614 2.84512,129.83894 36.75375,35.17753 94.66141,33.90862 129.83894,-2.84513 L 416.58295,155.87407 C 451.76048,119.12033 450.49292,61.211259 413.73917,26.033721 376.98543,-9.1438117 319.07642,-7.8734897 283.89889,28.880251 Z m 11.2106,10.29995 139.69373,-145.953028 c 29.21876,-30.5279644 77.3186,-31.5819624 107.84656,-2.36321 30.52796,29.218746 31.58056,77.317248 2.3618,107.845218 L 264.97858,291.28969 c -29.21875,30.52797 -77.3172,31.58331 -107.84516,2.36457 -30.52796,-29.21875 -31.58195,-77.3186 -2.3632,-107.84657 z"
       style="fill:#00ff00;stroke-width:1.517"
       id="path45-27" />
  </g>
</svg>
