<?xml version="1.0" encoding="UTF-8" standalone="no"?>
<svg
   clip-rule="evenodd"
   fill-rule="evenodd"
   height="2048"
   image-rendering="optimizeQuality"
   shape-rendering="geometricPrecision"
   text-rendering="geometricPrecision"
   viewBox="0 0 2048 2048"
   width="2048"
   version="1.1"
   id="svg3"
   sodipodi:docname="czk_search.svg"
   xml:space="preserve"
   inkscape:version="1.4 (e7c3feb100, 2024-10-09)"
   xmlns:inkscape="http://www.inkscape.org/namespaces/inkscape"
   xmlns:sodipodi="http://sodipodi.sourceforge.net/DTD/sodipodi-0.dtd"
   xmlns="http://www.w3.org/2000/svg"
   xmlns:svg="http://www.w3.org/2000/svg"><defs
     id="defs3" /><sodipodi:namedview
     id="namedview3"
     pagecolor="#ffffff"
     bordercolor="#000000"
     borderopacity="0.25"
     inkscape:showpageshadow="2"
     inkscape:pageopacity="0.0"
     inkscape:pagecheckerboard="0"
     inkscape:deskcolor="#d1d1d1"
     inkscape:zoom="0.28393555"
     inkscape:cx="-241.25193"
     inkscape:cy="790.6724"
     inkscape:window-width="2560"
     inkscape:window-height="1371"
     inkscape:window-x="0"
     inkscape:window-y="0"
     inkscape:window-maximized="1"
     inkscape:current-layer="svg3" /><circle
     cx="-324.32892"
     cy="1075.4572"
     fill="#b3e5fc"
     r="465.17685"
     stroke="#373435"
     stroke-width="2.14421"
     id="circle1-2"
     style="clip-rule:evenodd;fill-rule:evenodd;image-rendering:optimizeQuality;shape-rendering:geometricPrecision;text-rendering:geometricPrecision"
     transform="translate(1093,-309)" /><g
     fill-rule="nonzero"
     id="g2"
     style="fill:#01579b;fill-opacity:1"><path
       d="m405 407c100-100 231-150 362-150s262 50 362 150 150 231 150 362-50 262-150 362-231 150-362 150-262-50-362-150-150-231-150-362 50-262 150-362zm362-86c-115 0-229 44-317 131-87 87-131 202-131 317s44 229 131 317c87 87 202 131 317 131s229-44 317-131c87-87 131-202 131-317s-44-229-131-317c-87-87-202-131-317-131z"
       id="path1"
       style="fill:#01579b;fill-opacity:1" /><path
       d="m1161 1066 444 444-92 90-444-444z"
       stroke-width="2"
       id="path2"
       style="fill:#01579b;fill-opacity:1" /></g><path
     d="m0 0h2048v2048h-2048z"
     fill="none"
     id="path3" /></svg>
