<svg enable-background="new 0 0 512.001 512.001" viewBox="0 0 512.001 512.001" xmlns="http://www.w3.org/2000/svg"><ellipse cx="256.19809" cy="256.82071" fill="#fff" rx="255.57552" ry="256.19809" stroke-width="1.517"/><g fill="#2ad4ff"><path d="m498.16147 255.90529a242.54349 242.20819 0 0 1 -242.54349 242.20819 242.54349 242.20819 0 0 1 -242.543487-242.20819 242.54349 242.20819 0 0 1 242.543487-242.208192 242.54349 242.20819 0 0 1 242.54349 242.208192z" stroke-width="1.72836"/><path d="m347.4021-15.246594q8 0 14 5.5999998 6.4 5.2 6.4 16.8 0 11.2000002-6.4 16.8000002-6 5.6-14 5.6-8.8 0-14.8-5.6-6-5.6-6-16.8000002 0-11.6 6-16.8 6-5.5999998 14.8-5.5999998zm17.2 80.4v214.400004h-35.2v-214.400004z" fill="#000" stroke-width="1.517" transform="matrix(1.5271339 0 0 1.5271339 -269.64919 51.692833)"/></g></svg>