<svg enable-background="new 0 0 512 512" viewBox="0 0 512 512" xmlns="http://www.w3.org/2000/svg"><g stroke="#000"><path d="m-171.08453-242.6983h68.32214c2.33705 0 4.218498 1.88145 4.218498 4.2185v161.360469c0 2.337048-1.881448 4.218498-4.218498 4.218498h-68.32214c-2.33704 0-4.21849-1.88145-4.21849-4.218498v-161.360469c0-2.33705 1.88145-4.2185 4.21849-4.2185z" fill="#de8787" stroke-width="4.67244" transform="matrix(-.99999558 -.00297267 .00298205 -.99999555 0 0)"/><path d="m95.966927 132.06248h79.813023c2.33704 0 4.21849 1.88145 4.21849 4.2185v186.14174c0 2.33705-1.88145 4.2185-4.21849 4.2185h-79.813023c-2.337048 0-4.218499-1.88145-4.218499-4.2185v-186.14174c0-2.33705 1.881451-4.2185 4.218499-4.2185z" fill="#d35f5f" stroke-width="4.67244"/><path d="m108.67447-97.039093h68.24968c2.33904 0 4.2221 1.883054 4.2221 4.222093v161.497983c0 2.33904-1.88306 4.222093-4.2221 4.222093h-68.24968c-2.33904 0-4.22209-1.883053-4.22209-4.222093v-161.497983c0-2.339039 1.88305-4.222093 4.22209-4.222093z" fill="#a02c2c" stroke-width="4.67245" transform="matrix(.67849982 .73460056 -.7356649 .67734567 0 0)"/><path d="m-93.077347-276.05035h68.258813c2.338789 0 4.221641 1.88285 4.221641 4.22164v161.48067c0 2.33878-1.882852 4.22164-4.221641 4.22164h-68.258813c-2.338789 0-4.221641-1.88286-4.221641-4.22164v-161.48067c0-2.33879 1.882852-4.22164 4.221641-4.22164z" fill="#c83737" stroke-width="4.67245" transform="matrix(-.72694564 .68669501 -.68783746 -.72586475 0 0)"/><path d="m-415.64082-243.06003h68.32214c2.33705 0 4.2185 1.88145 4.2185 4.2185v161.360474c0 2.337048-1.88145 4.218498-4.2185 4.218498h-68.32214c-2.33704 0-4.21849-1.88145-4.21849-4.218498v-161.360474c0-2.33705 1.88145-4.2185 4.21849-4.2185z" fill="#ff7f2a" stroke-width="4.67244" transform="matrix(-.99999558 -.00297267 .00298205 -.99999555 0 0)"/><path d="m340.52102 133.1512h79.81302c2.33705 0 4.2185 1.88145 4.2185 4.2185v186.14174c0 2.33704-1.88145 4.21849-4.2185 4.21849h-79.81302c-2.33705 0-4.2185-1.88145-4.2185-4.21849v-186.14174c0-2.33705 1.88145-4.2185 4.2185-4.2185z" fill="#d45500" stroke-width="4.67244"/><path d="m275.12328-275.95023h68.24968c2.33904 0 4.22209 1.88306 4.22209 4.2221v161.49798c0 2.33904-1.88305 4.22209-4.22209 4.22209h-68.24968c-2.33904 0-4.2221-1.88305-4.2221-4.22209v-161.49798c0-2.33904 1.88306-4.2221 4.2221-4.2221z" fill="#a40" stroke-width="4.67245" transform="matrix(.67849982 .73460056 -.7356649 .67734567 0 0)"/><path d="m-269.84193-444.77609h68.25882c2.33879 0 4.22164 1.88285 4.22164 4.22164v161.48067c0 2.33879-1.88285 4.22164-4.22164 4.22164h-68.25882c-2.33879 0-4.22164-1.88285-4.22164-4.22164v-161.48067c0-2.33879 1.88285-4.22164 4.22164-4.22164z" fill="#803300" stroke-width="4.67245" transform="matrix(-.72694564 .68669501 -.68783746 -.72586475 0 0)"/><path d="m224.31499 268.23785h68.32214c2.33705 0 4.2185 1.88145 4.2185 4.2185v161.36048c0 2.33704-1.88145 4.21849-4.2185 4.21849h-68.32214c-2.33704 0-4.21849-1.88145-4.21849-4.21849v-161.36048c0-2.33705 1.88145-4.2185 4.21849-4.2185z" fill="#0fc" stroke-width="4.67244" transform="matrix(.9999993 -.00118262 .00118635 .9999993 0 0)"/><path d="m-297.9072-380.04681h79.81302c2.33704 0 4.21849 1.88145 4.21849 4.21849v186.14174c0 2.33705-1.88145 4.2185-4.21849 4.2185h-79.81302c-2.33705 0-4.2185-1.88145-4.2185-4.2185v-186.14174c0-2.33704 1.88145-4.21849 4.2185-4.21849z" fill="#00b3b3" stroke-width="4.67244" transform="matrix(-.99999137 .00415535 -.00416846 -.99999131 0 0)"/><g stroke-width="4.67245"><path d="m-534.8596-155.16403h68.25024c2.33903 0 4.22207 1.88304 4.22207 4.22206v161.496927c0 2.339025-1.88304 4.222066-4.22207 4.222066h-68.25024c-2.33902 0-4.22207-1.883041-4.22207-4.222066v-161.496927c0-2.33902 1.88305-4.22206 4.22207-4.22206z" fill="#00a2a2" transform="matrix(-.68155158 -.73177007 .73283989 -.68040113 0 0)"/><path d="m-159.42492 366.69989h68.258253c2.338803 0 4.221667 1.88286 4.221667 4.22167v161.48173c0 2.3388-1.882864 4.22166-4.221667 4.22166h-68.258253c-2.33881 0-4.22167-1.88286-4.22167-4.22166v-161.48173c0-2.33881 1.88286-4.22167 4.22167-4.22167z" fill="#006565" transform="matrix(.72408167 -.68971424 .69085266 .72299557 0 0)"/></g></g></svg>