<svg enable-background="new 0 0 512 512" height="512" viewBox="0 0 512 512" width="512" xmlns="http://www.w3.org/2000/svg"><path d="m436.85 233.49c.039-.035.078-.066.117-.101 43.715-43.722 43.715-114.6 0-158.32-43.722-43.718-114.6-43.718-158.32 0l-67.853 67.848v.004c-12.209 12.209-20.881 26.569-26.27 41.828 12.44-4.396 25.469-6.599 38.514-6.466 2.956-4.506 6.403-8.785 10.366-12.744.129-.133.273-.234.402-.367l67.087-67.087c.125-.129.234-.273.359-.402.133-.129.273-.234.406-.363l.804-.808.047.043c31.314-30.033 81.002-29.697 111.83 1.128 30.821 30.822 31.165 80.521 1.124 111.83l.062.062-69.046 69.047c-31.221 31.228-81.846 31.22-113.07 0-14.239-14.243-21.907-32.528-23.165-51.157-10.714-.71-21.525.738-31.774 4.326 2.194 25.329 12.943 50.064 32.325 69.445 21.521 21.521 49.634 32.4 77.84 32.728 2.812.031 5.63-.094 8.434-.273.312-.022.624-.022.929-.046 1.055-.086 2.093-.227 3.147-.336 1.952-.195 3.912-.406 5.864-.719 1.148-.172 2.296-.406 3.443-.625 5.693-1.069 11.323-2.507 16.828-4.459 15.268-5.38 29.62-14.056 41.833-26.262.031-.039.062-.078.102-.116l67.634-67.638z" fill="#8cc152"/><g opacity=".2"><path d="m184.53 184.75c12.44-4.396 25.469-6.599 38.514-6.466 2.511-3.83 5.459-7.445 8.695-10.894-13.888-1.222-27.952.121-41.43 4.061-2.186 4.346-4.177 8.765-5.779 13.299z"/><path d="m211.91 238.86c-.805-3.764-1.402-7.571-1.66-11.397-10.714-.71-21.525.738-31.774 4.326.316 3.62.852 7.224 1.516 10.804 10.326-3.389 21.185-4.659 31.918-3.733z"/></g><path d="m453.81 216.52c.039-.039.086-.066.117-.105 43.723-43.718 43.723-114.6 0-158.32-43.714-43.718-114.6-43.718-158.32 0l-67.844 67.848-.004.004c-15.673 15.668-25.625 34.851-30.061 55.002 11.116-2.448 22.521-3.241 33.824-2.269 3.847-10.991 10.066-21.334 18.848-30.115.128-.133.272-.238.401-.367l67.083-67.086c.133-.129.234-.273.367-.402s.273-.234.406-.363l.804-.808.039.043c31.314-30.033 81.01-29.701 111.84 1.128 30.822 30.822 31.157 80.521 1.124 111.83l.062.062-69.046 69.039c-8.785 8.789-19.124 15.013-30.111 18.854-.008 0-.016 0-.023.008-6.106 2.132-12.408 3.592-18.789 4.201h-.062c-11.541 1.094-23.254-.406-34.296-4.318-.008-.008-.008-.008-.016-.008-10.862-3.857-21.085-10.034-29.779-18.737-8.695-8.692-14.876-18.914-18.73-29.78-11.064-3.916-22.79-5.373-34.355-4.26 4.24 20.76 14.365 40.564 30.471 56.666 43.719 43.723 114.6 43.723 158.31 0 .039-.039.07-.078.109-.117l67.624-67.634z" fill="#a0d468"/><path d="m453.81 216.52c.039-.039.086-.066.117-.105 43.723-43.718 43.723-114.6 0-158.32-1.905-1.909-3.928-3.627-5.935-5.369 38.154 43.98 36.437 110.57-5.373 152.38-.031.035-.078.066-.117.105l-67.625 67.634c-.039.039-.07.078-.109.117-42.012 42.012-109.04 43.535-153.01 4.795 1.905 2.225 3.896 4.404 6.005 6.512 43.719 43.723 114.6 43.723 158.31 0 .039-.039.07-.078.109-.117l67.626-67.634z" opacity=".2"/><path d="m239.07 137.26h.004l67.844-67.852c41.809-41.809 108.4-43.522 152.38-5.368-1.741-2.007-3.46-4.029-5.373-5.939-43.714-43.718-114.6-43.718-158.32 0l-67.845 67.848-.004.004c-12.486 12.486-21.346 27.202-26.675 42.859l16.762-1.816c5.243-10.737 12.294-20.811 21.22-29.736z" fill="#fff" opacity=".4"/><path d="m284.05 386.31c15.673-15.673 25.629-34.859 30.064-55.007-11.136 2.46-22.561 3.249-33.883 2.266-3.671 10.471-9.512 20.357-17.668 28.869l.062.055-69.047 69.047c-31.224 31.228-81.849 31.22-113.08 0-31.228-31.229-31.228-81.861-.004-113.08.133-.133.273-.234.406-.366l67.083-67.091c.128-.125.233-.273.362-.398.133-.133.273-.234.406-.367l.805-.808.043.043c31.313-30.033 81.006-29.701 111.84 1.128 8.695 8.696 14.871 18.922 18.722 29.792 11.065 3.928 22.81 5.428 34.374 4.326-4.225-20.791-14.36-40.611-30.478-56.732-43.719-43.718-114.6-43.718-158.32.004l-67.844 67.848-.008.008c-43.715 43.714-43.711 114.6.008 158.31 43.718 43.722 114.6 43.722 158.31.008.035-.039.07-.086.102-.117l67.633-67.633c.041-.042.08-.073.111-.104z" fill="#8cc152"/><g opacity=".2"><path d="m238.26 245.86c-2.647-4.498-4.896-9.164-6.606-13.99-11.064-3.916-22.79-5.373-34.355-4.26.766 3.744 1.793 7.446 2.944 11.112 12.943-.761 26.007 1.625 38.017 7.138z"/><path d="m280.18 269.09c-.008-.008-.008-.008-.016-.008-2.257-.797-4.459-1.758-6.646-2.765 2.662 4.521 4.928 9.215 6.646 14.071 11.065 3.928 22.81 5.428 34.374 4.326-.765-3.771-1.795-7.496-2.951-11.197-10.604.609-21.279-.851-31.407-4.427z"/><path d="m280.23 333.57c-1.281 3.662-2.929 7.207-4.748 10.689 4.365.57 8.754.969 13.158 1.016 2.812.031 5.63-.094 8.441-.273.305-.023.616-.023.921-.039 1.055-.094 2.093-.234 3.147-.344 1.952-.195 3.912-.406 5.864-.719 1.148-.171 2.296-.405 3.443-.624.094-.016.188-.047.281-.062 1.328-3.92 2.491-7.888 3.374-11.909-11.133 2.46-22.558 3.249-33.881 2.265z"/></g><path d="m301.02 369.34c12.213-12.206 20.881-26.566 26.269-41.833-12.486 4.412-25.559 6.614-38.646 6.458-2.655 4.029-5.661 7.903-9.113 11.503l.055.062-69.039 69.047c-31.22 31.22-81.853 31.22-113.08-.008-31.228-31.229-31.224-81.854-.004-113.07.133-.133.273-.242.406-.374l67.087-67.091c.129-.125.233-.273.362-.398.125-.129.273-.234.398-.363l.809-.804.039.039c31.317-30.033 81.01-29.701 111.84 1.128 14.251 14.251 21.896 32.544 23.122 51.184 10.737.727 21.56-.727 31.821-4.311-2.187-25.352-12.932-50.094-32.329-69.488-43.714-43.719-114.6-43.719-158.31 0l-67.848 67.848-.004.008c-43.715 43.714-43.719 114.6 0 158.32 43.718 43.722 114.6 43.714 158.32 0 .039-.039.066-.078.105-.117l67.633-67.626c.031-.039.071-.069.11-.108z" fill="#a0d468"/><g opacity=".2"><path d="m197.7 180.96c11.116-2.448 22.521-3.241 33.824-2.269 1.285-3.67 2.933-7.231 4.76-10.722-11.686-1.515-23.548-1.269-35.147.906-1.352 3.983-2.538 8.004-3.437 12.085z"/><path d="m314.47 273.41c-4.864.461-9.745.359-14.602-.086.804 3.795 1.405 7.629 1.655 11.494 10.737.727 21.56-.727 31.821-4.311-.312-3.646-.852-7.27-1.523-10.869-5.646 1.857-11.424 3.209-17.289 3.771-.023.001-.047.001-.062.001z"/><path d="m288.64 333.96c-2.483 3.78-5.326 7.403-8.512 10.808 2.835.25 5.669.469 8.512.5 2.812.031 5.63-.094 8.441-.273.305-.023.616-.023.921-.039 1.055-.094 2.093-.234 3.147-.344 1.952-.195 3.912-.406 5.864-.719 1.148-.171 2.296-.405 3.443-.624 3.772-.711 7.497-1.655 11.198-2.726 2.132-4.264 4.068-8.59 5.63-13.041-12.485 4.412-25.557 6.614-38.644 6.458z"/><path d="m300.91 369.45c.031-.039.07-.069.109-.108 8.652-8.652 15.532-18.383 20.732-28.761l-1.14.219c-3.358.953-6.731 1.835-10.152 2.476-1.147.219-2.295.453-3.443.624-1.952.312-3.912.523-5.864.719-.047.008-.094.016-.133.016-3.343 4.693-7.091 9.191-11.308 13.4-.039.039-.078.062-.117.102l-67.625 67.633c-.039.039-.066.078-.105.117-41.805 41.801-108.4 43.527-152.38 5.365 1.746 2.007 3.46 4.037 5.369 5.942 43.718 43.722 114.6 43.714 158.32 0 .039-.039.066-.078.105-.117l67.634-67.627z"/></g><path d="m459.86 316.66c4.014 12.495-35.054 36.194-47.556 40.208-12.495 4.014-25.832-2.889-29.908-15.32-.227-.68-.398-1.305-.508-1.984-2.718-11.877 4.068-24.09 15.884-27.877 12.495-4.014 58.075-7.521 62.088 4.973z" fill="#a0d468"/><path d="m459.86 316.66c-.702-2.194-2.74-3.865-5.599-5.153 2.905 12.611-35.272 35.741-47.61 39.708-7.38 2.366-15.018.859-20.905-3.279 5.856 8.199 16.446 12.182 26.559 8.933 12.502-4.014 51.569-27.714 47.555-40.209z" opacity=".3"/><path d="m388.05 347.2c-.227-.68-.391-1.304-.508-1.983-2.717-11.877 4.068-24.091 15.884-27.878 10.308-3.312 43.051-6.247 56.489-.18-.039-.164 0-.344-.055-.5-4.014-12.494-49.594-8.987-62.088-4.974-11.815 3.787-18.602 16-15.884 27.877.109.68.281 1.305.508 1.984 1.663 5.083 4.927 9.168 9.003 12.041-1.374-1.928-2.576-4.021-3.349-6.387z" fill="#fff" opacity=".4"/><path d="m63.216 251.8c-17.647 1.472-33.191-8.652-34.835-22.951-1.75-14.759 7.293-66.555 25.617-68.707 18.265-2.089 38.899 46.256 40.649 61.015 1.644 14.755-11.761 28.386-30.076 30.529-.394.06-.902.114-1.355.114z" fill="#a0d468"/><path d="m94.647 221.16c-1.391-11.713-14.682-44.511-29.237-56.529 12.194 14.572 22.377 40.7 23.583 50.875 1.644 14.751-11.76 28.381-30.076 30.529-.395.059-.905.113-1.358.113-9.605.796-18.499-1.914-24.953-6.79 6.06 8.379 17.741 13.513 30.61 12.444.453 0 .961-.055 1.355-.113 18.316-2.144 31.72-15.774 30.076-30.529z" opacity=".3"/><g fill="#fff" opacity=".4"><path d="m34.034 234.5c-1.749-14.759 7.294-66.556 25.617-68.703 3.768-.434 7.629 1.367 11.413 4.486-5.494-6.563-11.394-10.788-17.066-10.144-18.324 2.151-27.367 53.948-25.617 68.707.749 6.513 4.474 12.084 9.878 16.161-2.249-3.112-3.776-6.637-4.225-10.507z"/><path d="m74.668 278.47c-.039.039-.086.07-.117.102-43.723 43.723-43.719 114.6 0 158.32 1.909 1.913 3.936 3.631 5.942 5.372-38.158-43.979-36.444-110.57 5.365-152.38.035-.031.078-.062.117-.102l67.629-67.633c.039-.039.074-.082.105-.117 42.008-42.008 109.04-43.531 153.02-4.795-1.905-2.226-3.896-4.408-6.005-6.513-43.718-43.718-114.6-43.722-158.32 0-.035.031-.066.078-.105.113l-67.629 67.638z"/></g><g fill="#3a3847"><path d="m436.96 237.37c-1.022 0-2.046-.39-2.827-1.171-1.562-1.562-1.562-4.092 0-5.653l16.969-16.961c42.091-42.09 42.091-110.58 0-152.67-42.09-42.09-110.58-42.09-152.67 0l-67.848 67.852c-9.344 9.351-16.832 20.209-22.248 32.282-.897 2.019-3.26 2.917-5.282 2.011-2.015-.901-2.917-3.268-2.011-5.282 5.813-12.963 13.853-24.626 23.887-34.664l67.849-67.852c45.206-45.214 118.77-45.206 163.98 0 45.206 45.21 45.206 118.77 0 163.98l-16.969 16.961c-.781.78-1.803 1.17-2.827 1.17z"/><path d="m306.9 320.99c-29.689 0-59.379-11.308-81.982-33.906-12.33-12.33-21.493-26.812-27.233-43.055-.737-2.082.352-4.365 2.437-5.099 2.101-.738 4.369.351 5.1 2.437 5.341 15.103 13.872 28.584 25.352 40.064 42.086 42.09 110.58 42.098 152.67 0 1.562-1.562 4.092-1.562 5.654 0s1.562 4.092 0 5.653c-22.609 22.599-52.298 33.906-81.996 33.906z"/><path d="m289.8 337.97c-9.293 0-18.483-1.101-27.437-3.295-20.49-4.936-39.311-15.524-54.405-30.619-14.446-14.446-24.816-32.399-29.986-51.906-.565-2.132.707-4.322 2.843-4.888 2.132-.551 4.318.707 4.889 2.842 4.807 18.141 14.458 34.844 27.909 48.299 14.052 14.056 31.563 23.911 50.637 28.502 11.706 2.874 23.825 3.741 36.054 2.569 24.864-2.358 48.291-13.392 65.97-31.071l67.852-67.86c1.562-1.562 4.092-1.562 5.654 0s1.562 4.092 0 5.653l-67.852 67.86c-18.984 18.991-44.152 30.846-70.866 33.384-3.765.359-7.522.53-11.262.53z"/><path d="m307.04 288.98c-17.688 0-35.257-5.521-49.766-16.195-3.366-2.421-6.654-5.225-9.734-8.309-1.999-2.003-3.885-4.127-5.716-6.306-1.422-1.691-1.203-4.213.487-5.635 1.688-1.425 4.213-1.207 5.635.488 1.683 1.999 3.412 3.951 5.251 5.794 2.78 2.78 5.732 5.307 8.781 7.501 21.064 15.493 49.208 18.991 73.51 9.152 9.386-3.749 17.835-9.348 25.137-16.653l67.852-67.852c29.619-29.619 29.619-77.812 0-107.43-29.611-29.611-77.8-29.619-107.43 0l-67.853 67.852c-3.557 3.557-6.813 7.539-9.675 11.83-1.227 1.832-3.718 2.323-5.545 1.109-1.839-1.227-2.335-3.709-1.108-5.545 3.154-4.732 6.747-9.12 10.675-13.048l67.852-67.852c32.735-32.739 86.008-32.731 118.73 0 32.735 32.735 32.735 86.004 0 118.74l-67.852 67.856c-8.074 8.074-17.43 14.274-27.807 18.413-10.081 4.085-20.78 6.092-31.431 6.092z"/><path d="m414.34 214.75c-1.023 0-2.046-.391-2.827-1.171-1.562-1.562-1.562-4.092 0-5.654 29.619-29.619 29.619-77.812 0-107.43-14.337-14.341-33.414-22.236-53.718-22.236-20.295 0-39.372 7.895-53.717 22.236-1.562 1.562-4.092 1.562-5.654 0s-1.562-4.092 0-5.654c15.853-15.852 36.937-24.578 59.371-24.578 22.436 0 43.52 8.727 59.371 24.578 32.735 32.735 32.735 86.004 0 118.74-.78.781-1.804 1.171-2.826 1.171z"/><path d="m284.29 390.04c-1.023 0-2.046-.391-2.827-1.171-1.562-1.562-1.562-4.092 0-5.654l16.961-16.961c5.506-5.505 10.425-11.596 14.626-18.109 1.195-1.85 3.671-2.404 5.529-1.194 1.851 1.194 2.39 3.671 1.194 5.521-4.506 6.989-9.784 13.533-15.695 19.438l-16.961 16.961c-.781.778-1.805 1.169-2.827 1.169z"/><path d="m154.24 473.7c-30.975 0-60.094-12.057-81.986-33.953-45.206-45.206-45.206-118.77 0-163.97 1.562-1.562 4.092-1.562 5.653 0 1.562 1.562 1.562 4.092 0 5.654-42.086 42.09-42.086 110.57 0 152.66 20.386 20.39 47.494 31.611 76.333 31.611 28.842 0 55.95-11.222 76.336-31.611 1.562-1.562 4.092-1.562 5.653 0 1.562 1.562 1.562 4.092 0 5.654-21.896 21.897-51.011 33.954-81.989 33.954z"/><path d="m330.25 264.91c-1.765 0-3.381-1.184-3.857-2.972-4.881-18.219-14.548-34.941-27.972-48.357-16.547-16.555-37.592-27.117-60.851-30.537-10.316-1.421-20.765-1.413-31.025.062-23.243 3.416-44.265 13.955-60.784 30.475l-16.961 16.961c-1.562 1.562-4.093 1.562-5.654 0-1.562-1.562-1.562-4.092 0-5.654l16.961-16.961c17.742-17.741 40.321-29.064 65.291-32.734 11.021-1.574 22.224-1.597 33.301-.062 25.008 3.678 47.604 15.017 65.377 32.797 14.415 14.408 24.801 32.372 30.041 51.95.569 2.132-.695 4.322-2.827 4.9-.345.085-.696.132-1.04.132z"/><path d="m137.28 490.63c-29.694 0-59.384-11.3-81.986-33.906-21.896-21.896-33.953-51.008-33.953-81.986s12.057-60.09 33.953-81.986l67.852-67.86c1.562-1.562 4.092-1.562 5.654 0s1.562 4.092 0 5.654l-67.853 67.86c-20.385 20.381-31.61 47.494-31.61 76.332s11.226 55.951 31.61 76.332c42.087 42.082 110.57 42.09 152.66 0l67.848-67.852c1.562-1.562 4.092-1.562 5.654 0s1.562 4.092 0 5.654l-67.849 67.852c-22.602 22.598-52.295 33.906-81.985 33.906z"/><path d="m154.25 441.72c-22.436 0-43.52-8.73-59.372-24.583-15.852-15.852-24.578-36.936-24.578-59.371s8.73-43.52 24.578-59.363l67.853-67.86c32.738-32.731 86.007-32.731 118.73 0 8.207 8.207 14.556 17.87 18.874 28.717.812 2.054-.188 4.373-2.241 5.197-2.046.797-4.373-.188-5.192-2.245-3.905-9.828-9.66-18.582-17.094-26.016-29.623-29.619-77.816-29.611-107.43 0l-67.852 67.86c-14.338 14.337-22.236 33.415-22.236 53.71 0 20.303 7.895 39.381 22.236 53.718s33.418 22.239 53.718 22.239c20.299 0 39.376-7.902 53.713-22.239l62.195-62.198c1.562-1.562 4.092-1.562 5.653 0s1.562 4.092 0 5.654l-62.194 62.197c-15.848 15.852-36.932 24.583-59.367 24.583z"/><path d="m267.17 260.38c-1.148 0-2.288-.492-3.077-1.438-1.62-1.944-3.346-3.893-5.239-5.787-17.844-17.847-43.355-25.625-68.227-20.842-14.899 2.889-28.46 10.097-39.205 20.842-1.562 1.562-4.092 1.562-5.653 0-1.562-1.562-1.562-4.092 0-5.653 11.877-11.878 26.862-19.843 43.339-23.037 27.522-5.314 55.682 3.315 75.399 23.037 2.062 2.065 3.951 4.189 5.724 6.313 1.414 1.694 1.188 4.213-.507 5.634-.742.618-1.657.931-2.554.931z"/><path d="m384.99 343.62c-1.07 0-2.148-.016-3.249-.055-11.487-.328-23.372-2.976-35.296-7.872-2.047-.843-3.022-3.178-2.179-5.216.835-2.046 3.186-3.022 5.216-2.187 11.026 4.529 21.967 6.981 32.517 7.277 23.2.898 37.015-8.527 37.147-8.629 1.827-1.249 4.311-.788 5.56 1.031s.788 4.303-1.022 5.561c-.625.43-14.955 10.09-38.694 10.09z"/><path d="m405.05 362.01c-12.057 0-22.685-7.723-26.457-19.21-.288-.874-.499-1.687-.647-2.577-3.132-13.673 5.021-27.986 18.608-32.344 6.935-2.227 21.381-3.905 33.602-3.905 19.788 0 31.064 3.858 33.509 11.464 2.366 7.348-4.038 16.68-19.015 27.729-11.722 8.645-24.786 15.478-31.119 17.508-2.757.89-5.607 1.335-8.481 1.335zm25.105-50.039c-12.635 0-25.77 1.796-31.157 3.521-9.675 3.1-15.478 13.283-13.213 23.185.125.703.242 1.14.398 1.608 3.343 10.176 14.673 16.032 24.902 12.783 5.686-1.827 18.32-8.598 28.815-16.336 14.173-10.456 16.82-16.766 16.148-18.843-.911-2.85-9.407-5.918-25.893-5.918z"/><path d="m248.75 511.88c-1.761 0-3.537-.219-5.29-.664-5.506-1.405-10.136-4.85-13.037-9.698-4.959-8.457-2.179-19.405 6.185-24.427 7.095-4.186 16.336-1.858 20.628 5.193 1.147 1.882.55 4.342-1.336 5.489-1.897 1.163-4.346.555-5.497-1.335-2.023-3.327-6.372-4.467-9.703-2.476-4.596 2.757-6.13 8.816-3.396 13.478 1.792 2.999 4.685 5.146 8.125 6.021 3.451.883 6.997.359 10.015-1.445 4.057-2.389 6.911-6.207 8.059-10.752 1.148-4.537.445-9.246-1.971-13.26-3.565-6.006-10.047-10.472-17.356-11.972-5.274-1.085-13.321-1.069-21.751 5.1-1.789 1.312-4.291.913-5.588-.867-1.304-1.78-.917-4.279.863-5.583 8.422-6.169 18.397-8.496 28.081-6.481 9.479 1.937 17.933 7.809 22.61 15.704 3.514 5.825 4.537 12.697 2.866 19.318-1.679 6.631-5.841 12.19-11.729 15.673-3.301 1.968-7.006 2.984-10.778 2.984z"/><path d="m279.72 52.584c-3.062 0-6.122-.438-9.113-1.319-8.809-2.589-16.32-8.816-20.101-16.657-2.846-5.783-3.248-12.374-1.128-18.523 2.116-6.146 6.493-11.081 12.318-13.896 4.826-2.378 10.339-2.726 15.47-.961 5.123 1.765 9.238 5.42 11.581 10.285 1.999 4.068 2.28 8.699.772 13.005-1.499 4.283-4.568 7.712-8.652 9.645-7.059 3.486-15.688.539-19.209-6.587-.98-1.979-.168-4.377 1.811-5.357 1.977-.983 4.365-.167 5.357 1.812 1.569 3.174 5.404 4.494 8.559 2.936 2.194-1.039 3.803-2.834 4.584-5.083.797-2.272.648-4.712-.406-6.872-1.429-2.956-3.912-5.154-7.005-6.22-3.1-1.078-6.427-.863-9.354.582-3.92 1.897-6.849 5.201-8.267 9.316-1.421 4.123-1.151 8.531.758 12.416 2.827 5.869 8.492 10.526 15.169 12.49 4.826 1.426 12.33 2.039 20.654-3.053 1.891-1.156 4.342-.559 5.498 1.319 1.155 1.886.562 4.346-1.32 5.498-5.646 3.456-11.815 5.224-17.976 5.224z"/><path d="m59.815 255.94c-18.44 0-33.66-11.448-35.406-26.633-1.554-13.107 4.4-49.645 16.63-65.146 3.764-4.771 7.965-7.458 12.494-7.989 22.661-2.647 43.511 51.27 45.085 64.513 1.882 16.911-13.182 32.587-33.583 34.973-.44.066-1.171.141-1.819.141-.921.09-2.171.141-3.401.141zm-4.658-91.864c-3.038.312-5.438 1.995-7.84 5.037-11.046 14.001-16.204 48.817-14.966 59.266 1.37 11.947 14.856 20.744 30.532 19.44.039-.008 1.18-.097 1.223-.101 16.043-1.878 27.964-13.592 26.565-26.117-1.752-14.787-21.411-57.525-35.514-57.525z"/><path d="m60.163 280c-.348 0-.703-.047-1.055-.141-2.128-.577-3.389-2.779-2.807-4.903 1.757-6.458 2.736-14.278 2.916-23.24.715-23.009-3.568-46.736-3.611-46.975-.398-2.171 1.038-4.252 3.213-4.65 2.167-.418 4.256 1.042 4.65 3.209.184 1.003 4.482 24.778 3.744 48.623-.195 9.566-1.269 18.042-3.197 25.125-.484 1.781-2.096 2.952-3.853 2.952z"/></g></svg>