<svg clip-rule="evenodd" fill-rule="evenodd" height="6.82666in" image-rendering="optimizeQuality" shape-rendering="geometricPrecision" text-rendering="geometricPrecision" viewBox="0 0 6.82666 6.82666" width="6.82666in" xmlns="http://www.w3.org/2000/svg"><path d="m3.78058 3.28619 1.35743-1.36923.264201-.145.00073228-.00039764.452665-.517402-.282799-.285232-.513031.456598-.00033465.00070079-.143799.266465-1.35837 1.3702.223268.223299" fill="#ddd"/><path d="m5.71585 1.11319.139732.140969-.452634.517433-.00073228.00040158-.264201.145031-1.35746 1.36923-.118433-.118433c.0000315-.00003543 2.05493-2.05583 2.05373-2.05463z" fill="#d1d3d4"/><path d="m0 0h.63539v.425224h-.63539z" fill="#ad1f2c" transform="matrix(.707107 .707107 -.707107 .707107 3.1342 3.24636)"/><path d="m0 0h.97752v2.5033h-.97752z" fill="#be1e2d" transform="matrix(.707107 .707107 -.707107 .707107 2.71258 3.42609)"/><path d="m0 0h.97752v.428894h-.97752z" fill="#be1e2d" transform="matrix(.707107 .707107 -.707107 .707107 3.31652 2.8221)"/><path d="m0 0h.48876v2.5033h-.48876z" fill="#ad1f2c" transform="matrix(.707107 .707107 -.707107 .707107 3.05821 3.77169)"/><path d="m0 0h.317697v.425224h-.317697z" fill="#a11d2b" transform="matrix(.707107 .707107 -.707107 .707107 3.35886 3.47099)"/><path d="m0 0h.48876v.428894h-.48876z" fill="#ad1f2c" transform="matrix(.707107 .707107 -.707107 .707107 3.66214 3.16771)"/><path d="m3.66215 3.16775.118402.118433" fill="#a7a9ac"/><path d="m0 0h.162929v1.93961h-.162929z" fill="#a11d2b" transform="matrix(.707107 .707107 -.707107 .707107 2.79265 3.92203)"/><path d="m0 0h.081465v1.93961h-.081465z" fill="#931a2b" transform="matrix(.707107 .707107 -.707107 .707107 2.85025 3.97963)"/><path d="m4.73271 4.21738-2.12366-2.12309c.111-.305098.0441654-.660268-.200598-.904965-.237567-.2375-.579201-.307465-.878134-.209933l.360598.360531c.130165.130134.130165.341098 0 .471232l-.0801654.0801654c-.130165.130134-.341201.130134-.471335 0l-.360598-.360531c-.0975669.298835-.0275669.640398.209965.877898.244768.244701.600031.3115.905201.200567l2.12363 2.12313c-.111.305098-.0441654.660268.200598.904965.237567.2375.579201.307465.878134.209933l-.360598-.360531c-.130165-.130134-.130165-.341098 0-.471232l.0801654-.0801654c.130165-.130134.341201-.130134.471335 0l.360598.360531c.0975669-.298835.0275669-.640398-.209965-.877898-.244732-.244732-.6-.311531-.905165-.200598z" fill="#dde3e7"/><path d="m4.73271 4.21738-2.12363-2.12309c.111-.305098.0441654-.660268-.200598-.904965-.237567-.2375-.579201-.307465-.878134-.209933l.360598.360531c.130165.130134.130165.341098 0 .471232l-.0399016.0399016 3.12456 3.12456.0402992-.0402677c.130165-.130134.341201-.130134.471335 0l.360598.360531c.0975669-.298835.0275669-.640398-.209965-.877898-.244728-.244732-.599996-.311531-.905161-.200598z" fill="#cacfd1"/><path d="m0 0h6.82666v6.82666h-6.82666z" fill="none"/></svg>