<svg enable-background="new 0 0 512.001 512.001" viewBox="0 0 512.001 512.001" xmlns="http://www.w3.org/2000/svg"><path d="m235.945 8.792c-119.834 9.422-217.073 106.207-227.039 225.997-4.706 56.57 9.626 109.559 37.244 153.327 3.095 4.904 3.688 10.97 1.335 16.27l-38.682 87.127c-3.289 7.408 4.278 14.974 11.685 11.685l87.127-38.683c5.301-2.354 11.366-1.76 16.27 1.335 43.766 27.619 96.752 41.948 153.32 37.245 119.788-9.961 216.574-107.194 226.003-227.024 12.019-152.766-114.501-279.291-267.263-267.279z" fill="#e4eaf6"/><circle cx="256.016" cy="255.994" fill="#00d2ff" r="213.783"/><circle cx="256.016" cy="136.286" fill="#fff" r="25.654"/><path d="m256.01 42.207c-118.069 0-213.783 95.714-213.783 213.783s95.714 213.783 213.783 213.783 213.783-95.714 213.783-213.783-95.714-213.783-213.783-213.783zm0 401.9c-103.894 0-188.117-84.223-188.117-188.117s84.223-188.118 188.117-188.118 188.117 84.223 188.117 188.118c.001 103.894-84.222 188.117-188.117 188.117z" fill="#18bdf6"/><path d="m241.575 199.342h28.861v182.784h-28.861z" fill="#fff"/><path d="m437.038 74.972c-53.042-53.047-126.567-80.083-201.722-74.172-59.853 4.707-116.585 30.958-159.747 73.92-43.163 42.964-69.675 99.575-74.652 159.404-4.68 56.259 8.618 110.987 38.454 158.27 1.715 2.718 2.01 5.985.787 8.738l-38.683 87.127c-2.855 6.431-1.485 13.801 3.491 18.775 4.975 4.975 12.345 6.345 18.775 3.49l87.127-38.683c2.754-1.223 6.02-.928 8.738.788 41.094 25.933 87.813 39.371 136.277 39.371 7.292 0 14.627-.305 21.985-.916 59.828-4.975 116.438-31.485 159.403-74.644 42.963-43.158 69.217-99.889 73.927-159.74 5.915-75.154-21.116-148.682-74.16-201.728zm58.177 200.47c-4.41 56.061-29.024 109.222-69.306 149.686-40.282 40.466-93.329 65.317-149.368 69.977-52.762 4.387-104.066-8.074-148.377-36.035-7.253-4.576-16.149-5.278-23.801-1.882l-87.127 38.683c-.208.093-.525.233-.932-.173s-.266-.723-.174-.932l38.684-87.127c3.397-7.652 2.694-16.55-1.882-23.802-27.963-44.314-40.424-95.624-36.035-148.384 4.662-56.04 29.517-109.087 69.985-149.368 40.467-40.281 93.629-64.892 149.693-69.3 6.388-.502 12.75-.75 19.098-.75 63.699 0 124.814 25.056 170.029 70.276 49.721 49.723 75.058 118.659 69.513 189.131z"/><path d="m256.01 34.19c-122.301 0-221.8 99.499-221.8 221.8s99.499 221.8 221.8 221.8 221.8-99.499 221.8-221.8-99.499-221.8-221.8-221.8zm0 427.566c-113.46 0-205.766-92.306-205.766-205.766s92.306-205.766 205.766-205.766 205.766 92.306 205.766 205.766-92.306 205.766-205.766 205.766z"/><path d="m290.194 204.158h.022c4.427 0 8.017-3.589 8.017-8.017s-3.589-8.017-8.017-8.017h-68.421c-4.427 0-8.012 3.589-8.012 8.017s3.595 8.017 8.022 8.017c5.01 0 9.086 4.076 9.086 9.086v153.924c0 5.01-4.076 9.086-9.096 9.086-4.427 0-8.012 3.589-8.012 8.017 0 4.427 3.595 8.017 8.022 8.017h68.41c4.427 0 8.017-3.589 8.017-8.017 0-4.427-3.589-8.017-8.017-8.017h-.022c-5.01 0-9.086-4.076-9.086-9.086v-153.924c.001-5.01 4.077-9.086 9.087-9.086zm-23.42 172.095h-21.549c1.098-2.819 1.7-5.883 1.7-9.086v-153.923c0-3.202-.602-6.267-1.7-9.086h21.549c-1.098 2.819-1.7 5.883-1.7 9.086v153.924c.001 3.202.602 6.266 1.7 9.085z"/><path d="m256.01 169.953c18.566 0 33.671-15.105 33.671-33.671s-15.105-33.671-33.671-33.671-33.671 15.105-33.671 33.671 15.105 33.671 33.671 33.671zm0-51.308c9.725 0 17.637 7.912 17.637 17.637s-7.912 17.637-17.637 17.637-17.637-7.912-17.637-17.637 7.912-17.637 17.637-17.637z"/></svg>