<svg enable-background="new 0 0 512 512" viewBox="0 0 512 512" xmlns="http://www.w3.org/2000/svg"><path d="m810.86844 36.649183h419.99996v52h-419.99996z" fill="#edeff1"/><path d="m836.86844 88.649183 20 375.999997h327.99996l20-375.999997z" fill="#edeff1"/><g fill="#d3d3d3" transform="translate(764.86844 -37.350817)"><path d="m438.723 150 1.277-24h-368l1.277 24z"/><path d="m256 457c-13.255 0-24-10.745-24-24v-212c0-13.255 10.745-24 24-24s24 10.745 24 24v212c0 13.255-10.745 24-24 24z"/><path d="m350 457c-13.255 0-24-10.745-24-24v-212c0-13.255 10.745-24 24-24s24 10.745 24 24v212c0 13.255-10.745 24-24 24z"/><path d="m162 457c13.255 0 24-10.745 24-24v-212c0-13.255-10.745-24-24-24s-24 10.745-24 24v212c0 13.255 10.745 24 24 24z"/><path d="m168 10v64h32v-32h112v32h32v-64z"/></g><g fill="#b3b3b3"><rect height="376.51978" ry="109.59763" stroke="#000" stroke-width="8.848" width="300.49173" x="98.400284" y="121.95791"/><rect height="166.5376" ry="36.807224" stroke="#000" stroke-width="7.648" width="299.88834" x="98.400291" y="120.75112"/><rect height="166.5376" ry="36.807224" width="292.19061" x="102.41598" y="198.32443"/><rect height="35.345848" ry="7.811945" stroke="#000" stroke-width="7" width="288.44208" x="104.58985" y="62.868443"/><rect height="73.646797" ry="16.27701" stroke="#000" stroke-width="7.057" width="236.93391" x="131.15132" y="10.045573"/></g><rect fill="#fff" height="35.487885" rx="26.854687" ry="16.459324" stroke-width="3.34055" width="176.19423" x="161.25197" y="29.884533"/><rect fill="#b3b3b3" height="21.648771" ry="4.784693" width="272.56592" x="111.02435" y="66.329552"/><rect fill="#fff" height="35.487904" rx="37.008057" ry="16.459333" stroke-width="3.92154" transform="matrix(-.00080799 -.99999967 .99999882 -.00153448 0 0)" width="242.81071" x="-420.19443" y="150.69518"/><rect fill="#fff" height="35.487904" rx="37.008057" ry="16.459333" stroke-width="3.92154" transform="matrix(-.00080799 -.99999967 .99999882 -.00153448 0 0)" width="242.81071" x="-418.25546" y="233.15419"/><rect fill="#fff" height="35.487904" rx="37.008057" ry="16.459333" stroke-width="3.92154" transform="matrix(-.00080799 -.99999967 .99999882 -.00153448 0 0)" width="242.81071" x="-418.79758" y="311.56973"/></svg>