<svg enable-background="new 0 0 512 512" viewBox="0 0 512 512" xmlns="http://www.w3.org/2000/svg"><path d="m75.92144 262.99274 3.081686-152.54859 27.664994-.44024 25.4638-1.76097-.88048 51.45254 3.08169 31.6417 63.72744 3.08169 61.56132 1.38709-1.79605-37.4312 7.04385-52.33302 35.7099 1.77556 31.74774 1.33533 57.16729 48.83692 53.64536 45.31499-2.20121 107.65929-4.84264 103.69703-178.10626 5.28289-182.948911-3.96216zm187.6699 68.49152c13.10358-2.98743 25.25534-14.46367 29.71153-28.05983 1.63902-5.00078 1.8051-6.29389 1.78756-13.91801-.0179-7.75928-.16542-8.81723-1.92088-13.77039-4.81706-13.59173-15.49715-23.60407-29.18347-27.35886-4.18742-1.1488-6.03431-1.30482-12.42383-1.04953-12.26616.4901-19.77247 3.74833-28.45047 12.34938-9.9941 9.90547-14.28078 24.56943-11.41218 39.03892 4.03383 20.34694 23.33125 35.39851 43.56412 33.97906 2.39699-.16816 6.14442-.713 8.32762-1.21074z" fill="#6e83b7" stroke-width=".944476"/><path d="m136.13074 149.11137 5.72313-39.10746 54.88598 1.76096 54.44573-2.64144 5.72313 34.26481-3.08169 43.95011-54.00548 3.08169-58.84815-2.64145z" fill="#edeff1" stroke-width=".944476"/><g clip-rule="evenodd" fill-rule="evenodd" image-rendering="optimizeQuality" shape-rendering="geometricPrecision" text-rendering="geometricPrecision" transform="matrix(.25215706 0 0 .25215706 4.697377 -32.775802)"><path d="m0 0h2048v2048h-2048z" fill="none"/><path d="m236.71658 507.59377h82.08745v1271.91523h-82.08745z" stroke-width=".678476"/><path d="m474.29746 533.31919h82.08745v398.17011h-82.08745z" stroke-width=".379612"/><path d="m1022.7429 849.58334v82.08745h-519.64533v-82.08745z" stroke-width=".43367"/><path d="m966.21052 532.48314h82.08738v398.1701h-82.08738z" stroke-width=".379612"/><path d="m235.65532 1746.6133h1546.04568v85.1226h-1546.04568z" stroke-width=".761729"/><path d="m236.6738 507.31956h1076.3544v85.1226h-1076.3544z" stroke-width=".635575"/><path d="m1311.7633 507.6448 469.3371 399.07317-55.1405 64.84894-469.3371-399.07317z" stroke-width=".480842"/><path d="m1699.1531 904.94712h82.0874v925.90568h-82.0874z" stroke-width=".57888"/><path d="m1156.9939 1282.9382a172.11137 174.51003 0 0 1 -172.11139 174.5101 172.11137 174.51003 0 0 1 -172.11138-174.5101 172.11137 174.51003 0 0 1 172.11138-174.51 172.11137 174.51003 0 0 1 172.11139 174.51z" stroke-width="1.031"/></g></svg>