<svg viewBox="0 0 32 32" xmlns="http://www.w3.org/2000/svg"><path d="m16 32a16 16 0 1 1 16-16 16 16 0 0 1 -16 16zm0-30a14 14 0 1 0 14 14 14 14 0 0 0 -14-14z"/><path d="m20.850228 24.68597 8-8a1 1 0 0 0 0-1.41l-8-7.9999999-1.409999 1.41 7.289999 7.2899999-7.289999 7.29z"/><path d="m11.433454 24.740181-8.0198255-8a1.0024781 1 0 0 1 0-1.41l8.0198255-8.0000004 1.413494 1.41-7.3080655 7.2900004 7.3080655 7.29z" stroke-width="1.00124"/><path d="m9.123124 14.83061h13.836296v2.146174h-13.836296z"/></svg>