<?xml version="1.0" encoding="UTF-8" standalone="no"?>
<svg
   enable-background="new 0 0 512 512"
   viewBox="0 0 512 512"
   version="1.1"
   id="svg7"
   sodipodi:docname="czk_trash.svg"
   inkscape:version="1.4 (e7c3feb100, 2024-10-09)"
   xmlns:inkscape="http://www.inkscape.org/namespaces/inkscape"
   xmlns:sodipodi="http://sodipodi.sourceforge.net/DTD/sodipodi-0.dtd"
   xmlns="http://www.w3.org/2000/svg"
   xmlns:svg="http://www.w3.org/2000/svg">
  <defs
     id="defs7">
    <inkscape:perspective
       sodipodi:type="inkscape:persp3d"
       inkscape:vp_x="0 : 256 : 1"
       inkscape:vp_y="0 : 1000 : 0"
       inkscape:vp_z="512 : 256 : 1"
       inkscape:persp3d-origin="256 : 170.66667 : 1"
       id="perspective7" />
  </defs>
  <sodipodi:namedview
     id="namedview7"
     pagecolor="#ffffff"
     bordercolor="#000000"
     borderopacity="0.25"
     inkscape:showpageshadow="2"
     inkscape:pageopacity="0.0"
     inkscape:pagecheckerboard="0"
     inkscape:deskcolor="#d1d1d1"
     inkscape:zoom="2.2714844"
     inkscape:cx="283.95529"
     inkscape:cy="114.24248"
     inkscape:window-width="2560"
     inkscape:window-height="1371"
     inkscape:window-x="0"
     inkscape:window-y="0"
     inkscape:window-maximized="1"
     inkscape:current-layer="svg7" />
  <path
     d="m 810.86844,36.649183 h 419.99996 v 52 H 810.86844 Z"
     fill="#edeff1"
     id="path1" />
  <path
     d="m 836.86844,88.649183 20,375.999997 h 327.99996 l 20,-375.999997 z"
     fill="#edeff1"
     id="path2" />
  <g
     fill="#d3d3d3"
     id="g7"
     transform="translate(764.86844,-37.350817)">
    <path
       d="M 438.723,150 440,126 H 72 l 1.277,24 z"
       id="path3" />
    <path
       d="m 256,457 c -13.255,0 -24,-10.745 -24,-24 V 221 c 0,-13.255 10.745,-24 24,-24 13.255,0 24,10.745 24,24 v 212 c 0,13.255 -10.745,24 -24,24 z"
       id="path4" />
    <path
       d="m 350,457 c -13.255,0 -24,-10.745 -24,-24 V 221 c 0,-13.255 10.745,-24 24,-24 13.255,0 24,10.745 24,24 v 212 c 0,13.255 -10.745,24 -24,24 z"
       id="path5" />
    <path
       d="m 162,457 c 13.255,0 24,-10.745 24,-24 V 221 c 0,-13.255 -10.745,-24 -24,-24 -13.255,0 -24,10.745 -24,24 v 212 c 0,13.255 10.745,24 24,24 z"
       id="path6" />
    <path
       d="m 168,10 v 64 h 32 V 42 h 112 v 32 h 32 V 10 Z"
       id="path7" />
  </g>
  <rect
     style="fill:#b3b3b3;stroke-width:8.848;stroke:#000000;stroke-opacity:1;stroke-dasharray:none"
     id="rect14"
     width="300.49173"
     height="376.51978"
     x="98.400284"
     y="121.95791"
     ry="109.59763" />
  <rect
     style="fill:#b3b3b3;stroke-width:7.648;stroke:#000000;stroke-opacity:1;stroke-dasharray:none"
     id="rect15"
     width="299.88834"
     height="166.5376"
     x="98.400291"
     y="120.75112"
     ry="36.807224" />
  <rect
     style="fill:#b3b3b3;stroke:none;stroke-width:7.54921;stroke-dasharray:none;stroke-opacity:1"
     id="rect15-6"
     width="292.19061"
     height="166.5376"
     x="102.41598"
     y="198.32443"
     ry="36.807224" />
  <rect
     style="fill:#b3b3b3;stroke-width:7;stroke-dasharray:none;stroke:#000000;stroke-opacity:1"
     id="rect15-3"
     width="288.44208"
     height="35.345848"
     x="104.58985"
     y="62.868443"
     ry="7.8119454" />
  <rect
     style="fill:#b3b3b3;stroke-width:7.057;stroke-dasharray:none;stroke:#000000;stroke-opacity:1"
     id="rect15-3-6"
     width="236.93391"
     height="73.646797"
     x="131.15132"
     y="10.045573"
     ry="16.27701" />
  <rect
     style="fill:#ffffff;stroke-width:3.34055"
     id="rect16"
     width="176.19423"
     height="35.487885"
     x="161.25197"
     y="29.884533"
     rx="26.854687"
     ry="16.459324" />
  <rect
     style="fill:#b3b3b3;stroke:none;stroke-width:5.3254;stroke-dasharray:none;stroke-opacity:1"
     id="rect15-3-5"
     width="272.56592"
     height="21.648771"
     x="111.02435"
     y="66.329552"
     ry="4.7846928" />
  <rect
     style="fill:#ffffff;stroke-width:3.92154"
     id="rect16-7"
     width="242.81071"
     height="35.487904"
     x="-420.19443"
     y="150.69518"
     rx="37.008057"
     ry="16.459333"
     transform="matrix(-8.0799406e-4,-0.99999967,0.99999882,-0.00153448,0,0)" />
  <rect
     style="fill:#ffffff;stroke-width:3.92154"
     id="rect16-7-5"
     width="242.81071"
     height="35.487904"
     x="-418.25546"
     y="233.15419"
     rx="37.008057"
     ry="16.459333"
     transform="matrix(-8.0799406e-4,-0.99999967,0.99999882,-0.00153448,0,0)" />
  <rect
     style="fill:#ffffff;stroke-width:3.92154"
     id="rect16-7-3"
     width="242.81071"
     height="35.487904"
     x="-418.79758"
     y="311.56973"
     rx="37.008057"
     ry="16.459333"
     transform="matrix(-8.0799406e-4,-0.99999967,0.99999882,-0.00153448,0,0)" />
</svg>
