<?xml version="1.0" encoding="UTF-8" standalone="no"?>
<svg
   enable-background="new 0 0 512 512"
   height="512"
   viewBox="0 0 512 512"
   width="512"
   version="1.1"
   id="svg39"
   sodipodi:docname="czk_hardlink.svg"
   inkscape:version="1.4 (e7c3feb100, 2024-10-09)"
   xmlns:inkscape="http://www.inkscape.org/namespaces/inkscape"
   xmlns:sodipodi="http://sodipodi.sourceforge.net/DTD/sodipodi-0.dtd"
   xmlns="http://www.w3.org/2000/svg"
   xmlns:svg="http://www.w3.org/2000/svg">
  <defs
     id="defs39">
    <clipPath
       clipPathUnits="userSpaceOnUse"
       id="clipPath109">
      <path
         id="path110"
         style="fill:#ff0000;fill-opacity:1;fill-rule:nonzero;stroke:none"
         d="M 109.39768,0.46067 V 339.8884 H 442.15744 V 0.46067 Z m 78.62695,126.86914 c 0.0794,-0.009 0.20309,0.0227 0.38672,0.10742 0.19846,0.0916 0.37652,0.21864 0.55469,0.34375 0.0139,0.0101 0.0271,0.0211 0.041,0.0312 0.0162,-0.0317 0.0295,-0.069 0.0723,-0.0723 0.0408,-0.003 0.0916,0.0113 0.14844,0.0488 0.12713,0.0839 0.23812,0.1899 0.34765,0.29493 0.13919,0.14067 0.27452,0.2855 0.41211,0.42773 0.15464,0.15408 0.30109,0.31474 0.44532,0.47852 0.14587,0.16565 0.29337,0.33001 0.44726,0.48828 0.15511,0.15977 0.31264,0.31595 0.47461,0.46875 0.17397,0.16605 0.35507,0.32462 0.53125,0.48828 0.14321,0.13504 0.2991,0.25718 0.44727,0.38672 0.16722,0.1465 0.33702,0.28898 0.50586,0.43359 0.15617,0.13111 0.30663,0.26645 0.45312,0.4082 0.21633,0.20717 0.44361,0.40297 0.66602,0.60352 0.22155,0.20043 0.43647,0.40935 0.66015,0.60742 0.19005,0.16879 0.39194,0.32486 0.59571,0.47656 0.20364,0.1513 0.40414,0.30408 0.60351,0.46094 0.1705,0.13494 0.3378,0.27461 0.50781,0.41016 0.17289,0.14004 0.34108,0.28497 0.51172,0.42773 0.18823,0.16012 0.37526,0.32311 0.5625,0.48438 0.15934,0.1421 0.32456,0.27645 0.48438,0.41797 0.13814,0.12664 0.26888,0.2613 0.4082,0.38672 0.15083,0.13637 0.30249,0.27245 0.45898,0.40234 0.14435,0.12036 0.28833,0.23862 0.43555,0.35547 0.12064,0.0892 0.23846,0.18214 0.35742,0.27344 0.1051,0.081 0.21223,0.16128 0.32032,0.23828 0.1247,0.0892 0.25216,0.17266 0.38086,0.25586 0.11569,0.0686 0.22277,0.15025 0.33593,0.22265 0.0851,0.0497 0.16344,0.10982 0.24414,0.16602 0.0544,0.0346 0.11518,0.0592 0.17188,0.0898 0.23967,0.12941 0.10579,0.37357 -0.13281,0.24219 -0.0652,-0.0359 -0.13402,-0.0627 -0.19532,-0.10547 -0.0207,-0.0144 -0.0419,-0.0283 -0.0625,-0.043 0.009,0.01 0.018,0.0196 0.0274,0.0293 0.004,0.004 0.038,0.039 0.041,0.043 0.008,0.008 0.0145,0.0164 0.0215,0.0254 0.0169,0.0201 0.0252,0.0325 0.0351,0.0449 10e-4,8.9e-4 0.003,5.5e-4 0.004,0.002 0.17813,0.14292 0.35856,0.28216 0.53125,0.43164 1.22324,1.05889 0.0988,2.33468 -1.08008,1.22657 -0.1423,-0.13375 -0.3093,-0.24154 -0.45703,-0.36914 -0.0222,-0.0173 -0.046,-0.032 -0.0684,-0.0488 0.14925,0.14111 0.29831,0.28246 0.44727,0.42383 0.32471,0.30838 0.6452,0.62239 0.97461,0.92578 0.19948,0.17192 0.39938,0.34225 0.61328,0.49609 0.0456,0.0345 0.0931,0.069 0.13867,0.10352 2.28516,1.7274 1.56421,3.89027 -0.21484,3.92578 0.60803,1.78045 -1.1075,3.12818 -3.21094,1.70703 0.29595,0.36231 0.58548,0.73029 0.90429,1.07226 0.24157,0.25352 0.49852,0.48939 0.75586,0.72657 2.83256,2.61062 0.18684,5.47551 -2.64062,2.85937 -0.31212,-0.2888 -0.62232,-0.58078 -0.91602,-0.88867 -0.43994,0.13919 -1.00258,0.0344 -1.60351,-0.20898 0.12855,1.06355 -0.66206,1.78729 -1.78711,1.74023 -0.15587,0.84249 -0.97292,1.35142 -2.06055,1.18945 0.0392,0.17525 -0.0373,0.31214 -0.0449,0.47461 1.96635,1.93297 0.08,4.41178 -2.875,2.67383 -0.11235,-0.0661 -0.22555,-0.13115 -0.33789,-0.19727 -0.0571,-0.0357 -0.11303,-0.0734 -0.16992,-0.10937 0.0103,0.37097 -0.2115,0.65175 -0.57617,0.69336 -0.0202,0.61121 -0.76207,0.95319 -1.59961,0.25976 -0.35841,-0.29669 -0.71096,-0.60017 -1.05274,-0.91601 0.0536,0.3584 -0.15213,0.66213 -0.51367,0.75 0.2639,0.25036 0.51521,0.51396 0.78711,0.75586 0.17809,0.13686 0.33544,0.31387 0.53516,0.42187 1.42311,0.76961 0.50579,2.25888 -0.85938,1.39063 -0.17034,-0.10833 -0.33037,-0.23021 -0.48633,-0.35742 -0.23621,0.0885 -0.53468,0.0971 -0.91601,-0.12696 -0.0488,-0.0169 -0.0977,-0.0358 -0.14844,-0.0586 -0.0157,-0.0113 -0.0271,-0.006 -0.043,-0.0176 -0.006,-0.004 -0.0117,-0.009 -0.0176,-0.0137 -0.0472,-0.0231 -0.094,-0.042 -0.14258,-0.0703 l -0.0684,-0.041 c -0.15501,-0.0933 -0.31696,-0.17341 -0.46679,-0.27539 -0.17238,-0.11266 -0.34502,-0.22727 -0.50977,-0.35156 -0.0291,0.0616 -0.11702,0.0965 -0.24023,0.041 -0.053,-0.0238 -0.0255,-0.0107 -0.082,-0.0371 -0.0923,-0.0457 -0.18439,-0.0931 -0.27149,-0.14843 -0.0936,-0.0646 -0.18493,-0.13289 -0.26953,-0.20899 -0.10577,-0.10217 -0.20091,-0.21183 -0.29101,-0.32812 -0.0856,-0.10428 -0.18527,-0.19505 -0.28907,-0.28125 -0.13692,-0.12013 -0.27822,-0.23407 -0.41406,-0.35547 -0.15088,-0.13618 -0.30346,-0.27263 -0.45312,-0.41016 -0.13804,-0.12694 -0.271,-0.2588 -0.4043,-0.39062 -0.0228,-0.0156 -0.0456,-0.0312 -0.0684,-0.0469 -0.15388,-0.10901 -0.31399,-0.20756 -0.46094,-0.32617 -0.1796,-0.13422 -0.36184,-0.26557 -0.54101,-0.40039 -0.19976,-0.15056 -0.39792,-0.30238 -0.58985,-0.46289 -0.15032,-0.12464 -0.29845,-0.25247 -0.44726,-0.37891 -0.13418,-0.11842 -0.27133,-0.23218 -0.40625,-0.34961 -0.007,-0.006 -0.0141,-0.0133 -0.0215,-0.0195 -0.015,-0.0125 -0.032,-0.0225 -0.0469,-0.0352 -0.0171,-0.0155 -0.0337,-0.0314 -0.0508,-0.0469 -0.11242,-0.0974 -0.22389,-0.1961 -0.33985,-0.28906 -0.20845,-0.17049 -0.41066,-0.34776 -0.61133,-0.52734 -0.17842,-0.15909 -0.36147,-0.3132 -0.54296,-0.46875 -0.19138,-0.16684 -0.38939,-0.32566 -0.57227,-0.50196 -0.20156,-0.19227 -0.39739,-0.39033 -0.59375,-0.58789 -0.15243,-0.15161 -0.30446,-0.30695 -0.47266,-0.4414 -0.15711,-0.1309 -0.31376,-0.25955 -0.4707,-0.39063 -0.16385,-0.14421 -0.33323,-0.28304 -0.5,-0.42383 -0.14282,-0.12908 -0.28825,-0.25269 -0.43359,-0.3789 -0.11166,-0.1 -0.22006,-0.2056 -0.33594,-0.30079 -0.11638,-0.0914 -0.23794,-0.17658 -0.35156,-0.27148 -0.11239,-0.0971 -0.2223,-0.19576 -0.33789,-0.28906 -0.15335,-0.13362 -0.30455,-0.27117 -0.45118,-0.41211 -0.16913,-0.1627 -0.33794,-0.32427 -0.49804,-0.4961 -0.1687,-0.19047 -0.31945,-0.39531 -0.47852,-0.59375 -0.21017,-0.26819 -0.42294,-0.53632 -0.59375,-0.83203 -0.14158,-0.2689 -0.26515,-0.54735 -0.31445,-0.84961 -0.057,-0.3493 -0.003,-0.48049 0.11523,-0.48828 0.17699,-0.0117 0.49473,0.25038 0.79492,0.46875 0.0552,-0.0144 0.0901,-0.0564 0.15235,-0.0586 0.15534,-0.006 0.35852,0.1167 0.54883,0.20117 0.0217,-0.0782 0.0232,-0.19232 0.006,-0.35351 -0.001,-0.0109 -0.007,-0.0436 -0.004,-0.0332 0.008,0.0256 0.0125,0.0522 0.0195,0.0781 0.0264,0.0942 0.0763,0.17867 0.12305,0.26367 0.0292,0.0456 0.0627,0.0885 0.0937,0.13281 0.0335,0.0217 0.0577,0.008 0.0918,0.0332 0.0433,0.0315 0.0887,0.0596 0.13282,0.0899 -0.0368,-0.0432 -0.0726,-0.0863 -0.10547,-0.13281 -0.0811,-0.1146 -0.1449,-0.24266 -0.2168,-0.36329 -0.82803,-1.3899 1.78203,1.08565 1.55078,-0.51562 -0.004,-0.0268 -0.0334,-0.0982 -0.0117,-0.082 0.004,0.003 0.008,0.008 0.0117,0.0117 -0.0185,-0.0338 -0.0381,-0.0631 -0.0566,-0.0977 -0.0251,-0.0467 -0.0426,-0.0962 -0.0644,-0.14453 -0.12291,-0.2698 -0.17208,-0.50966 -0.16797,-0.71484 -0.0819,-0.0846 -0.13986,-0.14045 -0.56445,-0.5586 -0.29605,-0.29155 -0.3223,-0.31382 -0.53516,-0.50781 -0.89686,-0.81732 -0.7084,-1.75654 -0.0156,-1.75977 0.23082,-10e-4 0.51881,0.10162 0.83984,0.34766 0.10303,0.079 0.21099,0.15268 0.30859,0.23828 0.37654,0.33034 0.92539,0.89636 1.25977,1.22852 0.0724,-0.0322 0.13387,-0.0818 0.2207,-0.0879 0.12452,-0.009 0.26575,0.0253 0.41016,0.0801 -0.0731,-0.0684 -0.13462,-0.12238 -0.22461,-0.20898 -0.15459,-0.14882 -0.13333,-0.12648 -0.20703,-0.20898 -1.76463,-1.97476 -1.06133,-3.85288 0.41601,-3.92774 0.0499,-0.003 0.10275,0.002 0.1543,0.004 -0.19383,-1.16551 0.44336,-2.04412 1.4707,-2.05664 0.24486,-0.003 0.50838,0.0455 0.78125,0.14453 -0.83225,-1.40242 -0.53694,-2.53666 0.32618,-2.91797 -0.76714,-1.25987 -0.32588,-1.84127 0.97851,-1.82617 0.5532,0.006 1.25077,0.11301 2.05469,0.30859 -0.0511,-0.0711 -0.10428,-0.1406 -0.15625,-0.21094 -2.28925,-3.09808 5.30958,1.40171 3.3789,-1.93164 -0.026,-0.045 -0.11386,-0.15284 -0.10156,-0.1582 0.002,-7.6e-4 0.005,-6.5e-4 0.0117,0.004 0.0908,0.0565 0.14455,0.15747 0.21875,0.23437 0.15212,0.15765 0.30502,0.31685 0.46094,0.4707 0.23167,0.22866 0.46459,0.45417 0.70117,0.67774 0.12785,0.12082 0.23837,0.21727 0.35742,0.32812 0.0112,-0.47391 -0.1574,-1.16685 -0.28711,-1.80273 -0.37623,-0.67036 -0.36555,-0.98572 -0.12695,-1.09375 -0.0135,-0.37283 0.0343,-0.65567 0.30273,-0.63086 0.18094,0.0167 0.44899,0.15295 0.83008,0.44727 0.1305,0.10078 0.26589,0.19491 0.39063,0.30273 0.0565,0.0489 0.10758,0.10337 0.16015,0.15625 0.92701,0.2853 1.90069,0.59958 2.16407,0.23438 -0.0241,-0.0254 -0.0482,-0.0509 -0.0723,-0.0762 -0.042,-0.0441 -0.0823,-0.0874 -0.125,-0.13086 -0.0249,-0.0253 -0.0565,-0.0461 -0.0781,-0.0742 -0.006,-0.008 0.0193,0.008 0.0293,0.0117 0.1795,0.0745 0.22066,0.005 0.3125,-0.0117 -0.009,-0.19287 -0.0901,-0.45451 -0.27344,-0.8125 -0.0155,-0.0302 -0.0315,-0.0607 -0.0449,-0.0918 -0.001,-0.002 0.004,-0.002 0.006,0 0.0284,0.0252 0.0544,0.054 0.082,0.0801 0.0754,0.0714 0.14857,0.14439 0.22657,0.21289 0.0748,0.0657 0.16344,0.1375 0.24609,0.20703 -0.0569,-0.48429 -0.32114,-1.14295 -0.10742,-1.18164 0.0691,-0.0125 0.19299,0.0427 0.39453,0.19531 0.0572,0.0433 0.11676,0.0849 0.17187,0.13086 0.0344,0.0287 0.0692,0.0611 0.10352,0.0937 -0.17132,-0.44629 -0.41907,-0.94458 -0.14844,-0.97461 z m 8.1543,7.12891 c 0.001,0.002 0.002,0.004 0.004,0.006 l 0.002,0.002 c 0.003,0.002 0.005,0.002 0.008,0.004 -0.005,-0.004 -0.009,-0.008 -0.0137,-0.0117 z m -19.5957,15.01172 c 0.0473,0.0554 0.0951,0.11074 0.14257,0.16601 0.0596,0.0444 0.11824,0.0902 0.17774,0.13477 -0.10715,-0.0998 -0.21329,-0.2008 -0.32031,-0.30078 z m 4.28125,8.33593 c 0.007,0.007 0.0126,0.0148 0.0195,0.0215 0.0301,0.0263 0.0642,0.0476 0.0957,0.0723 -0.0278,-0.0236 -0.0559,-0.047 -0.084,-0.0703 -0.0101,-0.008 -0.0216,-0.0153 -0.0312,-0.0234 z" />
    </clipPath>
    <clipPath
       clipPathUnits="userSpaceOnUse"
       id="clipPath78">
      <path
         id="path79"
         style="fill:#ff0000;fill-opacity:1;fill-rule:nonzero;stroke:none"
         d="M 74.828125,161.39844 V 506.61133 H 412.43359 V 161.39844 Z m 107.923825,93.03515 c 1.47171,-0.02 3.23559,0.86598 4.77149,3.02344 0.22486,0.31586 0.44012,0.63906 0.65625,0.96094 0.1577,0.21633 0.32984,0.42074 0.49804,0.62891 0.26964,0.31304 0.52188,0.64023 0.76954,0.9707 0.22335,0.28699 0.44615,0.57312 0.66015,0.86719 0.16797,0.23123 0.34305,0.45896 0.5293,0.67578 0.29958,0.33758 0.58939,0.68416 0.88476,1.02539 0.40669,0.47592 0.81515,0.94853 1.21094,1.43359 0.19616,0.23278 0.39476,0.46373 0.61328,0.67578 -0.0818,-0.0955 0.0167,0.008 0.0918,0.084 0.001,-6.3e-4 -0.004,-0.004 -0.002,-0.004 0.002,-2.9e-4 0.33143,0.2381 0.39453,0.2832 0.34111,0.24681 0.69668,0.47255 1.04883,0.70313 0.35009,0.23972 0.71304,0.45696 1.07031,0.68555 0.33125,0.21561 0.65807,0.43824 0.99023,0.65234 0.26572,0.16494 0.53524,0.32765 0.8125,0.47266 0.42951,0.24757 0.86318,0.48648 1.28907,0.74023 0.31017,0.17904 0.6178,0.3606 0.93164,0.5332 0.42417,0.2383 0.83945,0.49421 1.25195,0.75196 0.42688,0.27243 0.83574,0.56998 1.26172,0.84375 0.38698,0.23605 0.79023,0.44397 1.18945,0.6582 0.4761,0.24184 0.95008,0.48856 1.4375,0.70703 0.40397,0.17635 0.81196,0.34097 1.2207,0.50586 0.54474,0.213 1.09071,0.42485 1.63282,0.64453 0.69938,0.2887 1.41102,0.54463 2.13086,0.77735 1.22997,0.37864 2.46176,0.74911 3.69726,1.10937 1.13123,0.3227 2.26391,0.64249 3.40625,0.92383 0.7135,0.17427 1.44101,0.28394 2.16992,0.36914 0.86814,0.085 1.72969,0.20799 2.58985,0.35156 0.71072,0.13913 1.42941,0.22547 2.14648,0.32227 0.32041,0.0447 0.64077,0.0923 0.96094,0.13867 7.62454,1.1051 6.50733,8.80642 -1.11719,7.70117 -0.29802,-0.0432 -0.59633,-0.087 -0.89453,-0.12891 -0.56251,-0.0774 -1.12308,-0.1651 -1.68359,-0.2539 3.05881,2.93082 0.59181,7.33064 -5.10938,5.78711 -0.19432,0.32214 -0.39307,0.64703 -0.60351,0.9414 -0.20469,0.67817 -0.53152,1.32462 -0.76954,1.99414 -0.56111,0.7605 -1.02779,1.60069 -1.68359,2.28125 -0.86119,0.89369 -1.87133,1.65462 -2.95117,2.32422 -0.21432,0.33387 -0.46881,0.70985 -0.57617,0.86719 -1.16699,1.67214 -2.31102,3.36148 -3.39649,5.08789 -2.06317,3.26353 -4.05102,6.57568 -6.22265,9.76953 -1.22276,1.74307 -1.97243,2.86604 -3.3125,4.54688 -2.41288,3.02645 -5.13225,5.81682 -8.20313,8.17969 -0.72944,0.51506 -1.44037,1.05585 -2.1875,1.54492 -2.62459,1.71804 -5.65928,3.24137 -8.74414,3.90625 7.6791,6.66203 1.44285,16.73866 -10.7832,11.48633 -0.60725,-0.2609 -0.27472,-0.11488 -0.99414,-0.44727 -0.14484,-0.0727 -0.28668,-0.15437 -0.42969,-0.23242 -0.32697,0.14368 -0.75731,0.19542 -1.27539,0.10937 -0.38659,0.0481 -0.84523,-0.0735 -1.34375,-0.39648 -0.16097,-0.0609 -0.32059,-0.12454 -0.47852,-0.19336 -0.32773,-0.14531 -0.65588,-0.28715 -0.98047,-0.43945 -0.33269,-0.15432 -0.66622,-0.31028 -0.99218,-0.47852 -0.3414,-0.17363 -0.68729,-0.33765 -1.02344,-0.52148 -0.30732,-0.1653 -0.61309,-0.33417 -0.91797,-0.50391 -0.27059,-0.15346 -0.53812,-0.30974 -0.80664,-0.4668 -0.25521,-0.14898 -0.51027,-0.30107 -0.76367,-0.45312 -0.22895,-0.13573 -0.45869,-0.26779 -0.68945,-0.40039 -0.20856,-0.11093 -0.41891,-0.2203 -0.63672,-0.3125 -0.26131,-0.11192 -0.5221,-0.22551 -0.78321,-0.33789 -0.25253,-0.11073 -0.50426,-0.22078 -0.7539,-0.33789 -0.15657,-0.0758 -0.31074,-0.15963 -0.4668,-0.23633 -0.13932,-0.0658 -0.27879,-0.12726 -0.41797,-0.19336 -0.18246,-0.0892 -0.36808,-0.17513 -0.54492,-0.27539 -0.2352,-0.12668 -0.46809,-0.25519 -0.69727,-0.39258 -0.25144,-0.14347 -0.51208,-0.27273 -0.76367,-0.41602 -0.15994,-0.0869 -0.31843,-0.17724 -0.48633,-0.24804 -0.009,-0.004 -0.0126,-0.01 -0.0215,-0.0137 h -0.002 c -0.30795,-0.058 -0.64722,-0.19154 -1.00782,-0.41602 -0.0414,-0.0258 -0.0836,-0.0504 -0.125,-0.0762 -0.2846,-0.18756 -0.55629,-0.39383 -0.82031,-0.60938 -0.19775,-0.17013 -0.38964,-0.3472 -0.56054,-0.54297 -0.20913,-0.0948 -0.41952,-0.18667 -0.62696,-0.28515 -0.22478,-0.11498 -0.45385,-0.22336 -0.67578,-0.34375 -0.59047,-0.32027 -1.1473,-0.7035 -1.69141,-1.09571 -0.42448,-0.32334 -0.84117,-0.65598 -1.24414,-1.00585 -0.21274,-0.1855 -0.4267,-0.37058 -0.64062,-0.55469 -0.22534,-0.18779 -0.45448,-0.37184 -0.67578,-0.56446 -0.22214,-0.18963 -0.44128,-0.3818 -0.66602,-0.56835 -0.14782,-0.12658 -0.29669,-0.2528 -0.45117,-0.3711 -0.24359,-0.17935 -0.48442,-0.36163 -0.71094,-0.5625 -0.21571,-0.17753 -0.43727,-0.34819 -0.64844,-0.53125 -0.2341,-0.19945 -0.45978,-0.408 -0.67187,-0.63086 -0.13743,-0.13919 -0.27439,-0.27907 -0.41211,-0.41797 -0.005,-0.005 -0.0107,-0.009 -0.0156,-0.0137 -0.64742,-0.14812 -1.33433,-0.48236 -2.02149,-1.05469 -0.27752,-0.23114 -0.53986,-0.48016 -0.74805,-0.77734 -0.19314,-0.27992 -0.36666,-0.57309 -0.5039,-0.88477 -0.029,-0.0672 -0.0537,-0.11347 -0.082,-0.16601 -1.0147,-0.59392 -1.99386,-1.247 -2.84961,-2.06055 -0.7904,-0.75035 -1.58558,-1.4967 -2.31641,-2.30664 -0.63583,-0.68855 -1.25606,-1.39347 -1.90625,-2.06836 -0.59201,-0.59896 -1.25831,-1.10341 -1.95508,-1.57617 -0.0562,-0.0463 -0.15081,-0.0745 -0.16211,-0.14648 -0.007,-0.0424 0.0854,0.0127 0.12696,0.0234 0.25287,0.0651 0.27821,0.067 0.35547,0.082 -0.22858,-0.20413 -0.45538,-0.40959 -0.69141,-0.60546 -8.52237,-7.07252 -5.68597,-14.9389 1.06445,-15.2461 2.64147,-0.12021 5.88333,0.91672 9.27735,3.61133 0.62594,0.49696 1.18145,1.07743 1.79297,1.5918 0.49592,0.43136 1.01943,0.82817 1.5371,1.23242 0.0364,-0.56074 0.0642,-1.12209 0.11914,-1.68164 0.0735,-0.74867 0.18357,-1.74707 0.33985,-2.47852 0.0979,-0.45806 0.23856,-0.9063 0.35742,-1.35937 0.52618,-1.21554 0.49288,-1.33954 1.29102,-2.39844 0.2117,-0.28086 0.45953,-0.5334 0.70312,-0.78711 0.20736,-0.21598 0.42961,-0.41674 0.64844,-0.62109 0.61614,-0.57536 1.06888,-0.97129 1.70898,-1.54102 1.24108,-1.09119 2.48316,-2.18091 3.71094,-3.28711 1.71391,-1.54421 3.40811,-3.10834 5.13281,-4.64062 0.49613,-0.44652 0.99301,-0.89655 1.49024,-1.34375 0.0965,-0.11888 0.18561,-0.24331 0.2832,-0.36133 0.59903,-0.70253 1.18446,-1.41653 1.79688,-2.10742 2.20024,-2.48217 4.60129,-4.85464 7.15429,-6.99414 0.0966,-0.12582 0.1998,-0.24591 0.29492,-0.37305 1.30105,-1.65207 1.64989,-2.36014 3.38672,-2.42774 0.0247,-0.0169 0.0495,-0.0338 0.0742,-0.0508 0.79149,-1.1271 1.57229,-2.26195 2.34766,-3.40039 0.47536,-0.66837 0.92993,-1.35255 1.43164,-2.00195 0.0855,-0.11062 0.17598,-0.21726 0.26367,-0.32617 -2.54119,-2.44909 -2.38729,-4.96512 -0.78516,-6.14258 -0.017,-0.85485 0.20192,-1.67478 1.19336,-2.43359 1.07085,-0.81958 2.56685,-0.93981 3.91211,-1.03321 0.54621,-0.0379 1.01914,0.40547 1.50586,0.65625 0.48757,0.25123 2.10488,1.35555 2.47266,1.60157 0.0695,0.0483 0.13943,0.0963 0.20898,0.14453 -2.50161,-3.89256 -0.82854,-6.99635 1.875,-7.03321 z m -3.61523,7.30664 c 0.011,0.0278 0.034,0.0593 0.0586,0.0977 -0.005,-0.0129 -0.008,-0.0263 -0.0137,-0.0391 -0.004,-0.0108 -0.0131,-0.0546 -0.0371,-0.0586 -0.003,-4e-4 -0.009,-0.003 -0.008,0 z" />
    </clipPath>
    <clipPath
       clipPathUnits="userSpaceOnUse"
       id="clipPath81">
      <path
         id="path82"
         style="fill:#ff0000;fill-opacity:1;fill-rule:nonzero;stroke:none"
         d="M 96.994141,155.39844 V 481.11523 H 415.43359 V 155.39844 Z M 198.91406,268.94922 c 0.88969,-0.0125 1.9101,0.16231 3.03906,0.58008 1.97005,0.72899 3.95797,1.40637 5.95704,2.05078 0.68431,0.0659 1.37128,0.10444 2.05273,0.19922 1.328,0.19806 2.00207,0.27294 3.31445,0.5664 1.80452,0.40351 3.54997,1.01601 5.22852,1.78907 0.91215,0.41601 1.83869,0.82264 2.71484,1.3125 0.20456,0.11436 0.63538,0.11864 0.60938,0.35156 -8.1e-4,0.007 -0.003,0.0142 -0.004,0.0215 1.13224,0.61125 1.85945,1.3895 2.26758,2.20313 3.54235,2.98208 0.93282,7.82142 -5.19531,5.93164 -1.74847,-0.5392 -3.48391,-1.12446 -5.19141,-1.7832 -1.62576,-0.61929 -3.24472,-1.25493 -4.86719,-1.88282 -0.80294,0.40718 -1.61679,0.79232 -2.46875,1.08985 -0.2525,0.0919 -0.95025,0.34746 -1.21093,0.44336 -0.21875,0.0805 -0.57646,0.20771 -0.79493,0.31054 -0.17978,0.0846 -0.35543,0.17693 -0.53125,0.26953 -0.22431,0.11807 -0.44697,0.24268 -0.66992,0.36328 -2.64383,1.47844 -5.25715,3.00885 -7.91797,4.45704 -1.22724,0.67266 -2.45598,1.34295 -3.68554,2.01172 -0.0405,0.0465 -0.0879,0.10913 -0.12696,0.15234 -0.29357,0.3251 -0.61733,0.62257 -0.92578,0.93359 -0.87756,0.69679 -1.14763,0.98903 -2.1914,1.48242 -0.0525,0.0248 -0.10723,0.0411 -0.16016,0.0645 2.11569,1.13961 2.48846,4.44193 -1.02539,7.40039 -1.25561,1.05714 -2.51425,2.11327 -3.74805,3.19726 -0.24681,0.38599 -0.48544,0.77701 -0.74023,1.15821 0.31481,1.59149 0.59419,3.19072 0.86133,4.79101 0.13071,0.90783 0.3623,1.80052 0.47656,2.71094 0.0275,0.21924 0.0443,0.4403 0.0664,0.66016 -0.0292,1.03883 0.0427,1.41979 -0.45118,2.49609 -0.42653,0.92945 -1.07717,1.60672 -1.90234,2.18164 -0.73549,0.51244 -1.25349,0.64988 -2.0625,0.94727 -1.65246,0.4898 -3.40727,0.68423 -5.09961,0.26172 -0.38913,-0.0972 -0.76168,-0.25137 -1.14258,-0.37696 -0.3472,-0.17162 -0.70453,-0.32536 -1.04297,-0.51367 l -0.002,-0.002 c -3.10353,4.79187 -8.55821,1.67301 -6.24023,-4.90039 0.52279,-1.48255 0.99867,-2.9818 1.47265,-4.48047 0.7727,-2.53251 1.55277,-5.06424 2.24219,-7.6211 0.46537,-1.72591 0.59443,-2.32241 1.00781,-4.05468 0.24139,-1.03591 0.46861,-2.07456 0.69727,-3.11328 -0.1784,-0.49021 -0.31744,-0.99363 -0.51172,-1.47852 -0.26664,-0.63919 -0.52655,-1.28201 -0.80078,-1.91797 -0.86321,-2.00187 -1.80895,-3.96951 -2.92188,-5.8457 -3.71496,-6.26277 1.79978,-10.25698 5.80664,-5.13672 0.3079,-0.10327 0.61791,-0.19843 0.93555,-0.26367 0.33334,-0.0684 0.68005,0.027 1.01758,0.0703 0.7463,0.0957 1.85836,0.45061 2.50195,0.80273 0.42212,0.23095 0.80571,0.52464 1.20899,0.78711 0.36085,0.39646 0.78942,0.74155 1.08398,1.18946 0.54378,0.82685 0.8141,1.65628 0.92969,2.5 0.32093,0.17985 0.64679,0.34874 0.98437,0.49609 0.38076,0.1662 0.55474,0.21621 0.94141,0.3457 0.4163,0.12788 0.83412,0.25415 1.25586,0.36133 0.82598,-0.45573 1.65599,-0.90412 2.48437,-1.35547 0.53222,-0.71949 1.04788,-1.45235 1.56446,-2.18164 0.23451,-0.33107 0.4724,-0.65869 0.70898,-0.98828 0.87276,-1.17626 1.71233,-2.37925 2.63281,-3.51953 0.59055,-0.73159 0.7297,-0.86329 1.34961,-1.54297 0.74192,-0.7544 1.51477,-1.48452 2.36328,-2.11914 -0.36619,-1.98453 1.10057,-3.82466 3.85547,-3.86328 z m -56.91601,44.72656 c 0.24289,0.0125 0.54638,0.36458 0.95117,1.23242 0.0533,0.11431 0.12109,0.21897 0.18359,0.32813 0.0759,0.1323 0.0421,0.0848 0.0801,0.13476 0.11637,0.19471 0.21979,0.39642 0.32031,0.59961 4.65432,2.42695 0.50314,7.63132 -3.63867,4.18164 -0.27752,-0.23114 -0.53986,-0.48016 -0.74805,-0.77734 -0.19314,-0.27992 -0.36666,-0.57309 -0.5039,-0.88477 -0.0437,-0.10108 -0.0705,-0.13984 -0.12891,-0.2539 -0.13055,-0.21785 -0.25915,-0.43618 -0.3789,-0.66016 -0.001,-0.002 0.003,0.002 0.004,0.004 2.85366,3.38355 2.72569,-3.75469 3.8125,-3.90235 0.0157,-0.002 0.0307,-0.003 0.0469,-0.002 z m 1.62695,2.47852 c 0.0131,0.0265 0.0174,0.0347 0.0195,0.0391 0.008,-0.004 -0.002,-0.0184 -0.0195,-0.0391 z" />
    </clipPath>
    <clipPath
       clipPathUnits="userSpaceOnUse"
       id="clipPath84">
      <path
         id="path85"
         style="fill:#ff0000;fill-opacity:1;fill-rule:nonzero;stroke:none"
         d="M 77.828125,174.89648 V 500.61133 H 396.26758 V 174.89648 Z M 202.57227,270.4082 c 0.73763,0.0267 1.47445,0.12379 2.20117,0.27735 1.08817,0.22993 1.57993,0.42019 2.6582,0.76562 3.04317,1.07474 6.02938,2.30122 9.04492,3.44922 1.54973,0.59825 3.12542,1.12715 4.71289,1.61523 7.36401,2.26412 5.0711,9.70977 -2.29101,7.43946 -1.74847,-0.5392 -3.48391,-1.12446 -5.19141,-1.7832 -2.89652,-1.10335 -5.76714,-2.27475 -8.68555,-3.32032 -0.80804,-0.26945 -0.89895,-0.3189 -1.6582,-0.51172 -0.35276,-0.0896 -0.77302,-0.18768 -1.14258,-0.17968 -0.116,0.002 -0.2321,0.0226 -0.34765,0.0332 -0.53367,0.0976 -1.07393,0.20628 -1.5586,0.46094 -0.18763,0.11164 -0.28099,0.16254 -0.46093,0.28906 -0.51825,0.36437 -0.96944,0.81364 -1.42579,1.25 -0.38404,0.41435 -0.56623,0.59849 -0.92773,1.04492 -0.86334,1.06615 -1.64868,2.1966 -2.4668,3.29688 -0.68508,0.95323 -1.3466,1.92267 -2.04101,2.86914 -0.44051,0.6004 -1.06389,1.43458 -1.5586,1.98242 -0.29357,0.3251 -0.61733,0.62257 -0.92578,0.93359 -0.87756,0.69679 -1.14763,0.98903 -2.1914,1.48242 -0.0664,0.0314 -0.13605,0.051 -0.20313,0.0801 2.13592,1.12778 2.54415,4.4156 -0.98242,7.38477 -2.38357,2.00682 -4.77886,4.01004 -6.99219,6.20703 -0.36629,0.36359 -0.71356,0.74619 -1.07031,1.11914 -0.23376,0.26376 -0.47425,0.52301 -0.70313,0.79102 -0.76679,0.89793 -1.68022,2.32763 -3.07031,2.24023 -0.10396,-0.007 -0.15309,-0.0274 -0.25195,-0.0352 -0.0159,0.052 -0.031,0.10425 -0.0469,0.15625 -0.55691,1.75978 -1.10052,3.52802 -1.76171,5.25196 -2.75885,7.19331 -9.69296,4.14657 -7.13086,-3.11914 0.52279,-1.48255 0.99867,-2.9818 1.47265,-4.48047 0.7727,-2.53251 1.55277,-5.06424 2.24219,-7.6211 0.46537,-1.72591 0.59443,-2.32241 1.00781,-4.05468 0.67846,-2.91154 1.31848,-5.83216 1.85352,-8.77344 -0.0901,-0.083 -0.15725,-0.13454 -0.25781,-0.23047 -0.31452,-0.30002 -0.63138,-0.59952 -0.91407,-0.92969 -0.32714,-0.3821 -0.71777,-0.73917 -0.91211,-1.20312 -0.35667,-0.85149 -0.87744,-1.76739 -0.71289,-2.67578 0.21604,-1.19259 1.18087,-2.11746 1.77149,-3.17578 0.79185,-0.25584 1.56182,-0.60016 2.37695,-0.76758 0.33334,-0.0684 0.68005,0.027 1.01758,0.0703 0.7463,0.0957 1.85836,0.45061 2.50195,0.80273 0.42212,0.23095 0.80571,0.52464 1.20899,0.78711 0.36085,0.39646 0.78942,0.74155 1.08398,1.18946 0.54378,0.82685 0.8141,1.65628 0.92969,2.5 0.32093,0.17985 0.64679,0.34874 0.98437,0.49609 0.38076,0.1662 0.55474,0.21621 0.94141,0.3457 0.78658,0.24162 1.57554,0.48489 2.39453,0.58399 0.57951,0.007 0.17833,0.0824 0.24023,-0.0391 0.0102,-0.02 0.0459,-0.0264 0.0469,-0.0488 0.002,-0.0369 -0.0969,-0.0467 -0.0586,-0.10352 0.0532,-0.0788 0.13136,-0.13658 0.19726,-0.20508 0.095,-0.11141 0.19356,-0.21971 0.28516,-0.33398 0.78001,-0.97356 1.47876,-2.01218 2.19922,-3.0293 0.23451,-0.33107 0.4724,-0.65869 0.70898,-0.98828 0.87276,-1.17626 1.71233,-2.37925 2.63281,-3.51953 0.59055,-0.73159 0.7297,-0.86329 1.34961,-1.54297 0.75689,-0.76963 1.54526,-1.51476 2.41407,-2.1582 0.46986,-0.34799 0.62669,-0.43257 1.11328,-0.73828 1.03573,-0.61212 2.1684,-1.03777 3.33789,-1.3125 0.26555,-0.0624 0.53552,-0.10927 0.80273,-0.16407 0.73365,-0.1321 1.47135,-0.17705 2.20899,-0.15039 z m -29.51758,13.54492 c -0.078,-0.0299 -0.0475,0.16575 -0.0332,0.24805 0.0166,0.0959 0.0318,0.15308 0.0469,0.22461 0.005,-0.067 0.0155,-0.13404 0.0176,-0.20117 0.003,-0.0914 0.0541,-0.23879 -0.0312,-0.27149 z m 6.69726,7.41602 c -0.33417,1.63532 -0.69576,3.26514 -1.06836,4.89258 1.13798,-0.99065 2.28111,-1.97636 3.4336,-2.94727 0.49877,-0.42019 0.97498,-0.65881 1.45508,-0.92968 -0.0958,-0.0139 -0.19172,-0.0263 -0.28711,-0.043 -1.0702,-0.18666 -2.11123,-0.51227 -3.14649,-0.83399 -0.16808,-0.0598 -0.25856,-0.0936 -0.38672,-0.13867 z m -2.72461,11.50977 c -0.37856,1.35773 -0.77223,2.71123 -1.17968,4.06054 1.46118,1.18926 2.61927,1.57712 2.49023,-1.32812 -0.006,-0.1254 0.0161,-0.25354 -0.0156,-0.375 -0.31634,-1.21422 -0.59824,-1.88863 -1.29493,-2.35742 z m -35.02929,10.79687 c 0.24289,0.0125 0.54638,0.36458 0.95117,1.23242 0.0533,0.11431 0.12109,0.21897 0.18359,0.32813 0.0759,0.1323 0.0421,0.0848 0.0801,0.13476 0.11637,0.19471 0.21979,0.39642 0.32031,0.59961 4.65432,2.42695 0.50314,7.63132 -3.63867,4.18164 -0.27752,-0.23114 -0.53986,-0.48016 -0.74805,-0.77734 -0.19314,-0.27992 -0.36666,-0.57309 -0.5039,-0.88477 -0.0437,-0.10108 -0.0705,-0.13984 -0.12891,-0.2539 -0.13055,-0.21785 -0.25915,-0.43618 -0.3789,-0.66016 -0.001,-0.002 0.003,0.002 0.004,0.004 2.85366,3.38355 2.72569,-3.75469 3.8125,-3.90235 0.0157,-0.002 0.0307,-0.003 0.0469,-0.002 z m 1.62695,2.47852 c 0.0131,0.0265 0.0174,0.0347 0.0195,0.0391 0.008,-0.004 -0.002,-0.0184 -0.0195,-0.0391 z" />
    </clipPath>
  </defs>
  <sodipodi:namedview
     id="namedview39"
     pagecolor="#ffffff"
     bordercolor="#000000"
     borderopacity="0.25"
     inkscape:showpageshadow="2"
     inkscape:pageopacity="0.0"
     inkscape:pagecheckerboard="0"
     inkscape:deskcolor="#d1d1d1"
     inkscape:zoom="0.803091"
     inkscape:cx="286.39345"
     inkscape:cy="268.33821"
     inkscape:window-width="2560"
     inkscape:window-height="1371"
     inkscape:window-x="0"
     inkscape:window-y="0"
     inkscape:window-maximized="1"
     inkscape:current-layer="layer2" />
  <g
     inkscape:groupmode="layer"
     id="layer2"
     inkscape:label="Layer 1"
     transform="translate(-3,6)">
    <path
       id="rect1"
       style="fill:#784421;stroke-width:1.517"
       d="M 399.25217,42.857968 C 362.35023,7.8359283 304.16058,9.6526393 268.78239,46.929848 L 135.06266,187.82732 c -35.378203,37.27721 -34.15133,95.4809 2.75061,130.50294 36.90194,35.02205 95.09024,33.20674 130.46844,-4.07047 L 402.00144,173.36232 c 35.37819,-37.2772 34.15267,-95.482302 -2.74927,-130.504352 z m -40.63698,42.58846 c 21.6408,20.538352 19.2652,57.931822 -5.32555,83.842532 l -92.94607,97.93519 c -24.59075,25.91071 -61.80906,30.23646 -83.44986,9.69811 -21.64079,-20.53835 -19.26661,-57.93317 5.32413,-83.84388 l 92.94607,-97.935192 c 24.59075,-25.91071 61.81048,-30.23511 83.45128,-9.69676 z" />
    <path
       id="rect1-1"
       style="fill:#c87137;stroke-width:1.517"
       d="M 418.41819,23.360961 C 381.51626,-11.661079 323.3266,-9.8443667 287.94841,27.432834 L 154.22869,168.33031 c -35.3782,37.27721 -34.15133,95.4809 2.75061,130.50294 36.90194,35.02205 95.09024,33.20674 130.46844,-4.07047 L 421.16747,153.86531 c 35.37819,-37.2772 34.15267,-95.482302 -2.74928,-130.504349 z m -40.63698,42.588457 c 21.6408,20.53835 19.2652,57.931822 -5.32554,83.842532 l -92.94607,97.93519 c -24.59075,25.91071 -61.80906,30.23646 -83.44986,9.69811 -21.6408,-20.53835 -19.26661,-57.93317 5.32413,-83.84388 l 92.94607,-97.935192 c 24.59074,-25.91071 61.81048,-30.23511 83.45127,-9.69676 z" />
  </g>
  <g
     inkscape:groupmode="layer"
     id="layer3"
     inkscape:label="Layer 3"
     clip-path="url(#clipPath78)"
     style="fill:#87de87">
    <path
       id="rect1-2"
       style="fill:#217821;stroke-width:1.517"
       d="M 367.76729,200.01738 C 330.86535,164.99534 272.6757,166.81205 237.29751,204.08926 L 103.57778,344.98673 c -35.378201,37.27721 -34.151331,95.4809 2.75061,130.50294 36.90194,35.02205 95.09024,33.20674 130.46844,-4.07047 L 370.51656,330.52173 c 35.37819,-37.2772 34.15267,-95.4823 -2.74927,-130.50435 z m -40.63698,42.58846 c 21.6408,20.53835 19.2652,57.93182 -5.32555,83.84253 l -92.94607,97.93519 c -24.59075,25.91071 -61.80906,30.23646 -83.44986,9.69811 -21.64079,-20.53835 -19.26661,-57.93317 5.32413,-83.84388 l 92.94607,-97.93519 c 24.59075,-25.91071 61.81048,-30.23511 83.45128,-9.69676 z"
       transform="translate(-3,6)"
       clip-path="url(#clipPath84)" />
    <path
       id="rect1-1-7"
       style="fill:#2ca02c;stroke-width:1.517"
       d="m 386.93331,180.52037 c -36.90193,-35.02204 -95.09159,-33.20533 -130.46978,4.07187 L 122.74381,325.48972 c -35.378201,37.27721 -34.151331,95.4809 2.75061,130.50294 36.90194,35.02205 95.09024,33.20674 130.46844,-4.07047 L 389.68259,311.02472 c 35.37819,-37.2772 34.15267,-95.4823 -2.74928,-130.50435 z m -40.63698,42.58846 c 21.6408,20.53835 19.2652,57.93182 -5.32554,83.84253 l -92.94607,97.93519 c -24.59075,25.91071 -61.80906,30.23646 -83.44986,9.69811 -21.6408,-20.53835 -19.26661,-57.93317 5.32413,-83.84388 l 92.94607,-97.93519 c 24.59074,-25.91071 61.81048,-30.23511 83.45127,-9.69676 z"
       transform="translate(-3,6)"
       clip-path="url(#clipPath81)" />
  </g>
</svg>
