<svg enable-background="new 0 0 512 512" viewBox="0 0 512 512" xmlns="http://www.w3.org/2000/svg"><path d="m270.215 121.263h190.585c23.812 0 43.116 19.304 43.116 43.116v258.695c0 23.812-19.304 43.116-43.116 43.116h-409.6c-23.812 0-43.116-19.304-43.116-43.116v-301.811-32.337c0-23.812 19.304-43.116 43.116-43.116h144.033c17.247 0 32.836 10.279 39.63 26.131l15.538 36.255c3.397 7.928 11.19 13.067 19.814 13.067z" fill="#fe8332"/><path d="m40.421 412.295v-237.137c0-11.906 9.651-21.558 21.558-21.558h388.042c11.906 0 21.558 9.651 21.558 21.558v237.137c0 11.906-9.651 21.558-21.558 21.558h-388.042c-11.906 0-21.558-9.652-21.558-21.558z" fill="#fef184"/><path d="m270.215 121.263h190.585c23.812 0 43.116 19.304 43.116 43.116v258.695c0 23.812-19.304 43.116-43.116 43.116h-409.6c-23.812 0-43.116-19.304-43.116-43.116v-183.242c0-23.812 19.304-43.116 43.116-43.116h144.033c17.247 0 32.836-10.279 39.63-26.131l15.538-36.255c3.397-7.927 11.19-13.067 19.814-13.067z" fill="#feaf50"/><path d="m428.463 401.516h75.453v21.558c0 23.812-19.304 43.116-43.116 43.116h-409.6c-23.812 0-43.116-19.304-43.116-43.116v-21.558h355.705" fill="#fe9443"/><path d="m43.116 88.926c0-4.466 3.618-8.084 8.084-8.084h118.568c4.466 0 8.084 3.618 8.084 8.084s-3.618 8.084-8.084 8.084h-118.568c-4.466.001-8.084-3.618-8.084-8.084zm468.884 75.453v258.695c0 28.231-22.969 51.2-51.2 51.2h-409.6c-28.231 0-51.2-22.969-51.2-51.2v-183.242c0-1.299.049-2.586.144-3.862-.094-.495-.144-1.006-.144-1.528v-145.516c0-28.231 22.969-51.2 51.2-51.2h144.033c20.509 0 38.981 12.181 47.06 31.032l15.538 36.255c2.127 4.962 6.987 8.166 12.384 8.166h190.585c28.231 0 51.2 22.969 51.2 51.2zm-495.832 38.147c4.658-4.377 10.132-7.893 16.168-10.294v-17.074c0-16.344 13.298-29.642 29.642-29.642h174.832l6.159-14.37v-.001c1.633-3.809 3.999-7.149 6.893-9.881-2.894-2.732-5.26-6.072-6.893-9.881l-15.538-36.256c-5.527-12.898-18.166-21.231-32.199-21.231h-144.032c-19.317 0-35.032 15.715-35.032 35.032zm45.811-40.842c-7.43 0-13.474 6.044-13.474 13.474v13.544c.894-.047 1.79-.07 2.695-.07h144.033c14.033 0 26.671-8.333 32.199-21.231l2.449-5.716h-167.902zm433.853 2.695c0-19.317-15.715-35.032-35.032-35.032h-190.585c-5.397 0-10.258 3.206-12.384 8.167l-15.538 36.254c-8.08 18.85-26.552 31.032-47.061 31.032h-144.032c-19.317 0-35.032 15.715-35.032 35.032v153.6h369.179c4.466 0 8.084 3.618 8.084 8.084s-3.618 8.084-8.084 8.084h-369.179v13.474c0 19.317 15.715 35.032 35.032 35.032h409.6c19.317 0 35.032-15.715 35.032-35.032v-13.474h-78.147c-4.466 0-8.084-3.618-8.084-8.084s3.618-8.084 8.084-8.084h78.147z"/></svg>