<svg enable-background="new 0 0 512 512" viewBox="0 0 512 512" xmlns="http://www.w3.org/2000/svg"><g fill="#f2f2f2"><g transform="scale(-1)"><g fill-rule="evenodd"><path d="m-482.88254-506.02011h446.01709v77.32187h-446.01709z" fill="#666" stroke-width="1.0905"/><path d="m-473.75793-496.02423h426.74094v57.07578h-426.74094z" fill="#ccc" stroke-width=".916437"/><path d="m-483.11511-411.9173h446.01709v77.32187h-446.01709z" fill="#666" stroke-width="1.0905"/><path d="m-473.99054-401.92142h426.74094v57.07578h-426.74094z" fill="#ccc" stroke-width=".916437"/><path d="m-481.76419-320.14444h446.01709v77.32187h-446.01709z" fill="#666" stroke-width="1.0905"/><path d="m-472.63959-310.14856h426.74094v57.07578h-426.74094z" fill="#ccc" stroke-width=".916437"/></g><path d="m-302.9476-232.78784h91.62609v115.46206h-91.62609z" fill="#666" stroke-width="1.2011"/><path d="m-294.5336-225.61484h74.47742v98.46283h-74.47742z" fill="#ccc"/></g><g stroke-linejoin="round"><path d="m350.62703 176.91341-94.54786-.18875-94.54787-.18877 47.4374-81.786466 47.4374-81.78648 47.11046 81.97523z" fill="#666" stroke-width="1.43794"/><path d="m334.68945 169.04134-79.03401-.15778-79.03401-.15779 39.65365-68.36656 39.65365-68.366566 39.38036 68.524346z" fill="#ccc" stroke-width="1.202"/></g></g></svg>