<svg enable-background="new 0 0 512 512" viewBox="0 0 512 512" xmlns="http://www.w3.org/2000/svg"><g fill="#916f6f"><g fill="#916f6f" transform="translate(-593.83407 -150.70122)"><path d="m608.81982 202.17734h420.36508v315.96329h-420.36508z" fill="#80e5ff" stroke-width="1.81877"/><g stroke-width="1.517"><g fill="#ff0"><path d="m656.39897 238.61049-11.50449-.19045-6.67896 9.36916-3.37396-11.00028-10.97451-3.45684 9.41928-6.60809-.10366-11.5056 9.19538 6.91625 10.91044-3.65401-3.73621 10.88256z"/><path d="m712.74977 255.33964-11.48413-4.11267-9.89845 7.12882.36258-12.19294-9.8387-7.21106 11.70823-3.42299 3.81779-11.58549 6.8735 10.07742 12.19823.0508-7.46017 9.65118z"/><path d="m789.79193 251.81772-5.33865-4.21152-6.49591 2.01028 2.35566-6.37879-3.91923-5.55676 6.79452.2692 4.07369-5.44455 1.84359 6.54517 6.43692 2.19185-5.65513 3.77593z" transform="translate(2.801675 -9.338917)"/><path d="m857.58901 246.97506-7.01046-9.5807-11.86669.3436 6.94544-9.62794-3.99379-11.17971 11.30297 3.63031 9.39839-7.25305.0402 11.8716 9.80232 6.69708-11.27814 3.70674z"/><path d="m937.71281 249.17626-5.05613-8.26312-9.67336-.51936 6.29626-7.36211-2.49529-9.36041 8.94744 3.71308 8.13118-5.26568-.76643 9.65692 7.52063 6.10604-9.42112 2.25522z"/><path d="m981.29667 254.0189-1.917-8.50831-8.09573-3.24431 7.4995-4.45239.58381-8.70204 6.55195 5.75658 8.45654-2.13384-3.45018 8.01015 4.64262 7.38325-8.68427-.80603z"/><path d="m878.72053 279.99312-2.71367-6.15905-6.61209-1.25622 5.01904-4.48409-.84852-6.67667 5.8156 3.38773 6.08768-2.8702-1.4248 6.57783 4.61091 4.90279-6.69617.67759z"/><path d="m823.69043 268.54687-2.84644-5.76751-6.36483-.92487 4.60564-4.48938-1.08725-6.33911 5.69288 2.99292 5.69287-2.99292-1.08724 6.33911 4.60563 4.48938-6.36482.92487z"/><path d="m782.30781 283.95527 2.6623-9.13826-6.01858-7.37377 9.51371-.29188 5.15302-8.00263 3.21749 8.95788 9.20333 2.42787-7.52519 5.82815.53494 9.50314-7.86831-5.35589z" transform="translate(-42.025125 -18.989131)"/><path d="m703.06447 291.43938 1.72609-5.09006-3.21453-4.30755 5.37433.0687 3.10338-4.38829 1.59542 5.13251 5.13252 1.59543-4.3883 3.10338.0687 5.37432-4.30754-3.21452z" transform="translate(16.498753 27.394156)"/><path d="m653.31731 301.12469.67406-3.91882-2.8461-2.77692 3.93531-.56991 1.76151-3.56492 1.75811 3.5666 3.93477.57367-2.84875 2.7742.67031 3.91946-3.51873-1.85205z"/><path d="m640.55031 298.92346-5.32847-6.17263-8.10565.89011 4.22392-6.97512-3.35133-7.43387 7.93901 1.86176 6.03441-5.4845.68265 8.12575 7.0808 4.04427-7.5171 3.16023z"/><path d="m701.3035 308.60876-7.041-3.69738-7.03745 3.7041 1.34063-7.83893-5.69751-5.54839 7.86955-1.14735 3.5162-7.13319 3.52302 7.12983 7.87064 1.13983-5.6922 5.55383z" transform="translate(-31.44102 34.865289)"/><path d="m775.70419 307.7283-1.31079.64692-.2102 1.44655-1.02031-1.04673-1.44071.2471.68021-1.29384-.68021-1.29383 1.44071.2471 1.02031-1.04674.2102 1.44655z"/><path d="m848.34396 313.01117-22.22929.53835-12.15864 18.61715-7.38123-20.97494-21.46319-5.81054 17.66743-13.50158-1.10634-22.20826 18.3003 12.6305 20.77944-7.91492-6.35722 21.30767z" transform="translate(-2.490378 19.300428)"/><path d="m899.85208 295.8418-7.46307 2.05317-2.53957 7.31187-4.2589-6.46333-7.73877-.15578 4.83092-6.04774-2.24325-7.40815 7.24457 2.72563 6.35237-4.42271-.35353 7.73227z" transform="translate(21.790806 11.517997)"/><path d="m953.56149 294.52105-6.65624-2.25719-5.63294 4.2036.0898-7.02796-5.73855-4.05826 6.71176-2.08633 2.08632-6.71175 4.05826 5.73854 7.02797-.0898-4.20361 5.63295z" transform="translate(15.253564 12.763186)"/><path d="m993.62341 290.5589-8.2224-2.7883-6.95834 5.19269.11096-8.6816-7.08879-5.01315 8.29099-2.57723 2.57723-8.29098 5.01314 7.08879 8.68161-.11097-5.19269 6.95834z"/><path d="m739.16423 301.56492 1.74645-9.01228-6.43401-6.54788 9.11086-1.12398 4.23919-8.14251 3.88438 8.31762 9.05397 1.51553-6.71019 6.26455 1.35648 9.07916-8.0315-4.44592z"/></g><path d="m608.74176 414.9592h420.47924v103.17697h-420.47924z" fill="#9f5"/><path d="m941.23468 383.00946h17.16939v76.16165h-17.16939z" fill="#916f6f"/><path d="m977.7747 372.66379a29.055889 27.074806 0 0 1 -29.05589 27.0748 29.055889 27.074806 0 0 1 -29.05589-27.0748 29.055889 27.074806 0 0 1 29.05589-27.07481 29.055889 27.074806 0 0 1 29.05589 27.07481z" fill="#0a0"/><path d="m688.31384 396.89252h17.16939v76.16165h-17.16939z" fill="#916f6f"/><path d="m724.85386 386.54684a29.055889 27.074806 0 0 1 -29.05589 27.07481 29.055889 27.074806 0 0 1 -29.05589-27.07481 29.055889 27.074806 0 0 1 29.05589-27.0748 29.055889 27.074806 0 0 1 29.05589 27.0748z" fill="#0a0"/><path d="m813.66376 405.13757h17.16939v76.16165h-17.16939z" fill="#916f6f"/><path d="m850.20378 394.7919a29.055889 27.074806 0 0 1 -29.05589 27.07481 29.055889 27.074806 0 0 1 -29.05589-27.07481 29.055889 27.074806 0 0 1 29.05589-27.07481 29.055889 27.074806 0 0 1 29.05589 27.07481z" fill="#0a0"/><path d="m868.48236 363.91229h17.16939v76.16165h-17.16939z" fill="#916f6f"/><path d="m905.02238 353.56662a29.055889 27.074806 0 0 1 -29.05589 27.07481 29.055889 27.074806 0 0 1 -29.05589-27.07481 29.055889 27.074806 0 0 1 29.05589-27.07481 29.055889 27.074806 0 0 1 29.05589 27.07481z" fill="#0a0"/><path d="m749.2287 370.57782h17.16939v76.16165h-17.16939z" fill="#916f6f"/><path d="m785.76872 360.23215a29.055889 27.074806 0 0 1 -29.05589 27.0748 29.055889 27.074806 0 0 1 -29.05589-27.0748 29.055889 27.074806 0 0 1 29.05589-27.07481 29.055889 27.074806 0 0 1 29.05589 27.07481z" fill="#0a0"/></g></g><path d="m446.67269 65.419978c0-13.851-11.268-25.119-25.119-25.119h-393.353004c-13.850999 0-25.1189996 11.268-25.1189996 25.119v290.739002c0 13.851 11.2680006 25.119 25.1189996 25.119h393.353004c13.851 0 25.119-11.268 25.119-25.119zm-25.119 299.825002h-393.353004c-5.01 0-9.085999-4.076-9.085999-9.086v-290.739002c0-5.01 4.075999-9.086 9.085999-9.086h393.353004c5.01 0 9.086 4.076 9.086 9.086v290.739002c-.001 5.01-4.076 9.086-9.086 9.086z" fill="#000"/></g><g fill="#916f6f" transform="translate(-533.65979 -23.934643)"><path d="m608.81982 202.17734h420.36508v315.96329h-420.36508z" fill="#80e5ff" stroke-width="1.81877"/><g stroke-width="1.517"><g fill="#ff0"><path d="m656.39897 238.61049-11.50449-.19045-6.67896 9.36916-3.37396-11.00028-10.97451-3.45684 9.41928-6.60809-.10366-11.5056 9.19538 6.91625 10.91044-3.65401-3.73621 10.88256z"/><path d="m712.74977 255.33964-11.48413-4.11267-9.89845 7.12882.36258-12.19294-9.8387-7.21106 11.70823-3.42299 3.81779-11.58549 6.8735 10.07742 12.19823.0508-7.46017 9.65118z"/><path d="m789.79193 251.81772-5.33865-4.21152-6.49591 2.01028 2.35566-6.37879-3.91923-5.55676 6.79452.2692 4.07369-5.44455 1.84359 6.54517 6.43692 2.19185-5.65513 3.77593z" transform="translate(2.801675 -9.338917)"/><path d="m857.58901 246.97506-7.01046-9.5807-11.86669.3436 6.94544-9.62794-3.99379-11.17971 11.30297 3.63031 9.39839-7.25305.0402 11.8716 9.80232 6.69708-11.27814 3.70674z"/><path d="m937.71281 249.17626-5.05613-8.26312-9.67336-.51936 6.29626-7.36211-2.49529-9.36041 8.94744 3.71308 8.13118-5.26568-.76643 9.65692 7.52063 6.10604-9.42112 2.25522z"/><path d="m981.29667 254.0189-1.917-8.50831-8.09573-3.24431 7.4995-4.45239.58381-8.70204 6.55195 5.75658 8.45654-2.13384-3.45018 8.01015 4.64262 7.38325-8.68427-.80603z"/><path d="m878.72053 279.99312-2.71367-6.15905-6.61209-1.25622 5.01904-4.48409-.84852-6.67667 5.8156 3.38773 6.08768-2.8702-1.4248 6.57783 4.61091 4.90279-6.69617.67759z"/><path d="m823.69043 268.54687-2.84644-5.76751-6.36483-.92487 4.60564-4.48938-1.08725-6.33911 5.69288 2.99292 5.69287-2.99292-1.08724 6.33911 4.60563 4.48938-6.36482.92487z"/><path d="m782.30781 283.95527 2.6623-9.13826-6.01858-7.37377 9.51371-.29188 5.15302-8.00263 3.21749 8.95788 9.20333 2.42787-7.52519 5.82815.53494 9.50314-7.86831-5.35589z" transform="translate(-42.025125 -18.989131)"/><path d="m703.06447 291.43938 1.72609-5.09006-3.21453-4.30755 5.37433.0687 3.10338-4.38829 1.59542 5.13251 5.13252 1.59543-4.3883 3.10338.0687 5.37432-4.30754-3.21452z" transform="translate(16.498753 27.394156)"/><path d="m653.31731 301.12469.67406-3.91882-2.8461-2.77692 3.93531-.56991 1.76151-3.56492 1.75811 3.5666 3.93477.57367-2.84875 2.7742.67031 3.91946-3.51873-1.85205z"/><path d="m640.55031 298.92346-5.32847-6.17263-8.10565.89011 4.22392-6.97512-3.35133-7.43387 7.93901 1.86176 6.03441-5.4845.68265 8.12575 7.0808 4.04427-7.5171 3.16023z"/><path d="m701.3035 308.60876-7.041-3.69738-7.03745 3.7041 1.34063-7.83893-5.69751-5.54839 7.86955-1.14735 3.5162-7.13319 3.52302 7.12983 7.87064 1.13983-5.6922 5.55383z" transform="translate(-31.44102 34.865289)"/><path d="m775.70419 307.7283-1.31079.64692-.2102 1.44655-1.02031-1.04673-1.44071.2471.68021-1.29384-.68021-1.29383 1.44071.2471 1.02031-1.04674.2102 1.44655z"/><path d="m848.34396 313.01117-22.22929.53835-12.15864 18.61715-7.38123-20.97494-21.46319-5.81054 17.66743-13.50158-1.10634-22.20826 18.3003 12.6305 20.77944-7.91492-6.35722 21.30767z" transform="translate(-2.490378 19.300428)"/><path d="m899.85208 295.8418-7.46307 2.05317-2.53957 7.31187-4.2589-6.46333-7.73877-.15578 4.83092-6.04774-2.24325-7.40815 7.24457 2.72563 6.35237-4.42271-.35353 7.73227z" transform="translate(21.790806 11.517997)"/><path d="m953.56149 294.52105-6.65624-2.25719-5.63294 4.2036.0898-7.02796-5.73855-4.05826 6.71176-2.08633 2.08632-6.71175 4.05826 5.73854 7.02797-.0898-4.20361 5.63295z" transform="translate(15.253564 12.763186)"/><path d="m993.62341 290.5589-8.2224-2.7883-6.95834 5.19269.11096-8.6816-7.08879-5.01315 8.29099-2.57723 2.57723-8.29098 5.01314 7.08879 8.68161-.11097-5.19269 6.95834z"/><path d="m739.16423 301.56492 1.74645-9.01228-6.43401-6.54788 9.11086-1.12398 4.23919-8.14251 3.88438 8.31762 9.05397 1.51553-6.71019 6.26455 1.35648 9.07916-8.0315-4.44592z"/></g><path d="m608.74176 414.9592h420.47924v103.17697h-420.47924z" fill="#9f5"/><path d="m941.23468 383.00946h17.16939v76.16165h-17.16939z" fill="#916f6f"/><path d="m977.7747 372.66379a29.055889 27.074806 0 0 1 -29.05589 27.0748 29.055889 27.074806 0 0 1 -29.05589-27.0748 29.055889 27.074806 0 0 1 29.05589-27.07481 29.055889 27.074806 0 0 1 29.05589 27.07481z" fill="#0a0"/><path d="m688.31384 396.89252h17.16939v76.16165h-17.16939z" fill="#916f6f"/><path d="m724.85386 386.54684a29.055889 27.074806 0 0 1 -29.05589 27.07481 29.055889 27.074806 0 0 1 -29.05589-27.07481 29.055889 27.074806 0 0 1 29.05589-27.0748 29.055889 27.074806 0 0 1 29.05589 27.0748z" fill="#0a0"/><path d="m813.66376 405.13757h17.16939v76.16165h-17.16939z" fill="#916f6f"/><path d="m850.20378 394.7919a29.055889 27.074806 0 0 1 -29.05589 27.07481 29.055889 27.074806 0 0 1 -29.05589-27.07481 29.055889 27.074806 0 0 1 29.05589-27.07481 29.055889 27.074806 0 0 1 29.05589 27.07481z" fill="#0a0"/><path d="m868.48236 363.91229h17.16939v76.16165h-17.16939z" fill="#916f6f"/><path d="m905.02238 353.56662a29.055889 27.074806 0 0 1 -29.05589 27.07481 29.055889 27.074806 0 0 1 -29.05589-27.07481 29.055889 27.074806 0 0 1 29.05589-27.07481 29.055889 27.074806 0 0 1 29.05589 27.07481z" fill="#0a0"/><path d="m749.2287 370.57782h17.16939v76.16165h-17.16939z" fill="#916f6f"/><path d="m785.76872 360.23215a29.055889 27.074806 0 0 1 -29.05589 27.0748 29.055889 27.074806 0 0 1 -29.05589-27.0748 29.055889 27.074806 0 0 1 29.05589-27.07481 29.055889 27.074806 0 0 1 29.05589 27.07481z" fill="#0a0"/></g></g><path d="m509.58326 191.15597c0-13.851-11.268-25.119-25.119-25.119h-393.352999c-13.850999 0-25.119 11.268-25.119 25.119v290.739c0 13.851 11.268001 25.119 25.119 25.119h393.352999c13.851 0 25.119-11.268 25.119-25.119zm-25.119 299.825h-393.352999c-5.01 0-9.085999-4.076-9.085999-9.086v-290.739c0-5.01 4.075999-9.086 9.085999-9.086h393.352999c5.01 0 9.086 4.076 9.086 9.086v290.739c-.001 5.01-4.076 9.086-9.086 9.086z"/></svg>