<svg enable-background="new 0 0 512 512" viewBox="0 0 512 512" xmlns="http://www.w3.org/2000/svg"><path d="m110.63 427.023h359.148c4.722 0 8.551-3.829 8.551-8.551v-256.535c0-4.722-3.829-8.551-8.551-8.551h-359.148c-4.722 0-8.551 3.829-8.551 8.551v256.534c0 4.723 3.829 8.552 8.551 8.552z" fill="#e4eaf8"/><path d="m110.63 153.386c-4.722 0-8.551 3.829-8.551 8.551v247.983h324.944c18.891 0 34.205-15.314 34.205-34.205v-222.33h-350.598z" fill="#c7cfe2"/><path d="m418.472 384.267h-393.353c-9.446 0-17.102-7.656-17.102-17.102v-290.739c0-9.446 7.656-17.102 17.102-17.102h393.353c9.446 0 17.102 7.656 17.102 17.102v290.739c0 9.446-7.656 17.102-17.102 17.102z" fill="#e4eaf8"/><path d="m400.864 358.079h-358.137c-4.706 0-8.522-3.816-8.522-8.522v-255.523c0-4.706 3.816-8.522 8.522-8.522h358.137c4.706 0 8.522 3.816 8.522 8.522v255.523c0 4.706-3.816 8.522-8.522 8.522z" fill="#4dd5ff"/><circle cx="102.079" cy="153.386" fill="#8be4ff" r="59.858"/><circle cx="102.079" cy="153.386" fill="#fff" r="34.205"/><path d="m225.106 191.115c-6.656-6.656-17.446-6.656-24.102 0l-164.4 164.401c1.542 1.542 3.673 2.496 6.025 2.496h238.597v-110.777z" fill="#81deb6"/><path d="m409.221 349.551v-144.986l-43.375-43.375c-6.661-6.661-17.461-6.661-24.123 0l-196.888 196.889h255.857c4.71 0 8.529-3.818 8.529-8.528z" fill="#b4e66e"/><path d="m444.122 119.716h-.531v-43.29c0-13.851-11.268-25.119-25.119-25.119h-393.353c-13.851 0-25.119 11.268-25.119 25.119v290.739c0 13.851 11.268 25.119 25.119 25.119h43.29v.534c0 4.427 3.589 8.017 8.017 8.017s8.017-3.589 8.017-8.017v-.534h334.029c13.851 0 25.119-11.268 25.119-25.119v-231.416h.531c4.427 0 8.017-3.589 8.017-8.017 0-4.427-3.59-8.016-8.017-8.016zm-25.65 256.535h-393.353c-5.01 0-9.086-4.076-9.086-9.086v-290.739c0-5.01 4.076-9.086 9.086-9.086h393.353c5.01 0 9.086 4.076 9.086 9.086v290.739c-.001 5.01-4.076 9.086-9.086 9.086z"/><path d="m381.025 444.66h-17.004c-4.427 0-8.017 3.589-8.017 8.017 0 4.427 3.589 8.017 8.017 8.017h17.004c4.427 0 8.017-3.589 8.017-8.017s-3.589-8.017-8.017-8.017z"/><path d="m432.036 444.66h-17.004c-4.427 0-8.017 3.589-8.017 8.017 0 4.427 3.589 8.017 8.017 8.017h17.004c4.427 0 8.017-3.589 8.017-8.017s-3.59-8.017-8.017-8.017z"/><path d="m84.443 435.574v-8.695c0-4.427-3.589-8.017-8.017-8.017s-8.017 3.589-8.017 8.017v8.698c0 4.081 1.005 8.138 2.903 11.729 1.438 2.719 4.218 4.271 7.094 4.271 1.263 0 2.545-.299 3.74-.931 3.914-2.069 5.41-6.92 3.34-10.834-.692-1.312-1.043-2.737-1.043-4.238z"/><path d="m330.014 444.66h-17.004c-4.427 0-8.017 3.589-8.017 8.017 0 4.427 3.589 8.017 8.017 8.017h17.004c4.427 0 8.017-3.589 8.017-8.017s-3.589-8.017-8.017-8.017z"/><path d="m503.983 152.202c-4.427 0-8.017 3.589-8.017 8.017v17.004c0 4.427 3.589 8.017 8.017 8.017 4.427 0 8.017-3.589 8.017-8.017v-17.004c0-4.428-3.589-8.017-8.017-8.017z"/><path d="m176.982 444.66h-17.004c-4.427 0-8.017 3.589-8.017 8.017 0 4.427 3.589 8.017 8.017 8.017h17.004c4.427 0 8.017-3.589 8.017-8.017s-3.59-8.017-8.017-8.017z"/><path d="m227.993 444.66h-17.004c-4.427 0-8.017 3.589-8.017 8.017 0 4.427 3.589 8.017 8.017 8.017h17.004c4.427 0 8.017-3.589 8.017-8.017s-3.59-8.017-8.017-8.017z"/><path d="m279.004 444.66h-17.004c-4.427 0-8.017 3.589-8.017 8.017 0 4.427 3.589 8.017 8.017 8.017h17.004c4.427 0 8.017-3.589 8.017-8.017-.001-4.428-3.59-8.017-8.017-8.017z"/><path d="m503.983 305.234c-4.427 0-8.017 3.589-8.017 8.017v17.004c0 4.427 3.589 8.017 8.017 8.017 4.427 0 8.017-3.589 8.017-8.017v-17.004c0-4.427-3.589-8.017-8.017-8.017z"/><path d="m503.983 407.256c-4.427 0-8.017 3.589-8.017 8.017v17.004c0 4.427 3.589 8.017 8.017 8.017 4.427 0 8.017-3.589 8.017-8.017v-17.004c0-4.428-3.589-8.017-8.017-8.017z"/><path d="m503.983 356.245c-4.427 0-8.017 3.589-8.017 8.017v17.004c0 4.427 3.589 8.017 8.017 8.017 4.427 0 8.017-3.589 8.017-8.017v-17.004c0-4.428-3.589-8.017-8.017-8.017z"/><path d="m125.971 444.66h-17.004c-4.427 0-8.017 3.589-8.017 8.017 0 4.427 3.589 8.017 8.017 8.017h17.004c4.427 0 8.017-3.589 8.017-8.017s-3.589-8.017-8.017-8.017z"/><path d="m501.914 133.404c2.057-3.921.545-8.767-3.376-10.824-3.573-1.874-7.604-2.865-11.657-2.865h-8.752c-4.427 0-8.017 3.589-8.017 8.017 0 4.427 3.589 8.017 8.017 8.017h8.752c1.49 0 2.906.346 4.209 1.03 1.189.623 2.462.919 3.718.919 2.885 0 5.673-1.562 7.106-4.294z"/><path d="m483.047 444.66h-17.004c-4.427 0-8.017 3.589-8.017 8.017 0 4.427 3.589 8.017 8.017 8.017h17.004c4.427 0 8.017-3.589 8.017-8.017s-3.59-8.017-8.017-8.017z"/><path d="m503.983 203.213c-4.427 0-8.017 3.589-8.017 8.017v17.003c0 4.427 3.589 8.017 8.017 8.017 4.427 0 8.017-3.589 8.017-8.017v-17.003c0-4.428-3.589-8.017-8.017-8.017z"/><path d="m503.983 254.223c-4.427 0-8.017 3.589-8.017 8.017v17.004c0 4.427 3.589 8.017 8.017 8.017 4.427 0 8.017-3.589 8.017-8.017v-17.004c0-4.427-3.589-8.017-8.017-8.017z"/><path d="m372.1 155.535c-4.744-4.744-11.051-7.357-17.762-7.357s-13.018 2.613-17.762 7.357l-154.654 154.655c-3.131 3.131-3.131 8.206 0 11.337s8.207 3.131 11.337 0l154.655-154.654c1.716-1.716 3.998-2.662 6.424-2.662s4.708.945 6.424 2.662l32.591 32.591v142.583h-331.778l145.245-145.246c1.716-1.716 3.998-2.662 6.424-2.662s4.708.945 6.424 2.662l22.112 22.111c3.131 3.131 8.207 3.131 11.337 0 3.131-3.131 3.131-8.207 0-11.337l-22.112-22.111c-4.744-4.744-11.051-7.357-17.762-7.357s-13.018 2.613-17.762 7.357l-158.928 158.93c-2.293 2.293-2.979 5.741-1.738 8.736s4.164 4.949 7.406 4.949h359.149c4.427 0 8.017-3.589 8.017-8.017v-153.92c0-2.126-.844-4.165-2.348-5.668z"/><path d="m102.079 195.608c23.281 0 42.221-18.941 42.221-42.221s-18.941-42.221-42.221-42.221-42.221 18.941-42.221 42.221 18.941 42.221 42.221 42.221zm0-68.41c14.44 0 26.188 11.748 26.188 26.188s-11.748 26.188-26.188 26.188-26.188-11.748-26.188-26.188c0-14.439 11.749-26.188 26.188-26.188z"/></svg>