<svg enable-background="new 0 0 256 256" viewBox="0 0 256 256" xmlns="http://www.w3.org/2000/svg"><g fill="#666" stroke="#000" stroke-width="5.58778" transform="matrix(.56677211 0 0 .56677211 -14.277154 -16.497594)"><path d="m259.96 178.63c-116.38.46054-107.06377 153.87075-2.15007 156.52075 110.82-2.14571 105.88377-156.93075 2.15007-156.52075zm-4.5114 238.17-59.661 58.623c-3.663 4.3684-9.9047 5.5348-14.898 2.784l-79.778-46.06c-4.7847-2.888-6.9422-8.6968-5.203-14.008l22.977-56.917c-9.1283-11.972-16.619-25.108-22.274-39.06l-61.08-8.7064c-5.5804-.89998-9.7077-5.679-9.7856-11.331l-.13413-91.888c-.02721-5.6801 4.0661-10.543 9.6676-11.485l61.227-8.6679c2.8571-7.0258 6.169-13.858 9.9147-20.453 3.7735-6.4529 7.9798-12.643 12.59-18.527l-23.107-57.358c-1.985-5.3221.17966-11.298 5.1124-14.115l79.649-45.836c4.933-2.7634 11.138-1.5821 14.711 2.8005l64.76902 73.24375c-.24625 162.29925-1.78785 213.93076-1.40214 304.76227z" fill="#f9f9f9" stroke-width="12.4689"/><path d="m252.44492 177.37224c109.2184.46095 100.47545 154.00801 2.01776 156.66037-104.00054-2.14762-99.36808-157.07073-2.01776-156.66037zm4.23379 238.38246 55.98968 58.6753c3.43759 4.3723 9.29519 5.53974 13.98122 2.78648l74.86875-46.10109c4.49028-2.89058 6.51501-8.70456 4.88283-14.0205l-21.56307-56.96777c8.56658-11.98268 15.59632-25.1304 20.90333-39.09485l57.32136-8.71415c5.23702-.90078 9.11033-5.68406 9.18343-11.34111l.12588-91.96997c.0254-5.68517-3.81588-10.55241-9.07269-11.49525l-57.45931-8.67563c-2.68129-7.03206-5.78938-13.87037-9.30458-20.47125-3.54129-6.45865-7.48877-12.65427-11.81526-18.54353l21.68507-57.409153c1.86285-5.326848-.1686-11.308078-4.79781-14.127591l-74.74768-45.876887c-4.62944-2.765866-10.4526-1.583512-13.80575 2.802997l-60.78336 73.309074c.23109 162.44404 1.67783 214.1216 1.31585 305.03414z" fill="#b3b3b3" stroke-width="12.0845"/></g></svg>