<svg viewBox="0 0 64 64" xmlns="http://www.w3.org/2000/svg"><rect fill="#01579b" height="50.951322" ry="12.54525" stroke-width="2.145086" width="50.951322" x="13.070506" y=".265685"/><rect fill="#fff" height="39.396483" ry="9.700215" stroke-width="1.65862" width="39.396483" x="18.710069" y="6.273244"/><g transform="matrix(1.2071401 0 0 1.2071401 .132098 -12.600551)"><path d="m10.474483 21.757364h21.357769c5.739878 0 10.360791 4.620913 10.360791 10.360791v21.357769c0 5.739877-4.620913 10.36079-10.360791 10.36079h-21.357769c-5.7398775 0-10.36079-4.620913-10.36079-10.36079v-21.357769c0-5.739878 4.6209125-10.360791 10.36079-10.360791z" fill="#01579b" stroke-width="1.77157"/><path d="m12.782408 26.718843h16.514212c4.438178 0 8.011151 3.572974 8.011151 8.011152v16.514211c0 4.438178-3.572973 8.011152-8.011151 8.011152h-16.514212c-4.4381776 0-8.0111511-3.572974-8.0111511-8.011152v-16.514211c0-4.438178 3.5729735-8.011152 8.0111511-8.011152z" fill="#fff" stroke-width="1.36981"/><path d="m11.592702 42.761552q.927383 0 1.402964 1.521859.951162 2.853487 1.355406 2.853487.309128 0 .642035-.475581 6.681914-9.820749 12.365107-13.982083 2.401685-1.75965 4.684474-1.75965 3.01994 0 3.638195.190232.26157.07134.26157.594476 0 .428023-.546919 1.070058-15.289931 17.548941-18.214754 22.827891-.998721 1.807208-4.613137 1.807208-1.188952 0-2.4968-.618255-.5469185-.285349-1.9023245-3.638196-1.7120919-4.232671-1.7120919-7.419064 0-1.165174 1.6645338-1.926104 2.2827886-1.046278 3.4241836-1.046278 0 0 .04756 0z" fill="#f00" stroke-width=".184693"/></g></svg>