<svg enable-background="new 0 0 512 512" viewBox="0 0 512 512" xmlns="http://www.w3.org/2000/svg"><circle cx="255.998" cy="255.998" fill="#008000" r="245.419"/><path d="m256.001 512c-141.16 0-256.001-114.841-256.001-256.001 0-141.158 114.841-255.999 256.001-255.999s255.999 114.841 255.999 255.999c0 141.16-114.841 256.001-255.999 256.001zm0-490.842c-129.493 0-234.843 105.35-234.843 234.841 0 129.493 105.35 234.841 234.843 234.841s234.841-105.35 234.841-234.841-105.35-234.841-234.841-234.841z"/><g fill="#f2f2f2"><path d="m93.920837 228.48424h327.86569v55.947498h-327.86569z"/><path d="m94.802574-283.03333h327.86569v55.947498h-327.86569z" transform="rotate(90)"/></g></svg>