<svg enable-background="new 0 0 64 64" height="64" viewBox="0 0 64 64" width="64" xmlns="http://www.w3.org/2000/svg"><g fill="none" stroke-width="4.267" transform="matrix(.01236471 .99992355 -.99992355 .01236471 0 0)"><path d="m14.834634-51.239441c6.371715 0 11.50129 5.129575 11.50129 11.501289v11.77644c0 6.371714-5.129575 11.501289-11.50129 11.501289-6.371714 0-11.5012891-5.129575-11.5012891-11.501289v-11.77644c0-6.371714 5.1295751-11.501289 11.5012891-11.501289z" stroke="#356200"/><path d="m14.773748-48.570278c6.371715 0 11.50129 5.129575 11.50129 11.501289v11.77644c0 6.371714-5.129575 11.501289-11.50129 11.501289-6.3717139 0-11.501289-5.129575-11.501289-11.501289v-11.77644c0-6.371714 5.1295751-11.501289 11.501289-11.501289z" stroke="#7d9074"/><path d="m47.381069-50.25383c6.371714 0 11.50129 5.129575 11.50129 11.501289v11.77644c0 6.371714-5.129576 11.501289-11.50129 11.501289s-11.501289-5.129575-11.501289-11.501289v-11.77644c0-6.371714 5.129575-11.501289 11.501289-11.501289z" stroke="#515151"/><path d="m47.320183-47.584663c6.371714 0 11.501289 5.129575 11.501289 11.501289v11.77644c0 6.371714-5.129575 11.501289-11.501289 11.501289-6.371715 0-11.50129-5.129575-11.50129-11.501289v-11.77644c0-6.371714 5.129575-11.501289 11.50129-11.501289z" stroke="#7c7c7c"/></g><g fill="#ccc"><rect height="18.405447" ry="4.241425" width="6.965277" x="24.709217" y="21.090387"/><rect height="18.405447" ry="4.241425" width="6.965277" x="33.082012" y="21.303345"/></g></svg>