<svg enable-background="new 0 0 512 512" viewBox="0 0 512 512" xmlns="http://www.w3.org/2000/svg"><g stroke="#000"><rect fill="#de8787" height="169.79747" ry="4.218498" stroke-width="4.67244" transform="matrix(-.99999558 -.00297267 .00298205 -.99999555 0 0)" width="76.759132" x="-175.30302" y="-242.6983"/><rect fill="#d35f5f" height="194.57874" ry="4.218498" stroke-width="4.67244" width="88.250015" x="91.748428" y="132.06248"/><rect fill="#a02c2c" height="169.94217" ry="4.222093" stroke-width="4.67245" transform="matrix(.67849982 .73460056 -.7356649 .67734567 0 0)" width="76.693871" x="104.45238" y="-97.039093"/><rect fill="#c83737" height="169.92395" ry="4.221641" stroke-width="4.67245" transform="matrix(-.72694564 .68669501 -.68783746 -.72586475 0 0)" width="76.702095" x="-97.298988" y="-276.05035"/><rect fill="#ff7f2a" height="169.79747" ry="4.218498" stroke-width="4.67244" transform="matrix(-.99999558 -.00297267 .00298205 -.99999555 0 0)" width="76.759132" x="-419.85931" y="-243.06003"/><rect fill="#d45500" height="194.57874" ry="4.218498" stroke-width="4.67244" width="88.250015" x="336.30252" y="133.1512"/><rect fill="#a40" height="169.94217" ry="4.222093" stroke-width="4.67245" transform="matrix(.67849982 .73460056 -.7356649 .67734567 0 0)" width="76.693871" x="270.90118" y="-275.95023"/><rect fill="#803300" height="169.92395" ry="4.221641" stroke-width="4.67245" transform="matrix(-.72694564 .68669501 -.68783746 -.72586475 0 0)" width="76.702095" x="-274.06357" y="-444.77609"/><rect fill="#0fc" height="169.79747" ry="4.218498" stroke-width="4.67244" transform="matrix(.9999993 -.00118262 .00118635 .9999993 0 0)" width="76.759132" x="220.0965" y="268.23785"/><rect fill="#00b3b3" height="194.57874" ry="4.218498" stroke-width="4.67244" transform="matrix(-.99999137 .00415535 -.00416846 -.99999131 0 0)" width="88.250015" x="-302.1257" y="-380.04681"/><g stroke-width="4.67245"><rect fill="#00a2a2" height="169.94106" ry="4.222066" transform="matrix(-.68155158 -.73177007 .73283989 -.68040113 0 0)" width="76.694374" x="-539.08167" y="-155.16403"/><rect fill="#006565" height="169.92506" ry="4.221668" transform="matrix(.72408167 -.68971424 .69085266 .72299557 0 0)" width="76.701591" x="-163.64659" y="366.69989"/></g></g></svg>