<?xml version="1.0" encoding="iso-8859-1"?>
<!-- Generator: Adobe Illustrator 19.0.0, SVG Export Plug-In . SVG Version: 6.00 Build 0)  -->
<svg version="1.1" id="Layer_1" xmlns="http://www.w3.org/2000/svg" x="0px" y="0px"
     viewBox="0 0 512 512" style="enable-background:new 0 0 512 512;" xml:space="preserve">
<polygon style="fill:#298983;" points="358.206,345.663 357.688,227.522 292.942,227.806 293.462,345.948 325.975,378.178 "/>
<rect x="359.234" y="336.67" transform="matrix(0.7102 0.704 -0.704 0.7102 381.6591 -165.2999)" style="fill:#A5F2E5;" width="64.748" height="88.511"/>
<path d="M462.868,366.489l-57.464-56.96c-1.514-1.501-3.559-2.342-5.69-2.342c-0.012,0-0.024,0-0.036,0
	c-2.144,0.01-4.197,0.871-5.705,2.392L374.3,329.428l-0.484-110.058c-0.019-4.452-3.635-8.047-8.082-8.047c-0.012,0-0.025,0-0.037,0
	l-80.91,0.356c-2.144,0.01-4.197,0.87-5.705,2.392s-2.352,3.582-2.342,5.726l0.484,110.059l-19.848-19.674
	c-3.169-3.143-8.287-3.121-11.43,0.051l-56.96,57.464c-3.143,3.169-3.12,8.287,0.051,11.43l32.136,31.855
	c3.169,3.143,8.287,3.121,11.43-0.051l0,0c3.143-3.169,3.12-8.287-0.051-11.43l-26.396-26.164l45.58-45.983l120.207,119.152
	l-45.58,45.983l-62.014-61.471c-3.169-3.143-8.287-3.121-11.43,0.051l0,0c-3.143,3.169-3.12,8.287,0.051,11.43l67.754,67.162
	c1.514,1.501,3.559,2.342,5.69,2.342c0.012,0,0.024,0,0.036,0c0.035,0,0.069-0.005,0.103-0.005c0.031,0,0.061,0.004,0.092,0.004
	c0.012,0,0.024,0,0.036,0c2.144-0.01,4.197-0.871,5.705-2.392l130.535-131.686C466.061,374.75,466.039,369.632,462.868,366.489z
	 M383.439,435.138l-45.983-45.581l62.308-62.858l45.983,45.58L383.439,435.138z M292.942,227.806l64.745-0.285l0.519,118.141
	l-32.23,32.515l-32.515-32.23L292.942,227.806z"/>
<path style="fill:#62D9C7;" d="M264.35,431.016l62.014,61.471l45.58-45.983L251.738,327.351l-45.58,45.983l26.396,26.164
	c3.171,3.143,3.193,8.261,0.051,11.43l0,0l20.316,20.138C256.061,427.895,261.179,427.874,264.35,431.016z"/>
<polygon style="fill:#298983;" points="153.794,166.333 154.313,284.474 219.058,284.189 218.539,166.049 186.024,133.818 "/>
<path d="M235.259,292.201l-0.484-110.058l19.848,19.674c1.576,1.563,3.633,2.342,5.69,2.342c2.08,0,4.16-0.799,5.741-2.392
	l56.96-57.464c3.143-3.169,3.12-8.287-0.051-11.43l-32.136-31.855c-3.169-3.141-8.287-3.121-11.43,0.051l0,0
	c-3.143,3.171-3.12,8.287,0.051,11.43l26.396,26.165l-45.58,45.983L140.057,65.492l45.58-45.983L247.65,80.98
	c3.169,3.143,8.287,3.121,11.43-0.05l0,0c3.143-3.171,3.12-8.287-0.051-11.431L191.275,2.338c-1.614-1.6-3.733-2.375-5.84-2.336
	c-2.107-0.02-4.219,0.773-5.821,2.387L49.081,134.076c-3.143,3.171-3.12,8.289,0.051,11.431l57.464,56.96
	c1.514,1.501,3.559,2.342,5.69,2.342c0.012,0,0.024,0,0.036,0c2.144-0.01,4.197-0.871,5.705-2.392l19.673-19.848l0.484,110.058
	c0.01,2.144,0.871,4.197,2.392,5.705c1.514,1.501,3.559,2.342,5.69,2.342c0.012,0,0.024,0,0.036,0l80.91-0.356
	C231.675,300.3,235.278,296.665,235.259,292.201z M219.058,284.189l-64.745,0.285l-0.519-118.141l32.23-32.515l32.515,32.23
	L219.058,284.189z M66.253,139.716l62.308-62.858l45.983,45.581l-62.308,62.858L66.253,139.716z"/>
<rect x="88.025" y="86.823" transform="matrix(-0.7102 -0.704 0.704 -0.7102 113.6271 308.9317)" style="fill:#A5F2E5;" width="64.748" height="88.511"/>
<path style="fill:#62D9C7;" d="M247.651,80.98l-62.014-61.471l-45.581,45.983l120.207,119.155l45.58-45.983l-26.396-26.165
	c-3.171-3.143-3.193-8.26-0.051-11.43l-20.316-20.138C255.939,84.1,250.821,84.122,247.651,80.98z"/>
<g>
</g>
<g>
</g>
<g>
</g>
<g>
</g>
<g>
</g>
<g>
</g>
<g>
</g>
<g>
</g>
<g>
</g>
<g>
</g>
<g>
</g>
<g>
</g>
<g>
</g>
<g>
</g>
<g>
</g>
</svg>
