<svg enable-background="new 0 0 512 512" viewBox="0 0 512 512" xmlns="http://www.w3.org/2000/svg"><g fill="#f2f2f2"><g fill-rule="evenodd"><path d="m35.979671 12.962944h446.017089v77.321869h-446.017089z" fill="#666" stroke-width="1.0905"/><path d="m45.104263 22.958824h426.740937v57.075775h-426.740937z" fill="#ccc" stroke-width=".916437"/><path d="m35.747097 107.06576h446.017093v77.32187h-446.017093z" fill="#666" stroke-width="1.0905"/><path d="m44.87167 117.06164h426.74094v57.07577h-426.74094z" fill="#ccc" stroke-width=".916437"/><path d="m37.098015 198.83862h446.017085v77.32187h-446.017085z" fill="#666" stroke-width="1.0905"/><path d="m46.22261 208.8345h426.74094v57.07578h-426.74094z" fill="#ccc" stroke-width=".916437"/></g><path d="m215.91461 286.19522h91.62609v115.46206h-91.62609z" fill="#666" stroke-width="1.2011"/><path d="m224.32861 293.36823h74.47742v98.46283h-74.47742z" fill="#ccc"/><g stroke-linejoin="round"><path d="m168.23517 342.06965 94.54786.18875 94.54787.18877-47.4374 81.78647-47.4374 81.78648-47.11046-81.97523z" fill="#666" stroke-width="1.43794"/><path d="m184.17275 349.94172 79.03401.15778 79.03401.15779-39.65365 68.36656-39.65365 68.36657-39.38036-68.52435z" fill="#ccc" stroke-width="1.202"/></g></g></svg>