<svg clip-rule="evenodd" fill-rule="evenodd" height="2048" image-rendering="optimizeQuality" shape-rendering="geometricPrecision" text-rendering="geometricPrecision" viewBox="0 0 2048 2048" width="2048" xmlns="http://www.w3.org/2000/svg"><circle cx="767" cy="769" fill="#b3e5fc" r="452" stroke="#373435" stroke-width="2.08347"/><g fill-rule="nonzero"><path d="m405 407c100-100 231-150 362-150s262 50 362 150 150 231 150 362-50 262-150 362c-100 100-231 150-362 150s-262-50-362-150c-100-100-150-231-150-362s50-262 150-362zm362-86c-115 0-229 44-317 131-87 87-131 202-131 317s44 229 131 317c87 87 202 131 317 131s229-44 317-131c87-87 131-202 131-317s-44-229-131-317c-87-87-202-131-317-131z" fill="#01579b"/><path d="m578 1006c14 11 16 31 5 45s-31 16-45 5c-6-5-11-9-16-14-6-5-11-10-15-14-72-72-108-166-108-260s36-188 108-260c2-2 6-6 12-11 13-12 33-11 45 2s11 33-2 45c-2 1-5 5-9 9-59 59-89 137-89 214 0 78 30 155 89 214 4 4 9 8 13 12 5 4 9 8 13 11z" fill="#e1f5fe"/><path d="m1115 1066 222 222-46 45-222-222z" fill="#01579b"/><path d="m1262 1355 93-93c10-10 23-15 36-15s26 5 36 15l352 349c10 10 15 23 15 36s-5 26-15 36l-93 93c-10 10-23 15-36 15s-26-5-36-15l-352-349c-10-10-15-23-15-36s5-26 15-36z" fill="#003761"/><path d="m1309 1308 46-46c10-10 23-15 36-15s26 5 36 15l352 349c10 10 15 23 15 36s-5 26-15 36l-47 47-422-422z" fill="#00406f"/><path d="m1262 1355 47-47 422 422-46 46c-10 10-23 15-36 15s-26-5-36-15l-352-349c-10-10-15-23-15-36s5-26 15-36z" fill="#003761"/></g><path d="m0 0h2048v2048h-2048z" fill="none"/></svg>