<?xml version="1.0" encoding="UTF-8" standalone="no"?>
<svg
   enable-background="new 0 0 512 512"
   viewBox="0 0 512 512"
   version="1.1"
   id="svg7"
   sodipodi:docname="czk_save.svg"
   xml:space="preserve"
   inkscape:version="1.4 (e7c3feb100, 2024-10-09)"
   xmlns:inkscape="http://www.inkscape.org/namespaces/inkscape"
   xmlns:sodipodi="http://sodipodi.sourceforge.net/DTD/sodipodi-0.dtd"
   xmlns="http://www.w3.org/2000/svg"
   xmlns:svg="http://www.w3.org/2000/svg"><defs
     id="defs7" /><sodipodi:namedview
     id="namedview7"
     pagecolor="#ffffff"
     bordercolor="#000000"
     borderopacity="0.25"
     inkscape:showpageshadow="2"
     inkscape:pageopacity="0.0"
     inkscape:pagecheckerboard="0"
     inkscape:deskcolor="#d1d1d1"
     inkscape:zoom="1.1357422"
     inkscape:cx="472.37833"
     inkscape:cy="379.92777"
     inkscape:window-width="2560"
     inkscape:window-height="1371"
     inkscape:window-x="0"
     inkscape:window-y="0"
     inkscape:window-maximized="1"
     inkscape:current-layer="svg7" /><path
     style="fill:#6e83b7;fill-opacity:1;stroke-width:0.944476"
     d="m 75.92144,262.99274 3.081686,-152.54859 27.664994,-0.44024 25.4638,-1.76097 -0.88048,51.45254 3.08169,31.6417 63.72744,3.08169 61.56132,1.38709 -1.79605,-37.4312 7.04385,-52.33302 35.7099,1.77556 31.74774,1.33533 57.16729,48.83692 53.64536,45.31499 -2.20121,107.65929 -4.84264,103.69703 -178.10626,5.28289 -182.948911,-3.96216 z m 187.6699,68.49152 c 13.10358,-2.98743 25.25534,-14.46367 29.71153,-28.05983 1.63902,-5.00078 1.8051,-6.29389 1.78756,-13.91801 -0.0179,-7.75928 -0.16542,-8.81723 -1.92088,-13.77039 -4.81706,-13.59173 -15.49715,-23.60407 -29.18347,-27.35886 -4.18742,-1.1488 -6.03431,-1.30482 -12.42383,-1.04953 -12.26616,0.4901 -19.77247,3.74833 -28.45047,12.34938 -9.9941,9.90547 -14.28078,24.56943 -11.41218,39.03892 4.03383,20.34694 23.33125,35.39851 43.56412,33.97906 2.39699,-0.16816 6.14442,-0.713 8.32762,-1.21074 z"
     id="path10"
     sodipodi:nodetypes="cccccccccccccccccccssssssssss" /><path
     style="fill:#edeff1;fill-opacity:1;stroke-width:0.944476"
     d="m 136.13074,149.11137 5.72313,-39.10746 54.88598,1.76096 54.44573,-2.64144 5.72313,34.26481 -3.08169,43.95011 -54.00548,3.08169 -58.84815,-2.64145 z"
     id="path11"
     sodipodi:nodetypes="ccccccccc" /><g
     style="clip-rule:evenodd;display:inline;fill-rule:evenodd;image-rendering:optimizeQuality;shape-rendering:geometricPrecision;text-rendering:geometricPrecision"
     id="g8"
     transform="matrix(0.25215706,0,0,0.25215706,4.6973772,-32.775802)"><path
       d="M 0,0 H 2048 V 2048 H 0 Z"
       fill="none"
       id="path1-3" /><path
       d="m 236.71658,507.59377 h 82.08745 V 1779.509 h -82.08745 z"
       stroke-width="0.678476"
       id="path2-6" /><path
       d="m 474.29746,533.31919 h 82.08745 V 931.4893 h -82.08745 z"
       stroke-width="0.379612"
       id="path3-7" /><path
       d="m 1022.7429,849.58334 v 82.08745 H 503.09757 v -82.08745 z"
       stroke-width="0.43367"
       id="path4-5" /><path
       d="m 966.21052,532.48314 h 82.08738 v 398.1701 h -82.08738 z"
       stroke-width="0.379612"
       id="path5-3" /><path
       d="M 235.65532,1746.6133 H 1781.701 v 85.1226 H 235.65532 Z"
       stroke-width="0.761729"
       id="path6-5" /><path
       d="m 236.6738,507.31956 h 1076.3544 v 85.1226 H 236.6738 Z"
       stroke-width="0.635575"
       id="path7-6" /><path
       d="m 1311.7633,507.6448 469.3371,399.07317 -55.1405,64.84894 -469.3371,-399.07317 z"
       stroke-width="0.480842"
       id="path8" /><path
       d="m 1699.1531,904.94712 h 82.0874 v 925.90568 h -82.0874 z"
       stroke-width="0.57888"
       id="path9" /><ellipse
       id="ellipse9"
       ry="174.51003"
       rx="172.11137"
       cy="1282.9382"
       cx="984.88251"
       style="stroke-width:1.031" /></g></svg>
