<?xml version="1.0" encoding="UTF-8" standalone="no"?>
<svg
   enable-background="new 0 0 512 512"
   viewBox="0 0 512 512"
   version="1.1"
   id="svg25"
   sodipodi:docname="czk_compare (copy).svg"
   inkscape:version="1.4 (e7c3feb100, 2024-10-09)"
   xmlns:inkscape="http://www.inkscape.org/namespaces/inkscape"
   xmlns:sodipodi="http://sodipodi.sourceforge.net/DTD/sodipodi-0.dtd"
   xmlns="http://www.w3.org/2000/svg"
   xmlns:svg="http://www.w3.org/2000/svg">
  <defs
     id="defs25" />
  <sodipodi:namedview
     id="namedview25"
     pagecolor="#ffffff"
     bordercolor="#000000"
     borderopacity="0.25"
     inkscape:showpageshadow="2"
     inkscape:pageopacity="0.0"
     inkscape:pagecheckerboard="0"
     inkscape:deskcolor="#d1d1d1"
     inkscape:zoom="0.56787109"
     inkscape:cx="109.17971"
     inkscape:cy="286.15649"
     inkscape:window-width="2560"
     inkscape:window-height="1371"
     inkscape:window-x="0"
     inkscape:window-y="0"
     inkscape:window-maximized="1"
     inkscape:current-layer="svg25" />
  <g
     inkscape:groupmode="layer"
     id="layer2"
     inkscape:label="back"
     style="fill:#916f6f">
    <g
       inkscape:groupmode="layer"
       id="layer4-2"
       inkscape:label="background"
       transform="translate(-593.83407,-150.70122)"
       style="fill:#916f6f">
      <rect
         style="fill:#80e5ff;stroke-width:1.81877;stroke-dasharray:none"
         id="rect25-7"
         width="420.36511"
         height="315.96329"
         x="608.81982"
         y="202.17734" />
      <path
         sodipodi:type="star"
         style="fill:#ffff00;stroke-width:1.517;stroke-dasharray:none"
         id="path30-0"
         inkscape:flatsided="false"
         sodipodi:sides="5"
         sodipodi:cx="640.99054"
         sodipodi:cy="230.68616"
         sodipodi:r1="17.326704"
         sodipodi:r2="8.663352"
         sodipodi:arg1="0.47501076"
         sodipodi:arg2="1.1033293"
         inkscape:rounded="0"
         inkscape:randomized="0"
         d="m 656.39897,238.61049 -11.50449,-0.19045 -6.67896,9.36916 -3.37396,-11.00028 -10.97451,-3.45684 9.41928,-6.60809 -0.10366,-11.5056 9.19538,6.91625 10.91044,-3.65401 -3.73621,10.88256 z"
         inkscape:transform-center-x="0.85752942"
         inkscape:transform-center-y="0.81763588" />
      <path
         sodipodi:type="star"
         style="fill:#ffff00;stroke-width:1.517;stroke-dasharray:none"
         id="path31-9"
         inkscape:flatsided="false"
         sodipodi:sides="5"
         sodipodi:cx="699.98279"
         sodipodi:cy="242.13242"
         sodipodi:r1="18.369173"
         sodipodi:r2="9.1845875"
         sodipodi:arg1="0.80234569"
         sodipodi:arg2="1.4306642"
         inkscape:rounded="0"
         inkscape:randomized="0"
         d="m 712.74977,255.33964 -11.48413,-4.11267 -9.89845,7.12882 0.36258,-12.19294 -9.8387,-7.21106 11.70823,-3.42299 3.81779,-11.58549 6.8735,10.07742 12.19823,0.0508 -7.46017,9.65118 z"
         inkscape:transform-center-x="0.79284324"
         inkscape:transform-center-y="-0.98286684" />
      <path
         sodipodi:type="star"
         style="fill:#ffff00;stroke-width:1.517;stroke-dasharray:none"
         id="path32-3"
         inkscape:flatsided="false"
         sodipodi:sides="5"
         sodipodi:cx="785.38953"
         sodipodi:cy="242.57266"
         sodipodi:r1="10.239739"
         sodipodi:r2="5.1198697"
         sodipodi:arg1="1.1263771"
         sodipodi:arg2="1.7546956"
         inkscape:rounded="0"
         inkscape:randomized="0"
         d="m 789.79193,251.81772 -5.33865,-4.21152 -6.49591,2.01028 2.35566,-6.37879 -3.91923,-5.55676 6.79452,0.2692 4.07369,-5.44455 1.84359,6.54517 6.43692,2.19185 -5.65513,3.77593 z"
         inkscape:transform-center-x="-0.57862968"
         inkscape:transform-center-y="-0.41101084"
         transform="translate(2.801675,-9.3389167)" />
      <path
         sodipodi:type="star"
         style="fill:#ffff00;stroke-width:1.517;stroke-dasharray:none"
         id="path33-6"
         inkscape:flatsided="false"
         sodipodi:sides="5"
         sodipodi:cx="854.50732"
         sodipodi:cy="229.36543"
         sodipodi:r1="17.877245"
         sodipodi:r2="8.9386225"
         sodipodi:arg1="1.3975507"
         sodipodi:arg2="2.0258692"
         inkscape:rounded="0"
         inkscape:randomized="0"
         d="m 857.58901,246.97506 -7.01046,-9.5807 -11.86669,0.3436 6.94544,-9.62794 -3.99379,-11.17971 11.30297,3.63031 9.39839,-7.25305 0.0402,11.8716 9.80232,6.69708 -11.27814,3.70674 z"
         inkscape:transform-center-x="-0.95229313"
         inkscape:transform-center-y="0.77588547" />
      <path
         sodipodi:type="star"
         style="fill:#ffff00;stroke-width:1.517;stroke-dasharray:none"
         id="path34-0"
         inkscape:flatsided="false"
         sodipodi:sides="5"
         sodipodi:cx="936.39209"
         sodipodi:cy="234.64832"
         sodipodi:r1="14.587854"
         sodipodi:r2="7.2939272"
         sodipodi:arg1="1.4801364"
         sodipodi:arg2="2.108455"
         inkscape:rounded="0"
         inkscape:randomized="0"
         d="m 937.71281,249.17626 -5.05613,-8.26312 -9.67336,-0.51936 6.29626,-7.36211 -2.49529,-9.36041 8.94744,3.71308 8.13118,-5.26568 -0.76643,9.65692 7.52063,6.10604 -9.42112,2.25522 z"
         inkscape:transform-center-x="-0.40812563"
         inkscape:transform-center-y="0.99914476" />
      <path
         sodipodi:type="star"
         style="fill:#ffff00;stroke-width:1.517;stroke-dasharray:none"
         id="path35-6"
         inkscape:flatsided="false"
         sodipodi:sides="5"
         sodipodi:cx="984.37836"
         sodipodi:cy="241.25192"
         sodipodi:r1="13.133644"
         sodipodi:r2="6.5668225"
         sodipodi:arg1="1.8076451"
         sodipodi:arg2="2.4359636"
         inkscape:rounded="0"
         inkscape:randomized="0"
         d="m 981.29667,254.0189 -1.917,-8.50831 -8.09573,-3.24431 7.4995,-4.45239 0.58381,-8.70204 6.55195,5.75658 8.45654,-2.13384 -3.45018,8.01015 4.64262,7.38325 -8.68427,-0.80603 z"
         inkscape:transform-center-x="0.95229313"
         inkscape:transform-center-y="0.31345371" />
      <path
         sodipodi:type="star"
         style="fill:#ffff00;stroke-width:1.517;stroke-dasharray:none"
         id="path36-2"
         inkscape:flatsided="false"
         sodipodi:sides="5"
         sodipodi:cx="879.16077"
         sodipodi:cy="269.86758"
         sodipodi:r1="10.135103"
         sodipodi:r2="5.0675521"
         sodipodi:arg1="1.6142472"
         sodipodi:arg2="2.2425658"
         inkscape:rounded="0"
         inkscape:randomized="0"
         d="m 878.72053,279.99312 -2.71367,-6.15905 -6.61209,-1.25622 5.01904,-4.48409 -0.84852,-6.67667 5.8156,3.38773 6.08768,-2.8702 -1.4248,6.57783 4.61091,4.90279 -6.69617,0.67759 z"
         inkscape:transform-center-x="0.13604188"
         inkscape:transform-center-y="0.83751927" />
      <path
         sodipodi:type="star"
         style="fill:#ffff00;stroke-width:1.517;stroke-dasharray:none"
         id="path37-6"
         inkscape:flatsided="false"
         sodipodi:sides="5"
         sodipodi:cx="823.69043"
         sodipodi:cy="258.86157"
         sodipodi:r1="9.685297"
         sodipodi:r2="4.842649"
         sodipodi:arg1="1.5707963"
         sodipodi:arg2="2.1991149"
         inkscape:rounded="0"
         inkscape:randomized="0"
         d="m 823.69043,268.54687 -2.84644,-5.76751 -6.36483,-0.92487 4.60564,-4.48938 -1.08725,-6.33911 5.69288,2.99292 5.69287,-2.99292 -1.08724,6.33911 4.60563,4.48938 -6.36482,0.92487 z"
         inkscape:transform-center-y="0.92486353" />
      <path
         sodipodi:type="star"
         style="fill:#ffff00;stroke-width:1.517;stroke-dasharray:none"
         id="path38-1"
         inkscape:flatsided="false"
         sodipodi:sides="5"
         sodipodi:cx="791.9931"
         sodipodi:cy="273.3895"
         sodipodi:r1="14.333201"
         sodipodi:r2="7.1666012"
         sodipodi:arg1="2.3127436"
         sodipodi:arg2="2.9410621"
         inkscape:rounded="0"
         inkscape:randomized="0"
         d="m 782.30781,283.95527 2.6623,-9.13826 -6.01858,-7.37377 9.51371,-0.29188 5.15302,-8.00263 3.21749,8.95788 9.20333,2.42787 -7.52519,5.82815 0.53494,9.50314 -7.86831,-5.35589 z"
         inkscape:transform-center-x="-0.50220237"
         inkscape:transform-center-y="-0.88224956"
         transform="translate(-42.025125,-18.989131)" />
      <path
         sodipodi:type="star"
         style="fill:#ffff00;stroke-width:1.517;stroke-dasharray:none"
         id="path39-8"
         inkscape:flatsided="false"
         sodipodi:sides="5"
         sodipodi:cx="708.7876"
         sodipodi:cy="285.71625"
         sodipodi:r1="8.0937281"
         sodipodi:r2="4.0468645"
         sodipodi:arg1="2.3561945"
         sodipodi:arg2="2.984513"
         inkscape:rounded="0"
         inkscape:randomized="0"
         d="m 703.06447,291.43938 1.72609,-5.09006 -3.21453,-4.30755 5.37433,0.0687 3.10338,-4.38829 1.59542,5.13251 5.13252,1.59543 -4.3883,3.10338 0.0687,5.37432 -4.30754,-3.21452 z"
         inkscape:transform-center-x="-0.39125815"
         inkscape:transform-center-y="-0.39125815"
         transform="translate(16.498753,27.394156)" />
      <path
         sodipodi:type="star"
         style="fill:#ffff00;stroke-width:1.517;stroke-dasharray:none"
         id="path40-7"
         inkscape:flatsided="false"
         sodipodi:sides="5"
         sodipodi:cx="656.83923"
         sodipodi:cy="296.28204"
         sodipodi:r1="5.9879217"
         sodipodi:r2="2.9939611"
         sodipodi:arg1="2.1995926"
         sodipodi:arg2="2.8279111"
         inkscape:rounded="0"
         inkscape:randomized="0"
         d="m 653.31731,301.12469 0.67406,-3.91882 -2.8461,-2.77692 3.93531,-0.56991 1.76151,-3.56492 1.75811,3.5666 3.93477,0.57367 -2.84875,2.7742 0.67031,3.91946 -3.51873,-1.85205 z"
         inkscape:transform-center-x="-0.00088402456"
         inkscape:transform-center-y="-0.57095482" />
      <path
         sodipodi:type="star"
         style="fill:#ffff00;stroke-width:1.517;stroke-dasharray:none"
         id="path41-9"
         inkscape:flatsided="false"
         sodipodi:sides="5"
         sodipodi:cx="637.46863"
         sodipodi:cy="287.03696"
         sodipodi:r1="12.279482"
         sodipodi:r2="6.1397414"
         sodipodi:arg1="1.3171222"
         sodipodi:arg2="1.9454408"
         inkscape:rounded="0"
         inkscape:randomized="0"
         d="m 640.55031,298.92346 -5.32847,-6.17263 -8.10565,0.89011 4.22392,-6.97512 -3.35133,-7.43387 7.93901,1.86176 6.03441,-5.4845 0.68265,8.12575 7.0808,4.04427 -7.5171,3.16023 z"
         inkscape:transform-center-x="-0.95229313"
         inkscape:transform-center-y="0.2293752" />
      <path
         sodipodi:type="star"
         style="fill:#ffff00;stroke-width:1.517;stroke-dasharray:none"
         id="path42-2"
         inkscape:flatsided="false"
         sodipodi:sides="5"
         sodipodi:cx="694.25964"
         sodipodi:cy="298.92346"
         sodipodi:r1="11.975843"
         sodipodi:r2="5.9879222"
         sodipodi:arg1="0.94200004"
         sodipodi:arg2="1.5703186"
         inkscape:rounded="0"
         inkscape:randomized="0"
         d="m 701.3035,308.60876 -7.041,-3.69738 -7.03745,3.7041 1.34063,-7.83893 -5.69751,-5.54839 7.86955,-1.14735 3.5162,-7.13319 3.52302,7.12983 7.87064,1.13983 -5.6922,5.55383 z"
         inkscape:transform-center-x="0.0017680491"
         inkscape:transform-center-y="-1.1419096"
         transform="translate(-31.44102,34.865289)" />
      <path
         sodipodi:type="star"
         style="fill:#ffff00;stroke-width:1.517;stroke-dasharray:none"
         id="path43-0"
         inkscape:flatsided="false"
         sodipodi:sides="5"
         sodipodi:cx="773.50299"
         sodipodi:cy="307.7283"
         sodipodi:r1="2.2012038"
         sodipodi:r2="1.100602"
         sodipodi:arg1="0"
         sodipodi:arg2="0.62831853"
         inkscape:rounded="0"
         inkscape:randomized="0"
         d="m 775.70419,307.7283 -1.31079,0.64692 -0.2102,1.44655 -1.02031,-1.04673 -1.44071,0.2471 0.68021,-1.29384 -0.68021,-1.29383 1.44071,0.2471 1.02031,-1.04674 0.2102,1.44655 z"
         inkscape:transform-center-x="-0.21019626" />
      <path
         sodipodi:type="star"
         style="fill:#ffff00;stroke-width:1.517;stroke-dasharray:none"
         id="path44-2"
         inkscape:flatsided="false"
         sodipodi:sides="5"
         sodipodi:cx="817.96735"
         sodipodi:cy="298.92346"
         sodipodi:r1="33.484352"
         sodipodi:r2="16.74218"
         sodipodi:arg1="0.43424432"
         sodipodi:arg2="1.0625629"
         inkscape:rounded="0"
         inkscape:randomized="0"
         d="m 848.34396,313.01117 -22.22929,0.53835 -12.15864,18.61715 -7.38123,-20.97494 -21.46319,-5.81054 17.66743,-13.50158 -1.10634,-22.20826 18.3003,12.6305 20.77944,-7.91492 -6.35722,21.30767 z"
         inkscape:transform-center-x="1.239564"
         inkscape:transform-center-y="1.9955491"
         transform="translate(-2.4903778,19.300428)" />
      <path
         sodipodi:type="star"
         style="fill:#ffff00;stroke-width:1.517;stroke-dasharray:none"
         id="path45-3"
         inkscape:flatsided="false"
         sodipodi:sides="5"
         sodipodi:cx="888.40582"
         sodipodi:cy="293.64059"
         sodipodi:r1="11.655992"
         sodipodi:r2="5.8279967"
         sodipodi:arg1="0.18998829"
         sodipodi:arg2="0.81830682"
         inkscape:rounded="0"
         inkscape:randomized="0"
         d="m 899.85208,295.8418 -7.46307,2.05317 -2.53957,7.31187 -4.2589,-6.46333 -7.73877,-0.15578 4.83092,-6.04774 -2.24325,-7.40815 7.24457,2.72563 6.35237,-4.42271 -0.35353,7.73227 z"
         inkscape:transform-center-x="-0.44610298"
         inkscape:transform-center-y="0.68020938"
         transform="translate(21.790806,11.517997)" />
      <path
         sodipodi:type="star"
         style="fill:#ffff00;stroke-width:1.517;stroke-dasharray:none"
         id="path46-7"
         inkscape:flatsided="false"
         sodipodi:sides="5"
         sodipodi:cx="946.07739"
         sodipodi:cy="287.03696"
         sodipodi:r1="10.584106"
         sodipodi:r2="5.2920537"
         sodipodi:arg1="0.78539816"
         sodipodi:arg2="1.4137167"
         inkscape:rounded="0"
         inkscape:randomized="0"
         d="m 953.56149,294.52105 -6.65624,-2.25719 -5.63294,4.2036 0.0898,-7.02796 -5.73855,-4.05826 6.71176,-2.08633 2.08632,-6.71175 4.05826,5.73854 7.02797,-0.0898 -4.20361,5.63295 z"
         inkscape:transform-center-x="0.51164528"
         inkscape:transform-center-y="-0.51164528"
         transform="translate(15.253564,12.763186)" />
      <path
         sodipodi:type="star"
         style="fill:#ffff00;stroke-width:1.517;stroke-dasharray:none"
         id="path47-5"
         inkscape:flatsided="false"
         sodipodi:sides="5"
         sodipodi:cx="984.37836"
         sodipodi:cy="281.31384"
         sodipodi:r1="13.074483"
         sodipodi:r2="6.5372424"
         sodipodi:arg1="0.78539816"
         sodipodi:arg2="1.4137167"
         inkscape:rounded="0"
         inkscape:randomized="0"
         d="m 993.62341,290.5589 -8.2224,-2.7883 -6.95834,5.19269 0.11096,-8.6816 -7.08879,-5.01315 8.29099,-2.57723 2.57723,-8.29098 5.01314,7.08879 8.68161,-0.11097 -5.19269,6.95834 z"
         inkscape:transform-center-x="0.6320324"
         inkscape:transform-center-y="-0.6320324" />
      <path
         sodipodi:type="star"
         style="fill:#ffff00;stroke-width:1.517;stroke-dasharray:none"
         id="path48-9"
         inkscape:flatsided="false"
         sodipodi:sides="5"
         sodipodi:cx="747.52881"
         sodipodi:cy="290.5589"
         sodipodi:r1="13.82384"
         sodipodi:r2="6.911921"
         sodipodi:arg1="2.2206668"
         sodipodi:arg2="2.8489853"
         inkscape:rounded="0"
         inkscape:randomized="0"
         d="m 739.16423,301.56492 1.74645,-9.01228 -6.43401,-6.54788 9.11086,-1.12398 4.23919,-8.14251 3.88438,8.31762 9.05397,1.51553 -6.71019,6.26455 1.35648,9.07916 -8.0315,-4.44592 z"
         inkscape:transform-center-x="-0.092058392"
         inkscape:transform-center-y="-1.2322" />
      <rect
         style="fill:#99ff55;stroke-width:1.517;stroke-dasharray:none"
         id="rect48-2"
         width="420.47922"
         height="103.17697"
         x="608.74176"
         y="414.9592" />
      <rect
         style="fill:#916f6f;stroke-width:1.517;stroke-dasharray:none"
         id="rect49-2"
         width="17.16939"
         height="76.161652"
         x="941.23468"
         y="383.00946" />
      <ellipse
         style="fill:#00aa00;stroke-width:1.517;stroke-dasharray:none"
         id="path50-8"
         cx="948.71881"
         cy="372.66379"
         rx="29.055889"
         ry="27.074806" />
      <rect
         style="fill:#916f6f;stroke-width:1.517;stroke-dasharray:none"
         id="rect49-6-9"
         width="17.16939"
         height="76.161652"
         x="688.31384"
         y="396.89252" />
      <ellipse
         style="fill:#00aa00;stroke-width:1.517;stroke-dasharray:none"
         id="path50-7-7"
         cx="695.79797"
         cy="386.54684"
         rx="29.055889"
         ry="27.074806" />
      <rect
         style="fill:#916f6f;stroke-width:1.517;stroke-dasharray:none"
         id="rect49-5-3"
         width="17.16939"
         height="76.161652"
         x="813.66376"
         y="405.13757" />
      <ellipse
         style="fill:#00aa00;stroke-width:1.517;stroke-dasharray:none"
         id="path50-3-6"
         cx="821.14789"
         cy="394.7919"
         rx="29.055889"
         ry="27.074806" />
      <rect
         style="fill:#916f6f;stroke-width:1.517;stroke-dasharray:none"
         id="rect49-56-1"
         width="17.16939"
         height="76.161652"
         x="868.48236"
         y="363.91229" />
      <ellipse
         style="fill:#00aa00;stroke-width:1.517;stroke-dasharray:none"
         id="path50-2-2"
         cx="875.96649"
         cy="353.56662"
         rx="29.055889"
         ry="27.074806" />
      <rect
         style="fill:#916f6f;stroke-width:1.517;stroke-dasharray:none"
         id="rect49-9-9"
         width="17.16939"
         height="76.161652"
         x="749.2287"
         y="370.57782" />
      <ellipse
         style="fill:#00aa00;stroke-width:1.517;stroke-dasharray:none"
         id="path50-1-3"
         cx="756.71283"
         cy="360.23215"
         rx="29.055889"
         ry="27.074806" />
    </g>
    <path
       d="m 446.67269,65.419978 c 0,-13.851 -11.268,-25.119 -25.119,-25.119 H 28.200686 c -13.850999,0 -25.1189996,11.268 -25.1189996,25.119 V 356.15898 c 0,13.851 11.2680006,25.119 25.1189996,25.119 H 421.55369 c 13.851,0 25.119,-11.268 25.119,-25.119 z m -25.119,299.825002 H 28.200686 c -5.01,0 -9.085999,-4.076 -9.085999,-9.086 V 65.419978 c 0,-5.01 4.075999,-9.086 9.085999,-9.086 H 421.55369 c 5.01,0 9.086,4.076 9.086,9.086 V 356.15898 c -10e-4,5.01 -4.076,9.086 -9.086,9.086 z"
       id="path7"
       sodipodi:nodetypes="sssssssssssssssscs"
       style="fill:#000000" />
  </g>
  <g
     inkscape:groupmode="layer"
     id="layer1"
     inkscape:label="front">
    <g
       inkscape:groupmode="layer"
       id="layer4-2-1"
       inkscape:label="background"
       transform="translate(-533.65979,-23.934643)"
       style="fill:#916f6f">
      <rect
         style="fill:#80e5ff;stroke-width:1.81877;stroke-dasharray:none"
         id="rect25-7-9"
         width="420.36511"
         height="315.96329"
         x="608.81982"
         y="202.17734" />
      <path
         sodipodi:type="star"
         style="fill:#ffff00;stroke-width:1.517;stroke-dasharray:none"
         id="path30-0-4"
         inkscape:flatsided="false"
         sodipodi:sides="5"
         sodipodi:cx="640.99054"
         sodipodi:cy="230.68616"
         sodipodi:r1="17.326704"
         sodipodi:r2="8.663352"
         sodipodi:arg1="0.47501076"
         sodipodi:arg2="1.1033293"
         inkscape:rounded="0"
         inkscape:randomized="0"
         d="m 656.39897,238.61049 -11.50449,-0.19045 -6.67896,9.36916 -3.37396,-11.00028 -10.97451,-3.45684 9.41928,-6.60809 -0.10366,-11.5056 9.19538,6.91625 10.91044,-3.65401 -3.73621,10.88256 z"
         inkscape:transform-center-x="0.85752942"
         inkscape:transform-center-y="0.81763588" />
      <path
         sodipodi:type="star"
         style="fill:#ffff00;stroke-width:1.517;stroke-dasharray:none"
         id="path31-9-7"
         inkscape:flatsided="false"
         sodipodi:sides="5"
         sodipodi:cx="699.98279"
         sodipodi:cy="242.13242"
         sodipodi:r1="18.369173"
         sodipodi:r2="9.1845875"
         sodipodi:arg1="0.80234569"
         sodipodi:arg2="1.4306642"
         inkscape:rounded="0"
         inkscape:randomized="0"
         d="m 712.74977,255.33964 -11.48413,-4.11267 -9.89845,7.12882 0.36258,-12.19294 -9.8387,-7.21106 11.70823,-3.42299 3.81779,-11.58549 6.8735,10.07742 12.19823,0.0508 -7.46017,9.65118 z"
         inkscape:transform-center-x="0.79284324"
         inkscape:transform-center-y="-0.98286684" />
      <path
         sodipodi:type="star"
         style="fill:#ffff00;stroke-width:1.517;stroke-dasharray:none"
         id="path32-3-8"
         inkscape:flatsided="false"
         sodipodi:sides="5"
         sodipodi:cx="785.38953"
         sodipodi:cy="242.57266"
         sodipodi:r1="10.239739"
         sodipodi:r2="5.1198697"
         sodipodi:arg1="1.1263771"
         sodipodi:arg2="1.7546956"
         inkscape:rounded="0"
         inkscape:randomized="0"
         d="m 789.79193,251.81772 -5.33865,-4.21152 -6.49591,2.01028 2.35566,-6.37879 -3.91923,-5.55676 6.79452,0.2692 4.07369,-5.44455 1.84359,6.54517 6.43692,2.19185 -5.65513,3.77593 z"
         inkscape:transform-center-x="-0.57862968"
         inkscape:transform-center-y="-0.41101084"
         transform="translate(2.801675,-9.3389167)" />
      <path
         sodipodi:type="star"
         style="fill:#ffff00;stroke-width:1.517;stroke-dasharray:none"
         id="path33-6-4"
         inkscape:flatsided="false"
         sodipodi:sides="5"
         sodipodi:cx="854.50732"
         sodipodi:cy="229.36543"
         sodipodi:r1="17.877245"
         sodipodi:r2="8.9386225"
         sodipodi:arg1="1.3975507"
         sodipodi:arg2="2.0258692"
         inkscape:rounded="0"
         inkscape:randomized="0"
         d="m 857.58901,246.97506 -7.01046,-9.5807 -11.86669,0.3436 6.94544,-9.62794 -3.99379,-11.17971 11.30297,3.63031 9.39839,-7.25305 0.0402,11.8716 9.80232,6.69708 -11.27814,3.70674 z"
         inkscape:transform-center-x="-0.95229313"
         inkscape:transform-center-y="0.77588547" />
      <path
         sodipodi:type="star"
         style="fill:#ffff00;stroke-width:1.517;stroke-dasharray:none"
         id="path34-0-5"
         inkscape:flatsided="false"
         sodipodi:sides="5"
         sodipodi:cx="936.39209"
         sodipodi:cy="234.64832"
         sodipodi:r1="14.587854"
         sodipodi:r2="7.2939272"
         sodipodi:arg1="1.4801364"
         sodipodi:arg2="2.108455"
         inkscape:rounded="0"
         inkscape:randomized="0"
         d="m 937.71281,249.17626 -5.05613,-8.26312 -9.67336,-0.51936 6.29626,-7.36211 -2.49529,-9.36041 8.94744,3.71308 8.13118,-5.26568 -0.76643,9.65692 7.52063,6.10604 -9.42112,2.25522 z"
         inkscape:transform-center-x="-0.40812563"
         inkscape:transform-center-y="0.99914476" />
      <path
         sodipodi:type="star"
         style="fill:#ffff00;stroke-width:1.517;stroke-dasharray:none"
         id="path35-6-0"
         inkscape:flatsided="false"
         sodipodi:sides="5"
         sodipodi:cx="984.37836"
         sodipodi:cy="241.25192"
         sodipodi:r1="13.133644"
         sodipodi:r2="6.5668225"
         sodipodi:arg1="1.8076451"
         sodipodi:arg2="2.4359636"
         inkscape:rounded="0"
         inkscape:randomized="0"
         d="m 981.29667,254.0189 -1.917,-8.50831 -8.09573,-3.24431 7.4995,-4.45239 0.58381,-8.70204 6.55195,5.75658 8.45654,-2.13384 -3.45018,8.01015 4.64262,7.38325 -8.68427,-0.80603 z"
         inkscape:transform-center-x="0.95229313"
         inkscape:transform-center-y="0.31345371" />
      <path
         sodipodi:type="star"
         style="fill:#ffff00;stroke-width:1.517;stroke-dasharray:none"
         id="path36-2-3"
         inkscape:flatsided="false"
         sodipodi:sides="5"
         sodipodi:cx="879.16077"
         sodipodi:cy="269.86758"
         sodipodi:r1="10.135103"
         sodipodi:r2="5.0675521"
         sodipodi:arg1="1.6142472"
         sodipodi:arg2="2.2425658"
         inkscape:rounded="0"
         inkscape:randomized="0"
         d="m 878.72053,279.99312 -2.71367,-6.15905 -6.61209,-1.25622 5.01904,-4.48409 -0.84852,-6.67667 5.8156,3.38773 6.08768,-2.8702 -1.4248,6.57783 4.61091,4.90279 -6.69617,0.67759 z"
         inkscape:transform-center-x="0.13604188"
         inkscape:transform-center-y="0.83751927" />
      <path
         sodipodi:type="star"
         style="fill:#ffff00;stroke-width:1.517;stroke-dasharray:none"
         id="path37-6-6"
         inkscape:flatsided="false"
         sodipodi:sides="5"
         sodipodi:cx="823.69043"
         sodipodi:cy="258.86157"
         sodipodi:r1="9.685297"
         sodipodi:r2="4.842649"
         sodipodi:arg1="1.5707963"
         sodipodi:arg2="2.1991149"
         inkscape:rounded="0"
         inkscape:randomized="0"
         d="m 823.69043,268.54687 -2.84644,-5.76751 -6.36483,-0.92487 4.60564,-4.48938 -1.08725,-6.33911 5.69288,2.99292 5.69287,-2.99292 -1.08724,6.33911 4.60563,4.48938 -6.36482,0.92487 z"
         inkscape:transform-center-y="0.92486353" />
      <path
         sodipodi:type="star"
         style="fill:#ffff00;stroke-width:1.517;stroke-dasharray:none"
         id="path38-1-1"
         inkscape:flatsided="false"
         sodipodi:sides="5"
         sodipodi:cx="791.9931"
         sodipodi:cy="273.3895"
         sodipodi:r1="14.333201"
         sodipodi:r2="7.1666012"
         sodipodi:arg1="2.3127436"
         sodipodi:arg2="2.9410621"
         inkscape:rounded="0"
         inkscape:randomized="0"
         d="m 782.30781,283.95527 2.6623,-9.13826 -6.01858,-7.37377 9.51371,-0.29188 5.15302,-8.00263 3.21749,8.95788 9.20333,2.42787 -7.52519,5.82815 0.53494,9.50314 -7.86831,-5.35589 z"
         inkscape:transform-center-x="-0.50220237"
         inkscape:transform-center-y="-0.88224956"
         transform="translate(-42.025125,-18.989131)" />
      <path
         sodipodi:type="star"
         style="fill:#ffff00;stroke-width:1.517;stroke-dasharray:none"
         id="path39-8-0"
         inkscape:flatsided="false"
         sodipodi:sides="5"
         sodipodi:cx="708.7876"
         sodipodi:cy="285.71625"
         sodipodi:r1="8.0937281"
         sodipodi:r2="4.0468645"
         sodipodi:arg1="2.3561945"
         sodipodi:arg2="2.984513"
         inkscape:rounded="0"
         inkscape:randomized="0"
         d="m 703.06447,291.43938 1.72609,-5.09006 -3.21453,-4.30755 5.37433,0.0687 3.10338,-4.38829 1.59542,5.13251 5.13252,1.59543 -4.3883,3.10338 0.0687,5.37432 -4.30754,-3.21452 z"
         inkscape:transform-center-x="-0.39125815"
         inkscape:transform-center-y="-0.39125815"
         transform="translate(16.498753,27.394156)" />
      <path
         sodipodi:type="star"
         style="fill:#ffff00;stroke-width:1.517;stroke-dasharray:none"
         id="path40-7-6"
         inkscape:flatsided="false"
         sodipodi:sides="5"
         sodipodi:cx="656.83923"
         sodipodi:cy="296.28204"
         sodipodi:r1="5.9879217"
         sodipodi:r2="2.9939611"
         sodipodi:arg1="2.1995926"
         sodipodi:arg2="2.8279111"
         inkscape:rounded="0"
         inkscape:randomized="0"
         d="m 653.31731,301.12469 0.67406,-3.91882 -2.8461,-2.77692 3.93531,-0.56991 1.76151,-3.56492 1.75811,3.5666 3.93477,0.57367 -2.84875,2.7742 0.67031,3.91946 -3.51873,-1.85205 z"
         inkscape:transform-center-x="-0.00088402456"
         inkscape:transform-center-y="-0.57095482" />
      <path
         sodipodi:type="star"
         style="fill:#ffff00;stroke-width:1.517;stroke-dasharray:none"
         id="path41-9-3"
         inkscape:flatsided="false"
         sodipodi:sides="5"
         sodipodi:cx="637.46863"
         sodipodi:cy="287.03696"
         sodipodi:r1="12.279482"
         sodipodi:r2="6.1397414"
         sodipodi:arg1="1.3171222"
         sodipodi:arg2="1.9454408"
         inkscape:rounded="0"
         inkscape:randomized="0"
         d="m 640.55031,298.92346 -5.32847,-6.17263 -8.10565,0.89011 4.22392,-6.97512 -3.35133,-7.43387 7.93901,1.86176 6.03441,-5.4845 0.68265,8.12575 7.0808,4.04427 -7.5171,3.16023 z"
         inkscape:transform-center-x="-0.95229313"
         inkscape:transform-center-y="0.2293752" />
      <path
         sodipodi:type="star"
         style="fill:#ffff00;stroke-width:1.517;stroke-dasharray:none"
         id="path42-2-2"
         inkscape:flatsided="false"
         sodipodi:sides="5"
         sodipodi:cx="694.25964"
         sodipodi:cy="298.92346"
         sodipodi:r1="11.975843"
         sodipodi:r2="5.9879222"
         sodipodi:arg1="0.94200004"
         sodipodi:arg2="1.5703186"
         inkscape:rounded="0"
         inkscape:randomized="0"
         d="m 701.3035,308.60876 -7.041,-3.69738 -7.03745,3.7041 1.34063,-7.83893 -5.69751,-5.54839 7.86955,-1.14735 3.5162,-7.13319 3.52302,7.12983 7.87064,1.13983 -5.6922,5.55383 z"
         inkscape:transform-center-x="0.0017680491"
         inkscape:transform-center-y="-1.1419096"
         transform="translate(-31.44102,34.865289)" />
      <path
         sodipodi:type="star"
         style="fill:#ffff00;stroke-width:1.517;stroke-dasharray:none"
         id="path43-0-0"
         inkscape:flatsided="false"
         sodipodi:sides="5"
         sodipodi:cx="773.50299"
         sodipodi:cy="307.7283"
         sodipodi:r1="2.2012038"
         sodipodi:r2="1.100602"
         sodipodi:arg1="0"
         sodipodi:arg2="0.62831853"
         inkscape:rounded="0"
         inkscape:randomized="0"
         d="m 775.70419,307.7283 -1.31079,0.64692 -0.2102,1.44655 -1.02031,-1.04673 -1.44071,0.2471 0.68021,-1.29384 -0.68021,-1.29383 1.44071,0.2471 1.02031,-1.04674 0.2102,1.44655 z"
         inkscape:transform-center-x="-0.21019626" />
      <path
         sodipodi:type="star"
         style="fill:#ffff00;stroke-width:1.517;stroke-dasharray:none"
         id="path44-2-6"
         inkscape:flatsided="false"
         sodipodi:sides="5"
         sodipodi:cx="817.96735"
         sodipodi:cy="298.92346"
         sodipodi:r1="33.484352"
         sodipodi:r2="16.74218"
         sodipodi:arg1="0.43424432"
         sodipodi:arg2="1.0625629"
         inkscape:rounded="0"
         inkscape:randomized="0"
         d="m 848.34396,313.01117 -22.22929,0.53835 -12.15864,18.61715 -7.38123,-20.97494 -21.46319,-5.81054 17.66743,-13.50158 -1.10634,-22.20826 18.3003,12.6305 20.77944,-7.91492 -6.35722,21.30767 z"
         inkscape:transform-center-x="1.239564"
         inkscape:transform-center-y="1.9955491"
         transform="translate(-2.4903778,19.300428)" />
      <path
         sodipodi:type="star"
         style="fill:#ffff00;stroke-width:1.517;stroke-dasharray:none"
         id="path45-3-1"
         inkscape:flatsided="false"
         sodipodi:sides="5"
         sodipodi:cx="888.40582"
         sodipodi:cy="293.64059"
         sodipodi:r1="11.655992"
         sodipodi:r2="5.8279967"
         sodipodi:arg1="0.18998829"
         sodipodi:arg2="0.81830682"
         inkscape:rounded="0"
         inkscape:randomized="0"
         d="m 899.85208,295.8418 -7.46307,2.05317 -2.53957,7.31187 -4.2589,-6.46333 -7.73877,-0.15578 4.83092,-6.04774 -2.24325,-7.40815 7.24457,2.72563 6.35237,-4.42271 -0.35353,7.73227 z"
         inkscape:transform-center-x="-0.44610298"
         inkscape:transform-center-y="0.68020938"
         transform="translate(21.790806,11.517997)" />
      <path
         sodipodi:type="star"
         style="fill:#ffff00;stroke-width:1.517;stroke-dasharray:none"
         id="path46-7-5"
         inkscape:flatsided="false"
         sodipodi:sides="5"
         sodipodi:cx="946.07739"
         sodipodi:cy="287.03696"
         sodipodi:r1="10.584106"
         sodipodi:r2="5.2920537"
         sodipodi:arg1="0.78539816"
         sodipodi:arg2="1.4137167"
         inkscape:rounded="0"
         inkscape:randomized="0"
         d="m 953.56149,294.52105 -6.65624,-2.25719 -5.63294,4.2036 0.0898,-7.02796 -5.73855,-4.05826 6.71176,-2.08633 2.08632,-6.71175 4.05826,5.73854 7.02797,-0.0898 -4.20361,5.63295 z"
         inkscape:transform-center-x="0.51164528"
         inkscape:transform-center-y="-0.51164528"
         transform="translate(15.253564,12.763186)" />
      <path
         sodipodi:type="star"
         style="fill:#ffff00;stroke-width:1.517;stroke-dasharray:none"
         id="path47-5-5"
         inkscape:flatsided="false"
         sodipodi:sides="5"
         sodipodi:cx="984.37836"
         sodipodi:cy="281.31384"
         sodipodi:r1="13.074483"
         sodipodi:r2="6.5372424"
         sodipodi:arg1="0.78539816"
         sodipodi:arg2="1.4137167"
         inkscape:rounded="0"
         inkscape:randomized="0"
         d="m 993.62341,290.5589 -8.2224,-2.7883 -6.95834,5.19269 0.11096,-8.6816 -7.08879,-5.01315 8.29099,-2.57723 2.57723,-8.29098 5.01314,7.08879 8.68161,-0.11097 -5.19269,6.95834 z"
         inkscape:transform-center-x="0.6320324"
         inkscape:transform-center-y="-0.6320324" />
      <path
         sodipodi:type="star"
         style="fill:#ffff00;stroke-width:1.517;stroke-dasharray:none"
         id="path48-9-4"
         inkscape:flatsided="false"
         sodipodi:sides="5"
         sodipodi:cx="747.52881"
         sodipodi:cy="290.5589"
         sodipodi:r1="13.82384"
         sodipodi:r2="6.911921"
         sodipodi:arg1="2.2206668"
         sodipodi:arg2="2.8489853"
         inkscape:rounded="0"
         inkscape:randomized="0"
         d="m 739.16423,301.56492 1.74645,-9.01228 -6.43401,-6.54788 9.11086,-1.12398 4.23919,-8.14251 3.88438,8.31762 9.05397,1.51553 -6.71019,6.26455 1.35648,9.07916 -8.0315,-4.44592 z"
         inkscape:transform-center-x="-0.092058392"
         inkscape:transform-center-y="-1.2322" />
      <rect
         style="fill:#99ff55;stroke-width:1.517;stroke-dasharray:none"
         id="rect48-2-7"
         width="420.47922"
         height="103.17697"
         x="608.74176"
         y="414.9592" />
      <rect
         style="fill:#916f6f;stroke-width:1.517;stroke-dasharray:none"
         id="rect49-2-6"
         width="17.16939"
         height="76.161652"
         x="941.23468"
         y="383.00946" />
      <ellipse
         style="fill:#00aa00;stroke-width:1.517;stroke-dasharray:none"
         id="path50-8-5"
         cx="948.71881"
         cy="372.66379"
         rx="29.055889"
         ry="27.074806" />
      <rect
         style="fill:#916f6f;stroke-width:1.517;stroke-dasharray:none"
         id="rect49-6-9-6"
         width="17.16939"
         height="76.161652"
         x="688.31384"
         y="396.89252" />
      <ellipse
         style="fill:#00aa00;stroke-width:1.517;stroke-dasharray:none"
         id="path50-7-7-9"
         cx="695.79797"
         cy="386.54684"
         rx="29.055889"
         ry="27.074806" />
      <rect
         style="fill:#916f6f;stroke-width:1.517;stroke-dasharray:none"
         id="rect49-5-3-3"
         width="17.16939"
         height="76.161652"
         x="813.66376"
         y="405.13757" />
      <ellipse
         style="fill:#00aa00;stroke-width:1.517;stroke-dasharray:none"
         id="path50-3-6-7"
         cx="821.14789"
         cy="394.7919"
         rx="29.055889"
         ry="27.074806" />
      <rect
         style="fill:#916f6f;stroke-width:1.517;stroke-dasharray:none"
         id="rect49-56-1-4"
         width="17.16939"
         height="76.161652"
         x="868.48236"
         y="363.91229" />
      <ellipse
         style="fill:#00aa00;stroke-width:1.517;stroke-dasharray:none"
         id="path50-2-2-5"
         cx="875.96649"
         cy="353.56662"
         rx="29.055889"
         ry="27.074806" />
      <rect
         style="fill:#916f6f;stroke-width:1.517;stroke-dasharray:none"
         id="rect49-9-9-2"
         width="17.16939"
         height="76.161652"
         x="749.2287"
         y="370.57782" />
      <ellipse
         style="fill:#00aa00;stroke-width:1.517;stroke-dasharray:none"
         id="path50-1-3-5"
         cx="756.71283"
         cy="360.23215"
         rx="29.055889"
         ry="27.074806" />
    </g>
    <path
       d="m 509.58326,191.15597 c 0,-13.851 -11.268,-25.119 -25.119,-25.119 H 91.111261 c -13.850999,0 -25.119,11.268 -25.119,25.119 v 290.739 c 0,13.851 11.268001,25.119 25.119,25.119 H 484.46426 c 13.851,0 25.119,-11.268 25.119,-25.119 z m -25.119,299.825 H 91.111261 c -5.01,0 -9.085999,-4.076 -9.085999,-9.086 v -290.739 c 0,-5.01 4.075999,-9.086 9.085999,-9.086 H 484.46426 c 5.01,0 9.086,4.076 9.086,9.086 v 290.739 c -10e-4,5.01 -4.076,9.086 -9.086,9.086 z"
       id="path7-3"
       sodipodi:nodetypes="sssssssssssssssscs"
       inkscape:label="front" />
  </g>
</svg>
