<?xml version="1.0" encoding="UTF-8" standalone="no"?>
<!-- Generator: Adobe Illustrator 19.0.0, SVG Export Plug-In . SVG Version: 6.00 Build 0)  -->

<svg
   version="1.1"
   id="Layer_1"
   x="0px"
   y="0px"
   viewBox="0 0 512 512"
   style="enable-background:new 0 0 512 512;"
   xml:space="preserve"
   sodipodi:docname="czk_sort.svg"
   inkscape:version="1.4 (e7c3feb100, 2024-10-09)"
   xmlns:inkscape="http://www.inkscape.org/namespaces/inkscape"
   xmlns:sodipodi="http://sodipodi.sourceforge.net/DTD/sodipodi-0.dtd"
   xmlns="http://www.w3.org/2000/svg"
   xmlns:svg="http://www.w3.org/2000/svg"><defs
   id="defs18" /><sodipodi:namedview
   id="namedview18"
   pagecolor="#ffffff"
   bordercolor="#000000"
   borderopacity="0.25"
   inkscape:showpageshadow="2"
   inkscape:pageopacity="0.0"
   inkscape:pagecheckerboard="0"
   inkscape:deskcolor="#d1d1d1"
   inkscape:zoom="1.1357422"
   inkscape:cx="5.7231298"
   inkscape:cy="191.50473"
   inkscape:window-width="2560"
   inkscape:window-height="1371"
   inkscape:window-x="0"
   inkscape:window-y="0"
   inkscape:window-maximized="1"
   inkscape:current-layer="layer3" />























<g
   inkscape:groupmode="layer"
   id="layer3"
   inkscape:label="Layer 1"><rect
     style="fill:#de8787;stroke:#000000;stroke-width:4.67244"
     id="rect20-7-2"
     width="76.759132"
     height="169.79747"
     x="-175.30302"
     y="-242.6983"
     ry="4.2184982"
     transform="matrix(-0.99999558,-0.00297267,0.00298205,-0.99999555,0,0)" /><rect
     style="fill:#d35f5f;stroke:#000000;stroke-width:4.67244"
     id="rect19"
     width="88.250015"
     height="194.57874"
     x="91.748428"
     y="132.06248"
     ry="4.2184982" /><rect
     style="fill:#a02c2c;stroke:#000000;stroke-width:4.67245"
     id="rect20"
     width="76.693871"
     height="169.94217"
     x="104.45238"
     y="-97.039093"
     ry="4.2220931"
     transform="matrix(0.67849982,0.73460056,-0.7356649,0.67734567,0,0)" /><rect
     style="fill:#c83737;stroke:#000000;stroke-width:4.67245"
     id="rect20-7"
     width="76.702095"
     height="169.92395"
     x="-97.298988"
     y="-276.05035"
     ry="4.2216406"
     transform="matrix(-0.72694564,0.68669501,-0.68783746,-0.72586475,0,0)" /><rect
     style="fill:#ff7f2a;stroke:#000000;stroke-width:4.67244"
     id="rect20-7-2-8"
     width="76.759132"
     height="169.79747"
     x="-419.85931"
     y="-243.06003"
     ry="4.2184982"
     transform="matrix(-0.99999558,-0.00297267,0.00298205,-0.99999555,0,0)" /><rect
     style="fill:#d45500;stroke:#000000;stroke-width:4.67244"
     id="rect19-9"
     width="88.250015"
     height="194.57874"
     x="336.30252"
     y="133.1512"
     ry="4.2184982" /><rect
     style="fill:#aa4400;stroke:#000000;stroke-width:4.67245"
     id="rect20-73"
     width="76.693871"
     height="169.94217"
     x="270.90118"
     y="-275.95023"
     ry="4.2220931"
     transform="matrix(0.67849982,0.73460056,-0.7356649,0.67734567,0,0)" /><rect
     style="fill:#803300;stroke:#000000;stroke-width:4.67245"
     id="rect20-7-6"
     width="76.702095"
     height="169.92395"
     x="-274.06357"
     y="-444.77609"
     ry="4.2216406"
     transform="matrix(-0.72694564,0.68669501,-0.68783746,-0.72586475,0,0)" /><rect
     style="fill:#00ffcc;stroke:#000000;stroke-width:4.67244"
     id="rect20-7-2-1"
     width="76.759132"
     height="169.79747"
     x="220.0965"
     y="268.23785"
     ry="4.2184982"
     transform="matrix(0.9999993,-0.00118262,0.00118635,0.9999993,0,0)" /><rect
     style="fill:#00b3b3;stroke:#000000;stroke-width:4.67244;fill-opacity:1"
     id="rect19-2"
     width="88.250015"
     height="194.57874"
     x="-302.1257"
     y="-380.04681"
     ry="4.2184982"
     transform="matrix(-0.99999137,0.00415535,-0.00416846,-0.99999131,0,0)" /><rect
     style="fill:#00a2a2;stroke:#000000;stroke-width:4.67245;fill-opacity:1"
     id="rect20-9"
     width="76.694374"
     height="169.94106"
     x="-539.08167"
     y="-155.16403"
     ry="4.2220659"
     transform="matrix(-0.68155158,-0.73177007,0.73283989,-0.68040113,0,0)" /><rect
     style="fill:#006565;stroke:#000000;stroke-width:4.67245;fill-opacity:1"
     id="rect20-7-3"
     width="76.701591"
     height="169.92506"
     x="-163.64659"
     y="366.69989"
     ry="4.2216682"
     transform="matrix(0.72408167,-0.68971424,0.69085266,0.72299557,0,0)" /></g></svg>
