<svg enable-background="new 0 0 512 512" viewBox="0 0 512 512" xmlns="http://www.w3.org/2000/svg"><path d="m810.86844 36.649183h419.99996v52h-419.99996z" fill="#edeff1"/><path d="m836.86844 88.649183 20 375.999997h327.99996l20-375.999997z" fill="#edeff1"/><g fill="#d3d3d3" transform="translate(764.86844 -37.350817)"><path d="m438.723 150 1.277-24h-368l1.277 24z"/><path d="m256 457c-13.255 0-24-10.745-24-24v-212c0-13.255 10.745-24 24-24s24 10.745 24 24v212c0 13.255-10.745 24-24 24z"/><path d="m350 457c-13.255 0-24-10.745-24-24v-212c0-13.255 10.745-24 24-24s24 10.745 24 24v212c0 13.255-10.745 24-24 24z"/><path d="m162 457c13.255 0 24-10.745 24-24v-212c0-13.255-10.745-24-24-24s-24 10.745-24 24v212c0 13.255 10.745 24 24 24z"/><path d="m168 10v64h32v-32h112v32h32v-64z"/></g><g fill="#b3b3b3"><path d="m207.99792 121.95791h81.29646c60.71709 0 109.59763 48.88054 109.59763 109.59763v157.32451c0 60.71709-48.88054 109.59763-109.59763 109.59763h-81.29646c-60.71709 0-109.597636-48.88054-109.597636-109.59763v-157.32451c0-60.71709 48.880546-109.59763 109.597636-109.59763z" stroke="#000" stroke-width="8.848"/><path d="m135.20752 120.75112h226.27388c20.39121 0 36.80723 16.41602 36.80723 36.80723v92.92314c0 20.39121-16.41602 36.80723-36.80723 36.80723h-226.27388c-20.39121 0-36.807229-16.41602-36.807229-36.80723v-92.92314c0-20.39121 16.416019-36.80723 36.807229-36.80723z" stroke="#000" stroke-width="7.648"/><path d="m139.2232 198.32443h218.57617c20.3912 0 36.80722 16.41602 36.80722 36.80723v92.92315c0 20.3912-16.41602 36.80722-36.80722 36.80722h-218.57617c-20.3912 0-36.80722-16.41602-36.80722-36.80722v-92.92315c0-20.39121 16.41602-36.80723 36.80722-36.80723z"/><g stroke="#000"><path d="m112.4018 62.868443h272.81818c4.32782 0 7.81195 3.484127 7.81195 7.811944v19.721959c0 4.327817-3.48413 7.811945-7.81195 7.811945h-272.81818c-4.32782 0-7.81195-3.484128-7.81195-7.811945v-19.721959c0-4.327817 3.48413-7.811944 7.81195-7.811944z" stroke-width="7"/><path d="m147.42833 10.045573h204.3799c9.01746 0 16.27701 7.259547 16.27701 16.27701v41.092777c0 9.017464-7.25955 16.27701-16.27701 16.27701h-204.3799c-9.01746 0-16.27701-7.259546-16.27701-16.27701v-41.092777c0-9.017463 7.25955-16.27701 16.27701-16.27701z" stroke-width="7.057"/></g></g><rect fill="#fff" height="35.487885" rx="26.854687" ry="16.459324" stroke-width="3.34055" width="176.19423" x="161.25197" y="29.884533"/><rect fill="#b3b3b3" height="21.648771" ry="4.784693" width="272.56592" x="111.02435" y="66.329552"/><g fill="#fff" stroke-width="3.92154" transform="matrix(-.00080799 -.99999967 .99999882 -.00153448 0 0)"><path d="m-383.18637 150.69518h168.7946c20.50246 0 37.00806 7.34086 37.00806 16.45933v2.56924c0 9.11847-16.5056 16.45933-37.00806 16.45933h-168.7946c-20.50246 0-37.00806-7.34086-37.00806-16.45933v-2.56924c0-9.11847 16.5056-16.45933 37.00806-16.45933z"/><path d="m-381.24741 233.15419h168.79461c20.50246 0 37.00805 7.34086 37.00805 16.45933v2.56924c0 9.11847-16.50559 16.45933-37.00805 16.45933h-168.79461c-20.50246 0-37.00805-7.34086-37.00805-16.45933v-2.56924c0-9.11847 16.50559-16.45933 37.00805-16.45933z"/><path d="m-381.78952 311.56973h168.7946c20.50246 0 37.00806 7.34087 37.00806 16.45934v2.56923c0 9.11847-16.5056 16.45934-37.00806 16.45934h-168.7946c-20.50246 0-37.00806-7.34087-37.00806-16.45934v-2.56923c0-9.11847 16.5056-16.45934 37.00806-16.45934z"/></g></svg>