<?xml version="1.0" encoding="UTF-8" standalone="no"?>
<svg
        width="1024"
        height="1024"
        viewBox="0 0 1024 1024"
        version="1.1"
        id="svg1"
        sodipodi:docname="krokiet_logo.svg"
        inkscape:version="1.4.3 (0d15f75042, 2025-12-25)"
        inkscape:export-filename="krokiet_logo.png"
        inkscape:export-xdpi="96"
        inkscape:export-ydpi="96"
        xmlns:inkscape="http://www.inkscape.org/namespaces/inkscape"
        xmlns:sodipodi="http://sodipodi.sourceforge.net/DTD/sodipodi-0.dtd"
        xmlns="http://www.w3.org/2000/svg"
        xmlns:svg="http://www.w3.org/2000/svg">
    <defs
            id="defs1">
        <clipPath
                clipPathUnits="userSpaceOnUse"
                id="clipPath24">
            <rect
                    style="fill:none;stroke:#000000;stroke-width:0.999999;stroke-linecap:butt;stroke-linejoin:bevel;paint-order:stroke markers fill;stop-color:#000000"
                    id="rect24"
                    width="44.999748"
                    height="77.937294"
                    x="251.53429"
                    y="222.73541" />
        </clipPath>
        <linearGradient
                id="swatch21"
                inkscape:swatch="solid">
            <stop
                    style="stop-color:#ffffff;stop-opacity:1;"
                    offset="0"
                    id="stop21" />
        </linearGradient>
        <clipPath
                clipPathUnits="userSpaceOnUse"
                id="clipPath16">
            <rect
                    style="fill:none;stroke:#000000;stroke-linecap:butt;stroke-linejoin:bevel;paint-order:stroke markers fill;stop-color:#000000"
                    id="rect15"
                    width="45.034248"
                    height="38.955639"
                    x="262.48285"
                    y="121.00073" />
        </clipPath>
        <clipPath
                clipPathUnits="userSpaceOnUse"
                id="clipPath15">
            <rect
                    style="fill:none;stroke:#000000;stroke-linecap:butt;stroke-linejoin:bevel;paint-order:stroke markers fill;stop-color:#000000"
                    id="rect15-7"
                    width="45.034248"
                    height="38.955639"
                    x="262.48285"
                    y="121.00073" />
        </clipPath>
    </defs>
    <sodipodi:namedview
            id="namedview1"
            pagecolor="#505050"
            bordercolor="#eeeeee"
            borderopacity="1"
            inkscape:showpageshadow="0"
            inkscape:pageopacity="0"
            inkscape:pagecheckerboard="0"
            inkscape:deskcolor="#505050"
            inkscape:zoom="0.79880448"
            inkscape:cx="105.78308"
            inkscape:cy="587.75334"
            inkscape:window-width="2560"
            inkscape:window-height="1371"
            inkscape:window-x="0"
            inkscape:window-y="0"
            inkscape:window-maximized="1"
            inkscape:current-layer="svg1"
            showguides="false" />
    <path
            d="m 344.40303,28.082016 c 0.22689,5.961029 0.78092,23.611373 1.22943,39.22197 0.51974,18.102749 1.36529,29.130456 2.33354,30.443212 0.83632,1.131012 4.92299,2.938012 9.08219,4.015422 10.7443,2.78112 19.69987,0.16606 27.2545,-7.957622 2.96409,-3.186448 5.38865,-6.787386 5.38865,-8.002081 0,-1.213387 -2.64749,-6.375515 -5.882,-11.46965 -3.23582,-5.094137 -12.60558,-19.84961 -20.82375,-32.788924 -8.21686,-12.939315 -15.85328,-23.700286 -16.96796,-23.913412 -1.71881,-0.32819 -1.9655,1.264381 -1.6146,10.451085 m 25.06844,76.277884 c -1.93253,0.70084 -3.64843,1.63912 -4.07716,2.7466 -1.16874,3.01908 4.09591,13.97096 6.31071,13.1289 0.9999,-0.38048 4.30272,-1.68912 7.60319,-2.17944 l 6.216,-1.32521 -0.71364,-3.74167 c -1.47875,-9.88885 -2.43123,-13.022839 -11.70602,-9.65464 m 77.92625,5.59868 c -21.58094,2.17311 -70.762,10.37525 -82.59853,13.77613 -2.79524,0.80152 -2.89681,0.30335 13.05672,63.96959 7.20773,28.76172 14.96024,59.9424 17.22782,69.29123 2.26889,9.34883 11.21918,45.53473 19.89114,80.41307 17.66971,71.06817 25.53442,92.25488 31.66045,117.69941 6.64445,27.60194 10.43167,41.75334 11.4408,42.7536 0.92998,0.92181 17.12492,-0.84335 18.28444,-1.99267 0.55007,-0.54394 -4.61036,-21.83052 -41.29004,-170.34498 l -0.55927,-7.51565 -14.39811,3.13473 c -8.98591,1.9116 -9.33361,-8.92101 -8.3614,-9.88597 1.04607,-1.03557 35.12361,-8.99355 56.75203,-12.58402 34.70625,-5.76098 48.12311,-7.11428 78.48812,-7.91188 46.62591,-1.22383 67.74647,1.23038 133.89151,15.56091 35.84334,7.76542 37.50149,8.00078 56.06294,7.97594 16.68697,-0.0222 21.31447,-0.53608 36.27602,-4.03765 43.4877,-10.1752 64.16371,-14.64826 74.40278,-16.09831 15.76887,-2.23195 41.11459,-0.85643 57.18026,3.10277 7.07316,1.74293 12.8615,2.73012 12.8615,2.19272 0,-2.49083 -11.75872,-18.01514 -19.33183,-25.52167 -10.52665,-10.43408 -20.63116,-17.56797 -40.22418,-28.39694 -22.8473,-12.62811 -30.06292,-17.75363 -34.38967,-24.42595 -3.34529,-5.1569 -3.79776,-6.94167 -3.36772,-13.27535 0.73474,-10.82766 6.37006,-20.8041 18.82527,-33.32632 5.80417,-5.8355 12.52782,-12.07235 14.94044,-13.85982 l 4.38742,-3.25051 -3.72784,-2.4647 c -5.49409,-3.63246 -19.05877,-3.85982 -41.05655,-0.68645 -20.45308,2.94979 -42.22925,3.48326 -55.44164,1.35722 -4.59057,-0.73745 -19.72756,-4.88756 -33.63776,-9.2207 C 670.62077,127.40198 615.39679,116.22783 557.22061,110.74666 531.4686,108.32119 467.89452,107.23463 451.0308,108.93312 M 135.54818,247.49285 c 1.09618,4.72802 -0.26119,2.02536 23.63877,47.07106 22.32097,42.07108 24.55356,46.66132 25.46642,46.60381 0.36276,-0.0222 2.83914,-5.11736 7.90195,-10.09513 l 11.27961,-7.50369 -1.09565,-1.37689 c -1.43521,-1.77169 -7.35941,-8.91735 -13.16358,-15.87994 -5.80416,-6.96391 -13.69123,-16.51149 -17.52592,-21.21598 -10.86962,-13.33549 -27.24132,-31.90896 -32.57192,-36.94949 l -4.83855,-4.57635 0.90887,3.9226 m 154.45275,61.12701 c -0.43662,1.61871 -0.80335,4.96208 -0.81258,7.432 -0.0277,6.71285 -4.67102,15.01959 -10.55566,18.87941 -6.06535,3.97883 -7.84882,9.87447 -5.42031,17.90925 3.468,11.47487 19.49277,16.56508 31.71712,10.07582 16.85582,-8.94743 15.69895,-34.40503 -2.31904,-51.02766 -7.40028,-6.82661 -11.36955,-7.85563 -12.60953,-3.26882 m -68.10658,10.82503 c -9.3922,3.02172 -10.70472,3.96314 -25.89185,18.57086 -8.79989,8.46233 -17.85176,17.82423 -20.11671,20.8041 -5.11558,6.73116 -5.61552,6.4945 18.91894,8.93957 17.38347,1.73118 20.4755,2.48693 44.97304,10.9911 36.9224,12.81641 91.84429,30.42099 92.59224,29.67832 2.31507,-2.29342 -6.92015,-35.41184 -11.516,-41.29702 -2.16995,-2.7785 -2.90736,-3.02563 -4.91637,-1.64748 -8.88698,6.09307 -13.07916,7.47122 -22.81037,7.50128 -16.68565,0.051 -24.40914,-6.40689 -29.67642,-24.81298 -1.23471,-4.31485 -4.73173,-11.37552 -7.77099,-15.69037 -8.15748,-11.57818 -7.98073,-11.11399 -4.22517,-11.11399 2.49843,0 4.71193,1.81092 8.84739,7.24109 l 5.51659,7.2411 2.92056,-4.95292 c 1.60669,-2.72358 3.29913,-6.52196 3.75951,-8.4401 0.79412,-3.30937 0.49599,-3.56041 -5.82131,-4.90325 -3.6619,-0.77928 -13.01055,-1.38858 -20.77363,-1.35458 -11.24952,0.0484 -16.12502,0.70737 -24.00945,3.24527 m -39.26253,60.24575 c -0.71892,1.36244 -2.25044,5.71391 -3.40599,9.66918 -4.39402,15.04575 -19.41229,34.23113 -28.12118,35.92438 -12.12938,2.3601 -16.66058,4.03765 -26.16622,9.69141 -5.80416,3.45319 -15.81635,9.16055 -22.24974,12.68566 -6.433376,3.52378 -13.162254,8.13283 -14.953628,10.24319 -3.084121,3.63361 -3.233183,4.56065 -2.8137,17.48428 l 0.443226,13.64668 5.13932,4.40116 c 2.826896,2.42023 7.27895,4.76986 9.893472,5.21966 2.61451,0.45109 6.83175,2.19011 9.37108,3.86374 6.45714,4.25732 11.05033,5.08498 17.81349,3.20868 5.53244,-1.53503 6.0469,-1.44221 9.94096,1.8057 4.91508,4.10041 8.96744,4.34362 13.49864,0.81066 4.35839,-3.39826 4.68687,-3.34858 9.70351,1.47098 l 4.25287,4.08602 12.98627,-0.47022 c 9.07522,-4.35215 13.38713,-8.74935 16.96981,-11.90816 5.12348,-4.51881 14.72278,-12.74972 21.33161,-18.29102 12.7164,-10.66292 23.5082,-22.94715 31.41505,-35.76224 l 4.79502,-7.77067 -0.8693,-22.88176 c -0.56459,-14.88492 -1.41279,-23.39041 -2.42852,-24.33707 -0.85875,-0.79888 -9.70482,-4.18669 -19.65897,-7.52744 -15.17787,-5.09413 -20.3172,-6.20815 -31.83979,-6.90767 -12.6267,-0.7649 -13.84821,-0.63154 -15.04729,1.64487 m 20.66942,11.44741 c -1.70036,0.84075 -3.96531,3.07009 -5.03248,4.95424 -1.73466,3.06355 -1.70431,3.78399 0.28889,6.80046 3.28331,4.966 6.11548,6.03163 11.43683,4.30309 8.47673,-2.75628 8.66932,-13.34596 0.29549,-16.23952 -2.78731,-0.96364 -4.77655,-0.91135 -6.98873,0.18173 m 55.15802,1.64097 c -0.24799,0.2445 -0.004,4.58811 0.54216,9.65217 0.74267,6.88938 0.51446,10.33995 -0.90888,13.716 -1.04607,2.48038 -1.90086,5.6603 -1.90086,7.06588 0,3.59048 6.31334,10.61976 11.44739,12.74581 3.88615,1.60957 4.18823,2.11426 3.04982,5.08236 -1.9312,5.03399 -10.00821,17.10511 -18.03908,26.95603 -7.12593,8.74346 -16.10391,16.722 -41.96937,37.29861 -7.2552,5.77272 -13.85349,11.32058 -14.66079,12.32868 -0.80862,1.00943 -1.81117,6.24738 -2.22933,11.64094 l -0.76113,9.80648 3.34794,-3.92259 3.34795,-3.9226 -0.80995,5.8839 c -1.53942,11.17806 -2.45489,29.84566 -1.57504,32.11685 0.8271,2.13781 0.98408,2.14172 2.51822,0.0628 1.331,-1.80309 1.63176,1.15061 1.61329,15.81719 -0.0132,9.9176 0.43927,19.6757 1.00386,21.68276 1.1582,4.11088 3.56692,3.59048 3.63157,-0.78452 0.0409,-2.80073 0.0857,-2.80726 1.97869,-0.32688 2.53271,3.31982 2.45621,11.14408 -0.20183,20.53605 -1.64232,5.80153 -1.92197,10.14645 -1.20173,18.71861 0.5171,6.13885 1.48798,11.16238 2.16073,11.16238 0.67144,0 2.21218,-2.05936 3.42313,-4.57636 3.43765,-7.14434 4.21066,-5.42886 2.20955,4.90324 -1.59087,8.21259 -1.56977,11.51934 0.15302,24.73847 1.09355,8.39302 1.98925,17.68041 1.98925,20.63936 0,5.07714 0.1583,5.2968 2.79655,3.89774 1.53678,-0.8159 3.09071,-2.60198 3.45083,-3.96836 0.36144,-1.36766 1.2611,-2.48562 2.00244,-2.48562 0.85611,0 1.06981,3.20477 0.5857,8.82583 -0.45907,5.34127 0.0185,13.47148 1.20964,20.59361 1.08431,6.47226 2.28208,13.78659 2.66332,16.25388 0.51182,3.32114 1.00122,3.99976 1.88635,2.61507 0.75586,-1.18331 1.20173,3.44796 1.21491,12.60067 0.0132,9.32922 0.7651,16.99789 2.11853,21.57424 2.41268,8.16814 4.4969,11.14799 4.4969,6.43043 0,-6.35852 3.74633,0.35826 5.84507,10.47853 1.11861,5.39357 4.08005,13.93044 6.58244,18.97096 4.55231,9.16579 13.02639,20.24187 14.44446,18.87681 0.4142,-0.39881 0.23743,-3.92913 -0.3918,-7.84518 -0.6279,-3.91605 -0.85478,-7.59021 -0.50257,-8.16553 1.09751,-1.7887 4.36235,1.87108 4.36235,4.89017 0,9.36061 3.9455,15.89695 26.01321,43.08703 27.67531,34.10298 27.87318,34.37625 28.92847,39.95157 1.6344,8.63362 -4.42567,56.98083 -8.21552,65.54254 -2.69498,6.09047 -3.56723,22.25214 3.14188,22.01027 9.29443,0.77689 17.92223,2.03932 24.78357,-0.38702 1.92798,-0.74866 1.30907,-7.66405 2.5042,-18.97157 0.69386,-6.56774 1.94438,-10.20004 5.22242,-15.17258 6.00863,-9.1161 6.48352,-10.13075 11.67693,-24.92675 2.54065,-7.23718 7.08239,-16.93513 10.09263,-21.5507 4.01412,-6.15717 5.26201,-9.22331 4.68292,-11.51019 -0.43399,-1.71417 -1.09752,-4.96076 -1.47345,-7.21495 -0.61606,-3.69115 -0.52108,-3.8376 0.96295,-1.48142 0.90624,1.43827 4.50745,6.029 8.00315,10.20134 l 6.35556,7.58629 v 16.2709 c 0,13.1095 -1.09261,35.06141 -2.50333,51.21455 -2.28971,12.8183 -4.57015,16.3179 1.79816,16.13983 11.09538,-0.31025 10.41148,0.50439 21.40611,0.39718 10.32467,0.0118 7.05615,-44.11535 10.22733,-48.34914 6.13791,-8.19298 10.4897,-19.82607 11.92361,-31.87233 0.46961,-3.94743 1.9523,-8.94874 3.29385,-11.114 3.38224,-5.45764 4.45999,-12.46862 2.8203,-18.3538 -0.84424,-3.03086 -0.88381,-4.47699 -0.10157,-3.70163 0.70573,0.69955 2.04202,3.8716 2.97068,7.05022 1.56976,5.37393 2.13698,5.90349 8.10207,7.57451 8.00447,2.23979 74.73494,16.56314 73.78689,-22.28236 -9.68108,-44.96072 -41.82177,-172.6141 -43.5208,-180.81362 -1.04476,-5.03399 -2.20163,-9.99869 -2.5723,-11.03163 -0.37991,-1.05779 -3.96795,4.69403 -8.2063,13.15506 -4.14337,8.26881 -10.6757,19.22461 -14.51701,24.3462 l -6.98477,9.31222 -6.86607,-2.00837 c -3.77667,-1.10355 -11.61493,-4.26384 -17.41909,-7.02141 -42.6263,-20.25102 -71.35164,-55.10586 -89.59913,-108.71588 -6.53365,-19.19584 -11.14137,-40.98451 -9.09408,-43.01382 0.69518,-0.68905 6.86211,-2.7445 13.70311,-4.56589 6.841,-1.82138 15.9997,-4.40767 20.35282,-5.7479 4.35313,-1.34021 18.00611,-5.18696 30.33994,-8.54732 12.33386,-3.36165 28.06446,-7.78112 34.9569,-9.82216 6.89245,-2.04236 14.90616,-4.32531 17.80824,-5.07451 l 5.2765,-1.36115 v -9.88101 -9.87969 l -5.2765,-1.29314 c -13.35881,-3.27537 -13.19128,-3.193 -13.19128,-6.53503 0,-4.17103 -9.379,-9.0978 -17.32016,-9.0978 -6.77372,0 -9.72197,-1.01987 -9.72197,-3.36166 0,-4.7071 -12.84304,-9.70709 -33.30271,-12.96546 -2.71741,-0.4328 -6.57585,-2.21365 -8.57433,-3.95659 l -3.63288,-3.16945 3.6276,-0.0405 c 1.99453,-0.0236 3.62759,-0.28767 3.62759,-0.58709 0,-0.29942 -3.74631,-4.11087 -8.32632,-8.46886 -9.05714,-8.62055 -14.09884,-17.0332 -14.09884,-23.52378 0,-5.88518 -4.76074,-18.5473 -8.25247,-21.95212 -1.88768,-1.841 -10.71,-5.24971 -24.35637,-9.41291 -27.43128,-8.36687 -27.53286,-8.37995 -26.97618,-3.67414 l 0.43663,3.6833 -3.97981,-2.03843 c -2.92582,-1.50105 -4.08798,-3.12109 -4.3927,-6.12578 -0.37727,-3.71731 -1.15555,-4.35146 -8.61917,-7.02275 -4.51274,-1.61478 -8.40813,-2.73535 -8.65481,-2.48952 m 8.33702,24.28604 c -1.47875,1.57296 -2.6897,3.55387 -2.6897,4.39985 0,3.09099 5.49021,8.42833 8.67063,8.42833 3.87823,0 8.47803,-4.25601 8.47803,-7.84517 0,-3.60487 -4.60639,-7.84518 -8.52288,-7.84518 -1.78611,0 -4.45734,1.28792 -5.93608,2.86217 m 197.47613,83.05429 c -6.1023,1.58735 -7.75253,2.59284 -8.39098,5.11768 -1.04872,4.14094 1.5381,7.03059 6.29488,7.03059 h 3.83602 l -2.80579,3.76176 c -3.64871,4.89016 -2.94562,8.53686 1.74917,9.07295 3.91781,0.44848 4.81878,2.48038 1.63704,3.68985 -5.14197,1.95606 1.4207,10.93357 7.99127,10.93357 1.66078,0 4.75415,1.44743 6.87529,3.21652 3.67906,3.06877 3.89407,3.8389 4.65653,16.671 1.0342,17.42937 4.74491,31.38725 12.43278,46.77557 10.41966,20.85686 26.69788,34.60615 46.1169,40.1108 2.80003,0.79372 6.05624,1.25957 8.97871,1.70706 11.78589,1.80463 24.11042,0.92247 37.22094,-3.18297 25.51854,-7.99032 44.34512,-28.42701 52.07127,-56.52713 3.73972,-13.60092 3.98639,-44.21019 0.48279,-59.88485 -2.83876,-12.69743 -4.13678,-15.36348 -7.06922,-14.52404 -1.22545,0.35172 -4.66178,1.26175 -7.63642,2.02274 l -5.40711,1.38205 2.4272,14.05857 c 4.62883,26.79258 2.38102,49.90971 -6.42283,66.07863 -5.14856,9.45474 -16.7925,20.80019 -26.15568,25.48506 -21.88433,10.94925 -45.30281,8.29105 -62.44884,-7.08812 -19.6339,-17.61112 -29.12898,-45.64325 -31.38206,-92.64502 -0.64902,-13.53163 -1.13841,-16.11269 -3.55109,-18.75651 -6.39778,-7.01097 -16.37433,-8.43881 -31.50077,-4.50576 m 6.93728,3.29237 c 0,2.38363 2.33881,4.35931 3.63684,3.07139 0.45246,-0.44849 -0.18072,-1.80963 -1.40751,-3.02563 -2.0552,-2.03843 -2.22933,-2.04236 -2.22933,-0.0458 m 34.84214,24.07162 c 2.70817,41.59776 10.48443,65.11106 27.00255,81.64347 11.58723,11.59778 19.6616,14.75939 35.77079,14.01017 13.95771,-0.64984 23.38156,-4.61296 33.47684,-14.07685 13.50524,-12.66082 19.65896,-29.54757 19.54553,-53.64404 -0.0593,-12.75887 -2.75698,-29.59462 -5.41766,-33.82448 -0.94715,-1.50628 -3.68434,-1.52588 -17.17637,-0.12682 -22.226,2.30517 -50.52525,1.01072 -72.19193,-3.30152 -9.31569,-1.85408 -18.0615,-3.71208 -19.43604,-4.12787 -2.38365,-0.72176 -2.45621,-0.102 -1.57371,13.44794 m 151.97411,1.35198 -7.75383,0.57008 0.80071,5.79368 c 1.98397,14.3462 2.37443,30.92308 0.99066,42.075 -4.27001,34.40502 -22.02824,60.75433 -49.73654,74.11467 0,0 -20.87217,7.68624 -32.62707,7.93724 -28.76928,0.61425 -59.43465,-12.74743 -65.82922,-26.79746 l 39.51293,172.35238 4.36457,18.29114 c 14.32309,66.35058 12.22304,59.5632 19.96104,64.48605 10.4409,6.64094 20.68656,10.26541 29.11843,10.2994 l 7.55597,0.0314 -3.91385,-6.11663 c -2.1515,-3.36427 -3.64343,-6.38467 -3.31234,-6.71155 0.3298,-0.32689 2.72005,1.24999 5.30951,3.50418 9.94357,8.65323 25.77311,14.51097 39.28758,14.53842 l 7.63248,0.0157 -3.34531,-4.8797 c -4.95333,-7.22541 -4.16053,-8.79705 2.14886,-4.26777 6.13131,4.40375 20.1167,9.14747 26.96298,9.14747 4.25155,0 5.88726,-1.59781 3.27407,-3.19822 -1.40222,-0.85904 -3.35059,-11.02771 -2.3111,-12.05804 0.38651,-0.3844 1.36001,1.71679 2.16203,4.6692 0.80204,2.95108 5.72767,11.61478 10.94614,19.25206 9.19829,13.46102 9.48981,14.13048 9.51224,21.89589 0.0185,6.53373 -0.88381,9.93985 -4.89266,18.47148 -2.70288,5.75313 -2.21759,42.39908 -2.41678,43.3248 -0.43266,2.01752 24.5781,2.28966 26.2059,0.67617 0.5857,-0.58053 0.70842,-25.60926 1.14901,-28.42306 1.13312,-7.24764 4.40852,-13.10015 12.35758,-22.08027 8.83553,-9.97906 10.56753,-14.20499 10.1586,-24.77899 -0.25062,-6.50103 0.18997,-9.00757 1.87317,-10.6812 2.05652,-2.04237 2.48787,-2.00838 6.59564,0.52562 6.19199,3.8193 16.51417,14.59334 18.17099,18.96703 2.5037,6.60825 1.60538,19.14224 -2.07894,29.00755 -5.19472,13.91211 -6.38986,20.39093 -4.9718,26.95734 1.35606,6.27745 -1.32305,11.0587 9.7319,11.05458 4.2633,-0.002 8.03404,-0.72157 14.49389,-0.5846 9.71046,0.99161 7.14308,-1.11331 9.39483,-11.93049 2.60133,-12.49737 5.23299,-21.07346 12.0344,-39.22589 8.64425,-23.06745 8.93974,-25.45237 4.16449,-33.50677 -3.53923,-5.96887 -3.78326,-7.30254 -3.83602,-21.04076 -0.0554,-14.02326 0.0462,-14.57504 2.30847,-12.54574 2.2544,2.02273 2.3652,1.66186 2.3652,-7.6922 0,-10.14774 1.6621,-17.29993 4.78975,-20.61715 1.56976,-1.66447 1.80589,-1.56379 1.80589,0.76231 0,5.63675 1.94572,4.17232 4.94014,-3.71731 1.71222,-4.5136 4.33466,-11.4422 5.82791,-15.39747 1.5315,-4.05857 3.08808,-12.31693 3.57483,-18.95918 l 0.86139,-11.76778 2.51029,4.57636 2.51164,4.57636 1.96682,-4.57636 c 1.08299,-2.51699 2.24384,-9.70971 2.57889,-15.98193 0.53557,-10.00915 0.16621,-12.67259 -3.01948,-21.74553 -2.92979,-8.33943 -3.45085,-11.52981 -2.69895,-16.50102 l 0.93263,-6.16371 2.32959,4.30702 c 2.62769,4.85484 9.25895,8.76436 16.79776,9.90321 l 5.07734,0.76622 -4.21593,-4.42337 c -5.85034,-6.13885 -10.48839,-17.02012 -12.19798,-28.61268 -1.14764,-7.78634 -1.03289,-12.88701 0.5593,-24.75938 2.68047,-20.00259 2.56175,-23.98139 -1.34418,-45.26144 -1.84284,-10.03006 -3.88221,-26.68276 -4.53385,-37.00442 -0.65164,-10.32293 -1.49193,-19.07162 -1.86525,-19.44164 -0.37464,-0.37134 -1.641,0.2772 -2.81634,1.4422 -3.18834,3.16161 -4.9863,2.6582 -12.28503,-3.44011 -5.6472,-4.71888 -6.28565,-5.69037 -4.23309,-6.4435 3.49569,-1.28269 6.9373,-6.54942 5.32532,-8.14722 -0.71892,-0.71261 -1.30724,-3.45973 -1.30724,-6.10486 0,-5.58054 -2.38895,-8.06485 -7.94775,-8.25967 -4.54968,-0.15952 -4.75415,-0.52694 -1.61594,-2.91056 3.5524,-2.69874 -0.10421,-4.3737 -9.59929,-4.39853 -7.46232,-0.0183 -8.51762,-0.42887 -17.14867,-6.67363 -11.68748,-8.45449 -17.14999,-10.80804 -32.95447,-14.20239 -14.455,-3.10407 -20.67733,-5.76098 -19.65764,-8.39434 0.47752,-1.233 -0.84424,-2.00837 -4.33201,-2.54706 -6.66687,-1.02772 -62.2866,-2.04628 -72.13521,-1.32062 m -211.87967,16.32972 c -58.57194,16.24343 -107.74639,30.33861 -108.58931,31.12706 -2.88758,2.69873 8.80385,38.96306 19.15109,59.40107 7.74329,15.29548 11.09255,20.58313 20.79606,32.82422 14.18326,17.89354 26.27967,27.46467 48.80378,38.61527 l 13.79941,6.83055 3.72125,-4.41684 c 5.07469,-6.02248 17.11701,-30.85771 21.19179,-43.70157 5.05886,-15.94664 6.54947,-25.81324 6.61016,-43.74471 0.0739,-21.76515 -3.33741,-41.04467 -11.97505,-67.66467 -3.8136,-11.75338 -4.02729,-11.89983 -13.50918,-9.27038 m -51.44733,27.90398 c -4.29507,4.5319 -3.92045,9.67705 1.66607,22.88047 3.79382,8.96704 4.35048,11.31144 2.88228,12.13518 -1.00121,0.56224 -6.72886,1.99661 -12.72827,3.19039 -7.52034,1.49451 -11.83389,3.08706 -13.89437,5.12943 -3.49568,3.46495 -3.94814,9.78686 -0.91679,12.79157 3.98245,3.94742 8.38305,3.8742 21.42132,-0.35697 6.92939,-2.24894 12.70453,-3.95004 12.83248,-3.78006 0.12796,0.17128 2.41401,7.95893 5.07996,17.30777 2.66596,9.34883 6.53627,22.58757 8.5994,29.4194 l 3.75291,12.42155 5.21451,0.39095 c 3.57221,0.26804 6.16561,-0.37395 8.24062,-2.03844 l 3.02739,-2.42939 -8.606,-29.34228 c -4.73303,-16.13883 -8.16673,-29.80644 -7.63116,-30.37391 0.53689,-0.56616 6.26455,-1.96915 12.73091,-3.11714 13.60945,-2.41633 17.69082,-5.10853 17.69082,-11.67495 0,-5.17389 -5.04698,-9.6731 -10.85246,-9.6731 -2.14622,0 -8.3303,1.55858 -13.74267,3.46234 -5.882,2.06982 -10.31955,2.9864 -11.03451,2.27773 -0.65825,-0.65248 -2.13963,-6.7704 -3.29387,-13.5957 -1.70167,-10.06668 -2.72268,-12.96679 -5.40578,-15.35302 -4.53648,-4.03635 -11.03055,-3.89513 -15.03279,0.32818 m 231.17852,24.51488 c 0.83106,2.47385 4.94673,2.82557 4.94673,0.42233 0,-1.21207 -1.12784,-2.05674 -2.74774,-2.05674 -1.61196,0 -2.52218,0.67599 -2.19899,1.63441 m -139.19968,39.13698 c -0.85875,28.18119 -2.87174,15.72435 16.86771,104.36441 5.36489,24.09125 12.18346,54.98163 15.15018,68.64532 11.69274,53.82968 16.59727,75.0692 17.55363,76.01846 0.41553,0.41057 4.35312,0.33343 8.7511,-0.17258 9.67844,-1.11403 9.47529,0.15821 3.97717,-24.86922 -2.20954,-10.05883 -6.63521,-30.35039 -9.83674,-45.09278 -3.20021,-14.74239 -7.90553,-36.21857 -10.4554,-47.72483 -12.72826,-57.42279 -15.83878,-71.65525 -21.89622,-100.21432 -3.6078,-17.00443 -6.55869,-32.70917 -6.55869,-34.89927 0,-2.19142 -0.65298,-4.38415 -1.45106,-4.87317 -0.79806,-0.48901 -3.6764,-4.30176 -6.39644,-8.47409 l -4.94673,-7.58499 -0.75851,24.87706"
            stroke="none"
            fill="#000000"
            fill-rule="evenodd"
            id="path1"
            sodipodi:nodetypes="cccccscccccscccccccccccscccccccssccssscccsscsccccccccccccccccccccccccccccccccscsccccccccccccccccccccscccccccccccccccccccccsccccccccccccccccccscccsccsccccccsscsccscscccccccsccccscsccccssccccccccccsssscccccccsssscccscscccccccccsssscccsccccscccsscsccccccccccccccccccscccscccccccscccccccccscscssccccccsccccccccscsccccscsccccccccccccccccccssccssssccccscccccccccccscccccssccscccccccssscsccccssccscccscccssccc"
            style="fill:#ffffff;stroke:#000000;stroke-width:25.4;stroke-linecap:round;stroke-linejoin:round;stroke-dasharray:none;stroke-opacity:1;paint-order:stroke markers fill" />
    <text
            xml:space="preserve"
            style="font-size:400px;font-family:Carlito;-inkscape-font-specification:Carlito;writing-mode:lr-tb;direction:ltr;fill:#ffffff;fill-opacity:1;stroke-width:7.067;stroke:#000000;stroke-opacity:1"
            x="709.33563"
            y="995.06439"
            id="text2"><tspan
       sodipodi:role="line"
       id="tspan2"
       x="709.33563"
       y="995.06439" /></text>
    <rect
            style="fill:#000000;fill-opacity:1;stroke:none;stroke-width:25.4;stroke-linecap:round;stroke-linejoin:round;stroke-dasharray:none;stroke-opacity:1;paint-order:stroke markers fill"
            id="rect36"
            width="4.6331611"
            height="3.5632064"
            x="408.20541"
            y="610.82715" />
    <path
            d="m 632.1294,135.92128 c -9.16416,3.37118 -105.35184,47.29351 -122.13848,55.77345 -7.9482,4.01503 -13.16574,8.99382 -16.46291,15.71219 -2.50486,5.10276 -2.77762,6.69737 -2.77762,16.20906 0,10.14854 0.13988,10.83137 3.68784,17.99563 5.90795,11.9291 14.69542,18.89841 28.24483,22.40256 7.72938,1.99852 28.69148,6.5822 37.18721,4.56969 4.03356,-0.95476 22.89937,-7.11707 33.25151,-12.68272 27.27566,-14.66543 86.88764,-49.34801 89.79316,-52.24331 5.42036,-5.39968 7.57951,-11.26327 7.58151,-20.584 0.005,-18.37654 -12.16959,-37.52588 -29.3309,-46.1388 -7.9482,-3.98803 -19.82104,-4.40292 -29.03615,-1.01375 m -0.49957,10.06855 c -4.39624,1.85355 -15.86143,6.96232 -25.4782,11.35225 -67.47726,30.80352 -63.71148,29.04395 -64.34394,30.0667 -0.29974,0.48488 2.34599,1.6646 5.87798,2.62136 16.33302,4.42392 31.79479,14.74542 41.99706,28.03519 6.57636,8.56692 8.47574,12.92887 8.47574,19.46328 0,2.76732 0.16786,5.03077 0.37368,5.03077 0.20582,0 7.51257,-4.13099 16.2361,-9.17977 8.72454,-5.04977 26.20158,-15.12432 38.83877,-22.39056 21.14291,-12.15505 23.16318,-13.5567 25.31434,-17.56274 5.41237,-10.08255 0.28176,-28.63904 -11.05455,-39.98228 -11.11748,-11.12431 -22.14904,-13.39375 -36.23698,-7.4542 M 518.72645,197.6293 c -8.3089,2.69634 -14.64747,7.62714 -17.46106,13.5807 -4.63004,9.80062 -2.1032,25.22287 5.61019,34.23968 4.02057,4.70085 13.50145,9.65765 21.22884,11.10131 6.65031,1.24169 19.51611,2.8327 20.79894,2.26555 10.1143,-4.47154 -3.17935,-6.50622 -8.26899,-7.75592 -18.08446,-6.59372 -23.53511,-5.90327 -33.0464,-16.43232 -2.16813,-4.15698 -1.69854,-13.08382 0.95419,-18.15558 6.47845,-12.38399 21.91724,-14.93538 39.16749,-6.47143 20.47846,10.04756 32.63406,32.98699 21.93922,41.40394 -3.68085,2.8973 -3.0424,3.49116 3.07836,2.85831 6.32959,-0.65384 13.5584,-4.42793 16.19614,-8.45794 5.17757,-7.90709 -2.16414,-21.88369 -18.21941,-34.68558 -16.87456,-13.45473 -36.44181,-18.5335 -51.97751,-13.49072 m 4.99572,16.73193 c -7.87526,2.77732 -11.28335,11.86612 -6.16073,16.43101 3.37811,3.01127 37.11224,13.83663 42.12995,13.51972 3.72382,-0.23594 4.01756,-0.47588 4.31131,-3.52815 0.90822,-9.4437 -18.79392,-25.46282 -32.78695,-26.65752 -3.02241,-0.25794 -6.39452,-0.15296 -7.49358,0.23494"
            style="fill:#000000;fill-rule:evenodd;stroke:none;stroke-width:0.999451"
            id="path1-5" />
    <path
            style="fill:#fed580;fill-opacity:1;fill-rule:nonzero;stroke:none;stroke-width:5.50646;stroke-linecap:round;stroke-linejoin:round;stroke-dasharray:none;stroke-opacity:1;paint-order:stroke markers fill"
            d="m 644.34121,142.84551 c -6.80164,0.0111 -12.99677,3.29126 -19.13276,5.83261 -24.31743,10.86211 -48.5084,22.008 -72.7167,33.11127 -3.52993,1.74766 -7.26757,3.15651 -10.59039,5.28232 -0.69764,0.74361 0.72027,1.22765 1.22009,1.45239 4.96408,1.93157 10.21881,3.09375 15.05348,5.35954 15.35736,6.7109 28.77622,18.18591 37.14055,32.76725 2.45568,4.32556 2.91466,9.39913 2.86576,14.28841 0.0118,0.68049 0.0764,2.2309 1.09027,1.32784 19.21186,-10.82501 38.26968,-21.92765 57.38157,-32.93033 6.42265,-3.85871 13.17993,-7.26189 19.08263,-11.91676 4.31343,-3.39607 5.51858,-9.26584 5.38188,-14.48828 -0.40537,-10.15088 -4.75789,-19.97927 -11.38333,-27.59933 -5.18255,-5.65795 -11.57815,-10.76167 -19.30343,-12.20044 -2.00672,-0.3634 -4.06017,-0.28457 -6.08962,-0.28649 z"
            id="path37" />
    <path
            style="fill:#ffe680;fill-opacity:1;fill-rule:nonzero;stroke:none;stroke-width:2.75324;stroke-linecap:round;stroke-linejoin:round;stroke-dasharray:none;stroke-opacity:1;paint-order:stroke markers fill"
            d="m 530.83825,195.607 c -7.275,0.006 -14.60111,1.98595 -20.7532,5.90526 -4.51051,2.88088 -8.38861,7.07239 -9.98516,12.26861 -1.38836,4.45044 -1.49847,9.21622 -0.96179,13.818 0.92642,6.50624 3.38401,12.92447 7.6648,17.96915 3.04332,3.41703 7.08806,5.74857 11.1658,7.71747 4.0053,1.90227 8.27971,3.23316 12.67419,3.84666 5.16926,0.80534 10.359,1.55935 15.5823,1.8956 1.22001,0.004 2.54701,0.23764 3.62469,-0.49535 1.10143,-0.61517 2.52776,-1.24574 2.85187,-2.59125 0.0926,-1.1937 -1.1826,-1.85669 -2.09505,-2.30279 -3.7943,-1.65393 -7.99373,-1.99555 -11.86679,-3.41845 -5.97352,-2.13776 -12.10071,-3.83015 -18.01211,-6.14135 -4.32378,-1.74525 -8.24247,-4.46199 -11.41078,-7.88314 -0.87622,-0.93642 -1.95078,-1.81225 -2.18488,-3.15092 -0.90972,-2.82774 -0.75113,-5.85614 -0.58974,-8.77172 0.41305,-4.01862 1.77866,-8.02549 4.37059,-11.1865 3.13925,-4.07501 7.99083,-6.59617 12.99245,-7.46938 2.74404,-0.52673 5.56838,-0.36352 8.34942,-0.2087 7.48279,0.90467 14.63072,3.84762 20.9482,7.8999 6.40219,4.20439 12.01971,9.73813 16.01856,16.28448 2.01196,3.39381 3.63806,7.12432 4.12018,11.05668 0.0271,2.0225 0.25421,4.13041 -0.5479,6.05454 -0.59721,1.78384 -1.71849,3.30176 -3.16046,4.50448 -0.79079,0.8185 -1.95555,1.41763 -2.34602,2.54073 -0.054,0.75754 0.94724,0.85659 1.50369,0.84217 5.96442,0.17945 11.95571,-1.73918 16.78504,-5.2265 2.48817,-1.79795 4.63651,-4.4033 4.9774,-7.55335 0.60456,-4.47846 -1.09609,-8.87945 -3.27279,-12.70625 -4.04683,-6.91909 -9.82052,-12.65517 -15.99356,-17.68814 -9.93437,-8.02986 -21.84974,-14.03747 -34.64124,-15.53564 -1.92664,-0.2434 -3.86801,-0.28562 -5.80771,-0.2743 z"
            id="path38" />
    <path
            style="fill:#ffd980;fill-opacity:1;fill-rule:nonzero;stroke:none;stroke-width:2.75324;stroke-linecap:round;stroke-linejoin:round;stroke-dasharray:none;stroke-opacity:1;paint-order:stroke markers fill"
            d="m 527.23869,213.84719 c -1.83483,0.0193 -3.73501,0.19986 -5.34298,1.16771 -3.43648,1.74212 -6.17405,5.05892 -6.79595,8.90908 -0.18655,1.67132 -0.11364,3.44801 0.79014,4.92038 0.66924,1.30811 1.72629,2.41877 3.10094,2.98221 4.58432,2.27369 9.46361,3.87098 14.28239,5.56155 7.58105,2.52299 15.21949,4.93617 23.03147,6.64139 2.0288,0.51953 4.1753,0.52843 6.21277,0.0559 1.29201,-0.38728 1.50269,-1.91833 1.61311,-3.06332 0.30932,-3.30148 -1.42482,-6.34697 -3.25216,-8.95377 -3.87883,-5.25086 -9.10037,-9.37398 -14.66762,-12.70722 -4.50509,-2.60464 -9.4164,-4.75019 -14.62842,-5.34122 -1.44303,-0.13674 -2.89442,-0.19223 -4.34369,-0.17266 z"
            id="path39" />
    <path
            style="fill:#fedf94;fill-opacity:1;fill-rule:nonzero;stroke:none;stroke-width:7.78733;stroke-linecap:round;stroke-linejoin:round;stroke-dasharray:none;stroke-opacity:1;paint-order:stroke markers fill"
            d="m 530.22375,195.66331 c -9.60993,-0.0973 -19.45527,3.67454 -25.98974,10.8309 -5.92721,6.56689 -6.30449,16.26436 -4.4812,24.51022 1.72698,8.02578 6.22626,15.77556 13.55966,19.84308 6.73017,4.17466 14.49624,6.23016 22.30678,7.09937 4.53972,0.474 9.17075,1.54587 13.73064,0.81249 1.4243,-0.60222 4.04508,-1.81779 3.11709,-3.75897 -2.14519,-2.40605 -5.75282,-2.46011 -8.62568,-3.4709 -8.4359,-2.51606 -16.91752,-5.07558 -25.05574,-8.46709 -4.42134,-2.26146 -8.58435,-5.45214 -11.35908,-9.57835 -1.26382,-3.3045 -0.67279,-7.01013 -0.58573,-10.44595 0.89638,-8.1075 7.35064,-15.08456 15.30008,-16.90369 5.11845,-1.33909 10.56668,-0.65627 15.68179,0.43283 10.22968,2.78113 19.53927,8.62652 26.49532,16.63321 5.00708,5.68799 9.38514,12.91028 8.83852,20.75532 0.13534,3.68074 -2.69916,6.26753 -5.07171,8.66555 -0.7795,0.54959 -1.1544,2.09651 0.20463,2.07255 6.68811,0.1772 13.56029,-2.1023 18.68699,-6.43377 3.60582,-3.02588 4.57738,-8.21825 3.12188,-12.57179 -3.26072,-10.3892 -11.38839,-18.32174 -19.63949,-24.99333 -9.80536,-7.71273 -21.50461,-13.52787 -34.0128,-14.86825 -2.07002,-0.15183 -4.14718,-0.18912 -6.22221,-0.16343 z"
            id="path40" />
    <rect
            style="fill:#000000;stroke-width:29.9836"
            id="rect2"
            width="17.328342"
            height="15.063221"
            x="404.36993"
            y="606.40863" />
</svg>
